G04*
G04 #@! TF.GenerationSoftware,Altium Limited,Altium Designer,21.2.0 (30)*
G04*
G04 Layer_Physical_Order=2*
G04 Layer_Color=16711680*
%FSLAX44Y44*%
%MOMM*%
G71*
G04*
G04 #@! TF.SameCoordinates,64555E3A-4CFD-498E-A74A-373E445EAC9D*
G04*
G04*
G04 #@! TF.FilePolarity,Positive*
G04*
G01*
G75*
%ADD14C,1.0000*%
%ADD32R,2.8000X0.5500*%
%ADD56C,0.3000*%
%ADD57C,0.6000*%
%ADD58C,0.5000*%
%ADD60C,0.3500*%
%ADD62C,1.5000*%
%ADD63R,1.5000X1.5000*%
%ADD64C,1.5240*%
%ADD65C,0.5000*%
%ADD66C,1.0000*%
G36*
X1375000Y540000D02*
X915000Y540000D01*
X885000Y570000D01*
Y817500D01*
X860000Y842500D01*
Y845962D01*
X861270Y846130D01*
X861481Y845340D01*
X862185Y844121D01*
X867264Y849200D01*
X862185Y854279D01*
X861481Y853060D01*
X861270Y852271D01*
X860000Y852438D01*
Y950000D01*
X1375000Y950000D01*
X1375000Y540000D01*
D02*
G37*
G36*
X842500Y987500D02*
X842500Y857223D01*
X842119Y857121D01*
X840181Y856002D01*
X838598Y854419D01*
X837479Y852481D01*
X836900Y850319D01*
Y848081D01*
X837479Y845919D01*
X838598Y843981D01*
X840181Y842398D01*
X842119Y841279D01*
X842500Y841177D01*
X842500Y573117D01*
X769534D01*
X732426Y610225D01*
X730442Y611551D01*
X728101Y612017D01*
X587403D01*
X586719Y612701D01*
X584781Y613820D01*
X582619Y614399D01*
X580381D01*
X578219Y613820D01*
X576281Y612701D01*
X574698Y611119D01*
X573579Y609180D01*
X573000Y607019D01*
Y604781D01*
X573579Y602619D01*
X574698Y600680D01*
X576281Y599098D01*
X578219Y597979D01*
X580381Y597399D01*
X582619D01*
X584781Y597979D01*
X586719Y599098D01*
X587403Y599782D01*
X725566D01*
X745349Y580000D01*
X762674Y562674D01*
X764659Y561348D01*
X767000Y560882D01*
X842500D01*
Y357303D01*
X841819Y357121D01*
X839881Y356002D01*
X838299Y354419D01*
X837180Y352481D01*
X836600Y350319D01*
Y348081D01*
X837180Y345919D01*
X838299Y343981D01*
X839881Y342398D01*
X841819Y341279D01*
X842500Y341097D01*
Y12500D01*
X715000D01*
Y570000D01*
X245000Y570000D01*
Y312427D01*
X243827Y311941D01*
X195078Y360689D01*
Y762311D01*
X244289Y811522D01*
X345540D01*
X346198Y810381D01*
X347781Y808798D01*
X349719Y807679D01*
X351881Y807100D01*
X354119D01*
X356281Y807679D01*
X358219Y808798D01*
X359802Y810381D01*
X360921Y812319D01*
X361500Y814481D01*
Y816719D01*
X360921Y818881D01*
X359802Y820819D01*
X358219Y822402D01*
X356281Y823521D01*
X354119Y824100D01*
X351881D01*
X349719Y823521D01*
X347781Y822402D01*
X346198Y820819D01*
X345540Y819678D01*
X242600D01*
X241039Y819368D01*
X239716Y818484D01*
X239716Y818484D01*
X188116Y766884D01*
X187232Y765561D01*
X186922Y764000D01*
X186922Y764000D01*
Y359000D01*
X186922Y359000D01*
X187232Y357439D01*
X188116Y356116D01*
X242922Y301311D01*
Y173204D01*
X241796Y172078D01*
X69469D01*
X68811Y172518D01*
X67250Y172828D01*
X65689Y172518D01*
X64366Y171634D01*
X63482Y170311D01*
X63172Y168750D01*
X63482Y167189D01*
X64366Y165866D01*
X65116Y165116D01*
X66439Y164232D01*
X68000Y163922D01*
X68000Y163922D01*
X243485D01*
X243485Y163922D01*
X243730Y163970D01*
X245000Y162928D01*
Y12500D01*
X30000D01*
X12500Y30000D01*
Y169936D01*
X13770Y170462D01*
X104816Y79416D01*
X106139Y78532D01*
X107700Y78222D01*
X157701D01*
X158402Y77007D01*
X160007Y75402D01*
X161973Y74267D01*
X164165Y73680D01*
X166435D01*
X168627Y74267D01*
X170593Y75402D01*
X172198Y77007D01*
X173333Y78973D01*
X173920Y81165D01*
Y83435D01*
X173333Y85627D01*
X172198Y87593D01*
X170593Y89198D01*
X168627Y90332D01*
X166435Y90920D01*
X164165D01*
X161973Y90332D01*
X160007Y89198D01*
X158402Y87593D01*
X157701Y86378D01*
X109389D01*
X20078Y175689D01*
Y297455D01*
X19768Y299016D01*
X18884Y300339D01*
X18884Y300339D01*
X-11571Y330794D01*
X-12894Y331678D01*
X-14455Y331988D01*
X-14455Y331988D01*
X-122500D01*
Y340160D01*
X-109400D01*
Y347660D01*
X-109400D01*
Y348160D01*
X-109400D01*
Y355660D01*
X-122500D01*
Y364160D01*
X-109400D01*
Y371660D01*
X-109400D01*
Y372160D01*
X-109400D01*
Y379660D01*
X-122500D01*
Y387831D01*
X-59599D01*
X89316Y238916D01*
X90639Y238032D01*
X92200Y237722D01*
X93761Y238032D01*
X95084Y238916D01*
X95968Y240239D01*
X96278Y241800D01*
X95968Y243361D01*
X95084Y244684D01*
X-55026Y394794D01*
X-56349Y395678D01*
X-57910Y395988D01*
X-57910Y395988D01*
X-122500D01*
Y403831D01*
X-50199D01*
X114716Y238916D01*
X116039Y238032D01*
X117600Y237722D01*
X119161Y238032D01*
X120484Y238916D01*
X121368Y240239D01*
X121678Y241800D01*
X121368Y243361D01*
X120484Y244684D01*
X-45626Y410794D01*
X-46949Y411678D01*
X-48510Y411988D01*
X-48510Y411988D01*
X-122500D01*
Y419831D01*
X-40799D01*
X140116Y238916D01*
X141439Y238032D01*
X143000Y237722D01*
X144561Y238032D01*
X145884Y238916D01*
X146768Y240239D01*
X147078Y241800D01*
X146768Y243361D01*
X145884Y244684D01*
X-36226Y426794D01*
X-37549Y427678D01*
X-39110Y427988D01*
X-39110Y427988D01*
X-122500D01*
Y435831D01*
X-31399D01*
X165516Y238916D01*
X166839Y238032D01*
X168400Y237722D01*
X169961Y238032D01*
X171284Y238916D01*
X172168Y240239D01*
X172478Y241800D01*
X172168Y243361D01*
X171284Y244684D01*
X-26826Y442794D01*
X-28149Y443678D01*
X-29710Y443988D01*
X-29710Y443988D01*
X-122500D01*
Y451832D01*
X-22000D01*
X190916Y238916D01*
X192239Y238032D01*
X193800Y237722D01*
X195361Y238032D01*
X196684Y238916D01*
X197568Y240239D01*
X197878Y241800D01*
X197568Y243361D01*
X196684Y244684D01*
X-17426Y458794D01*
X-18750Y459678D01*
X-20310Y459989D01*
X-20310Y459989D01*
X-122500D01*
Y467500D01*
X-90000D01*
X-80000Y477500D01*
Y492500D01*
X-86159Y498658D01*
X-85672Y499832D01*
X-44599D01*
X216316Y238916D01*
X217639Y238032D01*
X219200Y237722D01*
X220761Y238032D01*
X222084Y238916D01*
X222968Y240239D01*
X223278Y241800D01*
X222968Y243361D01*
X222084Y244684D01*
X-40026Y506794D01*
X-41349Y507678D01*
X-42910Y507989D01*
X-42910Y507989D01*
X-122500D01*
Y516160D01*
X-109400D01*
Y516342D01*
X-3888D01*
X96431Y416022D01*
Y410000D01*
X96500Y409655D01*
Y409304D01*
X96635Y408979D01*
X96703Y408634D01*
X96898Y408342D01*
X97033Y408017D01*
X97281Y407769D01*
X97477Y407477D01*
X97769Y407281D01*
X98017Y407033D01*
X98342Y406898D01*
X98634Y406703D01*
X98979Y406634D01*
X99304Y406500D01*
X99655D01*
X100000Y406431D01*
X100345Y406500D01*
X100696D01*
X101021Y406634D01*
X101366Y406703D01*
X101658Y406898D01*
X101983Y407033D01*
X102231Y407281D01*
X102523Y407477D01*
X102719Y407769D01*
X102967Y408017D01*
X103102Y408342D01*
X103297Y408634D01*
X103365Y408979D01*
X103500Y409304D01*
Y409655D01*
X103569Y410000D01*
Y417500D01*
X103297Y418866D01*
X102523Y420023D01*
X113Y522434D01*
X-1045Y523207D01*
X-2410Y523479D01*
X-109400D01*
Y523660D01*
X-122500D01*
Y532160D01*
X-109400D01*
Y532341D01*
X20112D01*
X96431Y456022D01*
Y450000D01*
X96500Y449655D01*
Y449304D01*
X96635Y448979D01*
X96703Y448634D01*
X96898Y448342D01*
X97033Y448017D01*
X97281Y447769D01*
X97477Y447477D01*
X97769Y447281D01*
X98017Y447033D01*
X98342Y446898D01*
X98634Y446703D01*
X98979Y446634D01*
X99304Y446500D01*
X99655D01*
X100000Y446431D01*
X100345Y446500D01*
X100696D01*
X101021Y446634D01*
X101366Y446703D01*
X101658Y446898D01*
X101983Y447033D01*
X102231Y447281D01*
X102523Y447477D01*
X102719Y447769D01*
X102967Y448017D01*
X103102Y448342D01*
X103297Y448634D01*
X103365Y448979D01*
X103500Y449304D01*
Y449655D01*
X103569Y450000D01*
Y457500D01*
X103297Y458866D01*
X102523Y460023D01*
X24113Y538433D01*
X22956Y539207D01*
X21590Y539479D01*
X-109400D01*
Y539660D01*
X-122500D01*
Y548160D01*
X-109400D01*
Y548341D01*
X46612D01*
X96431Y498522D01*
Y490000D01*
X96500Y489655D01*
Y489304D01*
X96635Y488979D01*
X96703Y488634D01*
X96898Y488342D01*
X97033Y488017D01*
X97281Y487769D01*
X97477Y487477D01*
X97769Y487281D01*
X98017Y487033D01*
X98342Y486898D01*
X98634Y486703D01*
X98979Y486634D01*
X99304Y486500D01*
X99655D01*
X100000Y486431D01*
X100345Y486500D01*
X100696D01*
X101021Y486634D01*
X101366Y486703D01*
X101658Y486898D01*
X101983Y487033D01*
X102231Y487281D01*
X102523Y487477D01*
X102719Y487769D01*
X102967Y488017D01*
X103102Y488342D01*
X103297Y488634D01*
X103365Y488979D01*
X103500Y489304D01*
Y489655D01*
X103569Y490000D01*
Y500000D01*
X103297Y501366D01*
X102523Y502523D01*
X50613Y554433D01*
X49456Y555207D01*
X48090Y555479D01*
X-109400D01*
Y555660D01*
X-122500D01*
Y564160D01*
X-109400D01*
Y564341D01*
X60612D01*
X97477Y527477D01*
X97477Y527477D01*
X97769Y527281D01*
X98017Y527033D01*
X98342Y526898D01*
X98634Y526703D01*
X98979Y526634D01*
X99304Y526500D01*
X99655D01*
X100000Y526431D01*
X100345Y526500D01*
X100696D01*
X101021Y526634D01*
X101366Y526703D01*
X101658Y526898D01*
X101983Y527033D01*
X102231Y527281D01*
X102523Y527477D01*
X102719Y527769D01*
X102967Y528017D01*
X103102Y528342D01*
X103297Y528634D01*
X103365Y528979D01*
X103500Y529304D01*
Y529655D01*
X103569Y530000D01*
X103500Y530345D01*
Y530696D01*
X103365Y531021D01*
X103297Y531366D01*
X103102Y531658D01*
X102967Y531983D01*
X102719Y532231D01*
X102523Y532523D01*
X64613Y570433D01*
X63456Y571207D01*
X62090Y571479D01*
X-109400D01*
Y571660D01*
X-122500D01*
Y580160D01*
X-109400D01*
Y580341D01*
X69612D01*
X82477Y567477D01*
X83635Y566703D01*
X85000Y566431D01*
X100000D01*
X100345Y566500D01*
X100696D01*
X101021Y566634D01*
X101366Y566703D01*
X101658Y566898D01*
X101983Y567033D01*
X102231Y567281D01*
X102523Y567477D01*
X102719Y567769D01*
X102967Y568017D01*
X103102Y568342D01*
X103297Y568634D01*
X103365Y568979D01*
X103500Y569304D01*
Y569655D01*
X103569Y570000D01*
X103500Y570345D01*
Y570696D01*
X103365Y571021D01*
X103297Y571366D01*
X103102Y571658D01*
X102967Y571983D01*
X102719Y572231D01*
X102523Y572523D01*
X102231Y572719D01*
X101983Y572967D01*
X101658Y573102D01*
X101366Y573297D01*
X101021Y573366D01*
X100696Y573500D01*
X100345D01*
X100000Y573569D01*
X86478D01*
X73614Y586433D01*
X72456Y587207D01*
X71090Y587479D01*
X-109400D01*
Y587660D01*
X-122500D01*
Y596160D01*
X-109400D01*
Y596341D01*
X49910D01*
X51276Y596613D01*
X52433Y597387D01*
X61478Y606431D01*
X100000D01*
X100345Y606500D01*
X100696D01*
X101021Y606634D01*
X101366Y606703D01*
X101658Y606898D01*
X101983Y607033D01*
X102231Y607281D01*
X102523Y607477D01*
X102719Y607769D01*
X102967Y608017D01*
X103102Y608342D01*
X103297Y608634D01*
X103365Y608979D01*
X103500Y609304D01*
Y609655D01*
X103569Y610000D01*
X103500Y610345D01*
Y610696D01*
X103365Y611021D01*
X103297Y611366D01*
X103102Y611658D01*
X102967Y611983D01*
X102719Y612231D01*
X102523Y612523D01*
X102231Y612719D01*
X101983Y612967D01*
X101658Y613102D01*
X101366Y613297D01*
X101021Y613366D01*
X100696Y613500D01*
X100345D01*
X100000Y613569D01*
X60000D01*
X58634Y613297D01*
X57477Y612523D01*
X48432Y603479D01*
X-109400D01*
Y603660D01*
X-122500D01*
Y612160D01*
X-109400D01*
Y612341D01*
X15910D01*
X17276Y612613D01*
X18433Y613387D01*
X51478Y646431D01*
X100250D01*
X100595Y646500D01*
X100946D01*
X101271Y646635D01*
X101616Y646703D01*
X101908Y646898D01*
X102233Y647033D01*
X102481Y647281D01*
X102773Y647477D01*
X102969Y647769D01*
X103217Y648017D01*
X103352Y648342D01*
X103547Y648634D01*
X103616Y648979D01*
X103750Y649304D01*
Y649655D01*
X103819Y650000D01*
X103750Y650345D01*
Y650696D01*
X103616Y651021D01*
X103547Y651366D01*
X103352Y651658D01*
X103217Y651983D01*
X102969Y652231D01*
X102773Y652523D01*
X102481Y652719D01*
X102233Y652967D01*
X101908Y653102D01*
X101616Y653297D01*
X101271Y653365D01*
X100946Y653500D01*
X100595D01*
X100250Y653569D01*
X50000D01*
X48634Y653297D01*
X47477Y652523D01*
X14432Y619478D01*
X-109400D01*
Y619660D01*
X-122500D01*
Y628160D01*
X-109400D01*
Y628341D01*
X-8090D01*
X-6725Y628613D01*
X-5567Y629386D01*
X51478Y686431D01*
X100250D01*
X100595Y686500D01*
X100946D01*
X101271Y686635D01*
X101616Y686703D01*
X101908Y686898D01*
X102233Y687033D01*
X102481Y687281D01*
X102773Y687477D01*
X102969Y687769D01*
X103217Y688017D01*
X103352Y688342D01*
X103547Y688634D01*
X103616Y688979D01*
X103750Y689304D01*
Y689655D01*
X103819Y690000D01*
X103750Y690345D01*
Y690696D01*
X103616Y691021D01*
X103547Y691366D01*
X103352Y691658D01*
X103217Y691983D01*
X102969Y692231D01*
X102773Y692523D01*
X102481Y692719D01*
X102233Y692967D01*
X101908Y693102D01*
X101616Y693297D01*
X101271Y693365D01*
X100946Y693500D01*
X100595D01*
X100250Y693569D01*
X50000D01*
X48634Y693297D01*
X47477Y692523D01*
X-9568Y635479D01*
X-109400D01*
Y635660D01*
X-122500D01*
Y644160D01*
X-109400D01*
Y644341D01*
X-32090D01*
X-30724Y644613D01*
X-29567Y645387D01*
X51478Y726431D01*
X100000D01*
X100345Y726500D01*
X100696D01*
X101021Y726635D01*
X101366Y726703D01*
X101658Y726898D01*
X101983Y727033D01*
X102231Y727281D01*
X102523Y727477D01*
X102719Y727769D01*
X102967Y728017D01*
X103102Y728342D01*
X103297Y728634D01*
X103365Y728979D01*
X103500Y729304D01*
Y729655D01*
X103569Y730000D01*
X103500Y730345D01*
Y730696D01*
X103365Y731021D01*
X103297Y731366D01*
X103102Y731658D01*
X102967Y731983D01*
X102719Y732231D01*
X102523Y732523D01*
X102231Y732719D01*
X101983Y732967D01*
X101658Y733102D01*
X101366Y733297D01*
X101021Y733365D01*
X100696Y733500D01*
X100345D01*
X100000Y733569D01*
X50000D01*
X48634Y733297D01*
X47477Y732523D01*
X-33568Y651478D01*
X-109400D01*
Y651660D01*
X-122500D01*
Y659922D01*
X-34000D01*
X-34000Y659922D01*
X-32439Y660232D01*
X-31116Y661116D01*
X49689Y741922D01*
X167311D01*
X174922Y734311D01*
Y349000D01*
X174922Y349000D01*
X175232Y347439D01*
X176116Y346116D01*
X232922Y289311D01*
Y193689D01*
X225311Y186078D01*
X43593D01*
X42561Y186768D01*
X41000Y187078D01*
X39439Y186768D01*
X38116Y185884D01*
X37232Y184561D01*
X36922Y183000D01*
X37232Y181439D01*
X38116Y180116D01*
X39116Y179116D01*
X39116Y179116D01*
X40439Y178232D01*
X42000Y177922D01*
X42000Y177922D01*
X227000D01*
X227000Y177922D01*
X228561Y178232D01*
X229884Y179116D01*
X239884Y189116D01*
X239884Y189116D01*
X240768Y190439D01*
X241078Y192000D01*
X241078Y192000D01*
Y291000D01*
X240768Y292561D01*
X239884Y293884D01*
X239884Y293884D01*
X183078Y350689D01*
Y736000D01*
X182768Y737561D01*
X181884Y738884D01*
X181884Y738884D01*
X171884Y748884D01*
X170561Y749768D01*
X169000Y750078D01*
X169000Y750078D01*
X48000D01*
X46439Y749768D01*
X45116Y748884D01*
X-35689Y668078D01*
X-122500D01*
Y675831D01*
X-96090D01*
X-96090Y675831D01*
X-94529Y676142D01*
X-93206Y677026D01*
X-93116Y677116D01*
X-92232Y678439D01*
X-91922Y680000D01*
X-92232Y681561D01*
X-93116Y682884D01*
X-94439Y683768D01*
X-96000Y684078D01*
X-96454Y683988D01*
X-122500D01*
Y688347D01*
X-101074D01*
X-70311Y688347D01*
D01*
X-70311D01*
X-68360Y688736D01*
X-66707Y689841D01*
X-53895Y702652D01*
X-52790Y704306D01*
X-52402Y706257D01*
Y721477D01*
X-52790Y723428D01*
X-53895Y725081D01*
X-55549Y726187D01*
X-57500Y726574D01*
X-69266D01*
X-69752Y727748D01*
X-60000Y737500D01*
X2500D01*
X12500Y747500D01*
Y962500D01*
X37500Y987500D01*
X842500Y987500D01*
D02*
G37*
G36*
X-93383Y716327D02*
X-106106Y703604D01*
X-122500D01*
Y717500D01*
X-93869D01*
X-93383Y716327D01*
D02*
G37*
G36*
X-57500Y706257D02*
X-70311Y693445D01*
X-101074Y693446D01*
X-137499D01*
X-138392Y694348D01*
X-138354Y698506D01*
X-103994D01*
X-81023Y721477D01*
X-57500D01*
Y706257D01*
D02*
G37*
G36*
X11922Y295766D02*
Y257398D01*
X10748Y256912D01*
X-0Y267660D01*
X-65160D01*
X-80000Y282500D01*
Y285361D01*
X-60131D01*
X-59155Y285555D01*
X-58328Y286108D01*
X-57936Y286500D01*
X-56804D01*
X-55517Y287033D01*
X-54533Y288017D01*
X-54000Y289304D01*
Y290696D01*
X-54533Y291983D01*
X-55517Y292967D01*
X-56804Y293500D01*
X-58196D01*
X-59482Y292967D01*
X-60467Y291983D01*
X-61000Y290696D01*
Y290646D01*
X-61187Y290459D01*
X-109400D01*
Y291660D01*
X-122500D01*
Y300160D01*
X-109400D01*
Y307660D01*
X-109400D01*
Y308160D01*
X-109400D01*
Y315660D01*
X-109400D01*
Y316160D01*
X-109400D01*
Y323660D01*
X-108201Y323832D01*
X-16144D01*
X11922Y295766D01*
D02*
G37*
G36*
X692300Y85500D02*
X282300D01*
X282300Y545500D01*
X301702Y564902D01*
X692300Y564902D01*
X692300Y85500D01*
D02*
G37*
G36*
X1378000Y47500D02*
X917999D01*
X887999Y77500D01*
Y325000D01*
X874308Y338691D01*
X874711Y340084D01*
X875579Y340586D01*
X868733Y347432D01*
X870500Y349200D01*
X868733Y350968D01*
X875579Y357815D01*
X874360Y358518D01*
X871817Y359200D01*
X869184D01*
X866640Y358518D01*
X864360Y357202D01*
X864173Y357015D01*
X862999Y357501D01*
Y457500D01*
X1378000Y457500D01*
X1378000Y47500D01*
D02*
G37*
%LPC*%
G36*
X1349835Y935920D02*
X1347565D01*
X1345373Y935332D01*
X1343407Y934198D01*
X1341802Y932593D01*
X1340668Y930627D01*
X1340080Y928435D01*
Y926165D01*
X1340668Y923973D01*
X1341802Y922007D01*
X1342583Y921227D01*
Y908018D01*
X1329418D01*
Y921227D01*
X1330198Y922007D01*
X1331333Y923973D01*
X1331920Y926165D01*
Y928435D01*
X1331333Y930627D01*
X1330198Y932593D01*
X1328593Y934198D01*
X1326627Y935332D01*
X1324435Y935920D01*
X1322165D01*
X1319973Y935332D01*
X1318007Y934198D01*
X1316402Y932593D01*
X1315267Y930627D01*
X1314680Y928435D01*
Y926165D01*
X1315267Y923973D01*
X1316402Y922007D01*
X1317182Y921227D01*
Y908018D01*
X1110000D01*
X1107659Y907552D01*
X1105674Y906226D01*
X1023674Y824226D01*
X1022348Y822241D01*
X1021882Y819900D01*
Y819781D01*
X1022348Y817440D01*
X1023674Y815455D01*
X1025659Y814129D01*
X1028000Y813664D01*
X1030341Y814129D01*
X1032326Y815455D01*
X1032565Y815813D01*
X1112534Y895782D01*
X1157996D01*
Y647861D01*
X1122835Y612700D01*
X1122604D01*
X1121317Y612167D01*
X1120333Y611183D01*
X1119800Y609896D01*
Y608504D01*
X1120333Y607217D01*
X1121317Y606233D01*
X1122604Y605700D01*
X1122426Y604504D01*
X1038300D01*
X1037227Y604290D01*
X1036317Y603683D01*
X1022117Y589482D01*
X1016530D01*
X1016367Y589645D01*
X1015080Y590178D01*
X1013688D01*
X1012401Y589645D01*
X1011417Y588661D01*
X1010884Y587374D01*
Y585982D01*
X1011417Y584696D01*
X1012401Y583711D01*
X1013688Y583178D01*
X1015080D01*
X1016367Y583711D01*
X1016530Y583874D01*
X1023278D01*
X1024351Y584088D01*
X1025261Y584696D01*
X1039461Y598896D01*
X1064735D01*
X1065261Y597626D01*
X1057139Y589504D01*
X1049196D01*
X1049033Y589667D01*
X1047746Y590200D01*
X1046354D01*
X1045067Y589667D01*
X1044083Y588683D01*
X1043550Y587396D01*
Y586004D01*
X1044083Y584717D01*
X1045067Y583733D01*
X1046354Y583200D01*
X1047746D01*
X1049033Y583733D01*
X1049196Y583896D01*
X1058300D01*
X1059373Y584110D01*
X1060283Y584717D01*
X1069461Y593896D01*
X1081436D01*
X1081755Y593384D01*
X1081917Y592626D01*
X1079491Y590200D01*
X1078854D01*
X1077567Y589667D01*
X1076583Y588683D01*
X1076050Y587396D01*
Y586004D01*
X1076583Y584717D01*
X1077567Y583733D01*
X1078854Y583200D01*
X1080246D01*
X1081533Y583733D01*
X1082517Y584717D01*
X1082926Y585705D01*
X1085252Y588031D01*
X1088850D01*
X1089923Y588244D01*
X1090833Y588852D01*
X1091127Y589146D01*
X1108650D01*
X1109499Y587876D01*
X1109300Y587396D01*
Y586004D01*
X1109833Y584717D01*
X1110817Y583733D01*
X1112104Y583200D01*
X1113496D01*
X1114783Y583733D01*
X1114946Y583896D01*
X1156123D01*
X1164958Y575061D01*
X1164939Y574966D01*
X1165250Y573406D01*
X1166134Y572082D01*
X1167457Y571198D01*
X1169018Y570888D01*
X1200259D01*
X1200259Y570888D01*
X1201820Y571198D01*
X1203143Y572082D01*
X1203470Y572409D01*
X1204354Y573732D01*
X1204665Y575293D01*
X1204354Y576854D01*
X1203470Y578177D01*
X1202147Y579061D01*
X1200586Y579371D01*
X1199025Y579061D01*
X1199001Y579045D01*
X1169018D01*
X1168923Y579026D01*
X1160073Y587876D01*
X1160599Y589146D01*
X1165759D01*
X1166134Y588585D01*
X1167457Y587701D01*
X1169018Y587391D01*
X1200259D01*
X1200259Y587391D01*
X1201820Y587701D01*
X1203143Y588585D01*
X1203470Y588912D01*
X1204354Y590235D01*
X1204665Y591796D01*
X1204354Y593356D01*
X1203470Y594679D01*
X1202147Y595564D01*
X1200586Y595874D01*
X1199025Y595564D01*
X1199001Y595547D01*
X1169018D01*
X1167457Y595237D01*
X1166734Y594754D01*
X1161425D01*
X1160939Y595927D01*
X1168923Y603912D01*
X1169018Y603893D01*
X1170115Y604111D01*
X1200478D01*
X1200478Y604111D01*
X1202038Y604422D01*
X1203362Y605306D01*
X1203470Y605414D01*
X1204354Y606737D01*
X1204665Y608298D01*
X1204354Y609859D01*
X1203470Y611182D01*
X1202147Y612066D01*
X1200586Y612376D01*
X1200041Y612268D01*
X1169236D01*
X1169236Y612268D01*
X1167675Y611958D01*
X1166352Y611073D01*
X1166134Y610855D01*
X1165250Y609532D01*
X1164939Y607971D01*
X1164958Y607877D01*
X1156585Y599504D01*
X1149809D01*
X1149283Y600774D01*
X1168923Y620414D01*
X1169018Y620396D01*
X1170115Y620614D01*
X1200478D01*
X1200478Y620614D01*
X1202038Y620924D01*
X1203362Y621808D01*
X1203470Y621917D01*
X1204354Y623240D01*
X1204665Y624801D01*
X1204354Y626361D01*
X1203470Y627685D01*
X1202147Y628568D01*
X1200586Y628879D01*
X1200041Y628771D01*
X1169236D01*
X1169236Y628771D01*
X1167675Y628460D01*
X1166352Y627576D01*
X1166134Y627358D01*
X1165250Y626035D01*
X1164939Y624474D01*
X1164958Y624380D01*
X1145082Y604504D01*
X1124174D01*
X1123996Y605700D01*
X1125283Y606233D01*
X1126267Y607217D01*
X1126800Y608504D01*
Y608735D01*
X1162783Y644717D01*
X1163390Y645627D01*
X1163604Y646700D01*
Y895782D01*
X1317182D01*
Y882573D01*
X1316402Y881793D01*
X1315267Y879827D01*
X1314680Y877635D01*
Y875365D01*
X1315267Y873173D01*
X1316402Y871207D01*
X1317182Y870427D01*
Y857173D01*
X1316402Y856393D01*
X1315267Y854427D01*
X1314680Y852235D01*
Y849965D01*
X1315267Y847773D01*
X1316402Y845807D01*
X1317182Y845027D01*
Y831773D01*
X1316402Y830993D01*
X1315267Y829027D01*
X1314680Y826835D01*
Y824565D01*
X1315267Y822373D01*
X1316402Y820407D01*
X1318007Y818802D01*
X1319973Y817667D01*
X1322165Y817080D01*
X1324435D01*
X1326627Y817667D01*
X1328593Y818802D01*
X1330198Y820407D01*
X1331333Y822373D01*
X1331920Y824565D01*
Y826835D01*
X1331333Y829027D01*
X1330198Y830993D01*
X1329418Y831773D01*
Y845027D01*
X1330198Y845807D01*
X1331333Y847773D01*
X1331920Y849965D01*
Y852235D01*
X1331333Y854427D01*
X1330198Y856393D01*
X1329418Y857173D01*
Y870427D01*
X1330198Y871207D01*
X1331333Y873173D01*
X1331920Y875365D01*
Y877635D01*
X1331333Y879827D01*
X1330198Y881793D01*
X1329418Y882573D01*
Y895782D01*
X1342583D01*
Y882573D01*
X1341802Y881793D01*
X1340668Y879827D01*
X1340080Y877635D01*
Y875365D01*
X1340668Y873173D01*
X1341802Y871207D01*
X1342583Y870427D01*
Y857173D01*
X1341802Y856393D01*
X1340668Y854427D01*
X1340080Y852235D01*
Y849965D01*
X1340668Y847773D01*
X1341802Y845807D01*
X1342583Y845027D01*
Y831773D01*
X1341802Y830993D01*
X1340668Y829027D01*
X1340080Y826835D01*
Y824565D01*
X1340668Y822373D01*
X1341802Y820407D01*
X1343407Y818802D01*
X1345373Y817667D01*
X1347565Y817080D01*
X1349835D01*
X1352027Y817667D01*
X1353993Y818802D01*
X1355598Y820407D01*
X1356733Y822373D01*
X1357320Y824565D01*
Y826835D01*
X1356733Y829027D01*
X1355598Y830993D01*
X1354818Y831773D01*
Y845027D01*
X1355598Y845807D01*
X1356733Y847773D01*
X1357320Y849965D01*
Y852235D01*
X1356733Y854427D01*
X1355598Y856393D01*
X1354818Y857173D01*
Y870427D01*
X1355598Y871207D01*
X1356733Y873173D01*
X1357320Y875365D01*
Y877635D01*
X1356733Y879827D01*
X1355598Y881793D01*
X1354818Y882573D01*
Y895827D01*
X1355598Y896607D01*
X1356733Y898573D01*
X1357320Y900765D01*
Y903035D01*
X1356733Y905227D01*
X1355598Y907193D01*
X1354818Y907973D01*
Y921227D01*
X1355598Y922007D01*
X1356733Y923973D01*
X1357320Y926165D01*
Y928435D01*
X1356733Y930627D01*
X1355598Y932593D01*
X1353993Y934198D01*
X1352027Y935332D01*
X1349835Y935920D01*
D02*
G37*
G36*
X1200586Y892920D02*
X1199025Y892609D01*
X1199001Y892593D01*
X1169018D01*
X1167457Y892283D01*
X1166134Y891399D01*
X1165250Y890076D01*
X1164939Y888515D01*
X1165250Y886954D01*
X1166134Y885631D01*
X1167457Y884747D01*
X1169018Y884437D01*
X1200259D01*
X1200259Y884436D01*
X1201820Y884747D01*
X1203143Y885631D01*
X1203470Y885958D01*
X1204354Y887281D01*
X1204665Y888842D01*
X1204354Y890402D01*
X1203470Y891725D01*
X1202147Y892609D01*
X1200586Y892920D01*
D02*
G37*
G36*
X1200586Y876417D02*
X1199026Y876107D01*
X1199002Y876091D01*
X1169018D01*
X1167457Y875780D01*
X1166134Y874896D01*
X1165250Y873573D01*
X1164940Y872012D01*
X1165250Y870452D01*
X1166134Y869129D01*
X1167457Y868245D01*
X1169018Y867934D01*
X1200260D01*
X1200260Y867934D01*
X1201821Y868245D01*
X1203144Y869129D01*
X1203470Y869455D01*
X1204354Y870778D01*
X1204665Y872339D01*
X1204354Y873900D01*
X1203470Y875223D01*
X1202147Y876107D01*
X1200586Y876417D01*
D02*
G37*
G36*
X872116Y859200D02*
X869483D01*
X866940Y858519D01*
X865721Y857815D01*
X870800Y852736D01*
X875879Y857815D01*
X874660Y858519D01*
X872116Y859200D01*
D02*
G37*
G36*
X1200586Y859915D02*
X1199025Y859604D01*
X1199001Y859588D01*
X1169018D01*
X1167457Y859278D01*
X1166134Y858394D01*
X1165250Y857070D01*
X1164939Y855510D01*
X1165250Y853949D01*
X1166134Y852626D01*
X1167457Y851742D01*
X1169018Y851431D01*
X1200259D01*
X1200259Y851431D01*
X1201820Y851742D01*
X1203143Y852626D01*
X1203470Y852953D01*
X1204354Y854276D01*
X1204665Y855836D01*
X1204354Y857397D01*
X1203470Y858720D01*
X1202147Y859604D01*
X1200586Y859915D01*
D02*
G37*
G36*
X879415Y854279D02*
X874335Y849200D01*
X879415Y844121D01*
X880118Y845340D01*
X880800Y847883D01*
Y850517D01*
X880118Y853060D01*
X879415Y854279D01*
D02*
G37*
G36*
X897319Y857700D02*
X895081D01*
X892919Y857121D01*
X890981Y856002D01*
X889398Y854419D01*
X888279Y852481D01*
X887700Y850319D01*
Y848081D01*
X888279Y845919D01*
X889398Y843981D01*
X890981Y842398D01*
X892919Y841279D01*
X895081Y840700D01*
X897319D01*
X899481Y841279D01*
X901419Y842398D01*
X903002Y843981D01*
X904121Y845919D01*
X904700Y848081D01*
Y850319D01*
X904121Y852481D01*
X903002Y854419D01*
X901419Y856002D01*
X899481Y857121D01*
X897319Y857700D01*
D02*
G37*
G36*
X870800Y845665D02*
X865721Y840585D01*
X866940Y839882D01*
X869483Y839200D01*
X872116D01*
X874660Y839882D01*
X875879Y840585D01*
X870800Y845665D01*
D02*
G37*
G36*
X1200836Y843412D02*
X1199275Y843102D01*
X1199251Y843086D01*
X1169268D01*
X1167707Y842775D01*
X1166384Y841891D01*
X1165500Y840568D01*
X1165189Y839007D01*
X1165500Y837447D01*
X1166384Y836123D01*
X1167707Y835239D01*
X1169268Y834929D01*
X1200509D01*
X1200509Y834929D01*
X1202070Y835239D01*
X1203393Y836123D01*
X1203720Y836450D01*
X1204604Y837773D01*
X1204914Y839334D01*
X1204604Y840895D01*
X1203720Y842218D01*
X1202397Y843102D01*
X1200836Y843412D01*
D02*
G37*
G36*
X1200586Y826910D02*
X1199025Y826599D01*
X1199001Y826583D01*
X1169018D01*
X1167457Y826273D01*
X1166134Y825388D01*
X1165250Y824065D01*
X1164939Y822505D01*
X1165250Y820944D01*
X1166134Y819621D01*
X1167457Y818737D01*
X1169018Y818426D01*
X1200259D01*
X1200259Y818426D01*
X1201820Y818737D01*
X1203143Y819621D01*
X1203470Y819947D01*
X1204354Y821271D01*
X1204665Y822831D01*
X1204354Y824392D01*
X1203470Y825715D01*
X1202147Y826599D01*
X1200586Y826910D01*
D02*
G37*
G36*
Y810407D02*
X1199025Y810097D01*
X1199001Y810080D01*
X1169018D01*
X1167457Y809770D01*
X1166134Y808886D01*
X1165250Y807563D01*
X1164939Y806002D01*
X1165250Y804441D01*
X1166134Y803118D01*
X1167457Y802234D01*
X1169018Y801924D01*
X1200259D01*
X1200259Y801924D01*
X1201820Y802234D01*
X1203143Y803118D01*
X1203470Y803445D01*
X1204354Y804768D01*
X1204665Y806329D01*
X1204354Y807889D01*
X1203470Y809213D01*
X1202147Y810097D01*
X1200586Y810407D01*
D02*
G37*
G36*
X1232567Y892312D02*
X1231175D01*
X1229888Y891779D01*
X1228904Y890794D01*
X1228371Y889508D01*
Y888115D01*
X1228904Y886829D01*
X1229888Y885844D01*
X1231175Y885312D01*
X1232567D01*
X1233555Y885721D01*
X1233914D01*
X1315538Y804096D01*
X1315267Y803627D01*
X1314680Y801435D01*
Y799165D01*
X1315267Y796973D01*
X1315927Y795830D01*
X1314911Y795050D01*
X1243621Y866340D01*
Y867820D01*
X1243407Y868893D01*
X1242800Y869803D01*
X1238597Y874005D01*
X1237688Y874612D01*
X1236615Y874826D01*
X1234304D01*
X1233854Y875276D01*
X1232567Y875809D01*
X1231175D01*
X1229888Y875276D01*
X1228904Y874292D01*
X1228371Y873005D01*
Y871613D01*
X1228904Y870326D01*
X1229888Y869342D01*
X1231175Y868809D01*
X1232567D01*
X1233555Y869218D01*
X1235453D01*
X1238013Y866659D01*
Y865179D01*
X1238226Y864106D01*
X1238834Y863196D01*
X1316215Y785816D01*
X1317124Y785208D01*
X1318197Y784995D01*
X1336199D01*
X1337272Y785208D01*
X1338181Y785816D01*
X1344904Y792538D01*
X1345373Y792268D01*
X1347565Y791680D01*
X1349835D01*
X1352027Y792268D01*
X1353993Y793402D01*
X1355598Y795007D01*
X1356733Y796973D01*
X1357320Y799165D01*
Y801435D01*
X1356733Y803627D01*
X1355598Y805593D01*
X1353993Y807198D01*
X1352027Y808333D01*
X1349835Y808920D01*
X1347565D01*
X1345373Y808333D01*
X1343407Y807198D01*
X1341802Y805593D01*
X1340668Y803627D01*
X1340080Y801435D01*
Y799165D01*
X1340668Y796973D01*
X1340938Y796504D01*
X1335037Y790602D01*
X1325320D01*
X1325153Y791872D01*
X1326627Y792268D01*
X1328593Y793402D01*
X1330198Y795007D01*
X1331333Y796973D01*
X1331920Y799165D01*
Y801435D01*
X1331333Y803627D01*
X1330198Y805593D01*
X1328593Y807198D01*
X1326627Y808333D01*
X1324435Y808920D01*
X1322165D01*
X1319973Y808333D01*
X1319504Y808062D01*
X1237058Y890507D01*
X1236148Y891115D01*
X1235075Y891328D01*
X1234304D01*
X1233854Y891779D01*
X1232567Y892312D01*
D02*
G37*
G36*
X1200586Y793904D02*
X1199025Y793594D01*
X1199001Y793578D01*
X1169018D01*
X1167457Y793267D01*
X1166134Y792383D01*
X1165250Y791060D01*
X1164939Y789499D01*
X1165250Y787939D01*
X1166134Y786616D01*
X1167457Y785732D01*
X1169018Y785421D01*
X1200259D01*
X1200259Y785421D01*
X1201820Y785732D01*
X1203143Y786616D01*
X1203470Y786942D01*
X1204354Y788265D01*
X1204665Y789826D01*
X1204354Y791387D01*
X1203470Y792710D01*
X1202147Y793594D01*
X1200586Y793904D01*
D02*
G37*
G36*
X1200587Y777402D02*
X1199026Y777092D01*
X1199002Y777076D01*
X1169018D01*
X1167457Y776765D01*
X1166134Y775881D01*
X1165250Y774558D01*
X1164940Y772997D01*
X1165250Y771436D01*
X1166134Y770113D01*
X1167457Y769229D01*
X1169018Y768919D01*
X1200260D01*
X1200260Y768919D01*
X1201821Y769229D01*
X1203144Y770113D01*
X1203470Y770440D01*
X1204354Y771763D01*
X1204665Y773324D01*
X1204354Y774884D01*
X1203470Y776208D01*
X1202147Y777092D01*
X1200587Y777402D01*
D02*
G37*
G36*
X1232567Y859306D02*
X1231175D01*
X1229888Y858774D01*
X1228904Y857789D01*
X1228371Y856503D01*
Y855110D01*
X1228904Y853824D01*
X1229888Y852839D01*
X1231175Y852307D01*
X1231812D01*
X1234776Y849342D01*
X1235685Y848735D01*
X1236758Y848521D01*
X1239926D01*
X1313329Y775118D01*
X1314239Y774510D01*
X1314680Y774422D01*
Y773765D01*
X1315267Y771573D01*
X1316402Y769607D01*
X1317406Y768604D01*
X1316880Y767334D01*
X1307806D01*
X1235371Y839769D01*
Y840000D01*
X1234838Y841286D01*
X1233854Y842271D01*
X1232567Y842804D01*
X1231175D01*
X1229888Y842271D01*
X1228904Y841286D01*
X1228371Y840000D01*
Y838608D01*
X1228904Y837321D01*
X1229888Y836337D01*
X1231175Y835804D01*
X1231406D01*
X1240334Y826875D01*
X1239808Y825605D01*
X1234017D01*
X1233854Y825769D01*
X1232567Y826301D01*
X1231175D01*
X1229888Y825769D01*
X1228904Y824784D01*
X1228371Y823497D01*
Y822105D01*
X1228904Y820819D01*
X1229888Y819834D01*
X1231175Y819301D01*
X1232567D01*
X1233854Y819834D01*
X1234017Y819997D01*
X1239560D01*
X1311163Y748394D01*
X1312073Y747787D01*
X1313146Y747573D01*
X1314892D01*
X1315267Y746173D01*
X1316402Y744207D01*
X1317406Y743204D01*
X1316880Y741934D01*
X1300201D01*
X1235371Y806764D01*
Y806995D01*
X1234838Y808281D01*
X1233854Y809266D01*
X1232567Y809799D01*
X1231175D01*
X1229888Y809266D01*
X1228904Y808281D01*
X1228371Y806995D01*
Y805603D01*
X1228904Y804316D01*
X1229888Y803332D01*
X1231175Y802799D01*
X1231406D01*
X1297057Y737147D01*
X1297967Y736540D01*
X1299040Y736326D01*
X1338330D01*
X1339403Y736540D01*
X1340313Y737147D01*
X1344904Y741738D01*
X1345373Y741468D01*
X1347565Y740880D01*
X1349835D01*
X1352027Y741468D01*
X1353993Y742602D01*
X1355598Y744207D01*
X1356733Y746173D01*
X1357320Y748365D01*
Y750635D01*
X1356733Y752827D01*
X1355598Y754793D01*
X1353993Y756398D01*
X1352027Y757533D01*
X1349835Y758120D01*
X1347565D01*
X1345373Y757533D01*
X1343407Y756398D01*
X1341802Y754793D01*
X1340668Y752827D01*
X1340080Y750635D01*
Y748365D01*
X1340668Y746173D01*
X1340938Y745704D01*
X1337169Y741934D01*
X1329720D01*
X1329194Y743204D01*
X1330198Y744207D01*
X1331333Y746173D01*
X1331920Y748365D01*
Y750635D01*
X1331333Y752827D01*
X1330198Y754793D01*
X1328593Y756398D01*
X1326627Y757533D01*
X1324435Y758120D01*
X1322165D01*
X1319973Y757533D01*
X1318007Y756398D01*
X1316402Y754793D01*
X1315533Y753287D01*
X1314290Y753198D01*
X1307032Y760456D01*
X1307558Y761726D01*
X1338330D01*
X1339403Y761940D01*
X1340313Y762547D01*
X1344904Y767138D01*
X1345373Y766868D01*
X1347565Y766280D01*
X1349835D01*
X1352027Y766868D01*
X1353993Y768002D01*
X1355598Y769607D01*
X1356733Y771573D01*
X1357320Y773765D01*
Y776035D01*
X1356733Y778227D01*
X1355598Y780193D01*
X1353993Y781798D01*
X1352027Y782933D01*
X1349835Y783520D01*
X1347565D01*
X1345373Y782933D01*
X1343407Y781798D01*
X1341802Y780193D01*
X1340668Y778227D01*
X1340080Y776035D01*
Y773765D01*
X1340668Y771573D01*
X1340938Y771104D01*
X1337169Y767334D01*
X1329720D01*
X1329194Y768604D01*
X1330198Y769607D01*
X1331333Y771573D01*
X1331920Y773765D01*
Y776035D01*
X1331333Y778227D01*
X1330198Y780193D01*
X1328593Y781798D01*
X1326627Y782933D01*
X1324435Y783520D01*
X1322165D01*
X1319973Y782933D01*
X1318007Y781798D01*
X1316402Y780193D01*
X1316210Y780167D01*
X1243070Y853308D01*
X1242160Y853915D01*
X1241087Y854129D01*
X1237920D01*
X1235247Y856801D01*
X1234838Y857789D01*
X1233854Y858774D01*
X1232567Y859306D01*
D02*
G37*
G36*
X1200586Y760900D02*
X1199025Y760589D01*
X1199001Y760573D01*
X1169018D01*
X1167457Y760262D01*
X1166134Y759378D01*
X1165250Y758055D01*
X1164939Y756494D01*
X1165250Y754934D01*
X1166134Y753611D01*
X1167457Y752727D01*
X1169018Y752416D01*
X1200259D01*
X1200259Y752416D01*
X1201820Y752727D01*
X1203143Y753611D01*
X1203470Y753937D01*
X1204354Y755260D01*
X1204665Y756821D01*
X1204354Y758382D01*
X1203470Y759705D01*
X1202147Y760589D01*
X1200586Y760900D01*
D02*
G37*
G36*
Y744397D02*
X1199025Y744086D01*
X1199001Y744070D01*
X1169018D01*
X1167457Y743760D01*
X1166134Y742876D01*
X1165250Y741553D01*
X1164939Y739992D01*
X1165250Y738431D01*
X1166134Y737108D01*
X1167457Y736224D01*
X1169018Y735913D01*
X1200259D01*
X1200259Y735913D01*
X1201820Y736224D01*
X1203143Y737108D01*
X1203470Y737435D01*
X1204354Y738758D01*
X1204665Y740318D01*
X1204354Y741879D01*
X1203470Y743202D01*
X1202147Y744086D01*
X1200586Y744397D01*
D02*
G37*
G36*
X1009004Y772078D02*
X1009004Y772078D01*
X931000D01*
X929439Y771768D01*
X928116Y770884D01*
X927232Y769561D01*
X926922Y768000D01*
X927232Y766439D01*
X928116Y765116D01*
X929439Y764232D01*
X931000Y763922D01*
X1007315D01*
X1028722Y742515D01*
Y709504D01*
X992205D01*
X991791Y709917D01*
X991267Y711183D01*
X990283Y712167D01*
X988996Y712700D01*
X988405D01*
X981209Y719896D01*
X980864Y720126D01*
X981249Y721396D01*
X1004347D01*
X1004347Y721396D01*
X1016154D01*
X1016317Y721233D01*
X1017604Y720700D01*
X1018996D01*
X1020283Y721233D01*
X1021267Y722217D01*
X1021800Y723504D01*
Y724896D01*
X1021267Y726183D01*
X1020283Y727167D01*
X1018996Y727700D01*
X1017604D01*
X1016317Y727167D01*
X1016154Y727004D01*
X1004347D01*
X1004347Y727004D01*
X988035D01*
X987707Y727480D01*
X987387Y728274D01*
X987835Y729354D01*
Y730746D01*
X987302Y732032D01*
X986708Y732626D01*
X987234Y733896D01*
X1016154D01*
X1016317Y733733D01*
X1017604Y733200D01*
X1018996D01*
X1020283Y733733D01*
X1021267Y734717D01*
X1021800Y736004D01*
Y737396D01*
X1021267Y738683D01*
X1020283Y739667D01*
X1018996Y740200D01*
X1017604D01*
X1016317Y739667D01*
X1016154Y739504D01*
X948300D01*
X947227Y739290D01*
X946317Y738683D01*
X926820Y719185D01*
X926212Y718276D01*
X925999Y717203D01*
Y710096D01*
X925836Y709933D01*
X925303Y708646D01*
Y707254D01*
X925836Y705967D01*
X926820Y704983D01*
X928107Y704450D01*
X929499D01*
X930786Y704983D01*
X931770Y705967D01*
X932303Y707254D01*
Y708646D01*
X931770Y709933D01*
X931607Y710096D01*
Y716041D01*
X949461Y733896D01*
X952235D01*
X952761Y732626D01*
X939442Y719308D01*
X938835Y718398D01*
X938621Y717325D01*
Y709471D01*
X938208Y709058D01*
X937675Y707771D01*
Y706379D01*
X938208Y705092D01*
X939192Y704108D01*
X940479Y703575D01*
X941871D01*
X943158Y704108D01*
X944142Y705092D01*
X944675Y706379D01*
Y707771D01*
X944229Y708848D01*
Y716163D01*
X956461Y728396D01*
X972521D01*
X972664Y728274D01*
X972258Y727174D01*
X972072Y727004D01*
X959775D01*
X958702Y726790D01*
X957793Y726183D01*
X948817Y717207D01*
X948210Y716298D01*
X947996Y715225D01*
Y693846D01*
X947833Y693683D01*
X947300Y692396D01*
Y691004D01*
X947833Y689717D01*
X948817Y688733D01*
X950104Y688200D01*
X951496D01*
X952783Y688733D01*
X953767Y689717D01*
X954300Y691004D01*
Y692396D01*
X953767Y693683D01*
X953604Y693846D01*
Y714063D01*
X956336Y716795D01*
X957834Y716497D01*
X958033Y716017D01*
X959017Y715033D01*
X960304Y714500D01*
X961696D01*
X962983Y715033D01*
X963494Y715544D01*
X978351D01*
X984800Y709095D01*
Y708504D01*
X985333Y707217D01*
X986317Y706233D01*
X987604Y705700D01*
X988078D01*
X989061Y704717D01*
X989970Y704110D01*
X991043Y703896D01*
X1028722D01*
Y663571D01*
X1029032Y662010D01*
X1029916Y660687D01*
X1031239Y659803D01*
X1032800Y659493D01*
X1034361Y659803D01*
X1035684Y660687D01*
X1036568Y662010D01*
X1036878Y663571D01*
Y706700D01*
Y744204D01*
X1036568Y745765D01*
X1035684Y747088D01*
X1035684Y747088D01*
X1011888Y770884D01*
X1010565Y771768D01*
X1010306Y771819D01*
X1009004Y772078D01*
D02*
G37*
G36*
X1200586Y727894D02*
X1199025Y727584D01*
X1199001Y727568D01*
X1169018D01*
X1167457Y727257D01*
X1166134Y726373D01*
X1165250Y725050D01*
X1164939Y723489D01*
X1165250Y721929D01*
X1166134Y720605D01*
X1167457Y719721D01*
X1169018Y719411D01*
X1200259D01*
X1200259Y719411D01*
X1201820Y719721D01*
X1203143Y720605D01*
X1203470Y720932D01*
X1204354Y722255D01*
X1204665Y723816D01*
X1204354Y725377D01*
X1203470Y726700D01*
X1202147Y727584D01*
X1200586Y727894D01*
D02*
G37*
G36*
X1232567Y793296D02*
X1231175D01*
X1229888Y792763D01*
X1228904Y791779D01*
X1228371Y790492D01*
Y789100D01*
X1228904Y787814D01*
X1229888Y786829D01*
X1231175Y786296D01*
X1231406D01*
X1295585Y722117D01*
X1296494Y721510D01*
X1297567Y721296D01*
X1315127D01*
X1315267Y720773D01*
X1316402Y718807D01*
X1317406Y717804D01*
X1316880Y716534D01*
X1292596D01*
X1235371Y773759D01*
Y773990D01*
X1234838Y775276D01*
X1233854Y776261D01*
X1232567Y776794D01*
X1231175D01*
X1229888Y776261D01*
X1228904Y775276D01*
X1228371Y773990D01*
Y772598D01*
X1228904Y771311D01*
X1229888Y770327D01*
X1231175Y769794D01*
X1231406D01*
X1289452Y711747D01*
X1290362Y711140D01*
X1291435Y710926D01*
X1338330D01*
X1339403Y711140D01*
X1340313Y711747D01*
X1344904Y716338D01*
X1345373Y716068D01*
X1347565Y715480D01*
X1349835D01*
X1352027Y716068D01*
X1353993Y717202D01*
X1355598Y718807D01*
X1356733Y720773D01*
X1357320Y722965D01*
Y725235D01*
X1356733Y727427D01*
X1355598Y729393D01*
X1353993Y730998D01*
X1352027Y732132D01*
X1349835Y732720D01*
X1347565D01*
X1345373Y732132D01*
X1343407Y730998D01*
X1341802Y729393D01*
X1340668Y727427D01*
X1340080Y725235D01*
Y722965D01*
X1340668Y720773D01*
X1340938Y720304D01*
X1337169Y716534D01*
X1329720D01*
X1329194Y717804D01*
X1330198Y718807D01*
X1331333Y720773D01*
X1331920Y722965D01*
Y725235D01*
X1331333Y727427D01*
X1330198Y729393D01*
X1328593Y730998D01*
X1326627Y732132D01*
X1324435Y732720D01*
X1322165D01*
X1319973Y732132D01*
X1318007Y730998D01*
X1316402Y729393D01*
X1315267Y727427D01*
X1315127Y726904D01*
X1298728D01*
X1235371Y790262D01*
Y790492D01*
X1234838Y791779D01*
X1233854Y792763D01*
X1232567Y793296D01*
D02*
G37*
G36*
X1200586Y711392D02*
X1199025Y711081D01*
X1199001Y711065D01*
X1169018D01*
X1167457Y710754D01*
X1166134Y709870D01*
X1165250Y708547D01*
X1164939Y706987D01*
X1165250Y705426D01*
X1166134Y704103D01*
X1167457Y703219D01*
X1169018Y702908D01*
X1200259D01*
X1200259Y702908D01*
X1201820Y703219D01*
X1203143Y704103D01*
X1203470Y704429D01*
X1204354Y705752D01*
X1204665Y707313D01*
X1204354Y708874D01*
X1203470Y710197D01*
X1202147Y711081D01*
X1200586Y711392D01*
D02*
G37*
G36*
X1232567Y760291D02*
X1231175D01*
X1229888Y759758D01*
X1228904Y758774D01*
X1228371Y757487D01*
Y756095D01*
X1228904Y754809D01*
X1229888Y753824D01*
X1231175Y753291D01*
X1231406D01*
X1287979Y696717D01*
X1288889Y696110D01*
X1289962Y695896D01*
X1315127D01*
X1315267Y695373D01*
X1316402Y693407D01*
X1317406Y692404D01*
X1316880Y691134D01*
X1284991D01*
X1235371Y740754D01*
Y740985D01*
X1234838Y742271D01*
X1233854Y743256D01*
X1232567Y743789D01*
X1231175D01*
X1229888Y743256D01*
X1228904Y742271D01*
X1228371Y740985D01*
Y739592D01*
X1228904Y738306D01*
X1229888Y737321D01*
X1231175Y736789D01*
X1231406D01*
X1281847Y686347D01*
X1282757Y685740D01*
X1283829Y685526D01*
X1338330D01*
X1339403Y685740D01*
X1340313Y686347D01*
X1344904Y690938D01*
X1345373Y690667D01*
X1347565Y690080D01*
X1349835D01*
X1352027Y690667D01*
X1353993Y691802D01*
X1355598Y693407D01*
X1356733Y695373D01*
X1357320Y697565D01*
Y699835D01*
X1356733Y702027D01*
X1355598Y703993D01*
X1353993Y705598D01*
X1352027Y706732D01*
X1349835Y707320D01*
X1347565D01*
X1345373Y706732D01*
X1343407Y705598D01*
X1341802Y703993D01*
X1340668Y702027D01*
X1340080Y699835D01*
Y697565D01*
X1340668Y695373D01*
X1340938Y694904D01*
X1337169Y691134D01*
X1329720D01*
X1329194Y692404D01*
X1330198Y693407D01*
X1331333Y695373D01*
X1331920Y697565D01*
Y699835D01*
X1331333Y702027D01*
X1330198Y703993D01*
X1328593Y705598D01*
X1326627Y706732D01*
X1324435Y707320D01*
X1322165D01*
X1319973Y706732D01*
X1318007Y705598D01*
X1316402Y703993D01*
X1315267Y702027D01*
X1315127Y701504D01*
X1291123D01*
X1235371Y757256D01*
Y757487D01*
X1234838Y758774D01*
X1233854Y759758D01*
X1232567Y760291D01*
D02*
G37*
G36*
X1200586Y694889D02*
X1199025Y694579D01*
X1199001Y694563D01*
X1169018D01*
X1167457Y694252D01*
X1166134Y693368D01*
X1165250Y692045D01*
X1164939Y690484D01*
X1165250Y688923D01*
X1166134Y687600D01*
X1167457Y686716D01*
X1169018Y686406D01*
X1200259D01*
X1200259Y686406D01*
X1201820Y686716D01*
X1203143Y687600D01*
X1203470Y687927D01*
X1204354Y689250D01*
X1204665Y690811D01*
X1204354Y692372D01*
X1203470Y693695D01*
X1202147Y694579D01*
X1200586Y694889D01*
D02*
G37*
G36*
X1200586Y678387D02*
X1200041Y678278D01*
X1169236D01*
X1169236Y678278D01*
X1167675Y677968D01*
X1166352Y677084D01*
X1166134Y676866D01*
X1165250Y675543D01*
X1164940Y673982D01*
X1165250Y672421D01*
X1166134Y671098D01*
X1167457Y670214D01*
X1169018Y669903D01*
X1170115Y670122D01*
X1200478D01*
X1200478Y670122D01*
X1202039Y670432D01*
X1203362Y671316D01*
X1203470Y671425D01*
X1204354Y672748D01*
X1204665Y674308D01*
X1204354Y675869D01*
X1203470Y677192D01*
X1202147Y678076D01*
X1200586Y678387D01*
D02*
G37*
G36*
X1232567Y727286D02*
X1231175D01*
X1229888Y726753D01*
X1228904Y725769D01*
X1228371Y724482D01*
Y723090D01*
X1228904Y721803D01*
X1229888Y720819D01*
X1231175Y720286D01*
X1231406D01*
X1280374Y671317D01*
X1281284Y670710D01*
X1282357Y670496D01*
X1315127D01*
X1315267Y669973D01*
X1316402Y668007D01*
X1317406Y667004D01*
X1316880Y665734D01*
X1277386D01*
X1235371Y707749D01*
Y707980D01*
X1234838Y709266D01*
X1233854Y710251D01*
X1232567Y710783D01*
X1231175D01*
X1229888Y710251D01*
X1228904Y709266D01*
X1228371Y707980D01*
Y706587D01*
X1228904Y705301D01*
X1229888Y704316D01*
X1231175Y703783D01*
X1231406D01*
X1274242Y660947D01*
X1275151Y660340D01*
X1276224Y660126D01*
X1338330D01*
X1339403Y660340D01*
X1340313Y660947D01*
X1344904Y665538D01*
X1345373Y665267D01*
X1347565Y664680D01*
X1349835D01*
X1352027Y665267D01*
X1353993Y666402D01*
X1355598Y668007D01*
X1356733Y669973D01*
X1357320Y672165D01*
Y674435D01*
X1356733Y676627D01*
X1355598Y678593D01*
X1353993Y680198D01*
X1352027Y681332D01*
X1349835Y681920D01*
X1347565D01*
X1345373Y681332D01*
X1343407Y680198D01*
X1341802Y678593D01*
X1340668Y676627D01*
X1340080Y674435D01*
Y672165D01*
X1340668Y669973D01*
X1340938Y669504D01*
X1337169Y665734D01*
X1329720D01*
X1329194Y667004D01*
X1330198Y668007D01*
X1331333Y669973D01*
X1331920Y672165D01*
Y674435D01*
X1331333Y676627D01*
X1330198Y678593D01*
X1328593Y680198D01*
X1326627Y681332D01*
X1324435Y681920D01*
X1322165D01*
X1319973Y681332D01*
X1318007Y680198D01*
X1316402Y678593D01*
X1315267Y676627D01*
X1315127Y676104D01*
X1283518D01*
X1235371Y724251D01*
Y724482D01*
X1234838Y725769D01*
X1233854Y726753D01*
X1232567Y727286D01*
D02*
G37*
G36*
X1200586Y661884D02*
X1199026Y661574D01*
X1199002Y661558D01*
X1169018D01*
X1167457Y661247D01*
X1166134Y660363D01*
X1165250Y659040D01*
X1164940Y657479D01*
X1165250Y655919D01*
X1166134Y654595D01*
X1167457Y653711D01*
X1169018Y653401D01*
X1200260D01*
X1200260Y653401D01*
X1201821Y653711D01*
X1203144Y654595D01*
X1203470Y654922D01*
X1204354Y656245D01*
X1204665Y657806D01*
X1204354Y659367D01*
X1203470Y660690D01*
X1202147Y661574D01*
X1200586Y661884D01*
D02*
G37*
G36*
X1232567Y694281D02*
X1231175D01*
X1229888Y693748D01*
X1228904Y692764D01*
X1228371Y691477D01*
Y690085D01*
X1228904Y688798D01*
X1229888Y687814D01*
X1231175Y687281D01*
X1231406D01*
X1272769Y645917D01*
X1273679Y645310D01*
X1274752Y645096D01*
X1315127D01*
X1315267Y644573D01*
X1316402Y642607D01*
X1317406Y641604D01*
X1316880Y640334D01*
X1269781D01*
X1235371Y674744D01*
Y674975D01*
X1234838Y676261D01*
X1233854Y677245D01*
X1232567Y677778D01*
X1231175D01*
X1229888Y677245D01*
X1228904Y676261D01*
X1228371Y674975D01*
Y673582D01*
X1228904Y672296D01*
X1229888Y671311D01*
X1231175Y670778D01*
X1231406D01*
X1266637Y635547D01*
X1267546Y634940D01*
X1268619Y634726D01*
X1338330D01*
X1339403Y634940D01*
X1340313Y635547D01*
X1344904Y640138D01*
X1345373Y639868D01*
X1347565Y639280D01*
X1349835D01*
X1352027Y639868D01*
X1353993Y641002D01*
X1355598Y642607D01*
X1356733Y644573D01*
X1357320Y646765D01*
Y649035D01*
X1356733Y651227D01*
X1355598Y653193D01*
X1353993Y654798D01*
X1352027Y655932D01*
X1349835Y656520D01*
X1347565D01*
X1345373Y655932D01*
X1343407Y654798D01*
X1341802Y653193D01*
X1340668Y651227D01*
X1340080Y649035D01*
Y646765D01*
X1340668Y644573D01*
X1340938Y644104D01*
X1337169Y640334D01*
X1329720D01*
X1329194Y641604D01*
X1330198Y642607D01*
X1331333Y644573D01*
X1331920Y646765D01*
Y649035D01*
X1331333Y651227D01*
X1330198Y653193D01*
X1328593Y654798D01*
X1326627Y655932D01*
X1324435Y656520D01*
X1322165D01*
X1319973Y655932D01*
X1318007Y654798D01*
X1316402Y653193D01*
X1315267Y651227D01*
X1315127Y650704D01*
X1275913D01*
X1235371Y691246D01*
Y691477D01*
X1234838Y692764D01*
X1233854Y693748D01*
X1232567Y694281D01*
D02*
G37*
G36*
X1200586Y645382D02*
X1199025Y645071D01*
X1199001Y645055D01*
X1169018D01*
X1167457Y644744D01*
X1166134Y643860D01*
X1165250Y642537D01*
X1164939Y640977D01*
X1165250Y639416D01*
X1166134Y638093D01*
X1167457Y637209D01*
X1169018Y636898D01*
X1200259D01*
X1200259Y636898D01*
X1201820Y637209D01*
X1203143Y638093D01*
X1203470Y638419D01*
X1204354Y639743D01*
X1204665Y641303D01*
X1204354Y642864D01*
X1203470Y644187D01*
X1202147Y645071D01*
X1200586Y645382D01*
D02*
G37*
G36*
X1232567Y661276D02*
X1231175D01*
X1229888Y660743D01*
X1228904Y659758D01*
X1228371Y658472D01*
Y657080D01*
X1228904Y655793D01*
X1229888Y654809D01*
X1231175Y654276D01*
X1231406D01*
X1265164Y620517D01*
X1266074Y619910D01*
X1267147Y619696D01*
X1315127D01*
X1315267Y619173D01*
X1316402Y617207D01*
X1317406Y616204D01*
X1316880Y614934D01*
X1262176D01*
X1235371Y641739D01*
Y641969D01*
X1234838Y643256D01*
X1233854Y644240D01*
X1232567Y644773D01*
X1231175D01*
X1229888Y644240D01*
X1228904Y643256D01*
X1228371Y641969D01*
Y640577D01*
X1228904Y639291D01*
X1229888Y638306D01*
X1231175Y637773D01*
X1231406D01*
X1259032Y610147D01*
X1259941Y609539D01*
X1261014Y609326D01*
X1338330D01*
X1339403Y609540D01*
X1340313Y610147D01*
X1344904Y614738D01*
X1345373Y614468D01*
X1347565Y613880D01*
X1349835D01*
X1352027Y614468D01*
X1353993Y615602D01*
X1355598Y617207D01*
X1356733Y619173D01*
X1357320Y621365D01*
Y623635D01*
X1356733Y625827D01*
X1355598Y627793D01*
X1353993Y629398D01*
X1352027Y630532D01*
X1349835Y631120D01*
X1347565D01*
X1345373Y630532D01*
X1343407Y629398D01*
X1341802Y627793D01*
X1340668Y625827D01*
X1340080Y623635D01*
Y621365D01*
X1340668Y619173D01*
X1340938Y618704D01*
X1337169Y614934D01*
X1329720D01*
X1329194Y616204D01*
X1330198Y617207D01*
X1331333Y619173D01*
X1331920Y621365D01*
Y623635D01*
X1331333Y625827D01*
X1330198Y627793D01*
X1328593Y629398D01*
X1326627Y630532D01*
X1324435Y631120D01*
X1322165D01*
X1319973Y630532D01*
X1318007Y629398D01*
X1316402Y627793D01*
X1315267Y625827D01*
X1315127Y625304D01*
X1268308D01*
X1235371Y658241D01*
Y658472D01*
X1234838Y659758D01*
X1233854Y660743D01*
X1232567Y661276D01*
D02*
G37*
G36*
Y628271D02*
X1231175D01*
X1229888Y627738D01*
X1228904Y626753D01*
X1228371Y625467D01*
Y624075D01*
X1228904Y622788D01*
X1229888Y621804D01*
X1231175Y621271D01*
X1231406D01*
X1257559Y595117D01*
X1258469Y594510D01*
X1259542Y594296D01*
X1315127D01*
X1315267Y593773D01*
X1316402Y591807D01*
X1317406Y590804D01*
X1316880Y589534D01*
X1254570D01*
X1235371Y608733D01*
Y608964D01*
X1234838Y610251D01*
X1233854Y611235D01*
X1232567Y611768D01*
X1231175D01*
X1229888Y611235D01*
X1228904Y610251D01*
X1228371Y608964D01*
Y607572D01*
X1228904Y606286D01*
X1229888Y605301D01*
X1231175Y604768D01*
X1231406D01*
X1251426Y584747D01*
X1252336Y584140D01*
X1253409Y583926D01*
X1338330D01*
X1339403Y584140D01*
X1340313Y584747D01*
X1344904Y589338D01*
X1345373Y589067D01*
X1347565Y588480D01*
X1349835D01*
X1352027Y589067D01*
X1353993Y590202D01*
X1355598Y591807D01*
X1356733Y593773D01*
X1357320Y595965D01*
Y598235D01*
X1356733Y600427D01*
X1355598Y602393D01*
X1353993Y603998D01*
X1352027Y605132D01*
X1349835Y605720D01*
X1347565D01*
X1345373Y605132D01*
X1343407Y603998D01*
X1341802Y602393D01*
X1340668Y600427D01*
X1340080Y598235D01*
Y595965D01*
X1340668Y593773D01*
X1340938Y593304D01*
X1337169Y589534D01*
X1329720D01*
X1329194Y590804D01*
X1330198Y591807D01*
X1331333Y593773D01*
X1331920Y595965D01*
Y598235D01*
X1331333Y600427D01*
X1330198Y602393D01*
X1328593Y603998D01*
X1326627Y605132D01*
X1324435Y605720D01*
X1322165D01*
X1319973Y605132D01*
X1318007Y603998D01*
X1316402Y602393D01*
X1315267Y600427D01*
X1315127Y599904D01*
X1260703D01*
X1235371Y625236D01*
Y625467D01*
X1234838Y626753D01*
X1233854Y627738D01*
X1232567Y628271D01*
D02*
G37*
G36*
Y595266D02*
X1231175D01*
X1229888Y594733D01*
X1228904Y593748D01*
X1228371Y592462D01*
Y591069D01*
X1228904Y589783D01*
X1229888Y588798D01*
X1231175Y588265D01*
X1231406D01*
X1249954Y569717D01*
X1250863Y569110D01*
X1251936Y568896D01*
X1315127D01*
X1315267Y568373D01*
X1316402Y566407D01*
X1317406Y565404D01*
X1316880Y564134D01*
X1246965D01*
X1235371Y575728D01*
Y575959D01*
X1234838Y577246D01*
X1233854Y578230D01*
X1232567Y578763D01*
X1231175D01*
X1229888Y578230D01*
X1228904Y577246D01*
X1228371Y575959D01*
Y574567D01*
X1228904Y573280D01*
X1229888Y572296D01*
X1231175Y571763D01*
X1231406D01*
X1243821Y559347D01*
X1244731Y558740D01*
X1245804Y558526D01*
X1338330D01*
X1339403Y558740D01*
X1340313Y559347D01*
X1344904Y563938D01*
X1345373Y563667D01*
X1347565Y563080D01*
X1349835D01*
X1352027Y563667D01*
X1353993Y564802D01*
X1355598Y566407D01*
X1356733Y568373D01*
X1357320Y570565D01*
Y572835D01*
X1356733Y575027D01*
X1355598Y576993D01*
X1353993Y578598D01*
X1352027Y579733D01*
X1349835Y580320D01*
X1347565D01*
X1345373Y579733D01*
X1343407Y578598D01*
X1341802Y576993D01*
X1340668Y575027D01*
X1340080Y572835D01*
Y570565D01*
X1340668Y568373D01*
X1340938Y567904D01*
X1337169Y564134D01*
X1329720D01*
X1329194Y565404D01*
X1330198Y566407D01*
X1331333Y568373D01*
X1331920Y570565D01*
Y572835D01*
X1331333Y575027D01*
X1330198Y576993D01*
X1328593Y578598D01*
X1326627Y579733D01*
X1324435Y580320D01*
X1322165D01*
X1319973Y579733D01*
X1318007Y578598D01*
X1316402Y576993D01*
X1315267Y575027D01*
X1315127Y574504D01*
X1253098D01*
X1235371Y592231D01*
Y592462D01*
X1234838Y593748D01*
X1233854Y594733D01*
X1232567Y595266D01*
D02*
G37*
G36*
X276317Y884600D02*
X273683D01*
X271140Y883919D01*
X269921Y883214D01*
X275000Y878136D01*
X280079Y883214D01*
X278860Y883919D01*
X276317Y884600D01*
D02*
G37*
G36*
X225517D02*
X222883D01*
X220340Y883919D01*
X219121Y883214D01*
X224200Y878136D01*
X229279Y883214D01*
X228060Y883919D01*
X225517Y884600D01*
D02*
G37*
G36*
X283615Y879679D02*
X278536Y874600D01*
X283615Y869521D01*
X284319Y870740D01*
X285000Y873283D01*
Y875917D01*
X284319Y878460D01*
X283615Y879679D01*
D02*
G37*
G36*
X232815D02*
X227736Y874600D01*
X232815Y869521D01*
X233519Y870740D01*
X234200Y873283D01*
Y875917D01*
X233519Y878460D01*
X232815Y879679D01*
D02*
G37*
G36*
X266385D02*
X265682Y878460D01*
X265000Y875917D01*
Y873283D01*
X265682Y870740D01*
X266385Y869521D01*
X271465Y874600D01*
X266385Y879679D01*
D02*
G37*
G36*
X215585D02*
X214882Y878460D01*
X214200Y875917D01*
Y873283D01*
X214882Y870740D01*
X215585Y869521D01*
X220665Y874600D01*
X215585Y879679D01*
D02*
G37*
G36*
X301519Y883100D02*
X299281D01*
X297119Y882521D01*
X295181Y881402D01*
X293598Y879819D01*
X292479Y877881D01*
X291900Y875719D01*
Y873481D01*
X292479Y871319D01*
X293598Y869381D01*
X295181Y867798D01*
X297119Y866679D01*
X299281Y866100D01*
X301519D01*
X303681Y866679D01*
X305619Y867798D01*
X307202Y869381D01*
X308321Y871319D01*
X308900Y873481D01*
Y875719D01*
X308321Y877881D01*
X307202Y879819D01*
X305619Y881402D01*
X303681Y882521D01*
X301519Y883100D01*
D02*
G37*
G36*
X250719D02*
X248481D01*
X246319Y882521D01*
X244381Y881402D01*
X242798Y879819D01*
X241679Y877881D01*
X241100Y875719D01*
Y873481D01*
X241679Y871319D01*
X242798Y869381D01*
X244381Y867798D01*
X246319Y866679D01*
X248481Y866100D01*
X250719D01*
X252881Y866679D01*
X254819Y867798D01*
X256402Y869381D01*
X257521Y871319D01*
X258100Y873481D01*
Y875719D01*
X257521Y877881D01*
X256402Y879819D01*
X254819Y881402D01*
X252881Y882521D01*
X250719Y883100D01*
D02*
G37*
G36*
X275000Y871064D02*
X269921Y865985D01*
X271140Y865282D01*
X273683Y864600D01*
X276317D01*
X278860Y865282D01*
X280079Y865985D01*
X275000Y871064D01*
D02*
G37*
G36*
X224200D02*
X219121Y865985D01*
X220340Y865282D01*
X222883Y864600D01*
X225517D01*
X228060Y865282D01*
X229279Y865985D01*
X224200Y871064D01*
D02*
G37*
G36*
X361500Y874900D02*
X344500D01*
Y857900D01*
X361500D01*
Y874900D01*
D02*
G37*
G36*
X821317Y859200D02*
X818683D01*
X816140Y858519D01*
X814921Y857815D01*
X820000Y852736D01*
X825079Y857815D01*
X823860Y858519D01*
X821317Y859200D01*
D02*
G37*
G36*
X828615Y854279D02*
X823536Y849200D01*
X828615Y844121D01*
X829318Y845340D01*
X830000Y847883D01*
Y850517D01*
X829318Y853060D01*
X828615Y854279D01*
D02*
G37*
G36*
X811385D02*
X810682Y853060D01*
X810000Y850517D01*
Y847883D01*
X810682Y845340D01*
X811385Y844121D01*
X816464Y849200D01*
X811385Y854279D01*
D02*
G37*
G36*
X820000Y845665D02*
X814921Y840585D01*
X816140Y839882D01*
X818683Y839200D01*
X821317D01*
X823860Y839882D01*
X825079Y840585D01*
X820000Y845665D01*
D02*
G37*
G36*
X354119Y849500D02*
X351881D01*
X349719Y848921D01*
X347781Y847802D01*
X346198Y846219D01*
X345079Y844281D01*
X344500Y842119D01*
Y839881D01*
X345079Y837719D01*
X346198Y835781D01*
X347781Y834198D01*
X349719Y833079D01*
X351881Y832500D01*
X354119D01*
X356281Y833079D01*
X358219Y834198D01*
X359802Y835781D01*
X360921Y837719D01*
X361500Y839881D01*
Y842119D01*
X360921Y844281D01*
X359802Y846219D01*
X358219Y847802D01*
X356281Y848921D01*
X354119Y849500D01*
D02*
G37*
G36*
X582817Y641300D02*
X580183D01*
X577640Y640618D01*
X576421Y639914D01*
X581500Y634835D01*
X586579Y639914D01*
X585360Y640618D01*
X582817Y641300D01*
D02*
G37*
G36*
X581500Y631300D02*
D01*
D01*
D01*
D02*
G37*
G36*
X590115Y636379D02*
X585036Y631300D01*
X590115Y626221D01*
X590818Y627440D01*
X591500Y629983D01*
Y632616D01*
X590818Y635159D01*
X590115Y636379D01*
D02*
G37*
G36*
X572885Y636379D02*
X572182Y635159D01*
X571500Y632616D01*
Y629983D01*
X572182Y627440D01*
X572885Y626220D01*
X577965Y631300D01*
X572885Y636379D01*
D02*
G37*
G36*
X785800Y762778D02*
X784239Y762468D01*
X782916Y761584D01*
X782032Y760261D01*
X781722Y758700D01*
X781722Y758700D01*
Y625705D01*
X780548Y625219D01*
X737384Y668384D01*
X736061Y669268D01*
X734500Y669578D01*
X734500Y669578D01*
X491000D01*
X491000Y669578D01*
X489439Y669268D01*
X488116Y668384D01*
X488116Y668384D01*
X487232Y667061D01*
X486922Y665500D01*
X487232Y663939D01*
X488116Y662616D01*
X489439Y661732D01*
X491000Y661422D01*
X491000Y661422D01*
X732811D01*
X782916Y611316D01*
X782916Y611316D01*
X784239Y610432D01*
X785800Y610122D01*
X787361Y610432D01*
X788684Y611316D01*
X789568Y612639D01*
X789878Y614200D01*
X789878Y614200D01*
Y758700D01*
X789878Y758700D01*
X789568Y760261D01*
X788684Y761584D01*
X788684Y761584D01*
X787361Y762468D01*
X785800Y762778D01*
D02*
G37*
G36*
X581500Y627764D02*
X576421Y622685D01*
X577640Y621981D01*
X580183Y621300D01*
X582817D01*
X585360Y621981D01*
X586579Y622685D01*
X581500Y627764D01*
D02*
G37*
G36*
X582619Y588999D02*
X580381D01*
X578219Y588420D01*
X576281Y587301D01*
X574698Y585719D01*
X573579Y583780D01*
X573000Y581618D01*
Y579380D01*
X573579Y577219D01*
X574698Y575280D01*
X576281Y573698D01*
X578219Y572579D01*
X580381Y572000D01*
X582619D01*
X584781Y572579D01*
X586719Y573698D01*
X588302Y575280D01*
X589421Y577219D01*
X590000Y579380D01*
Y581618D01*
X589421Y583780D01*
X588302Y585719D01*
X586719Y587301D01*
X584781Y588420D01*
X582619Y588999D01*
D02*
G37*
G36*
X141392Y685000D02*
X140000D01*
X138714Y684467D01*
X137729Y683483D01*
X137196Y682196D01*
Y680804D01*
X137729Y679517D01*
X137900Y679346D01*
Y562811D01*
X137235Y562146D01*
X136702Y560859D01*
Y559467D01*
X137235Y558181D01*
X137451Y557964D01*
Y442378D01*
X137148Y442075D01*
X136615Y440789D01*
Y439397D01*
X137148Y438110D01*
X137451Y437807D01*
Y392401D01*
X137033Y391983D01*
X136500Y390696D01*
Y389304D01*
X137033Y388017D01*
X138017Y387033D01*
X139304Y386500D01*
X140696D01*
X141983Y387033D01*
X142967Y388017D01*
X143500Y389304D01*
Y390696D01*
X142967Y391983D01*
X142549Y392401D01*
Y437577D01*
X143082Y438110D01*
X143615Y439397D01*
Y440789D01*
X143082Y442075D01*
X142549Y442608D01*
Y557560D01*
X143169Y558181D01*
X143702Y559467D01*
Y560859D01*
X143169Y562146D01*
X142998Y562317D01*
Y678852D01*
X143663Y679517D01*
X144196Y680804D01*
Y682196D01*
X143663Y683483D01*
X142679Y684467D01*
X141392Y685000D01*
D02*
G37*
G36*
X821017Y359200D02*
X818384D01*
X815841Y358518D01*
X814621Y357815D01*
X819700Y352735D01*
X824779Y357815D01*
X823560Y358518D01*
X821017Y359200D01*
D02*
G37*
G36*
X828315Y354279D02*
X823236Y349200D01*
X828315Y344121D01*
X829019Y345340D01*
X829700Y347883D01*
Y350517D01*
X829019Y353060D01*
X828315Y354279D01*
D02*
G37*
G36*
X811086D02*
X810382Y353060D01*
X809700Y350517D01*
Y347883D01*
X810382Y345340D01*
X811086Y344121D01*
X816165Y349200D01*
X811086Y354279D01*
D02*
G37*
G36*
X819700Y345664D02*
X814621Y340585D01*
X815841Y339882D01*
X818384Y339200D01*
X821017D01*
X823560Y339882D01*
X824779Y340586D01*
X819700Y345664D01*
D02*
G37*
G36*
X166632Y117820D02*
X163968D01*
X161394Y117130D01*
X160133Y116402D01*
X165300Y111236D01*
X170467Y116402D01*
X169206Y117130D01*
X166632Y117820D01*
D02*
G37*
G36*
X156598Y112867D02*
X155870Y111606D01*
X155180Y109032D01*
Y106368D01*
X155870Y103794D01*
X156598Y102533D01*
X161765Y107700D01*
X156598Y112867D01*
D02*
G37*
G36*
X174002Y112867D02*
X168836Y107700D01*
X174002Y102533D01*
X174730Y103794D01*
X175420Y106368D01*
Y109032D01*
X174730Y111606D01*
X174002Y112867D01*
D02*
G37*
G36*
X191835Y116320D02*
X189565D01*
X187373Y115732D01*
X185407Y114598D01*
X183802Y112993D01*
X182668Y111027D01*
X182080Y108835D01*
Y106565D01*
X182668Y104373D01*
X183802Y102407D01*
X185407Y100802D01*
X187373Y99667D01*
X189565Y99080D01*
X191835D01*
X194027Y99667D01*
X195993Y100802D01*
X197598Y102407D01*
X198732Y104373D01*
X199320Y106565D01*
Y108835D01*
X198732Y111027D01*
X197598Y112993D01*
X195993Y114598D01*
X194027Y115732D01*
X191835Y116320D01*
D02*
G37*
G36*
X165300Y104164D02*
X160133Y98997D01*
X161394Y98270D01*
X163968Y97580D01*
X166632D01*
X169206Y98270D01*
X170467Y98997D01*
X165300Y104164D01*
D02*
G37*
G36*
X191835Y90920D02*
X189565D01*
X187373Y90332D01*
X185407Y89198D01*
X183802Y87593D01*
X182668Y85627D01*
X182080Y83435D01*
Y81165D01*
X182668Y78973D01*
X183802Y77007D01*
X185407Y75402D01*
X187373Y74267D01*
X189565Y73680D01*
X191835D01*
X194027Y74267D01*
X195993Y75402D01*
X197598Y77007D01*
X198732Y78973D01*
X199320Y81165D01*
Y83435D01*
X198732Y85627D01*
X197598Y87593D01*
X195993Y89198D01*
X194027Y90332D01*
X191835Y90920D01*
D02*
G37*
G36*
X582619Y563600D02*
X580381D01*
X578219Y563020D01*
X576281Y561901D01*
X574698Y560319D01*
X573579Y558380D01*
X573000Y556218D01*
Y553980D01*
X573579Y551819D01*
X574698Y549880D01*
X576281Y548298D01*
X578219Y547179D01*
X580381Y546600D01*
X582619D01*
X584781Y547179D01*
X586719Y548298D01*
X588302Y549880D01*
X589421Y551819D01*
X590000Y553980D01*
Y556218D01*
X589421Y558380D01*
X588302Y560319D01*
X586719Y561901D01*
X584781Y563020D01*
X582619Y563600D01*
D02*
G37*
G36*
X440946Y525997D02*
X439554D01*
X438267Y525464D01*
X437283Y524480D01*
X436750Y523193D01*
Y521801D01*
X437283Y520514D01*
X438267Y519530D01*
X439554Y518997D01*
X440946D01*
X442233Y519530D01*
X442396Y519693D01*
X448341D01*
X466196Y501839D01*
Y499065D01*
X464926Y498539D01*
X451608Y511858D01*
X450698Y512466D01*
X449625Y512679D01*
X441771D01*
X441358Y513092D01*
X440071Y513625D01*
X438679D01*
X437392Y513092D01*
X436408Y512108D01*
X435875Y510821D01*
Y509429D01*
X436408Y508142D01*
X437392Y507158D01*
X438679Y506625D01*
X440071D01*
X441148Y507071D01*
X448464D01*
X460696Y494839D01*
Y478779D01*
X460574Y478636D01*
X459474Y479042D01*
X459304Y479228D01*
Y491525D01*
X459090Y492598D01*
X458483Y493507D01*
X449507Y502483D01*
X448598Y503090D01*
X447525Y503304D01*
X426146D01*
X425983Y503467D01*
X424696Y504000D01*
X423304D01*
X422017Y503467D01*
X421033Y502483D01*
X420500Y501196D01*
Y499804D01*
X421033Y498517D01*
X422017Y497533D01*
X423304Y497000D01*
X424696D01*
X425983Y497533D01*
X426146Y497696D01*
X446363D01*
X449095Y494964D01*
X448797Y493466D01*
X448317Y493267D01*
X447333Y492283D01*
X446800Y490996D01*
Y489604D01*
X447333Y488317D01*
X447844Y487806D01*
Y472949D01*
X441395Y466500D01*
X440804D01*
X439517Y465967D01*
X438533Y464983D01*
X438000Y463696D01*
Y463222D01*
X437018Y462239D01*
X436410Y461330D01*
X436196Y460257D01*
Y422578D01*
X395871D01*
X394310Y422268D01*
X392987Y421384D01*
X392103Y420061D01*
X391793Y418500D01*
X392103Y416939D01*
X392987Y415616D01*
X394310Y414732D01*
X395871Y414422D01*
X476504D01*
X476504Y414422D01*
X478065Y414732D01*
X479388Y415616D01*
X503184Y439412D01*
X503184Y439412D01*
X504068Y440735D01*
X504378Y442296D01*
Y520300D01*
X504068Y521861D01*
X503184Y523184D01*
X501861Y524068D01*
X500300Y524378D01*
X498739Y524068D01*
X497416Y523184D01*
X496532Y521861D01*
X496222Y520300D01*
Y443985D01*
X474815Y422578D01*
X441804D01*
Y459095D01*
X442217Y459509D01*
X443483Y460033D01*
X444467Y461017D01*
X445000Y462304D01*
Y462895D01*
X452196Y470091D01*
X452426Y470436D01*
X453696Y470051D01*
Y446953D01*
X453696Y446953D01*
Y435146D01*
X453533Y434983D01*
X453000Y433696D01*
Y432304D01*
X453533Y431017D01*
X454517Y430033D01*
X455804Y429500D01*
X457196D01*
X458483Y430033D01*
X459467Y431017D01*
X460000Y432304D01*
Y433696D01*
X459467Y434983D01*
X459304Y435146D01*
Y446953D01*
X459304Y446953D01*
Y463265D01*
X459780Y463594D01*
X460574Y463913D01*
X461654Y463465D01*
X463046D01*
X464332Y463998D01*
X464926Y464592D01*
X466196Y464066D01*
Y435146D01*
X466033Y434983D01*
X465500Y433696D01*
Y432304D01*
X466033Y431017D01*
X467017Y430033D01*
X468304Y429500D01*
X469696D01*
X470983Y430033D01*
X471967Y431017D01*
X472500Y432304D01*
Y433696D01*
X471967Y434983D01*
X471804Y435146D01*
Y503000D01*
X471590Y504073D01*
X470983Y504983D01*
X451485Y524480D01*
X450576Y525088D01*
X449503Y525301D01*
X442396D01*
X442233Y525464D01*
X440946Y525997D01*
D02*
G37*
G36*
X319674Y440416D02*
X318282D01*
X316996Y439883D01*
X316011Y438899D01*
X315478Y437612D01*
Y436220D01*
X316011Y434933D01*
X316174Y434770D01*
Y428022D01*
X316388Y426949D01*
X316996Y426039D01*
X331196Y411839D01*
Y386565D01*
X329926Y386039D01*
X321804Y394161D01*
Y402104D01*
X321967Y402267D01*
X322500Y403554D01*
Y404946D01*
X321967Y406233D01*
X320983Y407217D01*
X319696Y407750D01*
X318304D01*
X317017Y407217D01*
X316033Y406233D01*
X315500Y404946D01*
Y403554D01*
X316033Y402267D01*
X316196Y402104D01*
Y393000D01*
X316410Y391927D01*
X317017Y391017D01*
X326196Y381839D01*
Y369864D01*
X325684Y369545D01*
X324926Y369383D01*
X322500Y371809D01*
Y372446D01*
X321967Y373733D01*
X320983Y374717D01*
X319696Y375250D01*
X318304D01*
X317017Y374717D01*
X316033Y373733D01*
X315500Y372446D01*
Y371054D01*
X316033Y369767D01*
X317017Y368783D01*
X318005Y368374D01*
X320331Y366048D01*
Y362450D01*
X320544Y361377D01*
X321152Y360467D01*
X321446Y360173D01*
Y342650D01*
X320176Y341801D01*
X319696Y342000D01*
X318304D01*
X317017Y341467D01*
X316033Y340483D01*
X315500Y339196D01*
Y337804D01*
X316033Y336517D01*
X316196Y336354D01*
Y295177D01*
X307361Y286342D01*
X307266Y286361D01*
X305706Y286050D01*
X304382Y285166D01*
X303498Y283843D01*
X303188Y282282D01*
Y251363D01*
X303188Y251363D01*
X303498Y249802D01*
X304382Y248479D01*
X304732Y248130D01*
X306055Y247246D01*
X307616Y246935D01*
X309177Y247246D01*
X310500Y248130D01*
X311384Y249453D01*
X311694Y251014D01*
X311384Y252574D01*
X311345Y252633D01*
Y282282D01*
X311326Y282377D01*
X320176Y291227D01*
X321446Y290701D01*
Y285541D01*
X320885Y285166D01*
X320001Y283843D01*
X319691Y282282D01*
Y251363D01*
X319690Y251363D01*
X320001Y249802D01*
X320885Y248479D01*
X321235Y248130D01*
X322558Y247246D01*
X324118Y246935D01*
X325679Y247246D01*
X327002Y248130D01*
X327886Y249453D01*
X328197Y251014D01*
X327886Y252574D01*
X327847Y252633D01*
Y282282D01*
X327537Y283843D01*
X327054Y284566D01*
Y289875D01*
X328227Y290361D01*
X336212Y282377D01*
X336193Y282282D01*
X336411Y281185D01*
Y251145D01*
X336411Y251145D01*
X336722Y249584D01*
X337606Y248261D01*
X337737Y248130D01*
X339060Y247246D01*
X340621Y246935D01*
X342182Y247246D01*
X343505Y248130D01*
X344389Y249453D01*
X344699Y251014D01*
X344568Y251674D01*
Y282064D01*
X344568Y282064D01*
X344258Y283625D01*
X343373Y284948D01*
X343155Y285166D01*
X341832Y286050D01*
X340271Y286361D01*
X340177Y286342D01*
X331804Y294715D01*
Y301491D01*
X333074Y302017D01*
X352714Y282377D01*
X352696Y282282D01*
X352914Y281185D01*
Y251145D01*
X352914Y251145D01*
X353224Y249584D01*
X354108Y248261D01*
X354240Y248130D01*
X355563Y247246D01*
X357123Y246935D01*
X358684Y247246D01*
X360007Y248130D01*
X360891Y249453D01*
X361202Y251014D01*
X361071Y251674D01*
Y282064D01*
X361071Y282064D01*
X360760Y283625D01*
X359876Y284948D01*
X359658Y285166D01*
X358335Y286050D01*
X356774Y286361D01*
X356680Y286342D01*
X336804Y306218D01*
Y327126D01*
X338000Y327304D01*
X338533Y326017D01*
X339517Y325033D01*
X340804Y324500D01*
X341035D01*
X377017Y288517D01*
X377927Y287910D01*
X379000Y287696D01*
X628083D01*
Y134117D01*
X614873D01*
X614093Y134898D01*
X612127Y136032D01*
X609935Y136620D01*
X607665D01*
X605473Y136032D01*
X603507Y134898D01*
X602727Y134117D01*
X589473D01*
X588693Y134898D01*
X586727Y136032D01*
X584535Y136620D01*
X582265D01*
X580073Y136032D01*
X578107Y134898D01*
X577327Y134117D01*
X564073D01*
X563293Y134898D01*
X561327Y136032D01*
X559135Y136620D01*
X556865D01*
X554673Y136032D01*
X552707Y134898D01*
X551102Y133293D01*
X549967Y131327D01*
X549380Y129135D01*
Y126865D01*
X549967Y124673D01*
X551102Y122707D01*
X552707Y121102D01*
X554673Y119967D01*
X556865Y119380D01*
X559135D01*
X561327Y119967D01*
X563293Y121102D01*
X564073Y121882D01*
X577327D01*
X578107Y121102D01*
X580073Y119967D01*
X582265Y119380D01*
X584535D01*
X586727Y119967D01*
X588693Y121102D01*
X589473Y121882D01*
X602727D01*
X603507Y121102D01*
X605473Y119967D01*
X607665Y119380D01*
X609935D01*
X612127Y119967D01*
X614093Y121102D01*
X614873Y121882D01*
X628083D01*
Y108717D01*
X614873D01*
X614093Y109498D01*
X612127Y110632D01*
X609935Y111220D01*
X607665D01*
X605473Y110632D01*
X603507Y109498D01*
X602727Y108717D01*
X589473D01*
X588693Y109498D01*
X586727Y110632D01*
X584535Y111220D01*
X582265D01*
X580073Y110632D01*
X578107Y109498D01*
X577327Y108717D01*
X564073D01*
X563293Y109498D01*
X561327Y110632D01*
X559135Y111220D01*
X556865D01*
X554673Y110632D01*
X552707Y109498D01*
X551102Y107893D01*
X549967Y105927D01*
X549380Y103735D01*
Y101465D01*
X549967Y99273D01*
X551102Y97307D01*
X552707Y95702D01*
X554673Y94567D01*
X556865Y93980D01*
X559135D01*
X561327Y94567D01*
X563293Y95702D01*
X564073Y96482D01*
X577327D01*
X578107Y95702D01*
X580073Y94567D01*
X582265Y93980D01*
X584535D01*
X586727Y94567D01*
X588693Y95702D01*
X589473Y96482D01*
X602727D01*
X603507Y95702D01*
X605473Y94567D01*
X607665Y93980D01*
X609935D01*
X612127Y94567D01*
X614093Y95702D01*
X614873Y96482D01*
X628127D01*
X628907Y95702D01*
X630873Y94567D01*
X633065Y93980D01*
X635335D01*
X637527Y94567D01*
X639493Y95702D01*
X640273Y96482D01*
X653527D01*
X654307Y95702D01*
X656273Y94567D01*
X658465Y93980D01*
X660735D01*
X662927Y94567D01*
X664893Y95702D01*
X666498Y97307D01*
X667633Y99273D01*
X668220Y101465D01*
Y103735D01*
X667633Y105927D01*
X666498Y107893D01*
X664893Y109498D01*
X662927Y110632D01*
X660735Y111220D01*
X658465D01*
X656273Y110632D01*
X654307Y109498D01*
X653527Y108717D01*
X640318D01*
Y121882D01*
X653527D01*
X654307Y121102D01*
X656273Y119967D01*
X658465Y119380D01*
X660735D01*
X662927Y119967D01*
X664893Y121102D01*
X666498Y122707D01*
X667633Y124673D01*
X668220Y126865D01*
Y129135D01*
X667633Y131327D01*
X666498Y133293D01*
X664893Y134898D01*
X662927Y136032D01*
X660735Y136620D01*
X658465D01*
X656273Y136032D01*
X654307Y134898D01*
X653527Y134117D01*
X640318D01*
Y290500D01*
Y341300D01*
X639852Y343641D01*
X638526Y345626D01*
X556526Y427626D01*
X554541Y428952D01*
X552200Y429418D01*
X552081D01*
X549740Y428952D01*
X547755Y427626D01*
X546429Y425641D01*
X545964Y423300D01*
X546429Y420959D01*
X547755Y418974D01*
X548113Y418735D01*
X628083Y338766D01*
Y293304D01*
X380161D01*
X345000Y328465D01*
Y328696D01*
X344467Y329983D01*
X343483Y330967D01*
X342196Y331500D01*
X340804D01*
X339517Y330967D01*
X338533Y329983D01*
X338000Y328696D01*
X336804Y328875D01*
Y413000D01*
X336590Y414073D01*
X335983Y414983D01*
X321782Y429183D01*
Y434770D01*
X321945Y434933D01*
X322478Y436220D01*
Y437612D01*
X321945Y438899D01*
X320961Y439883D01*
X319674Y440416D01*
D02*
G37*
G36*
X620815Y286361D02*
X619254Y286050D01*
X617931Y285166D01*
X617047Y283843D01*
X616737Y282282D01*
Y251363D01*
X616736Y251363D01*
X617047Y249802D01*
X617931Y248479D01*
X618281Y248130D01*
X619604Y247246D01*
X621165Y246935D01*
X622725Y247246D01*
X624048Y248130D01*
X624932Y249453D01*
X625243Y251014D01*
X624932Y252574D01*
X624893Y252633D01*
Y282282D01*
X624583Y283843D01*
X623699Y285166D01*
X622376Y286050D01*
X620815Y286361D01*
D02*
G37*
G36*
X587810D02*
X586249Y286050D01*
X584926Y285166D01*
X584042Y283843D01*
X583731Y282282D01*
Y251363D01*
X583731Y251363D01*
X584042Y249802D01*
X584926Y248479D01*
X585275Y248130D01*
X586599Y247246D01*
X588159Y246935D01*
X589720Y247246D01*
X591043Y248130D01*
X591927Y249453D01*
X592238Y251014D01*
X591927Y252574D01*
X591888Y252633D01*
Y282282D01*
X591578Y283843D01*
X590694Y285166D01*
X589370Y286050D01*
X587810Y286361D01*
D02*
G37*
G36*
X554805D02*
X553244Y286050D01*
X551921Y285166D01*
X551037Y283843D01*
X550726Y282282D01*
Y251363D01*
X550726Y251363D01*
X551037Y249802D01*
X551921Y248479D01*
X552270Y248130D01*
X553593Y247246D01*
X555154Y246935D01*
X556715Y247246D01*
X558038Y248130D01*
X558922Y249453D01*
X559232Y251014D01*
X558922Y252574D01*
X558883Y252633D01*
Y282282D01*
X558573Y283843D01*
X557688Y285166D01*
X556365Y286050D01*
X554805Y286361D01*
D02*
G37*
G36*
X538302D02*
X536741Y286050D01*
X535418Y285166D01*
X534534Y283843D01*
X534224Y282282D01*
Y251363D01*
X534224Y251363D01*
X534534Y249802D01*
X535418Y248479D01*
X535768Y248130D01*
X537091Y247246D01*
X538652Y246935D01*
X540212Y247246D01*
X541535Y248130D01*
X542420Y249453D01*
X542730Y251014D01*
X542420Y252574D01*
X542380Y252633D01*
Y282282D01*
X542070Y283843D01*
X541186Y285166D01*
X539863Y286050D01*
X538302Y286361D01*
D02*
G37*
G36*
X521799D02*
X520239Y286050D01*
X518916Y285166D01*
X518032Y283843D01*
X517721Y282282D01*
Y251363D01*
X517721Y251363D01*
X518032Y249802D01*
X518916Y248479D01*
X519265Y248130D01*
X520588Y247246D01*
X522149Y246935D01*
X523710Y247246D01*
X525033Y248130D01*
X525917Y249453D01*
X526227Y251014D01*
X525917Y252574D01*
X525878Y252633D01*
Y282282D01*
X525567Y283843D01*
X524683Y285166D01*
X523360Y286050D01*
X521799Y286361D01*
D02*
G37*
G36*
X488795D02*
X487234Y286050D01*
X485911Y285166D01*
X485027Y283843D01*
X484716Y282282D01*
Y251363D01*
X484716Y251363D01*
X485027Y249802D01*
X485911Y248479D01*
X486260Y248130D01*
X487583Y247246D01*
X489144Y246935D01*
X490705Y247246D01*
X492028Y248130D01*
X492912Y249453D01*
X493222Y251014D01*
X492912Y252574D01*
X492873Y252633D01*
Y282282D01*
X492562Y283843D01*
X491678Y285166D01*
X490355Y286050D01*
X488795Y286361D01*
D02*
G37*
G36*
X472292D02*
X470731Y286050D01*
X469408Y285166D01*
X468524Y283843D01*
X468213Y282282D01*
Y251363D01*
X468213Y251363D01*
X468524Y249802D01*
X469408Y248479D01*
X469757Y248130D01*
X471081Y247246D01*
X472641Y246935D01*
X474202Y247246D01*
X475525Y248130D01*
X476409Y249453D01*
X476720Y251014D01*
X476409Y252574D01*
X476370Y252633D01*
Y282282D01*
X476060Y283843D01*
X475176Y285166D01*
X473853Y286050D01*
X472292Y286361D01*
D02*
G37*
G36*
X455789D02*
X454229Y286050D01*
X452905Y285166D01*
X452021Y283843D01*
X451711Y282282D01*
Y251363D01*
X451711Y251363D01*
X452021Y249802D01*
X452905Y248479D01*
X453255Y248130D01*
X454578Y247246D01*
X456139Y246935D01*
X457700Y247246D01*
X459023Y248130D01*
X459907Y249453D01*
X460217Y251014D01*
X459907Y252574D01*
X459868Y252633D01*
Y282282D01*
X459557Y283843D01*
X458673Y285166D01*
X457350Y286050D01*
X455789Y286361D01*
D02*
G37*
G36*
X439287D02*
X437726Y286050D01*
X436403Y285166D01*
X435519Y283843D01*
X435208Y282282D01*
Y251363D01*
X435208Y251363D01*
X435519Y249802D01*
X436403Y248479D01*
X436752Y248130D01*
X438075Y247246D01*
X439636Y246935D01*
X441197Y247246D01*
X442520Y248130D01*
X443404Y249453D01*
X443714Y251014D01*
X443404Y252574D01*
X443365Y252633D01*
Y282282D01*
X443055Y283843D01*
X442170Y285166D01*
X440847Y286050D01*
X439287Y286361D01*
D02*
G37*
G36*
X422784D02*
X421223Y286050D01*
X419900Y285166D01*
X419016Y283843D01*
X418706Y282282D01*
Y251363D01*
X418706Y251363D01*
X419016Y249802D01*
X419900Y248479D01*
X420250Y248130D01*
X421573Y247246D01*
X423134Y246935D01*
X424695Y247246D01*
X426018Y248130D01*
X426902Y249453D01*
X427212Y251014D01*
X426902Y252574D01*
X426863Y252633D01*
Y282282D01*
X426552Y283843D01*
X425668Y285166D01*
X424345Y286050D01*
X422784Y286361D01*
D02*
G37*
G36*
X373277D02*
X371716Y286050D01*
X370393Y285166D01*
X369509Y283843D01*
X369198Y282282D01*
Y251363D01*
X369198Y251363D01*
X369509Y249802D01*
X370393Y248479D01*
X370742Y248130D01*
X372065Y247246D01*
X373626Y246935D01*
X375187Y247246D01*
X376510Y248130D01*
X377394Y249453D01*
X377705Y251014D01*
X377394Y252574D01*
X377355Y252633D01*
Y282282D01*
X377044Y283843D01*
X376160Y285166D01*
X374837Y286050D01*
X373277Y286361D01*
D02*
G37*
G36*
X406282Y286360D02*
X404721Y286050D01*
X403398Y285166D01*
X402514Y283843D01*
X402203Y282282D01*
X402422Y281185D01*
Y251145D01*
X402422Y251145D01*
X402732Y249584D01*
X403616Y248261D01*
X403747Y248129D01*
X405071Y247245D01*
X406631Y246935D01*
X408192Y247245D01*
X409515Y248129D01*
X410399Y249452D01*
X410710Y251013D01*
X410578Y251673D01*
Y282064D01*
X410578Y282064D01*
X410268Y283624D01*
X409384Y284948D01*
X409166Y285166D01*
X407842Y286050D01*
X406282Y286360D01*
D02*
G37*
G36*
X389779Y286360D02*
X388218Y286050D01*
X386895Y285166D01*
X386011Y283843D01*
X385701Y282282D01*
Y251363D01*
X385701Y251363D01*
X386011Y249802D01*
X386895Y248479D01*
X387245Y248129D01*
X388568Y247245D01*
X390129Y246935D01*
X391689Y247245D01*
X393013Y248129D01*
X393897Y249452D01*
X394207Y251013D01*
X393897Y252574D01*
X393858Y252632D01*
Y282282D01*
X393547Y283843D01*
X392663Y285166D01*
X391340Y286050D01*
X389779Y286360D01*
D02*
G37*
G36*
X604313Y286360D02*
X602752Y286050D01*
X601429Y285166D01*
X600545Y283843D01*
X600234Y282282D01*
Y251363D01*
X600234Y251363D01*
X600545Y249802D01*
X601429Y248479D01*
X601778Y248129D01*
X603101Y247245D01*
X604662Y246935D01*
X606223Y247245D01*
X607546Y248129D01*
X608430Y249452D01*
X608740Y251013D01*
X608430Y252574D01*
X608391Y252632D01*
Y282282D01*
X608080Y283843D01*
X607196Y285166D01*
X605873Y286050D01*
X604313Y286360D01*
D02*
G37*
G36*
X505297Y286360D02*
X503736Y286050D01*
X502413Y285166D01*
X501529Y283843D01*
X501219Y282282D01*
Y251363D01*
X501219Y251363D01*
X501529Y249802D01*
X502413Y248479D01*
X502763Y248129D01*
X504086Y247245D01*
X505647Y246935D01*
X507207Y247245D01*
X508531Y248129D01*
X509415Y249452D01*
X509725Y251013D01*
X509415Y252574D01*
X509375Y252632D01*
Y282282D01*
X509065Y283843D01*
X508181Y285166D01*
X506858Y286050D01*
X505297Y286360D01*
D02*
G37*
G36*
X571307Y286111D02*
X569747Y285800D01*
X568423Y284916D01*
X567539Y283593D01*
X567229Y282032D01*
Y251113D01*
X567229Y251113D01*
X567539Y249552D01*
X568423Y248229D01*
X568773Y247880D01*
X570096Y246996D01*
X571657Y246685D01*
X573218Y246996D01*
X574541Y247880D01*
X575425Y249203D01*
X575735Y250764D01*
X575425Y252324D01*
X575386Y252383D01*
Y282032D01*
X575075Y283593D01*
X574191Y284916D01*
X572868Y285800D01*
X571307Y286111D01*
D02*
G37*
G36*
X621586Y223106D02*
X620194D01*
X618907Y222574D01*
X617923Y221589D01*
X617390Y220303D01*
Y218910D01*
X617799Y217923D01*
Y217164D01*
X536396Y135762D01*
X535927Y136032D01*
X533735Y136620D01*
X531465D01*
X529273Y136032D01*
X527307Y134898D01*
X525702Y133293D01*
X524567Y131327D01*
X524173Y129853D01*
X522902Y130020D01*
Y134157D01*
X604852Y216107D01*
X605083D01*
X606370Y216639D01*
X607354Y217624D01*
X607887Y218910D01*
Y220303D01*
X607354Y221589D01*
X606370Y222574D01*
X605083Y223106D01*
X603691D01*
X602405Y222574D01*
X601420Y221589D01*
X600887Y220303D01*
Y220072D01*
X518116Y137301D01*
X517508Y136391D01*
X517295Y135318D01*
Y115101D01*
X517508Y114028D01*
X518116Y113119D01*
X524838Y106396D01*
X524567Y105927D01*
X523980Y103735D01*
Y101465D01*
X524567Y99273D01*
X525702Y97307D01*
X527307Y95702D01*
X529273Y94567D01*
X531465Y93980D01*
X533735D01*
X535927Y94567D01*
X537893Y95702D01*
X539498Y97307D01*
X540633Y99273D01*
X541220Y101465D01*
Y103735D01*
X540633Y105927D01*
X539498Y107893D01*
X537893Y109498D01*
X535927Y110632D01*
X533735Y111220D01*
X531465D01*
X529273Y110632D01*
X528804Y110362D01*
X522902Y116263D01*
Y125980D01*
X524173Y126147D01*
X524567Y124673D01*
X525702Y122707D01*
X527307Y121102D01*
X529273Y119967D01*
X531465Y119380D01*
X533735D01*
X535927Y119967D01*
X537893Y121102D01*
X539498Y122707D01*
X540633Y124673D01*
X541220Y126865D01*
Y129135D01*
X540633Y131327D01*
X540362Y131796D01*
X622585Y214020D01*
X623193Y214930D01*
X623407Y216003D01*
Y217174D01*
X623857Y217624D01*
X624390Y218910D01*
Y220303D01*
X623857Y221589D01*
X622872Y222574D01*
X621586Y223106D01*
D02*
G37*
G36*
X588581D02*
X587188D01*
X585902Y222574D01*
X584917Y221589D01*
X584385Y220303D01*
Y219666D01*
X581642Y216924D01*
X581035Y216014D01*
X580821Y214941D01*
Y211374D01*
X507418Y137971D01*
X506810Y137061D01*
X506722Y136620D01*
X506065D01*
X503873Y136032D01*
X501907Y134898D01*
X500904Y133894D01*
X499634Y134420D01*
Y143893D01*
X571847Y216107D01*
X572078D01*
X573365Y216639D01*
X574349Y217624D01*
X574882Y218910D01*
Y220303D01*
X574349Y221589D01*
X573365Y222574D01*
X572078Y223106D01*
X570686D01*
X569399Y222574D01*
X568415Y221589D01*
X567882Y220303D01*
Y220072D01*
X558953Y211143D01*
X557683Y211669D01*
Y217461D01*
X557847Y217624D01*
X558380Y218910D01*
Y220303D01*
X557847Y221589D01*
X556862Y222574D01*
X555576Y223106D01*
X554183D01*
X552897Y222574D01*
X551912Y221589D01*
X551380Y220303D01*
Y218910D01*
X551912Y217624D01*
X552076Y217461D01*
Y211518D01*
X480695Y140137D01*
X480087Y139227D01*
X479873Y138154D01*
Y136408D01*
X478473Y136032D01*
X476507Y134898D01*
X475504Y133894D01*
X474234Y134420D01*
Y151498D01*
X538842Y216107D01*
X539073D01*
X540360Y216639D01*
X541344Y217624D01*
X541877Y218910D01*
Y220303D01*
X541344Y221589D01*
X540360Y222574D01*
X539073Y223106D01*
X537681D01*
X536394Y222574D01*
X535410Y221589D01*
X534877Y220303D01*
Y220072D01*
X469447Y154642D01*
X468840Y153733D01*
X468626Y152660D01*
Y112970D01*
X468840Y111897D01*
X469447Y110987D01*
X474038Y106396D01*
X473768Y105927D01*
X473180Y103735D01*
Y101465D01*
X473768Y99273D01*
X474902Y97307D01*
X476507Y95702D01*
X478473Y94567D01*
X480665Y93980D01*
X482935D01*
X485127Y94567D01*
X487093Y95702D01*
X488698Y97307D01*
X489832Y99273D01*
X490420Y101465D01*
Y103735D01*
X489832Y105927D01*
X488698Y107893D01*
X487093Y109498D01*
X485127Y110632D01*
X482935Y111220D01*
X480665D01*
X478473Y110632D01*
X478004Y110362D01*
X474234Y114131D01*
Y121580D01*
X475504Y122106D01*
X476507Y121102D01*
X478473Y119967D01*
X480665Y119380D01*
X482935D01*
X485127Y119967D01*
X487093Y121102D01*
X488698Y122707D01*
X489832Y124673D01*
X490420Y126865D01*
Y129135D01*
X489832Y131327D01*
X488698Y133293D01*
X487093Y134898D01*
X485587Y135767D01*
X485498Y137010D01*
X492756Y144268D01*
X494026Y143742D01*
Y112970D01*
X494240Y111897D01*
X494847Y110987D01*
X499438Y106396D01*
X499168Y105927D01*
X498580Y103735D01*
Y101465D01*
X499168Y99273D01*
X500302Y97307D01*
X501907Y95702D01*
X503873Y94567D01*
X506065Y93980D01*
X508335D01*
X510527Y94567D01*
X512493Y95702D01*
X514098Y97307D01*
X515233Y99273D01*
X515820Y101465D01*
Y103735D01*
X515233Y105927D01*
X514098Y107893D01*
X512493Y109498D01*
X510527Y110632D01*
X508335Y111220D01*
X506065D01*
X503873Y110632D01*
X503404Y110362D01*
X499634Y114131D01*
Y121580D01*
X500904Y122106D01*
X501907Y121102D01*
X503873Y119967D01*
X506065Y119380D01*
X508335D01*
X510527Y119967D01*
X512493Y121102D01*
X514098Y122707D01*
X515233Y124673D01*
X515820Y126865D01*
Y129135D01*
X515233Y131327D01*
X514098Y133293D01*
X513282Y134109D01*
X513237Y135859D01*
X585608Y208230D01*
X586216Y209140D01*
X586429Y210213D01*
Y213780D01*
X588880Y216230D01*
X589867Y216639D01*
X590852Y217624D01*
X591385Y218910D01*
Y220303D01*
X590852Y221589D01*
X589867Y222574D01*
X588581Y223106D01*
D02*
G37*
G36*
X522571D02*
X521178D01*
X519892Y222574D01*
X518907Y221589D01*
X518374Y220303D01*
Y220072D01*
X454417Y156115D01*
X453810Y155205D01*
X453596Y154132D01*
Y136173D01*
X453073Y136032D01*
X451107Y134898D01*
X450104Y133894D01*
X448834Y134420D01*
Y159103D01*
X505837Y216107D01*
X506068D01*
X507355Y216639D01*
X508339Y217624D01*
X508872Y218910D01*
Y220303D01*
X508339Y221589D01*
X507355Y222574D01*
X506068Y223106D01*
X504676D01*
X503389Y222574D01*
X502405Y221589D01*
X501872Y220303D01*
Y220072D01*
X444047Y162247D01*
X443440Y161338D01*
X443226Y160265D01*
Y112970D01*
X443440Y111897D01*
X444047Y110987D01*
X448638Y106396D01*
X448368Y105927D01*
X447780Y103735D01*
Y101465D01*
X448368Y99273D01*
X449502Y97307D01*
X451107Y95702D01*
X453073Y94567D01*
X455265Y93980D01*
X457535D01*
X459727Y94567D01*
X461693Y95702D01*
X463298Y97307D01*
X464432Y99273D01*
X465020Y101465D01*
Y103735D01*
X464432Y105927D01*
X463298Y107893D01*
X461693Y109498D01*
X459727Y110632D01*
X457535Y111220D01*
X455265D01*
X453073Y110632D01*
X452604Y110362D01*
X448834Y114131D01*
Y121580D01*
X450104Y122106D01*
X451107Y121102D01*
X453073Y119967D01*
X455265Y119380D01*
X457535D01*
X459727Y119967D01*
X461693Y121102D01*
X463298Y122707D01*
X464432Y124673D01*
X465020Y126865D01*
Y129135D01*
X464432Y131327D01*
X463298Y133293D01*
X461693Y134898D01*
X459727Y136032D01*
X459204Y136173D01*
Y152971D01*
X522340Y216107D01*
X522571D01*
X523857Y216639D01*
X524842Y217624D01*
X525374Y218910D01*
Y220303D01*
X524842Y221589D01*
X523857Y222574D01*
X522571Y223106D01*
D02*
G37*
G36*
X489566D02*
X488173D01*
X486887Y222574D01*
X485902Y221589D01*
X485369Y220303D01*
Y220072D01*
X429017Y163720D01*
X428410Y162810D01*
X428196Y161737D01*
Y136173D01*
X427673Y136032D01*
X425707Y134898D01*
X424704Y133894D01*
X423434Y134420D01*
Y166708D01*
X472832Y216107D01*
X473063D01*
X474349Y216639D01*
X475334Y217624D01*
X475867Y218910D01*
Y220303D01*
X475334Y221589D01*
X474349Y222574D01*
X473063Y223106D01*
X471671D01*
X470384Y222574D01*
X469400Y221589D01*
X468867Y220303D01*
Y220072D01*
X418647Y169852D01*
X418040Y168943D01*
X417826Y167870D01*
Y112970D01*
X418040Y111897D01*
X418647Y110987D01*
X423238Y106396D01*
X422967Y105927D01*
X422380Y103735D01*
Y101465D01*
X422967Y99273D01*
X424102Y97307D01*
X425707Y95702D01*
X427673Y94567D01*
X429865Y93980D01*
X432135D01*
X434327Y94567D01*
X436293Y95702D01*
X437898Y97307D01*
X439033Y99273D01*
X439620Y101465D01*
Y103735D01*
X439033Y105927D01*
X437898Y107893D01*
X436293Y109498D01*
X434327Y110632D01*
X432135Y111220D01*
X429865D01*
X427673Y110632D01*
X427204Y110362D01*
X423434Y114131D01*
Y121580D01*
X424704Y122106D01*
X425707Y121102D01*
X427673Y119967D01*
X429865Y119380D01*
X432135D01*
X434327Y119967D01*
X436293Y121102D01*
X437898Y122707D01*
X439033Y124673D01*
X439620Y126865D01*
Y129135D01*
X439033Y131327D01*
X437898Y133293D01*
X436293Y134898D01*
X434327Y136032D01*
X433804Y136173D01*
Y160576D01*
X489335Y216107D01*
X489566D01*
X490852Y216639D01*
X491837Y217624D01*
X492369Y218910D01*
Y220303D01*
X491837Y221589D01*
X490852Y222574D01*
X489566Y223106D01*
D02*
G37*
G36*
X456560D02*
X455168D01*
X453882Y222574D01*
X452897Y221589D01*
X452364Y220303D01*
Y220072D01*
X403617Y171325D01*
X403010Y170415D01*
X402796Y169342D01*
Y136173D01*
X402273Y136032D01*
X400307Y134898D01*
X399304Y133894D01*
X398034Y134420D01*
Y174314D01*
X439827Y216107D01*
X440058D01*
X441344Y216639D01*
X442329Y217624D01*
X442862Y218910D01*
Y220303D01*
X442329Y221589D01*
X441344Y222574D01*
X440058Y223106D01*
X438665D01*
X437379Y222574D01*
X436395Y221589D01*
X435862Y220303D01*
Y220072D01*
X393247Y177458D01*
X392640Y176548D01*
X392426Y175475D01*
Y112970D01*
X392640Y111897D01*
X393247Y110987D01*
X397838Y106396D01*
X397567Y105927D01*
X396980Y103735D01*
Y101465D01*
X397567Y99273D01*
X398702Y97307D01*
X400307Y95702D01*
X402273Y94567D01*
X404465Y93980D01*
X406735D01*
X408927Y94567D01*
X410893Y95702D01*
X412498Y97307D01*
X413633Y99273D01*
X414220Y101465D01*
Y103735D01*
X413633Y105927D01*
X412498Y107893D01*
X410893Y109498D01*
X408927Y110632D01*
X406735Y111220D01*
X404465D01*
X402273Y110632D01*
X401804Y110362D01*
X398034Y114131D01*
Y121580D01*
X399304Y122106D01*
X400307Y121102D01*
X402273Y119967D01*
X404465Y119380D01*
X406735D01*
X408927Y119967D01*
X410893Y121102D01*
X412498Y122707D01*
X413633Y124673D01*
X414220Y126865D01*
Y129135D01*
X413633Y131327D01*
X412498Y133293D01*
X410893Y134898D01*
X408927Y136032D01*
X408404Y136173D01*
Y168181D01*
X456329Y216107D01*
X456560D01*
X457847Y216639D01*
X458831Y217624D01*
X459364Y218910D01*
Y220303D01*
X458831Y221589D01*
X457847Y222574D01*
X456560Y223106D01*
D02*
G37*
G36*
X423555D02*
X422163D01*
X420877Y222574D01*
X419892Y221589D01*
X419359Y220303D01*
Y220072D01*
X378217Y178930D01*
X377610Y178020D01*
X377396Y176947D01*
Y136173D01*
X376873Y136032D01*
X374907Y134898D01*
X373904Y133894D01*
X372634Y134420D01*
Y181919D01*
X406822Y216107D01*
X407053D01*
X408339Y216639D01*
X409324Y217624D01*
X409856Y218910D01*
Y220303D01*
X409324Y221589D01*
X408339Y222574D01*
X407053Y223106D01*
X405660D01*
X404374Y222574D01*
X403389Y221589D01*
X402856Y220303D01*
Y220072D01*
X367847Y185063D01*
X367240Y184153D01*
X367026Y183080D01*
Y112970D01*
X367240Y111897D01*
X367847Y110987D01*
X372438Y106396D01*
X372168Y105927D01*
X371580Y103735D01*
Y101465D01*
X372168Y99273D01*
X373302Y97307D01*
X374907Y95702D01*
X376873Y94567D01*
X379065Y93980D01*
X381335D01*
X383527Y94567D01*
X385493Y95702D01*
X387098Y97307D01*
X388232Y99273D01*
X388820Y101465D01*
Y103735D01*
X388232Y105927D01*
X387098Y107893D01*
X385493Y109498D01*
X383527Y110632D01*
X381335Y111220D01*
X379065D01*
X376873Y110632D01*
X376404Y110362D01*
X372634Y114131D01*
Y121580D01*
X373904Y122106D01*
X374907Y121102D01*
X376873Y119967D01*
X379065Y119380D01*
X381335D01*
X383527Y119967D01*
X385493Y121102D01*
X387098Y122707D01*
X388232Y124673D01*
X388820Y126865D01*
Y129135D01*
X388232Y131327D01*
X387098Y133293D01*
X385493Y134898D01*
X383527Y136032D01*
X383004Y136173D01*
Y175786D01*
X423324Y216107D01*
X423555D01*
X424842Y216639D01*
X425826Y217624D01*
X426359Y218910D01*
Y220303D01*
X425826Y221589D01*
X424842Y222574D01*
X423555Y223106D01*
D02*
G37*
G36*
X390550D02*
X389158D01*
X387871Y222574D01*
X386887Y221589D01*
X386354Y220303D01*
Y220072D01*
X352817Y186535D01*
X352210Y185626D01*
X351996Y184553D01*
Y136173D01*
X351473Y136032D01*
X349507Y134898D01*
X348504Y133894D01*
X347234Y134420D01*
Y189524D01*
X373817Y216107D01*
X374048D01*
X375334Y216639D01*
X376319Y217624D01*
X376851Y218910D01*
Y220303D01*
X376319Y221589D01*
X375334Y222574D01*
X374048Y223106D01*
X372655D01*
X371369Y222574D01*
X370384Y221589D01*
X369851Y220303D01*
Y220072D01*
X342447Y192668D01*
X341840Y191758D01*
X341626Y190685D01*
Y112970D01*
X341840Y111897D01*
X342447Y110987D01*
X347038Y106396D01*
X346768Y105927D01*
X346180Y103735D01*
Y101465D01*
X346768Y99273D01*
X347902Y97307D01*
X349507Y95702D01*
X351473Y94567D01*
X353665Y93980D01*
X355935D01*
X358127Y94567D01*
X360093Y95702D01*
X361698Y97307D01*
X362832Y99273D01*
X363420Y101465D01*
Y103735D01*
X362832Y105927D01*
X361698Y107893D01*
X360093Y109498D01*
X358127Y110632D01*
X355935Y111220D01*
X353665D01*
X351473Y110632D01*
X351004Y110362D01*
X347234Y114131D01*
Y121580D01*
X348504Y122106D01*
X349507Y121102D01*
X351473Y119967D01*
X353665Y119380D01*
X355935D01*
X358127Y119967D01*
X360093Y121102D01*
X361698Y122707D01*
X362832Y124673D01*
X363420Y126865D01*
Y129135D01*
X362832Y131327D01*
X361698Y133293D01*
X360093Y134898D01*
X358127Y136032D01*
X357604Y136173D01*
Y183391D01*
X390319Y216107D01*
X390550D01*
X391837Y216639D01*
X392821Y217624D01*
X393354Y218910D01*
Y220303D01*
X392821Y221589D01*
X391837Y222574D01*
X390550Y223106D01*
D02*
G37*
G36*
X357545D02*
X356153D01*
X354866Y222574D01*
X353882Y221589D01*
X353349Y220303D01*
Y220072D01*
X327417Y194140D01*
X326810Y193231D01*
X326596Y192158D01*
Y136173D01*
X326073Y136032D01*
X324107Y134898D01*
X323104Y133894D01*
X321834Y134420D01*
Y197129D01*
X340812Y216107D01*
X341043D01*
X342329Y216639D01*
X343313Y217624D01*
X343846Y218910D01*
Y220303D01*
X343313Y221589D01*
X342329Y222574D01*
X341043Y223106D01*
X339650D01*
X338364Y222574D01*
X337379Y221589D01*
X336846Y220303D01*
Y220072D01*
X317047Y200273D01*
X316440Y199363D01*
X316226Y198290D01*
Y112970D01*
X316440Y111897D01*
X317047Y110987D01*
X321638Y106396D01*
X321367Y105927D01*
X320780Y103735D01*
Y101465D01*
X321367Y99273D01*
X322502Y97307D01*
X324107Y95702D01*
X326073Y94567D01*
X328265Y93980D01*
X330535D01*
X332727Y94567D01*
X334693Y95702D01*
X336298Y97307D01*
X337433Y99273D01*
X338020Y101465D01*
Y103735D01*
X337433Y105927D01*
X336298Y107893D01*
X334693Y109498D01*
X332727Y110632D01*
X330535Y111220D01*
X328265D01*
X326073Y110632D01*
X325604Y110362D01*
X321834Y114131D01*
Y121580D01*
X323104Y122106D01*
X324107Y121102D01*
X326073Y119967D01*
X328265Y119380D01*
X330535D01*
X332727Y119967D01*
X334693Y121102D01*
X336298Y122707D01*
X337433Y124673D01*
X338020Y126865D01*
Y129135D01*
X337433Y131327D01*
X336298Y133293D01*
X334693Y134898D01*
X332727Y136032D01*
X332204Y136173D01*
Y190996D01*
X357314Y216107D01*
X357545D01*
X358831Y216639D01*
X359816Y217624D01*
X360349Y218910D01*
Y220303D01*
X359816Y221589D01*
X358831Y222574D01*
X357545Y223106D01*
D02*
G37*
G36*
X324540D02*
X323148D01*
X321861Y222574D01*
X320877Y221589D01*
X320344Y220303D01*
Y220072D01*
X302017Y201745D01*
X301410Y200836D01*
X301196Y199763D01*
Y136173D01*
X300673Y136032D01*
X298707Y134898D01*
X297704Y133894D01*
X296434Y134420D01*
Y204734D01*
X307806Y216107D01*
X308037D01*
X309324Y216639D01*
X310308Y217624D01*
X310841Y218910D01*
Y220303D01*
X310308Y221589D01*
X309324Y222574D01*
X308037Y223106D01*
X306645D01*
X305359Y222574D01*
X304374Y221589D01*
X303841Y220303D01*
Y220072D01*
X291647Y207878D01*
X291040Y206968D01*
X290826Y205895D01*
Y112970D01*
X291040Y111897D01*
X291647Y110987D01*
X296238Y106396D01*
X295968Y105927D01*
X295380Y103735D01*
Y101465D01*
X295968Y99273D01*
X297102Y97307D01*
X298707Y95702D01*
X300673Y94567D01*
X302865Y93980D01*
X305135D01*
X307327Y94567D01*
X309293Y95702D01*
X310898Y97307D01*
X312033Y99273D01*
X312620Y101465D01*
Y103735D01*
X312033Y105927D01*
X310898Y107893D01*
X309293Y109498D01*
X307327Y110632D01*
X305135Y111220D01*
X302865D01*
X300673Y110632D01*
X300204Y110362D01*
X296434Y114131D01*
Y121580D01*
X297704Y122106D01*
X298707Y121102D01*
X300673Y119967D01*
X302865Y119380D01*
X305135D01*
X307327Y119967D01*
X309293Y121102D01*
X310898Y122707D01*
X312033Y124673D01*
X312620Y126865D01*
Y129135D01*
X312033Y131327D01*
X310898Y133293D01*
X309293Y134898D01*
X307327Y136032D01*
X306804Y136173D01*
Y198601D01*
X324309Y216107D01*
X324540D01*
X325826Y216639D01*
X326811Y217624D01*
X327344Y218910D01*
Y220303D01*
X326811Y221589D01*
X325826Y222574D01*
X324540Y223106D01*
D02*
G37*
G36*
X1349535Y435920D02*
X1347265D01*
X1345073Y435333D01*
X1343107Y434198D01*
X1341502Y432593D01*
X1340367Y430627D01*
X1339780Y428435D01*
Y426165D01*
X1340367Y423973D01*
X1341502Y422007D01*
X1342283Y421227D01*
Y408018D01*
X1329117D01*
Y421227D01*
X1329898Y422007D01*
X1331033Y423973D01*
X1331620Y426165D01*
Y428435D01*
X1331033Y430627D01*
X1329898Y432593D01*
X1328293Y434198D01*
X1326327Y435333D01*
X1324135Y435920D01*
X1321865D01*
X1319673Y435333D01*
X1317707Y434198D01*
X1316102Y432593D01*
X1314967Y430627D01*
X1314380Y428435D01*
Y426165D01*
X1314967Y423973D01*
X1316102Y422007D01*
X1316882Y421227D01*
Y408018D01*
X1109700D01*
X1107359Y407552D01*
X1105374Y406226D01*
X1023374Y324226D01*
X1022048Y322241D01*
X1021582Y319900D01*
Y319781D01*
X1022048Y317440D01*
X1023374Y315455D01*
X1025359Y314129D01*
X1027700Y313664D01*
X1030041Y314129D01*
X1032026Y315455D01*
X1032265Y315813D01*
X1112234Y395783D01*
X1157696D01*
Y147861D01*
X1122535Y112700D01*
X1122304D01*
X1121017Y112167D01*
X1120033Y111183D01*
X1119500Y109896D01*
Y108504D01*
X1120033Y107217D01*
X1121017Y106233D01*
X1122304Y105700D01*
X1122125Y104504D01*
X1038000D01*
X1036927Y104290D01*
X1036017Y103683D01*
X1021817Y89482D01*
X1016230D01*
X1016067Y89645D01*
X1014780Y90178D01*
X1013388D01*
X1012101Y89645D01*
X1011117Y88661D01*
X1010584Y87374D01*
Y85982D01*
X1011117Y84696D01*
X1012101Y83711D01*
X1013388Y83178D01*
X1014780D01*
X1016067Y83711D01*
X1016230Y83874D01*
X1022978D01*
X1024051Y84088D01*
X1024961Y84696D01*
X1039161Y98896D01*
X1064435D01*
X1064961Y97626D01*
X1056839Y89504D01*
X1048896D01*
X1048733Y89667D01*
X1047446Y90200D01*
X1046054D01*
X1044767Y89667D01*
X1043783Y88683D01*
X1043250Y87396D01*
Y86004D01*
X1043783Y84717D01*
X1044767Y83733D01*
X1046054Y83200D01*
X1047446D01*
X1048733Y83733D01*
X1048896Y83896D01*
X1058000D01*
X1059073Y84110D01*
X1059983Y84717D01*
X1069161Y93896D01*
X1081136D01*
X1081455Y93384D01*
X1081617Y92626D01*
X1079191Y90200D01*
X1078554D01*
X1077267Y89667D01*
X1076283Y88683D01*
X1075750Y87396D01*
Y86004D01*
X1076283Y84717D01*
X1077267Y83733D01*
X1078554Y83200D01*
X1079946D01*
X1081233Y83733D01*
X1082217Y84717D01*
X1082626Y85705D01*
X1084952Y88031D01*
X1088550D01*
X1089623Y88244D01*
X1090533Y88852D01*
X1090827Y89146D01*
X1108350D01*
X1109199Y87876D01*
X1109000Y87396D01*
Y86004D01*
X1109533Y84717D01*
X1110517Y83733D01*
X1111804Y83200D01*
X1113196D01*
X1114482Y83733D01*
X1114646Y83896D01*
X1155823D01*
X1164658Y75061D01*
X1164639Y74966D01*
X1164950Y73406D01*
X1165834Y72083D01*
X1167157Y71198D01*
X1168718Y70888D01*
X1199821D01*
X1199822Y70888D01*
X1201382Y71198D01*
X1202705Y72083D01*
X1202911Y72288D01*
X1203795Y73611D01*
X1204105Y75171D01*
X1203795Y76732D01*
X1202911Y78055D01*
X1201587Y78939D01*
X1200027Y79250D01*
X1198995Y79045D01*
X1168718D01*
X1168623Y79026D01*
X1159773Y87876D01*
X1160299Y89146D01*
X1165459D01*
X1165834Y88585D01*
X1167157Y87701D01*
X1168718Y87391D01*
X1199821D01*
X1199822Y87391D01*
X1201382Y87701D01*
X1202705Y88585D01*
X1202911Y88790D01*
X1203795Y90113D01*
X1204105Y91674D01*
X1203795Y93235D01*
X1202911Y94558D01*
X1201587Y95442D01*
X1200027Y95752D01*
X1198995Y95547D01*
X1168718D01*
X1167157Y95237D01*
X1166434Y94754D01*
X1161125D01*
X1160639Y95927D01*
X1168623Y103912D01*
X1168718Y103893D01*
X1169749Y104098D01*
X1200027D01*
X1201587Y104409D01*
X1202911Y105293D01*
X1203795Y106616D01*
X1204105Y108177D01*
X1203795Y109737D01*
X1202911Y111060D01*
X1201587Y111945D01*
X1200027Y112255D01*
X1168923D01*
X1168923Y112255D01*
X1167362Y111945D01*
X1166039Y111060D01*
X1166039Y111060D01*
X1165834Y110855D01*
X1164950Y109532D01*
X1164639Y107971D01*
X1164658Y107877D01*
X1156285Y99504D01*
X1149509D01*
X1148983Y100774D01*
X1168623Y120414D01*
X1168718Y120396D01*
X1169749Y120601D01*
X1200027D01*
X1201587Y120911D01*
X1202911Y121795D01*
X1203795Y123118D01*
X1204105Y124679D01*
X1203795Y126240D01*
X1202911Y127563D01*
X1201587Y128447D01*
X1200027Y128757D01*
X1168923D01*
X1168923Y128757D01*
X1167362Y128447D01*
X1166039Y127563D01*
X1166039Y127563D01*
X1165834Y127358D01*
X1164950Y126035D01*
X1164639Y124474D01*
X1164658Y124380D01*
X1144782Y104504D01*
X1123875D01*
X1123696Y105700D01*
X1124983Y106233D01*
X1125967Y107217D01*
X1126500Y108504D01*
Y108735D01*
X1162483Y144717D01*
X1163090Y145627D01*
X1163304Y146700D01*
Y395783D01*
X1316882D01*
Y382573D01*
X1316102Y381793D01*
X1314967Y379827D01*
X1314380Y377635D01*
Y375365D01*
X1314967Y373173D01*
X1316102Y371207D01*
X1316882Y370427D01*
Y357173D01*
X1316102Y356393D01*
X1314967Y354427D01*
X1314380Y352235D01*
Y349965D01*
X1314967Y347773D01*
X1316102Y345807D01*
X1316882Y345027D01*
Y331773D01*
X1316102Y330993D01*
X1314967Y329027D01*
X1314380Y326835D01*
Y324565D01*
X1314967Y322373D01*
X1316102Y320407D01*
X1317707Y318802D01*
X1319673Y317668D01*
X1321865Y317080D01*
X1324135D01*
X1326327Y317668D01*
X1328293Y318802D01*
X1329898Y320407D01*
X1331033Y322373D01*
X1331620Y324565D01*
Y326835D01*
X1331033Y329027D01*
X1329898Y330993D01*
X1329117Y331773D01*
Y345027D01*
X1329898Y345807D01*
X1331033Y347773D01*
X1331620Y349965D01*
Y352235D01*
X1331033Y354427D01*
X1329898Y356393D01*
X1329117Y357173D01*
Y370427D01*
X1329898Y371207D01*
X1331033Y373173D01*
X1331620Y375365D01*
Y377635D01*
X1331033Y379827D01*
X1329898Y381793D01*
X1329117Y382573D01*
Y395783D01*
X1342283D01*
Y382573D01*
X1341502Y381793D01*
X1340367Y379827D01*
X1339780Y377635D01*
Y375365D01*
X1340367Y373173D01*
X1341502Y371207D01*
X1342283Y370427D01*
Y357173D01*
X1341502Y356393D01*
X1340367Y354427D01*
X1339780Y352235D01*
Y349965D01*
X1340367Y347773D01*
X1341502Y345807D01*
X1342283Y345027D01*
Y331773D01*
X1341502Y330993D01*
X1340367Y329027D01*
X1339780Y326835D01*
Y324565D01*
X1340367Y322373D01*
X1341502Y320407D01*
X1343107Y318802D01*
X1345073Y317668D01*
X1347265Y317080D01*
X1349535D01*
X1351727Y317668D01*
X1353693Y318802D01*
X1355298Y320407D01*
X1356432Y322373D01*
X1357020Y324565D01*
Y326835D01*
X1356432Y329027D01*
X1355298Y330993D01*
X1354518Y331773D01*
Y345027D01*
X1355298Y345807D01*
X1356432Y347773D01*
X1357020Y349965D01*
Y352235D01*
X1356432Y354427D01*
X1355298Y356393D01*
X1354518Y357173D01*
Y370427D01*
X1355298Y371207D01*
X1356432Y373173D01*
X1357020Y375365D01*
Y377635D01*
X1356432Y379827D01*
X1355298Y381793D01*
X1354518Y382573D01*
Y395827D01*
X1355298Y396607D01*
X1356432Y398573D01*
X1357020Y400765D01*
Y403035D01*
X1356432Y405227D01*
X1355298Y407193D01*
X1354518Y407973D01*
Y421227D01*
X1355298Y422007D01*
X1356432Y423973D01*
X1357020Y426165D01*
Y428435D01*
X1356432Y430627D01*
X1355298Y432593D01*
X1353693Y434198D01*
X1351727Y435333D01*
X1349535Y435920D01*
D02*
G37*
G36*
X954444Y408500D02*
X952057D01*
X949851Y407587D01*
X948164Y405899D01*
X947250Y403694D01*
Y401306D01*
X948164Y399101D01*
X949851Y397413D01*
X952057Y396500D01*
X954444D01*
X956649Y397413D01*
X958337Y399101D01*
X959250Y401306D01*
Y403694D01*
X958337Y405899D01*
X956649Y407587D01*
X954444Y408500D01*
D02*
G37*
G36*
X933943D02*
X931557D01*
X929351Y407587D01*
X927663Y405899D01*
X926750Y403694D01*
Y401306D01*
X927663Y399101D01*
X929351Y397413D01*
X931557Y396500D01*
X933943D01*
X936149Y397413D01*
X937837Y399101D01*
X938750Y401306D01*
Y403694D01*
X937837Y405899D01*
X936149Y407587D01*
X933943Y408500D01*
D02*
G37*
G36*
X1200027Y392799D02*
X1198995Y392593D01*
X1168718D01*
X1167157Y392283D01*
X1165834Y391399D01*
X1164950Y390076D01*
X1164639Y388515D01*
X1164950Y386954D01*
X1165834Y385631D01*
X1167157Y384747D01*
X1168718Y384437D01*
X1199821D01*
X1199822Y384436D01*
X1201382Y384747D01*
X1202705Y385631D01*
X1202911Y385836D01*
X1203795Y387159D01*
X1204105Y388720D01*
X1203795Y390281D01*
X1202911Y391604D01*
X1201587Y392488D01*
X1200027Y392799D01*
D02*
G37*
G36*
X1200027Y376296D02*
X1198996Y376091D01*
X1168718D01*
X1167157Y375780D01*
X1165834Y374896D01*
X1164950Y373573D01*
X1164640Y372012D01*
X1164950Y370452D01*
X1165834Y369129D01*
X1167157Y368245D01*
X1168718Y367934D01*
X1199822D01*
X1199822Y367934D01*
X1201383Y368245D01*
X1202706Y369129D01*
X1202911Y369334D01*
X1203795Y370657D01*
X1204106Y372218D01*
X1203795Y373778D01*
X1202911Y375102D01*
X1201588Y375986D01*
X1200027Y376296D01*
D02*
G37*
G36*
X1200027Y359793D02*
X1198995Y359588D01*
X1168718D01*
X1167157Y359278D01*
X1165834Y358394D01*
X1164950Y357071D01*
X1164639Y355510D01*
X1164950Y353949D01*
X1165834Y352626D01*
X1167157Y351742D01*
X1168718Y351431D01*
X1199821D01*
X1199822Y351431D01*
X1201382Y351742D01*
X1202705Y352626D01*
X1202911Y352831D01*
X1203795Y354154D01*
X1204105Y355715D01*
X1203795Y357276D01*
X1202911Y358599D01*
X1201587Y359483D01*
X1200027Y359793D01*
D02*
G37*
G36*
X879115Y354279D02*
X874036Y349200D01*
X879115Y344121D01*
X879819Y345340D01*
X880500Y347883D01*
Y350517D01*
X879819Y353060D01*
X879115Y354279D01*
D02*
G37*
G36*
X897019Y357700D02*
X894781D01*
X892619Y357121D01*
X890681Y356002D01*
X889099Y354419D01*
X887980Y352481D01*
X887400Y350319D01*
Y348081D01*
X887980Y345919D01*
X889099Y343981D01*
X890681Y342398D01*
X892619Y341279D01*
X894781Y340700D01*
X897019D01*
X899181Y341279D01*
X901119Y342398D01*
X902702Y343981D01*
X903821Y345919D01*
X904400Y348081D01*
Y350319D01*
X903821Y352481D01*
X902702Y354419D01*
X901119Y356002D01*
X899181Y357121D01*
X897019Y357700D01*
D02*
G37*
G36*
X1200277Y343291D02*
X1199245Y343086D01*
X1168968D01*
X1167407Y342775D01*
X1166084Y341891D01*
X1165200Y340568D01*
X1164889Y339007D01*
X1165200Y337447D01*
X1166084Y336123D01*
X1167407Y335239D01*
X1168968Y334929D01*
X1200071D01*
X1200071Y334929D01*
X1201632Y335239D01*
X1202955Y336123D01*
X1203160Y336329D01*
X1204045Y337652D01*
X1204355Y339212D01*
X1204045Y340773D01*
X1203160Y342096D01*
X1201837Y342980D01*
X1200277Y343291D01*
D02*
G37*
G36*
X1200027Y326788D02*
X1198995Y326583D01*
X1168718D01*
X1167157Y326273D01*
X1165834Y325388D01*
X1164950Y324065D01*
X1164639Y322505D01*
X1164950Y320944D01*
X1165834Y319621D01*
X1167157Y318737D01*
X1168718Y318426D01*
X1199821D01*
X1199822Y318426D01*
X1201382Y318737D01*
X1202705Y319621D01*
X1202911Y319826D01*
X1203795Y321149D01*
X1204105Y322710D01*
X1203795Y324271D01*
X1202911Y325594D01*
X1201587Y326478D01*
X1200027Y326788D01*
D02*
G37*
G36*
Y310286D02*
X1198995Y310081D01*
X1168718D01*
X1167157Y309770D01*
X1165834Y308886D01*
X1164950Y307563D01*
X1164639Y306002D01*
X1164950Y304441D01*
X1165834Y303118D01*
X1167157Y302234D01*
X1168718Y301924D01*
X1199821D01*
X1199822Y301924D01*
X1201382Y302234D01*
X1202705Y303118D01*
X1202911Y303323D01*
X1203795Y304647D01*
X1204105Y306207D01*
X1203795Y307768D01*
X1202911Y309091D01*
X1201587Y309975D01*
X1200027Y310286D01*
D02*
G37*
G36*
X1231946Y392233D02*
X1230554D01*
X1229267Y391700D01*
X1228283Y390716D01*
X1227750Y389429D01*
Y388037D01*
X1228283Y386751D01*
X1229267Y385766D01*
X1230554Y385233D01*
X1231946D01*
X1232934Y385642D01*
X1233692D01*
X1315238Y304096D01*
X1314967Y303627D01*
X1314380Y301435D01*
Y299165D01*
X1314967Y296973D01*
X1315627Y295830D01*
X1314611Y295050D01*
X1243321Y366340D01*
Y368063D01*
X1243107Y369136D01*
X1242499Y370045D01*
X1238618Y373926D01*
X1237709Y374534D01*
X1236636Y374748D01*
X1233683D01*
X1233233Y375198D01*
X1231946Y375731D01*
X1230554D01*
X1229267Y375198D01*
X1228283Y374213D01*
X1227750Y372927D01*
Y371535D01*
X1228283Y370248D01*
X1229267Y369263D01*
X1230554Y368731D01*
X1231946D01*
X1232934Y369140D01*
X1235474D01*
X1237713Y366901D01*
Y365179D01*
X1237926Y364106D01*
X1238534Y363196D01*
X1315914Y285816D01*
X1316824Y285208D01*
X1317897Y284995D01*
X1335899D01*
X1336972Y285208D01*
X1337881Y285816D01*
X1344604Y292538D01*
X1345073Y292267D01*
X1347265Y291680D01*
X1349535D01*
X1351727Y292267D01*
X1353693Y293402D01*
X1355298Y295007D01*
X1356432Y296973D01*
X1357020Y299165D01*
Y301435D01*
X1356432Y303627D01*
X1355298Y305593D01*
X1353693Y307198D01*
X1351727Y308333D01*
X1349535Y308920D01*
X1347265D01*
X1345073Y308333D01*
X1343107Y307198D01*
X1341502Y305593D01*
X1340367Y303627D01*
X1339780Y301435D01*
Y299165D01*
X1340367Y296973D01*
X1340638Y296504D01*
X1334737Y290602D01*
X1325020D01*
X1324853Y291873D01*
X1326327Y292267D01*
X1328293Y293402D01*
X1329898Y295007D01*
X1331033Y296973D01*
X1331620Y299165D01*
Y301435D01*
X1331033Y303627D01*
X1329898Y305593D01*
X1328293Y307198D01*
X1326327Y308333D01*
X1324135Y308920D01*
X1321865D01*
X1319673Y308333D01*
X1319204Y308062D01*
X1236836Y390429D01*
X1235927Y391037D01*
X1234854Y391250D01*
X1233683D01*
X1233233Y391700D01*
X1231946Y392233D01*
D02*
G37*
G36*
X1200027Y293783D02*
X1198995Y293578D01*
X1168718D01*
X1167157Y293267D01*
X1165834Y292383D01*
X1164950Y291060D01*
X1164639Y289499D01*
X1164950Y287939D01*
X1165834Y286616D01*
X1167157Y285732D01*
X1168718Y285421D01*
X1199821D01*
X1199822Y285421D01*
X1201382Y285732D01*
X1202705Y286616D01*
X1202911Y286821D01*
X1203795Y288144D01*
X1204105Y289705D01*
X1203795Y291265D01*
X1202911Y292588D01*
X1201587Y293472D01*
X1200027Y293783D01*
D02*
G37*
G36*
X1200027Y277281D02*
X1198996Y277076D01*
X1168718D01*
X1167157Y276765D01*
X1165834Y275881D01*
X1164950Y274558D01*
X1164640Y272997D01*
X1164950Y271436D01*
X1165834Y270113D01*
X1167157Y269229D01*
X1168718Y268919D01*
X1199822D01*
X1199822Y268919D01*
X1201383Y269229D01*
X1202706Y270113D01*
X1202911Y270319D01*
X1203795Y271642D01*
X1204106Y273202D01*
X1203795Y274763D01*
X1202911Y276086D01*
X1201588Y276970D01*
X1200027Y277281D01*
D02*
G37*
G36*
X1231946Y359228D02*
X1230554D01*
X1229267Y358695D01*
X1228283Y357711D01*
X1227750Y356424D01*
Y355032D01*
X1228283Y353745D01*
X1229267Y352761D01*
X1230554Y352228D01*
X1231191D01*
X1234076Y349342D01*
X1234986Y348735D01*
X1236059Y348521D01*
X1239626D01*
X1313029Y275118D01*
X1313939Y274510D01*
X1314380Y274422D01*
Y273765D01*
X1314967Y271573D01*
X1316102Y269607D01*
X1317106Y268604D01*
X1316580Y267334D01*
X1307107D01*
X1234750Y339691D01*
Y339922D01*
X1234217Y341208D01*
X1233233Y342193D01*
X1231946Y342726D01*
X1230554D01*
X1229267Y342193D01*
X1228283Y341208D01*
X1227750Y339922D01*
Y338529D01*
X1228283Y337243D01*
X1229267Y336258D01*
X1230554Y335726D01*
X1230785D01*
X1239713Y326797D01*
X1239187Y325527D01*
X1233396D01*
X1233233Y325690D01*
X1231946Y326223D01*
X1230554D01*
X1229267Y325690D01*
X1228283Y324706D01*
X1227750Y323419D01*
Y322027D01*
X1228283Y320740D01*
X1229267Y319756D01*
X1230554Y319223D01*
X1231946D01*
X1233233Y319756D01*
X1233396Y319919D01*
X1239339D01*
X1268517Y290740D01*
X1268517Y290740D01*
X1310863Y248395D01*
X1311773Y247787D01*
X1312846Y247573D01*
X1314592D01*
X1314967Y246173D01*
X1316102Y244207D01*
X1317106Y243204D01*
X1316580Y241934D01*
X1299502D01*
X1234750Y306686D01*
Y306917D01*
X1234217Y308203D01*
X1233233Y309188D01*
X1231946Y309720D01*
X1230554D01*
X1229267Y309188D01*
X1228283Y308203D01*
X1227750Y306917D01*
Y305524D01*
X1228283Y304238D01*
X1229267Y303253D01*
X1230554Y302721D01*
X1230785D01*
X1296358Y237147D01*
X1297267Y236540D01*
X1298340Y236326D01*
X1338030D01*
X1339103Y236540D01*
X1340013Y237147D01*
X1344604Y241738D01*
X1345073Y241467D01*
X1347265Y240880D01*
X1349535D01*
X1351727Y241467D01*
X1353693Y242602D01*
X1355298Y244207D01*
X1356432Y246173D01*
X1357020Y248365D01*
Y250635D01*
X1356432Y252827D01*
X1355298Y254793D01*
X1353693Y256398D01*
X1351727Y257533D01*
X1349535Y258120D01*
X1347265D01*
X1345073Y257533D01*
X1343107Y256398D01*
X1341502Y254793D01*
X1340367Y252827D01*
X1339780Y250635D01*
Y248365D01*
X1340367Y246173D01*
X1340638Y245704D01*
X1336869Y241934D01*
X1329420D01*
X1328894Y243204D01*
X1329898Y244207D01*
X1331033Y246173D01*
X1331620Y248365D01*
Y250635D01*
X1331033Y252827D01*
X1329898Y254793D01*
X1328293Y256398D01*
X1326327Y257533D01*
X1324135Y258120D01*
X1321865D01*
X1319673Y257533D01*
X1317707Y256398D01*
X1316102Y254793D01*
X1315233Y253288D01*
X1313990Y253198D01*
X1306732Y260456D01*
X1307258Y261726D01*
X1338030D01*
X1339103Y261940D01*
X1340013Y262547D01*
X1344604Y267138D01*
X1345073Y266868D01*
X1347265Y266280D01*
X1349535D01*
X1351727Y266868D01*
X1353693Y268002D01*
X1355298Y269607D01*
X1356432Y271573D01*
X1357020Y273765D01*
Y276035D01*
X1356432Y278227D01*
X1355298Y280193D01*
X1353693Y281798D01*
X1351727Y282933D01*
X1349535Y283520D01*
X1347265D01*
X1345073Y282933D01*
X1343107Y281798D01*
X1341502Y280193D01*
X1340367Y278227D01*
X1339780Y276035D01*
Y273765D01*
X1340367Y271573D01*
X1340638Y271104D01*
X1336869Y267334D01*
X1329420D01*
X1328894Y268604D01*
X1329898Y269607D01*
X1331033Y271573D01*
X1331620Y273765D01*
Y276035D01*
X1331033Y278227D01*
X1329898Y280193D01*
X1328293Y281798D01*
X1326327Y282933D01*
X1324135Y283520D01*
X1321865D01*
X1319673Y282933D01*
X1317707Y281798D01*
X1316102Y280193D01*
X1315910Y280168D01*
X1242770Y353308D01*
X1241860Y353915D01*
X1240787Y354129D01*
X1237220D01*
X1234626Y356723D01*
X1234217Y357711D01*
X1233233Y358695D01*
X1231946Y359228D01*
D02*
G37*
G36*
X1200027Y260778D02*
X1198995Y260573D01*
X1168718D01*
X1167157Y260262D01*
X1165834Y259378D01*
X1164950Y258055D01*
X1164639Y256495D01*
X1164950Y254934D01*
X1165834Y253611D01*
X1167157Y252726D01*
X1168718Y252416D01*
X1199821D01*
X1199822Y252416D01*
X1201382Y252726D01*
X1202705Y253611D01*
X1202911Y253816D01*
X1203795Y255139D01*
X1204105Y256700D01*
X1203795Y258260D01*
X1202911Y259583D01*
X1201587Y260468D01*
X1200027Y260778D01*
D02*
G37*
G36*
Y244275D02*
X1198995Y244070D01*
X1168718D01*
X1167157Y243760D01*
X1165834Y242876D01*
X1164950Y241553D01*
X1164639Y239992D01*
X1164950Y238431D01*
X1165834Y237108D01*
X1167157Y236224D01*
X1168718Y235913D01*
X1199821D01*
X1199822Y235913D01*
X1201382Y236224D01*
X1202705Y237108D01*
X1202911Y237313D01*
X1203795Y238636D01*
X1204105Y240197D01*
X1203795Y241758D01*
X1202911Y243081D01*
X1201587Y243965D01*
X1200027Y244275D01*
D02*
G37*
G36*
X1008704Y272078D02*
X1008704Y272078D01*
X930700D01*
X929139Y271768D01*
X927816Y270884D01*
X926932Y269561D01*
X926622Y268000D01*
X926932Y266439D01*
X927816Y265116D01*
X929139Y264232D01*
X930700Y263922D01*
X1007015D01*
X1028422Y242515D01*
Y209504D01*
X991905D01*
X991491Y209917D01*
X990967Y211183D01*
X989983Y212167D01*
X988696Y212700D01*
X988105D01*
X980909Y219896D01*
X980564Y220126D01*
X980949Y221396D01*
X1004047D01*
X1004047Y221396D01*
X1015854D01*
X1016017Y221233D01*
X1017304Y220700D01*
X1018696D01*
X1019983Y221233D01*
X1020967Y222217D01*
X1021500Y223504D01*
Y224896D01*
X1020967Y226183D01*
X1019983Y227167D01*
X1018696Y227700D01*
X1017304D01*
X1016017Y227167D01*
X1015854Y227004D01*
X1004047D01*
X1004047Y227004D01*
X987735D01*
X987406Y227480D01*
X987087Y228274D01*
X987535Y229354D01*
Y230746D01*
X987002Y232032D01*
X986408Y232626D01*
X986934Y233896D01*
X1015854D01*
X1016017Y233733D01*
X1017304Y233200D01*
X1018696D01*
X1019983Y233733D01*
X1020967Y234717D01*
X1021500Y236004D01*
Y237396D01*
X1020967Y238683D01*
X1019983Y239667D01*
X1018696Y240200D01*
X1017304D01*
X1016017Y239667D01*
X1015854Y239504D01*
X948000D01*
X946927Y239290D01*
X946017Y238683D01*
X926520Y219186D01*
X925912Y218276D01*
X925699Y217203D01*
Y210096D01*
X925536Y209933D01*
X925003Y208646D01*
Y207254D01*
X925536Y205967D01*
X926520Y204983D01*
X927807Y204450D01*
X929199D01*
X930486Y204983D01*
X931470Y205967D01*
X932003Y207254D01*
Y208646D01*
X931470Y209933D01*
X931307Y210096D01*
Y216042D01*
X949161Y233896D01*
X951935D01*
X952461Y232626D01*
X939142Y219308D01*
X938534Y218398D01*
X938321Y217325D01*
Y209471D01*
X937908Y209058D01*
X937375Y207771D01*
Y206379D01*
X937908Y205092D01*
X938892Y204108D01*
X940179Y203575D01*
X941571D01*
X942858Y204108D01*
X943842Y205092D01*
X944375Y206379D01*
Y207771D01*
X943929Y208848D01*
Y216164D01*
X956161Y228396D01*
X972221D01*
X972364Y228274D01*
X971958Y227174D01*
X971772Y227004D01*
X959475D01*
X958402Y226790D01*
X957493Y226183D01*
X948517Y217207D01*
X947910Y216298D01*
X947696Y215225D01*
Y193846D01*
X947533Y193683D01*
X947000Y192396D01*
Y191004D01*
X947533Y189717D01*
X948517Y188733D01*
X949804Y188200D01*
X951196D01*
X952483Y188733D01*
X953467Y189717D01*
X954000Y191004D01*
Y192396D01*
X953467Y193683D01*
X953304Y193846D01*
Y214063D01*
X956036Y216795D01*
X957534Y216497D01*
X957733Y216017D01*
X958717Y215033D01*
X960004Y214500D01*
X961396D01*
X962683Y215033D01*
X963194Y215544D01*
X978051D01*
X984500Y209095D01*
Y208504D01*
X985033Y207217D01*
X986017Y206233D01*
X987304Y205700D01*
X987778D01*
X988761Y204718D01*
X989670Y204110D01*
X990743Y203896D01*
X1028422D01*
Y163571D01*
X1028732Y162010D01*
X1029616Y160687D01*
X1030939Y159803D01*
X1032500Y159493D01*
X1034061Y159803D01*
X1035384Y160687D01*
X1036268Y162010D01*
X1036578Y163571D01*
Y206700D01*
Y244204D01*
X1036268Y245765D01*
X1035384Y247088D01*
X1035384Y247088D01*
X1011588Y270884D01*
X1010265Y271768D01*
X1010006Y271819D01*
X1008704Y272078D01*
D02*
G37*
G36*
X1200027Y227773D02*
X1198995Y227568D01*
X1168718D01*
X1167157Y227257D01*
X1165834Y226373D01*
X1164950Y225050D01*
X1164639Y223489D01*
X1164950Y221929D01*
X1165834Y220606D01*
X1167157Y219721D01*
X1168718Y219411D01*
X1199821D01*
X1199822Y219411D01*
X1201382Y219721D01*
X1202705Y220606D01*
X1202911Y220811D01*
X1203795Y222134D01*
X1204105Y223694D01*
X1203795Y225255D01*
X1202911Y226578D01*
X1201587Y227462D01*
X1200027Y227773D01*
D02*
G37*
G36*
X1231946Y293218D02*
X1230554D01*
X1229267Y292685D01*
X1228283Y291700D01*
X1227750Y290414D01*
Y289022D01*
X1228283Y287735D01*
X1229267Y286751D01*
X1230554Y286218D01*
X1230785D01*
X1294885Y222117D01*
X1295795Y221510D01*
X1296868Y221296D01*
X1314827D01*
X1314967Y220773D01*
X1316102Y218807D01*
X1317106Y217804D01*
X1316580Y216534D01*
X1291897D01*
X1234750Y273681D01*
Y273911D01*
X1234217Y275198D01*
X1233233Y276182D01*
X1231946Y276715D01*
X1230554D01*
X1229267Y276182D01*
X1228283Y275198D01*
X1227750Y273911D01*
Y272519D01*
X1228283Y271233D01*
X1229267Y270248D01*
X1230554Y269715D01*
X1230785D01*
X1288753Y211747D01*
X1289662Y211140D01*
X1290735Y210926D01*
X1338030D01*
X1339103Y211140D01*
X1340013Y211747D01*
X1344604Y216338D01*
X1345073Y216068D01*
X1347265Y215480D01*
X1349535D01*
X1351727Y216068D01*
X1353693Y217202D01*
X1355298Y218807D01*
X1356432Y220773D01*
X1357020Y222965D01*
Y225235D01*
X1356432Y227427D01*
X1355298Y229393D01*
X1353693Y230998D01*
X1351727Y232133D01*
X1349535Y232720D01*
X1347265D01*
X1345073Y232133D01*
X1343107Y230998D01*
X1341502Y229393D01*
X1340367Y227427D01*
X1339780Y225235D01*
Y222965D01*
X1340367Y220773D01*
X1340638Y220304D01*
X1336869Y216534D01*
X1329420D01*
X1328894Y217804D01*
X1329898Y218807D01*
X1331033Y220773D01*
X1331620Y222965D01*
Y225235D01*
X1331033Y227427D01*
X1329898Y229393D01*
X1328293Y230998D01*
X1326327Y232133D01*
X1324135Y232720D01*
X1321865D01*
X1319673Y232133D01*
X1317707Y230998D01*
X1316102Y229393D01*
X1314967Y227427D01*
X1314827Y226904D01*
X1298029D01*
X1234750Y290183D01*
Y290414D01*
X1234217Y291700D01*
X1233233Y292685D01*
X1231946Y293218D01*
D02*
G37*
G36*
X1200027Y211270D02*
X1198995Y211065D01*
X1168718D01*
X1167157Y210755D01*
X1165834Y209870D01*
X1164950Y208547D01*
X1164639Y206987D01*
X1164950Y205426D01*
X1165834Y204103D01*
X1167157Y203219D01*
X1168718Y202908D01*
X1199821D01*
X1199822Y202908D01*
X1201382Y203219D01*
X1202705Y204103D01*
X1202911Y204308D01*
X1203795Y205631D01*
X1204105Y207192D01*
X1203795Y208752D01*
X1202911Y210076D01*
X1201587Y210960D01*
X1200027Y211270D01*
D02*
G37*
G36*
X1231946Y260213D02*
X1230554D01*
X1229267Y259680D01*
X1228283Y258695D01*
X1227750Y257409D01*
Y256017D01*
X1228283Y254730D01*
X1229267Y253746D01*
X1230554Y253213D01*
X1230785D01*
X1287280Y196717D01*
X1288190Y196110D01*
X1289263Y195896D01*
X1314827D01*
X1314967Y195373D01*
X1316102Y193407D01*
X1317106Y192404D01*
X1316580Y191134D01*
X1284292D01*
X1234750Y240676D01*
Y240906D01*
X1234217Y242193D01*
X1233233Y243177D01*
X1231946Y243710D01*
X1230554D01*
X1229267Y243177D01*
X1228283Y242193D01*
X1227750Y240906D01*
Y239514D01*
X1228283Y238228D01*
X1229267Y237243D01*
X1230554Y236710D01*
X1230785D01*
X1281148Y186347D01*
X1282057Y185740D01*
X1283130Y185526D01*
X1338030D01*
X1339103Y185740D01*
X1340013Y186347D01*
X1344604Y190938D01*
X1345073Y190667D01*
X1347265Y190080D01*
X1349535D01*
X1351727Y190667D01*
X1353693Y191802D01*
X1355298Y193407D01*
X1356432Y195373D01*
X1357020Y197565D01*
Y199835D01*
X1356432Y202027D01*
X1355298Y203993D01*
X1353693Y205598D01*
X1351727Y206733D01*
X1349535Y207320D01*
X1347265D01*
X1345073Y206733D01*
X1343107Y205598D01*
X1341502Y203993D01*
X1340367Y202027D01*
X1339780Y199835D01*
Y197565D01*
X1340367Y195373D01*
X1340638Y194904D01*
X1336869Y191134D01*
X1329420D01*
X1328894Y192404D01*
X1329898Y193407D01*
X1331033Y195373D01*
X1331620Y197565D01*
Y199835D01*
X1331033Y202027D01*
X1329898Y203993D01*
X1328293Y205598D01*
X1326327Y206733D01*
X1324135Y207320D01*
X1321865D01*
X1319673Y206733D01*
X1317707Y205598D01*
X1316102Y203993D01*
X1314967Y202027D01*
X1314827Y201504D01*
X1290424D01*
X1234750Y257178D01*
Y257409D01*
X1234217Y258695D01*
X1233233Y259680D01*
X1231946Y260213D01*
D02*
G37*
G36*
X1200027Y194768D02*
X1198995Y194563D01*
X1168718D01*
X1167157Y194252D01*
X1165834Y193368D01*
X1164950Y192045D01*
X1164639Y190484D01*
X1164950Y188923D01*
X1165834Y187600D01*
X1167157Y186716D01*
X1168718Y186406D01*
X1199821D01*
X1199822Y186406D01*
X1201382Y186716D01*
X1202705Y187600D01*
X1202911Y187806D01*
X1203795Y189129D01*
X1204105Y190689D01*
X1203795Y192250D01*
X1202911Y193573D01*
X1201587Y194457D01*
X1200027Y194768D01*
D02*
G37*
G36*
X1168923Y178265D02*
X1167363Y177955D01*
X1166039Y177071D01*
X1166039Y177071D01*
X1165834Y176866D01*
X1164950Y175543D01*
X1164640Y173982D01*
X1164950Y172421D01*
X1165834Y171098D01*
X1167157Y170214D01*
X1168718Y169903D01*
X1169750Y170109D01*
X1200027D01*
X1201588Y170419D01*
X1202911Y171303D01*
X1203795Y172626D01*
X1204105Y174187D01*
X1203795Y175748D01*
X1202911Y177071D01*
X1201588Y177955D01*
X1200027Y178265D01*
X1168923D01*
X1168923Y178265D01*
D02*
G37*
G36*
X1231946Y227208D02*
X1230554D01*
X1229267Y226675D01*
X1228283Y225690D01*
X1227750Y224404D01*
Y223011D01*
X1228283Y221725D01*
X1229267Y220741D01*
X1230554Y220208D01*
X1230785D01*
X1279675Y171317D01*
X1280585Y170710D01*
X1281658Y170496D01*
X1314827D01*
X1314967Y169973D01*
X1316102Y168007D01*
X1317106Y167004D01*
X1316580Y165734D01*
X1276686D01*
X1234750Y207670D01*
Y207901D01*
X1234217Y209188D01*
X1233233Y210172D01*
X1231946Y210705D01*
X1230554D01*
X1229267Y210172D01*
X1228283Y209188D01*
X1227750Y207901D01*
Y206509D01*
X1228283Y205222D01*
X1229267Y204238D01*
X1230554Y203705D01*
X1230785D01*
X1273542Y160947D01*
X1274452Y160340D01*
X1275525Y160126D01*
X1338030D01*
X1339103Y160340D01*
X1340013Y160947D01*
X1344604Y165538D01*
X1345073Y165268D01*
X1347265Y164680D01*
X1349535D01*
X1351727Y165268D01*
X1353693Y166402D01*
X1355298Y168007D01*
X1356432Y169973D01*
X1357020Y172165D01*
Y174435D01*
X1356432Y176627D01*
X1355298Y178593D01*
X1353693Y180198D01*
X1351727Y181333D01*
X1349535Y181920D01*
X1347265D01*
X1345073Y181333D01*
X1343107Y180198D01*
X1341502Y178593D01*
X1340367Y176627D01*
X1339780Y174435D01*
Y172165D01*
X1340367Y169973D01*
X1340638Y169504D01*
X1336869Y165734D01*
X1329420D01*
X1328894Y167004D01*
X1329898Y168007D01*
X1331033Y169973D01*
X1331620Y172165D01*
Y174435D01*
X1331033Y176627D01*
X1329898Y178593D01*
X1328293Y180198D01*
X1326327Y181333D01*
X1324135Y181920D01*
X1321865D01*
X1319673Y181333D01*
X1317707Y180198D01*
X1316102Y178593D01*
X1314967Y176627D01*
X1314827Y176104D01*
X1282819D01*
X1234750Y224173D01*
Y224404D01*
X1234217Y225690D01*
X1233233Y226675D01*
X1231946Y227208D01*
D02*
G37*
G36*
X1200027Y161763D02*
X1198996Y161558D01*
X1168718D01*
X1167157Y161247D01*
X1165834Y160363D01*
X1164950Y159040D01*
X1164640Y157479D01*
X1164950Y155919D01*
X1165834Y154595D01*
X1167157Y153711D01*
X1168718Y153401D01*
X1199822D01*
X1199822Y153401D01*
X1201383Y153711D01*
X1202706Y154595D01*
X1202911Y154801D01*
X1203795Y156124D01*
X1204106Y157684D01*
X1203795Y159245D01*
X1202911Y160568D01*
X1201588Y161452D01*
X1200027Y161763D01*
D02*
G37*
G36*
X1231946Y194203D02*
X1230554D01*
X1229267Y193670D01*
X1228283Y192685D01*
X1227750Y191399D01*
Y190006D01*
X1228283Y188720D01*
X1229267Y187735D01*
X1230554Y187203D01*
X1230785D01*
X1272070Y145917D01*
X1272980Y145310D01*
X1274053Y145096D01*
X1314827D01*
X1314967Y144573D01*
X1316102Y142607D01*
X1317106Y141604D01*
X1316580Y140334D01*
X1269081D01*
X1234750Y174665D01*
Y174896D01*
X1234217Y176183D01*
X1233233Y177167D01*
X1231946Y177700D01*
X1230554D01*
X1229267Y177167D01*
X1228283Y176183D01*
X1227750Y174896D01*
Y173504D01*
X1228283Y172217D01*
X1229267Y171233D01*
X1230554Y170700D01*
X1230785D01*
X1265937Y135547D01*
X1266847Y134940D01*
X1267920Y134726D01*
X1338030D01*
X1339103Y134940D01*
X1340013Y135547D01*
X1344604Y140138D01*
X1345073Y139867D01*
X1347265Y139280D01*
X1349535D01*
X1351727Y139867D01*
X1353693Y141002D01*
X1355298Y142607D01*
X1356432Y144573D01*
X1357020Y146765D01*
Y149035D01*
X1356432Y151227D01*
X1355298Y153193D01*
X1353693Y154798D01*
X1351727Y155933D01*
X1349535Y156520D01*
X1347265D01*
X1345073Y155933D01*
X1343107Y154798D01*
X1341502Y153193D01*
X1340367Y151227D01*
X1339780Y149035D01*
Y146765D01*
X1340367Y144573D01*
X1340638Y144104D01*
X1336869Y140334D01*
X1329420D01*
X1328894Y141604D01*
X1329898Y142607D01*
X1331033Y144573D01*
X1331620Y146765D01*
Y149035D01*
X1331033Y151227D01*
X1329898Y153193D01*
X1328293Y154798D01*
X1326327Y155933D01*
X1324135Y156520D01*
X1321865D01*
X1319673Y155933D01*
X1317707Y154798D01*
X1316102Y153193D01*
X1314967Y151227D01*
X1314827Y150704D01*
X1275214D01*
X1234750Y191168D01*
Y191399D01*
X1234217Y192685D01*
X1233233Y193670D01*
X1231946Y194203D01*
D02*
G37*
G36*
X1200027Y145260D02*
X1198995Y145055D01*
X1168718D01*
X1167157Y144745D01*
X1165834Y143860D01*
X1164950Y142537D01*
X1164639Y140977D01*
X1164950Y139416D01*
X1165834Y138093D01*
X1167157Y137209D01*
X1168718Y136898D01*
X1199821D01*
X1199822Y136898D01*
X1201382Y137209D01*
X1202705Y138093D01*
X1202911Y138298D01*
X1203795Y139621D01*
X1204105Y141182D01*
X1203795Y142743D01*
X1202911Y144066D01*
X1201587Y144950D01*
X1200027Y145260D01*
D02*
G37*
G36*
X1231946Y161197D02*
X1230554D01*
X1229267Y160665D01*
X1228283Y159680D01*
X1227750Y158394D01*
Y157001D01*
X1228283Y155715D01*
X1229267Y154730D01*
X1230554Y154198D01*
X1230785D01*
X1264465Y120517D01*
X1265375Y119910D01*
X1266447Y119696D01*
X1314827D01*
X1314967Y119173D01*
X1316102Y117207D01*
X1317106Y116204D01*
X1316580Y114934D01*
X1261476D01*
X1234750Y141660D01*
Y141891D01*
X1234217Y143177D01*
X1233233Y144162D01*
X1231946Y144695D01*
X1230554D01*
X1229267Y144162D01*
X1228283Y143177D01*
X1227750Y141891D01*
Y140499D01*
X1228283Y139212D01*
X1229267Y138228D01*
X1230554Y137695D01*
X1230785D01*
X1258332Y110147D01*
X1259242Y109540D01*
X1260315Y109326D01*
X1338030D01*
X1339103Y109540D01*
X1340013Y110147D01*
X1344604Y114738D01*
X1345073Y114467D01*
X1347265Y113880D01*
X1349535D01*
X1351727Y114467D01*
X1353693Y115602D01*
X1355298Y117207D01*
X1356432Y119173D01*
X1357020Y121365D01*
Y123635D01*
X1356432Y125827D01*
X1355298Y127793D01*
X1353693Y129398D01*
X1351727Y130533D01*
X1349535Y131120D01*
X1347265D01*
X1345073Y130533D01*
X1343107Y129398D01*
X1341502Y127793D01*
X1340367Y125827D01*
X1339780Y123635D01*
Y121365D01*
X1340367Y119173D01*
X1340638Y118704D01*
X1336869Y114934D01*
X1329420D01*
X1328894Y116204D01*
X1329898Y117207D01*
X1331033Y119173D01*
X1331620Y121365D01*
Y123635D01*
X1331033Y125827D01*
X1329898Y127793D01*
X1328293Y129398D01*
X1326327Y130533D01*
X1324135Y131120D01*
X1321865D01*
X1319673Y130533D01*
X1317707Y129398D01*
X1316102Y127793D01*
X1314967Y125827D01*
X1314827Y125304D01*
X1267609D01*
X1234750Y158163D01*
Y158394D01*
X1234217Y159680D01*
X1233233Y160665D01*
X1231946Y161197D01*
D02*
G37*
G36*
Y128192D02*
X1230554D01*
X1229267Y127660D01*
X1228283Y126675D01*
X1227750Y125388D01*
Y123996D01*
X1228283Y122710D01*
X1229267Y121725D01*
X1230554Y121192D01*
X1230785D01*
X1256860Y95117D01*
X1257769Y94510D01*
X1258842Y94296D01*
X1314827D01*
X1314967Y93773D01*
X1316102Y91807D01*
X1317106Y90804D01*
X1316580Y89534D01*
X1253871D01*
X1234750Y108655D01*
Y108886D01*
X1234217Y110172D01*
X1233233Y111157D01*
X1231946Y111690D01*
X1230554D01*
X1229267Y111157D01*
X1228283Y110172D01*
X1227750Y108886D01*
Y107494D01*
X1228283Y106207D01*
X1229267Y105223D01*
X1230554Y104690D01*
X1230785D01*
X1250727Y84747D01*
X1251637Y84140D01*
X1252710Y83926D01*
X1338030D01*
X1339103Y84140D01*
X1340013Y84747D01*
X1344604Y89338D01*
X1345073Y89067D01*
X1347265Y88480D01*
X1349535D01*
X1351727Y89067D01*
X1353693Y90202D01*
X1355298Y91807D01*
X1356432Y93773D01*
X1357020Y95965D01*
Y98235D01*
X1356432Y100427D01*
X1355298Y102393D01*
X1353693Y103998D01*
X1351727Y105133D01*
X1349535Y105720D01*
X1347265D01*
X1345073Y105133D01*
X1343107Y103998D01*
X1341502Y102393D01*
X1340367Y100427D01*
X1339780Y98235D01*
Y95965D01*
X1340367Y93773D01*
X1340638Y93304D01*
X1336869Y89534D01*
X1329420D01*
X1328894Y90804D01*
X1329898Y91807D01*
X1331033Y93773D01*
X1331620Y95965D01*
Y98235D01*
X1331033Y100427D01*
X1329898Y102393D01*
X1328293Y103998D01*
X1326327Y105133D01*
X1324135Y105720D01*
X1321865D01*
X1319673Y105133D01*
X1317707Y103998D01*
X1316102Y102393D01*
X1314967Y100427D01*
X1314827Y99904D01*
X1260004D01*
X1234750Y125158D01*
Y125388D01*
X1234217Y126675D01*
X1233233Y127660D01*
X1231946Y128192D01*
D02*
G37*
G36*
Y95187D02*
X1230554D01*
X1229267Y94654D01*
X1228283Y93670D01*
X1227750Y92383D01*
Y90991D01*
X1228283Y89705D01*
X1229267Y88720D01*
X1230554Y88187D01*
X1230785D01*
X1249255Y69717D01*
X1250164Y69110D01*
X1251237Y68896D01*
X1314827D01*
X1314967Y68373D01*
X1316102Y66407D01*
X1317106Y65404D01*
X1316580Y64134D01*
X1246266D01*
X1234750Y75650D01*
Y75881D01*
X1234217Y77167D01*
X1233233Y78152D01*
X1231946Y78685D01*
X1230554D01*
X1229267Y78152D01*
X1228283Y77167D01*
X1227750Y75881D01*
Y74489D01*
X1228283Y73202D01*
X1229267Y72217D01*
X1230554Y71685D01*
X1230785D01*
X1243122Y59347D01*
X1244032Y58740D01*
X1245105Y58526D01*
X1338030D01*
X1339103Y58740D01*
X1340013Y59347D01*
X1344604Y63938D01*
X1345073Y63667D01*
X1347265Y63080D01*
X1349535D01*
X1351727Y63667D01*
X1353693Y64802D01*
X1355298Y66407D01*
X1356432Y68373D01*
X1357020Y70565D01*
Y72835D01*
X1356432Y75027D01*
X1355298Y76993D01*
X1353693Y78598D01*
X1351727Y79733D01*
X1349535Y80320D01*
X1347265D01*
X1345073Y79733D01*
X1343107Y78598D01*
X1341502Y76993D01*
X1340367Y75027D01*
X1339780Y72835D01*
Y70565D01*
X1340367Y68373D01*
X1340638Y67904D01*
X1336869Y64134D01*
X1329420D01*
X1328894Y65404D01*
X1329898Y66407D01*
X1331033Y68373D01*
X1331620Y70565D01*
Y72835D01*
X1331033Y75027D01*
X1329898Y76993D01*
X1328293Y78598D01*
X1326327Y79733D01*
X1324135Y80320D01*
X1321865D01*
X1319673Y79733D01*
X1317707Y78598D01*
X1316102Y76993D01*
X1314967Y75027D01*
X1314827Y74504D01*
X1252399D01*
X1234750Y92153D01*
Y92383D01*
X1234217Y93670D01*
X1233233Y94654D01*
X1231946Y95187D01*
D02*
G37*
%LPD*%
D14*
X728101Y605900D02*
X767000Y567000D01*
X844000D01*
X581500Y605900D02*
X728101D01*
X634200Y102600D02*
X659600D01*
X608800D02*
X634200D01*
X583400D02*
X608800D01*
X558000D02*
X583400D01*
X634200D02*
Y128000D01*
X659600D01*
X634200Y290500D02*
Y341300D01*
Y128000D02*
Y290500D01*
X552200Y423300D02*
X634200Y341300D01*
X552081Y423300D02*
X552200D01*
X608800Y128000D02*
X634200D01*
X583400D02*
X608800D01*
X558000D02*
X583400D01*
X1348400Y401900D02*
Y427300D01*
Y376500D02*
Y401900D01*
Y351100D02*
Y376500D01*
Y325700D02*
Y351100D01*
X1323000Y401900D02*
X1348400D01*
X1323000D02*
Y427300D01*
X1109700Y401900D02*
X1160500D01*
X1323000D01*
X1027700Y319900D02*
X1109700Y401900D01*
X1027700Y319781D02*
Y319900D01*
X1323000Y376500D02*
Y401900D01*
Y351100D02*
Y376500D01*
Y325700D02*
Y351100D01*
X1028000Y819781D02*
Y819900D01*
X1110000Y901900D01*
X1160800D01*
X1323300D01*
X1348700D01*
Y927300D01*
Y876500D02*
Y901900D01*
Y851100D02*
Y876500D01*
Y825700D02*
Y851100D01*
X1323300Y901900D02*
Y927300D01*
Y876500D02*
Y901900D01*
Y851100D02*
Y876500D01*
Y825700D02*
Y851100D01*
D32*
X-124400Y287910D02*
D03*
Y295910D02*
D03*
Y303910D02*
D03*
Y311910D02*
D03*
Y319910D02*
D03*
Y327910D02*
D03*
Y335910D02*
D03*
Y343910D02*
D03*
Y351910D02*
D03*
Y359910D02*
D03*
Y367910D02*
D03*
Y375910D02*
D03*
Y383910D02*
D03*
Y391910D02*
D03*
Y399910D02*
D03*
Y407910D02*
D03*
Y415910D02*
D03*
Y423910D02*
D03*
Y431910D02*
D03*
Y439910D02*
D03*
Y447910D02*
D03*
Y455910D02*
D03*
Y463910D02*
D03*
Y503910D02*
D03*
Y511910D02*
D03*
Y519910D02*
D03*
Y527910D02*
D03*
Y535910D02*
D03*
Y543910D02*
D03*
Y551910D02*
D03*
Y559910D02*
D03*
Y567910D02*
D03*
Y575910D02*
D03*
Y583910D02*
D03*
Y591910D02*
D03*
Y599910D02*
D03*
Y607910D02*
D03*
Y615910D02*
D03*
Y623910D02*
D03*
Y631910D02*
D03*
Y639910D02*
D03*
Y647910D02*
D03*
Y655910D02*
D03*
Y663910D02*
D03*
Y671910D02*
D03*
Y679910D02*
D03*
Y687910D02*
D03*
Y695910D02*
D03*
Y703910D02*
D03*
Y711910D02*
D03*
D56*
X140000Y440093D02*
Y560163D01*
X140449Y560612D01*
Y681253D01*
X140696Y681500D01*
X140000Y390000D02*
Y440093D01*
X-58041Y290000D02*
X-57500D01*
X-60131Y287910D02*
X-58041Y290000D01*
X-124400Y287910D02*
X-60131D01*
X441500Y463000D02*
X450393Y471893D01*
Y490207D01*
X450300Y490300D02*
X450393Y490207D01*
X979107Y218093D02*
X988000Y209200D01*
X960793Y218093D02*
X979107D01*
X960700Y218000D02*
X960793Y218093D01*
X961000Y718000D02*
X961093Y718093D01*
X979407D01*
X988300Y709200D01*
D57*
X191000Y764000D02*
X242600Y815600D01*
X191000Y359000D02*
Y764000D01*
Y359000D02*
X247000Y303000D01*
X-124400Y503910D02*
X-42910D01*
X219200Y241800D01*
X-124400Y455910D02*
X-20310D01*
X193800Y241800D01*
X-124400Y439910D02*
X-29710D01*
X168400Y241800D01*
X-39110Y423910D02*
X143000Y241800D01*
X-124400Y423910D02*
X-39110D01*
X-124400Y407910D02*
X-48510D01*
X117600Y241800D01*
X-57910Y391910D02*
X92200Y241800D01*
X-124400Y391910D02*
X-57910D01*
X107700Y82300D02*
X165300D01*
X16000Y174000D02*
X107700Y82300D01*
X16000Y174000D02*
Y297455D01*
X41000Y183000D02*
X42000Y182000D01*
X227000D01*
X-124400Y327910D02*
X-14455D01*
X16000Y297455D01*
X68000Y168000D02*
X243485D01*
X67250Y168750D02*
X68000Y168000D01*
X237000Y192000D02*
Y291000D01*
X179000Y349000D02*
X237000Y291000D01*
X227000Y182000D02*
X237000Y192000D01*
X243485Y168000D02*
X247000Y171515D01*
Y303000D01*
X179000Y349000D02*
Y736000D01*
X48000Y746000D02*
X169000D01*
X179000Y736000D01*
X-34000Y664000D02*
X48000Y746000D01*
X-96000Y664000D02*
X-34000D01*
X-124400Y663910D02*
X-124310Y664000D01*
X-96000D01*
X242600Y815600D02*
X353000D01*
X-96090Y679910D02*
X-96000Y680000D01*
X-124400Y679910D02*
X-96090D01*
X1200478Y608190D02*
X1200586Y608298D01*
X1169236Y624692D02*
X1200478D01*
X1169236Y674200D02*
X1200478D01*
X1200259Y574966D02*
X1200586Y575293D01*
X1200259Y756494D02*
X1200586Y756821D01*
X1169018Y888515D02*
X1200259D01*
X1200586Y888842D01*
X1200259Y855510D02*
X1200586Y855836D01*
X1169018Y855510D02*
X1200259D01*
X1169018Y591469D02*
X1200259D01*
X1200260Y657479D02*
X1200586Y657806D01*
X1169018Y657479D02*
X1200260D01*
X1200478Y624692D02*
X1200586Y624801D01*
X1200259Y789499D02*
X1200586Y789826D01*
X1169018Y772997D02*
X1200260D01*
X1200259Y706987D02*
X1200586Y707313D01*
X1169018Y872012D02*
X1200260D01*
X1200259Y739992D02*
X1200586Y740318D01*
X1200259Y690484D02*
X1200586Y690811D01*
X1200260Y772997D02*
X1200587Y773324D01*
X1169236Y608190D02*
X1200478D01*
X1169018Y806002D02*
X1200259D01*
X1169268Y839007D02*
X1200509D01*
X1200259Y806002D02*
X1200586Y806329D01*
X1169018Y739992D02*
X1200259D01*
X1169018Y723489D02*
X1200259D01*
X1200478Y674200D02*
X1200586Y674308D01*
X1169018Y640977D02*
X1200259D01*
X1169018Y756494D02*
X1200259D01*
X1200509Y839007D02*
X1200836Y839334D01*
X1169018Y822505D02*
X1200259D01*
X1200586Y822831D01*
X1200259Y723489D02*
X1200586Y723816D01*
X1169018Y789499D02*
X1200259D01*
X1169018Y706987D02*
X1200259D01*
X1169018Y574966D02*
X1200259D01*
X1169018Y690484D02*
X1200259D01*
Y591469D02*
X1200586Y591796D01*
X1200259Y640977D02*
X1200586Y641303D01*
X1200260Y872012D02*
X1200586Y872339D01*
X1168923Y174187D02*
X1200027D01*
X1199822Y256495D02*
X1200027Y256700D01*
X1168718Y256495D02*
X1199822D01*
X1168718Y289499D02*
X1199822D01*
X1200027Y289705D01*
X1168923Y124679D02*
X1200027D01*
X1199822Y91469D02*
X1200027Y91674D01*
X1168718Y91469D02*
X1199822D01*
Y140977D02*
X1200027Y141182D01*
X1168718Y140977D02*
X1199822D01*
Y322505D02*
X1200027Y322710D01*
X1168718Y272997D02*
X1199822D01*
X1199822Y306002D02*
X1200027Y306207D01*
X1199822Y223489D02*
X1200027Y223694D01*
X1168718Y355510D02*
X1199822D01*
X1168718Y239992D02*
X1199822D01*
X1168718Y74966D02*
X1199822D01*
X1199822Y272997D02*
X1200027Y273202D01*
X1199822Y355510D02*
X1200027Y355715D01*
X1168718Y306002D02*
X1199822D01*
X1168718Y388515D02*
X1199822D01*
X1168718Y206987D02*
X1199822D01*
X1168968Y339007D02*
X1200071D01*
X1199822Y157479D02*
X1200027Y157684D01*
X1168718Y124474D02*
X1168923Y124679D01*
X1199822Y239992D02*
X1200027Y240197D01*
X1199822Y74966D02*
X1200027Y75171D01*
X1168718Y190484D02*
X1199822D01*
X1168718Y173982D02*
X1168923Y174187D01*
X1168718Y107971D02*
X1168923Y108177D01*
X1200071Y339007D02*
X1200277Y339212D01*
X1199822Y206987D02*
X1200027Y207192D01*
X1199822Y372012D02*
X1200027Y372218D01*
X1199822Y190484D02*
X1200027Y190689D01*
X1168718Y372012D02*
X1199822D01*
X1168923Y108177D02*
X1200027D01*
X1199822Y388515D02*
X1200027Y388720D01*
X1168718Y223489D02*
X1199822D01*
X1168718Y157479D02*
X1199822D01*
X1168718Y322505D02*
X1199822D01*
X406500Y251145D02*
Y282064D01*
X356992Y251145D02*
Y282064D01*
X340490Y251145D02*
Y282064D01*
X455789Y251363D02*
Y282282D01*
X389779Y251363D02*
Y282282D01*
X422784Y251363D02*
X423134Y251014D01*
X455789Y251363D02*
X456139Y251014D01*
X373277Y251363D02*
Y282282D01*
Y251363D02*
X373626Y251014D01*
X439287Y251363D02*
Y282282D01*
X538302Y251363D02*
Y282282D01*
X521799Y251363D02*
Y282282D01*
X554805Y251363D02*
X555154Y251014D01*
X554805Y251363D02*
Y282282D01*
X604313Y251363D02*
Y282282D01*
X422784Y251363D02*
Y282282D01*
X620815Y251363D02*
X621165Y251014D01*
X571307Y251113D02*
Y282032D01*
X340490Y251145D02*
X340621Y251014D01*
X587810Y251363D02*
X588159Y251014D01*
X389779Y251363D02*
X390129Y251013D01*
X307266Y251363D02*
X307616Y251014D01*
X571307Y251113D02*
X571657Y250764D01*
X356992Y251145D02*
X357123Y251014D01*
X521799Y251363D02*
X522149Y251014D01*
X604313Y251363D02*
X604662Y251013D01*
X406500Y251145D02*
X406631Y251013D01*
X439287Y251363D02*
X439636Y251014D01*
X488795Y251363D02*
Y282282D01*
X472292Y251363D02*
X472641Y251014D01*
X323769Y251363D02*
X324118Y251014D01*
X587810Y251363D02*
Y282282D01*
X505297Y251363D02*
Y282282D01*
X488795Y251363D02*
X489144Y251014D01*
X505297Y251363D02*
X505647Y251013D01*
X472292Y251363D02*
Y282282D01*
X323769Y251363D02*
Y282282D01*
X307266Y251363D02*
Y282282D01*
X620815Y251363D02*
Y282282D01*
X538302Y251363D02*
X538652Y251014D01*
X340271Y282282D02*
X340490Y282064D01*
X356774Y282282D02*
X356992Y282064D01*
X406282Y282282D02*
X406500Y282064D01*
X491000Y665500D02*
X734500D01*
X785800Y614200D01*
X652300Y631300D02*
X679000Y658000D01*
X581500Y631300D02*
X652300D01*
X820000Y849200D02*
Y895000D01*
X790000Y925000D02*
X820000Y895000D01*
X310000Y925000D02*
X790000D01*
X491000Y665500D02*
X491000Y665500D01*
X439000Y418500D02*
X476504D01*
X500300Y442296D01*
X395871Y418500D02*
X439000D01*
X500300Y442296D02*
Y520300D01*
X1032500Y206700D02*
Y244204D01*
X1008704Y268000D02*
X1032500Y244204D01*
Y163571D02*
Y206700D01*
X930700Y268000D02*
X1008704D01*
X931000Y768000D02*
X1009004D01*
X1032800Y744204D01*
X785800Y758700D02*
X785800Y758700D01*
Y614200D02*
Y758700D01*
X275000Y874600D02*
Y890000D01*
X310000Y925000D01*
X1032800Y706700D02*
Y744204D01*
Y663571D02*
Y706700D01*
X1169018Y673982D02*
X1169236Y674200D01*
X1169018Y607971D02*
X1169236Y608190D01*
X1169018Y624474D02*
X1169236Y624692D01*
D58*
X50000Y730000D02*
X100000D01*
X-32090Y647910D02*
X50000Y730000D01*
X-124400Y647910D02*
X-32090D01*
X-8090Y631910D02*
X50000Y690000D01*
X-124400Y631910D02*
X-8090D01*
X50000Y690000D02*
X100250D01*
X60000Y610000D02*
X100000D01*
X62090Y567910D02*
X100000Y530000D01*
Y530000D02*
Y530000D01*
X48090Y551910D02*
X100000Y500000D01*
X-2410Y519910D02*
X100000Y417500D01*
Y490000D02*
Y500000D01*
X21590Y535910D02*
X100000Y457500D01*
X50000Y650000D02*
X100250D01*
X100000Y450000D02*
Y457500D01*
Y410000D02*
Y417500D01*
X85000Y570000D02*
X100000D01*
X15910Y615910D02*
X50000Y650000D01*
X49910Y599910D02*
X60000Y610000D01*
X-124400Y519910D02*
X-2410D01*
X-124400Y535910D02*
X21590D01*
X-124400Y551910D02*
X48090D01*
X-124400Y567910D02*
X62090D01*
X-124400Y583910D02*
X71090D01*
X85000Y570000D01*
X-124400Y599910D02*
X49910D01*
X-124400Y615910D02*
X15910D01*
D60*
X1236758Y851325D02*
X1241087D01*
X1232158Y872022D02*
X1236615D01*
X1240817Y865179D02*
Y867820D01*
X1245804Y561330D02*
X1338330D01*
Y612130D02*
X1348700Y622500D01*
X1231871Y674278D02*
X1268619Y637530D01*
X1276224Y662930D02*
X1338330D01*
X1231871Y740289D02*
X1283829Y688330D01*
X1338330Y739130D02*
X1348700Y749500D01*
X1306645Y764530D02*
X1338330D01*
X1231871Y855807D02*
X1232277D01*
X1231871Y888812D02*
X1232158Y888525D01*
X1231871Y756791D02*
X1289962Y698700D01*
X1231871Y789796D02*
X1297567Y724100D01*
X1323300D01*
X1338330Y561330D02*
X1348700Y571700D01*
X1231871Y575263D02*
X1245804Y561330D01*
X1299040Y739130D02*
X1338330D01*
X1231871Y806299D02*
X1299040Y739130D01*
X1251936Y571700D02*
X1323300D01*
X1274752Y647900D02*
X1323300D01*
X1232277Y855807D02*
X1236758Y851325D01*
X1231871Y723786D02*
X1282357Y673300D01*
X1338330Y637530D02*
X1348700Y647900D01*
X1259542Y597100D02*
X1323300D01*
X1231871Y591766D02*
X1251936Y571700D01*
X1231871Y608268D02*
X1253409Y586730D01*
X1338330Y688330D02*
X1348700Y698700D01*
X1289962D02*
X1323300D01*
X1231871Y657776D02*
X1267147Y622500D01*
X1261014Y612130D02*
X1338330D01*
X1235075Y888525D02*
X1323300Y800300D01*
X1231871Y822801D02*
X1240722D01*
X1231871Y690781D02*
X1274752Y647900D01*
X1338330Y662930D02*
X1348700Y673300D01*
X1231871Y839304D02*
X1306645Y764530D01*
X1338330D02*
X1348700Y774900D01*
X1338330Y586730D02*
X1348700Y597100D01*
X1283829Y688330D02*
X1338330D01*
X1231871Y624771D02*
X1259542Y597100D01*
X1267147Y622500D02*
X1323300D01*
X1232158Y888525D02*
X1235075D01*
X1231871Y707283D02*
X1276224Y662930D01*
X1240722Y822801D02*
X1313146Y750377D01*
X1236615Y872022D02*
X1240817Y867820D01*
X1282357Y673300D02*
X1323300D01*
X1268619Y637530D02*
X1338330D01*
X1231871Y872309D02*
X1232158Y872022D01*
X1253409Y586730D02*
X1338330D01*
Y713730D02*
X1348700Y724100D01*
X1231871Y773294D02*
X1291435Y713730D01*
X1338330D01*
X1231871Y641273D02*
X1261014Y612130D01*
X1241087Y851325D02*
X1315312Y777100D01*
X1240817Y865179D02*
X1318197Y787799D01*
X1231656Y355728D02*
X1236059Y351325D01*
X1236636Y371944D02*
X1240517Y368063D01*
X1231537Y371944D02*
X1236636D01*
X1231250Y322723D02*
X1240500D01*
X1231250Y75185D02*
X1245105Y61330D01*
X1338030Y86730D02*
X1348400Y97100D01*
X1231250Y141195D02*
X1260315Y112130D01*
X1231250Y174200D02*
X1267920Y137530D01*
X1231250Y207205D02*
X1275525Y162930D01*
X1338030Y188330D02*
X1348400Y198700D01*
X1290735Y213730D02*
X1338030D01*
X1298340Y239130D02*
X1338030D01*
X1231250Y339226D02*
X1305946Y264530D01*
X1231250Y355728D02*
X1231656D01*
X1236059Y351325D02*
X1240787D01*
X1231250Y372231D02*
X1231537Y371944D01*
X1231250Y388733D02*
X1231537Y388446D01*
X1240500Y322723D02*
X1270500Y292723D01*
X1296868Y224100D02*
X1323000D01*
X1240517Y365179D02*
Y368063D01*
X1251237Y71700D02*
X1323000D01*
X1231250Y91687D02*
X1251237Y71700D01*
X1231250Y223708D02*
X1281658Y173300D01*
X1323000D01*
X1274053Y147900D02*
X1323000D01*
X1260315Y112130D02*
X1338030D01*
Y162930D02*
X1348400Y173300D01*
X1258842Y97100D02*
X1323000D01*
X1231250Y124692D02*
X1258842Y97100D01*
X1231537Y388446D02*
X1234854D01*
X1231250Y157697D02*
X1266447Y122500D01*
X1338030Y213730D02*
X1348400Y224100D01*
X1338030Y137530D02*
X1348400Y147900D01*
X1231250Y108190D02*
X1252710Y86730D01*
X1338030Y264530D02*
X1348400Y274900D01*
X1252710Y86730D02*
X1338030D01*
X1305946Y264530D02*
X1338030D01*
X1231250Y256713D02*
X1289263Y198700D01*
X1275525Y162930D02*
X1338030D01*
X1231250Y273215D02*
X1290735Y213730D01*
X1234854Y388446D02*
X1323000Y300300D01*
X1289263Y198700D02*
X1323000D01*
X1231250Y240210D02*
X1283130Y188330D01*
X1267920Y137530D02*
X1338030D01*
X1231250Y190703D02*
X1274053Y147900D01*
X1338030Y61330D02*
X1348400Y71700D01*
X1231250Y306220D02*
X1298340Y239130D01*
X1231250Y289718D02*
X1296868Y224100D01*
X1245105Y61330D02*
X1338030D01*
Y239130D02*
X1348400Y249500D01*
X1338030Y112130D02*
X1348400Y122500D01*
X1266447D02*
X1323000D01*
X1283130Y188330D02*
X1338030D01*
X1240787Y351325D02*
X1315012Y277100D01*
X1240517Y365179D02*
X1317897Y287799D01*
X583625Y210213D02*
Y214941D01*
X395230Y112970D02*
Y175475D01*
X420630Y112970D02*
Y167870D01*
X471430Y112970D02*
Y152660D01*
X554879Y210357D02*
Y219606D01*
X496830Y145054D02*
X571382Y219606D01*
X532600Y128000D02*
X620603Y216003D01*
X431000Y161737D02*
X488869Y219606D01*
X482677Y138154D02*
X554879Y210357D01*
X344430Y112970D02*
Y190685D01*
X431000Y128000D02*
Y161737D01*
X293630Y112970D02*
Y205895D01*
X354800Y128000D02*
Y184553D01*
X520099Y115101D02*
Y135318D01*
X293630Y205895D02*
X307341Y219606D01*
X329400Y128000D02*
Y192158D01*
X446030Y112970D02*
Y160265D01*
X319030Y112970D02*
Y198290D01*
X380200Y128000D02*
Y176947D01*
X420630Y112970D02*
X431000Y102600D01*
X329400Y192158D02*
X356849Y219606D01*
X293630Y112970D02*
X304000Y102600D01*
X583625Y214941D02*
X587885Y219201D01*
X395230Y112970D02*
X405600Y102600D01*
X471430Y112970D02*
X481800Y102600D01*
X405600Y128000D02*
Y169342D01*
X344430Y112970D02*
X354800Y102600D01*
X496830Y112970D02*
X507200Y102600D01*
X420630Y167870D02*
X472367Y219606D01*
X587885Y219201D02*
Y219606D01*
X319030Y112970D02*
X329400Y102600D01*
X354800Y184553D02*
X389854Y219606D01*
X520099Y135318D02*
X604387Y219606D01*
X395230Y175475D02*
X439362Y219606D01*
X304000Y199763D02*
X323844Y219606D01*
X471430Y152660D02*
X538377Y219606D01*
X369830Y112970D02*
Y183080D01*
X456400Y154132D02*
X521874Y219606D01*
X446030Y112970D02*
X456400Y102600D01*
X405600Y169342D02*
X455864Y219606D01*
X344430Y190685D02*
X373351Y219606D01*
X620603Y216003D02*
Y219320D01*
X369830Y112970D02*
X380200Y102600D01*
X456400Y128000D02*
Y154132D01*
X369830Y183080D02*
X406357Y219606D01*
X380200Y176947D02*
X422859Y219606D01*
X319030Y198290D02*
X340346Y219606D01*
X496830Y112970D02*
Y145054D01*
X304000Y128000D02*
Y199763D01*
X446030Y160265D02*
X505372Y219606D01*
X620603Y219320D02*
X620890Y219606D01*
X509400Y135988D02*
X583625Y210213D01*
X307266Y282282D02*
X319000Y294016D01*
Y338500D01*
X323769Y282282D02*
Y282688D01*
X324250Y283169D01*
Y361335D01*
X323135Y362450D02*
X324250Y361335D01*
X323135Y362450D02*
Y367209D01*
X319000Y371344D02*
X323135Y367209D01*
X319000Y371344D02*
Y371750D01*
X329000Y293554D02*
X340271Y282282D01*
X329000Y293554D02*
Y383000D01*
X319000Y393000D02*
X329000Y383000D01*
X319000Y393000D02*
Y404250D01*
X439000Y418500D02*
X439000Y418500D01*
Y460257D01*
X441500Y462757D01*
Y463000D01*
X469000Y433000D02*
Y503000D01*
X449503Y522497D02*
X469000Y503000D01*
X440250Y522497D02*
X449503D01*
X462350Y466965D02*
Y475315D01*
X463500Y476465D02*
Y496000D01*
X462350Y475315D02*
X463500Y476465D01*
X449625Y509875D02*
X463500Y496000D01*
X439625Y509875D02*
X449625D01*
X439375Y510125D02*
X439625Y509875D01*
X456500Y446953D02*
X456500Y446953D01*
Y433000D02*
Y446953D01*
X447525Y500500D02*
X456500Y491525D01*
Y446953D02*
Y491525D01*
X424000Y500500D02*
X447525D01*
X334000Y305056D02*
X356774Y282282D01*
X334000Y305056D02*
Y413000D01*
X318978Y428022D02*
X334000Y413000D01*
X318978Y428022D02*
Y436916D01*
X520099Y115101D02*
X532600Y102600D01*
X379000Y290500D02*
X634200D01*
X341500Y328000D02*
X379000Y290500D01*
X509400Y130200D02*
Y135988D01*
X507200Y128000D02*
X509400Y130200D01*
X482677Y128877D02*
Y138154D01*
X481800Y128000D02*
X482677Y128877D01*
X1156984Y86700D02*
X1168718Y74966D01*
X1112500Y86700D02*
X1156984D01*
X1168312Y91469D02*
X1168718D01*
X1167831Y91950D02*
X1168312Y91469D01*
X1089665Y91950D02*
X1167831D01*
X1088550Y90835D02*
X1089665Y91950D01*
X1083791Y90835D02*
X1088550D01*
X1079656Y86700D02*
X1083791Y90835D01*
X1079250Y86700D02*
X1079656D01*
X1157446Y96700D02*
X1168718Y107971D01*
X1068000Y96700D02*
X1157446D01*
X1058000Y86700D02*
X1068000Y96700D01*
X1046750Y86700D02*
X1058000D01*
X1032500Y206700D02*
X1032500Y206700D01*
X990743Y206700D02*
X1032500D01*
X988243Y209200D02*
X990743Y206700D01*
X988000Y209200D02*
X988243D01*
X948000Y236700D02*
X1018000D01*
X928503Y217203D02*
X948000Y236700D01*
X928503Y207950D02*
Y217203D01*
X975685Y230050D02*
X984035D01*
X955000Y231200D02*
X974535D01*
X975685Y230050D01*
X941125Y217325D02*
X955000Y231200D01*
X941125Y207325D02*
Y217325D01*
X940875Y207075D02*
X941125Y207325D01*
X1004047Y224200D02*
X1004047Y224200D01*
X1018000D01*
X950500Y215225D02*
X959475Y224200D01*
X1004047D01*
X950500Y191700D02*
Y215225D01*
X1145944Y101700D02*
X1168718Y124474D01*
X1038000Y101700D02*
X1145944D01*
X1022978Y86678D02*
X1038000Y101700D01*
X1014084Y86678D02*
X1022978D01*
X1335899Y287799D02*
X1348400Y300300D01*
X1317897Y287799D02*
X1335899D01*
X1160500Y146700D02*
Y401900D01*
X1123000Y109200D02*
X1160500Y146700D01*
X1315012Y277100D02*
X1320800D01*
X1323000Y274900D01*
X1270500Y292723D02*
X1312846Y250377D01*
X1322123D01*
X1270500Y292723D02*
Y292723D01*
X1322123Y250377D02*
X1323000Y249500D01*
X1112800Y586700D02*
X1157284D01*
X1169018Y574966D01*
X1088850Y590835D02*
X1089965Y591950D01*
X1079956Y586700D02*
X1084091Y590835D01*
X1079550Y586700D02*
X1079956D01*
X1084091Y590835D02*
X1088850D01*
X1047050Y586700D02*
X1058300D01*
X1014384Y586678D02*
X1023278D01*
X1038300Y601700D01*
X950800Y691700D02*
Y715225D01*
X959775Y724200D01*
X1004347D01*
X1004347Y724200D01*
X1018300D01*
X974835Y731200D02*
X975985Y730050D01*
X984335D01*
X955300Y731200D02*
X974835D01*
X941425Y707325D02*
Y717325D01*
X955300Y731200D01*
X941175Y707075D02*
X941425Y707325D01*
X928803Y717203D02*
X948300Y736700D01*
X928803Y707950D02*
Y717203D01*
X948300Y736700D02*
X1018300D01*
X991043Y706700D02*
X1032800D01*
X1032800Y706700D01*
X988300Y709200D02*
X988543D01*
X991043Y706700D01*
X1123300Y609200D02*
X1160800Y646700D01*
Y901900D01*
X1038300Y601700D02*
X1146244D01*
X1169018Y624474D01*
X1157746Y596700D02*
X1169018Y607971D01*
X1168131Y591950D02*
X1168612Y591469D01*
X1169018D01*
X1315312Y777100D02*
X1321100D01*
X1318197Y787799D02*
X1336199D01*
X1321100Y777100D02*
X1323300Y774900D01*
X1336199Y787799D02*
X1348700Y800300D01*
X1322423Y750377D02*
X1323300Y749500D01*
X1313146Y750377D02*
X1322423D01*
X1058300Y586700D02*
X1068300Y596700D01*
X1157746D01*
X1089965Y591950D02*
X1168131D01*
D62*
X224200Y874600D02*
D03*
X249600D02*
D03*
X275000D02*
D03*
X300400D02*
D03*
X820000Y849200D02*
D03*
X845400D02*
D03*
X870800D02*
D03*
X896200D02*
D03*
X353000Y841000D02*
D03*
Y815600D02*
D03*
X581500Y631300D02*
D03*
Y605900D02*
D03*
Y580499D02*
D03*
Y555099D02*
D03*
X895900Y349200D02*
D03*
X870500D02*
D03*
X845100D02*
D03*
X819700D02*
D03*
D63*
X353000Y866400D02*
D03*
D64*
X190700Y82300D02*
D03*
X165300D02*
D03*
X190700Y107700D02*
D03*
X165300D02*
D03*
X659600Y102600D02*
D03*
X634200D02*
D03*
X608800D02*
D03*
X583400D02*
D03*
X558000D02*
D03*
X532600D02*
D03*
X507200D02*
D03*
X481800D02*
D03*
X456400D02*
D03*
X431000D02*
D03*
X405600D02*
D03*
X380200D02*
D03*
X354800D02*
D03*
X329400D02*
D03*
X304000D02*
D03*
X659600Y128000D02*
D03*
X634200D02*
D03*
X608800D02*
D03*
X583400D02*
D03*
X558000D02*
D03*
X532600D02*
D03*
X507200D02*
D03*
X481800D02*
D03*
X456400D02*
D03*
X431000D02*
D03*
X405600D02*
D03*
X380200D02*
D03*
X354800D02*
D03*
X329400D02*
D03*
X304000D02*
D03*
X1323000Y71700D02*
D03*
Y97100D02*
D03*
Y122500D02*
D03*
Y147900D02*
D03*
Y173300D02*
D03*
Y198700D02*
D03*
Y224100D02*
D03*
Y249500D02*
D03*
Y274900D02*
D03*
Y300300D02*
D03*
Y325700D02*
D03*
Y351100D02*
D03*
Y376500D02*
D03*
Y401900D02*
D03*
Y427300D02*
D03*
X1348400Y71700D02*
D03*
Y97100D02*
D03*
Y122500D02*
D03*
Y147900D02*
D03*
Y173300D02*
D03*
Y198700D02*
D03*
Y224100D02*
D03*
Y249500D02*
D03*
Y274900D02*
D03*
Y300300D02*
D03*
Y325700D02*
D03*
Y351100D02*
D03*
Y376500D02*
D03*
Y401900D02*
D03*
Y427300D02*
D03*
X1323300Y571700D02*
D03*
Y597100D02*
D03*
Y622500D02*
D03*
Y647900D02*
D03*
Y673300D02*
D03*
Y698700D02*
D03*
Y724100D02*
D03*
Y749500D02*
D03*
Y774900D02*
D03*
Y800300D02*
D03*
Y825700D02*
D03*
Y851100D02*
D03*
Y876500D02*
D03*
Y901900D02*
D03*
Y927300D02*
D03*
X1348700Y571700D02*
D03*
Y597100D02*
D03*
Y622500D02*
D03*
Y647900D02*
D03*
Y673300D02*
D03*
Y698700D02*
D03*
Y724100D02*
D03*
Y749500D02*
D03*
Y774900D02*
D03*
Y800300D02*
D03*
Y825700D02*
D03*
Y851100D02*
D03*
Y876500D02*
D03*
Y901900D02*
D03*
Y927300D02*
D03*
D65*
X140696Y681500D02*
D03*
X140202Y560163D02*
D03*
X143000Y241800D02*
D03*
X219200D02*
D03*
X193800D02*
D03*
X168400D02*
D03*
X117600D02*
D03*
X92200D02*
D03*
X41000Y183000D02*
D03*
X-57500Y290000D02*
D03*
X67250Y168750D02*
D03*
X100000Y730000D02*
D03*
X-96000Y664000D02*
D03*
Y680000D02*
D03*
X140115Y440093D02*
D03*
X140000Y390000D02*
D03*
X1200586Y888842D02*
D03*
Y789826D02*
D03*
Y822831D02*
D03*
Y575293D02*
D03*
Y608298D02*
D03*
X1200836Y839334D02*
D03*
X1200586Y657806D02*
D03*
X1200587Y773324D02*
D03*
X1200586Y674308D02*
D03*
X1200586Y740318D02*
D03*
Y690811D02*
D03*
X1200586Y872339D02*
D03*
X1200586Y591796D02*
D03*
Y641303D02*
D03*
Y707313D02*
D03*
Y806329D02*
D03*
Y624801D02*
D03*
Y855836D02*
D03*
Y756821D02*
D03*
Y723816D02*
D03*
X1231871Y756791D02*
D03*
Y789796D02*
D03*
Y806299D02*
D03*
Y591766D02*
D03*
Y822801D02*
D03*
Y624771D02*
D03*
Y855807D02*
D03*
Y641273D02*
D03*
Y740289D02*
D03*
Y888812D02*
D03*
Y657776D02*
D03*
Y773294D02*
D03*
Y872309D02*
D03*
Y575263D02*
D03*
Y690781D02*
D03*
Y707283D02*
D03*
Y674278D02*
D03*
Y608268D02*
D03*
Y723786D02*
D03*
Y839304D02*
D03*
X1231250Y289718D02*
D03*
Y322723D02*
D03*
Y91687D02*
D03*
Y190703D02*
D03*
Y339226D02*
D03*
Y174200D02*
D03*
Y207205D02*
D03*
Y157697D02*
D03*
Y306220D02*
D03*
Y141195D02*
D03*
Y108190D02*
D03*
Y355728D02*
D03*
Y372231D02*
D03*
Y273215D02*
D03*
Y124692D02*
D03*
Y75185D02*
D03*
Y388733D02*
D03*
Y223708D02*
D03*
Y240210D02*
D03*
Y256713D02*
D03*
X1200027Y256700D02*
D03*
Y240197D02*
D03*
Y91674D02*
D03*
Y322710D02*
D03*
X1200277Y339212D02*
D03*
X1200027Y372218D02*
D03*
X1200027Y174187D02*
D03*
X1200027Y207192D02*
D03*
X1200027Y157684D02*
D03*
X1200027Y108177D02*
D03*
Y124679D02*
D03*
Y355715D02*
D03*
Y75171D02*
D03*
Y141182D02*
D03*
Y306207D02*
D03*
Y190689D02*
D03*
Y289705D02*
D03*
Y388720D02*
D03*
Y223694D02*
D03*
X1200027Y273202D02*
D03*
X439636Y251014D02*
D03*
X373626D02*
D03*
X406631Y251013D02*
D03*
X538652Y251014D02*
D03*
X571657Y250764D02*
D03*
X324118Y251014D02*
D03*
X555154D02*
D03*
X423134D02*
D03*
X390129Y251013D02*
D03*
X489144Y251014D02*
D03*
X522149D02*
D03*
X456139D02*
D03*
X588159D02*
D03*
X505647Y251013D02*
D03*
X307616Y251014D02*
D03*
X357123D02*
D03*
X340621D02*
D03*
X604662Y251013D02*
D03*
X472641Y251014D02*
D03*
X621165D02*
D03*
X488869Y219606D02*
D03*
X389854D02*
D03*
X604387D02*
D03*
X587885D02*
D03*
X323844D02*
D03*
X340346D02*
D03*
X571382D02*
D03*
X406357D02*
D03*
X521874D02*
D03*
X422859D02*
D03*
X439362D02*
D03*
X505372D02*
D03*
X356849D02*
D03*
X620890D02*
D03*
X554879D02*
D03*
X472367D02*
D03*
X373351D02*
D03*
X307341D02*
D03*
X538377D02*
D03*
X455864D02*
D03*
X844000Y567000D02*
D03*
X491000Y665500D02*
D03*
X307266Y282282D02*
D03*
X319000Y338500D02*
D03*
X323769Y282282D02*
D03*
X319000Y371750D02*
D03*
X340271Y282282D02*
D03*
X319000Y404250D02*
D03*
X373277Y282282D02*
D03*
X389779Y282282D02*
D03*
X406282Y282282D02*
D03*
X422784Y282282D02*
D03*
X439287D02*
D03*
X455789D02*
D03*
X472292D02*
D03*
X488795D02*
D03*
X505297Y282282D02*
D03*
X521799Y282282D02*
D03*
X538302D02*
D03*
X554805D02*
D03*
X571307Y282032D02*
D03*
X587810Y282282D02*
D03*
X604313Y282282D02*
D03*
X620815Y282282D02*
D03*
X395871Y418500D02*
D03*
X500300Y520300D02*
D03*
X450300Y490300D02*
D03*
X441500Y463000D02*
D03*
X469000Y433000D02*
D03*
X440250Y522497D02*
D03*
X462350Y466965D02*
D03*
X439375Y510125D02*
D03*
X456500Y433000D02*
D03*
X424000Y500500D02*
D03*
X356774Y282282D02*
D03*
X318978Y436916D02*
D03*
X552081Y423300D02*
D03*
X341500Y328000D02*
D03*
X1168718Y74966D02*
D03*
X1112500Y86700D02*
D03*
X1168718Y91469D02*
D03*
X1079250Y86700D02*
D03*
X1168718Y107971D02*
D03*
X1046750Y86700D02*
D03*
X1168718Y140977D02*
D03*
X1168718Y157479D02*
D03*
X1168718Y173982D02*
D03*
X1168718Y190484D02*
D03*
Y206987D02*
D03*
Y223489D02*
D03*
Y239992D02*
D03*
Y256495D02*
D03*
X1168718Y272997D02*
D03*
X1168718Y289499D02*
D03*
Y306002D02*
D03*
Y322505D02*
D03*
X1168968Y339007D02*
D03*
X1168718Y355510D02*
D03*
X1168718Y372012D02*
D03*
X1168718Y388515D02*
D03*
X1032500Y163571D02*
D03*
X930700Y268000D02*
D03*
X960700Y218000D02*
D03*
X988000Y209200D02*
D03*
X1018000Y236700D02*
D03*
X928503Y207950D02*
D03*
X984035Y230050D02*
D03*
X940875Y207075D02*
D03*
X1018000Y224200D02*
D03*
X950500Y191700D02*
D03*
X1168718Y124474D02*
D03*
X1014084Y86678D02*
D03*
X1027700Y319781D02*
D03*
X1123000Y109200D02*
D03*
X100000Y610000D02*
D03*
X100250Y650000D02*
D03*
X100000Y410000D02*
D03*
X100250Y690000D02*
D03*
X100000Y570000D02*
D03*
Y450000D02*
D03*
Y530000D02*
D03*
Y490000D02*
D03*
X1112800Y586700D02*
D03*
X1079550D02*
D03*
X1047050D02*
D03*
X1014384Y586678D02*
D03*
X1028000Y819781D02*
D03*
X961000Y718000D02*
D03*
X931000Y768000D02*
D03*
X785800Y758700D02*
D03*
X785800Y614200D02*
D03*
X984335Y730050D02*
D03*
X950800Y691700D02*
D03*
X941175Y707075D02*
D03*
X928803Y707950D02*
D03*
X1032800Y663571D02*
D03*
X1123300Y609200D02*
D03*
X1169018Y756494D02*
D03*
Y789499D02*
D03*
Y706987D02*
D03*
Y723489D02*
D03*
Y739992D02*
D03*
X1169018Y772997D02*
D03*
X1169268Y839007D02*
D03*
X1169018Y872012D02*
D03*
X1169018Y806002D02*
D03*
Y822505D02*
D03*
Y888515D02*
D03*
Y855510D02*
D03*
Y690484D02*
D03*
Y574966D02*
D03*
Y591469D02*
D03*
Y607971D02*
D03*
Y624474D02*
D03*
Y640977D02*
D03*
X1169018Y673982D02*
D03*
X1169018Y657479D02*
D03*
X1018300Y724200D02*
D03*
Y736700D02*
D03*
X988300Y709200D02*
D03*
D66*
X-70000Y712500D02*
D03*
X953250Y402500D02*
D03*
X932750D02*
D03*
M02*
