G04*
G04 #@! TF.GenerationSoftware,Altium Limited,Altium Designer,21.2.0 (30)*
G04*
G04 Layer_Color=16711935*
%FSLAX44Y44*%
%MOMM*%
G71*
G04*
G04 #@! TF.SameCoordinates,64555E3A-4CFD-498E-A74A-373E445EAC9D*
G04*
G04*
G04 #@! TF.FilePolarity,Negative*
G04*
G01*
G75*
%ADD50R,2.9000X0.6500*%
%ADD51C,1.7032*%
%ADD52R,1.7032X1.7032*%
%ADD53C,1.6764*%
%ADD54C,0.7032*%
%ADD55C,1.2032*%
D50*
X-124400Y287910D02*
D03*
Y295910D02*
D03*
Y303910D02*
D03*
Y311910D02*
D03*
Y319910D02*
D03*
Y327910D02*
D03*
Y335910D02*
D03*
Y343910D02*
D03*
Y351910D02*
D03*
Y359910D02*
D03*
Y367910D02*
D03*
Y375910D02*
D03*
Y383910D02*
D03*
Y391910D02*
D03*
Y399910D02*
D03*
Y407910D02*
D03*
Y415910D02*
D03*
Y423910D02*
D03*
Y431910D02*
D03*
Y439910D02*
D03*
Y447910D02*
D03*
Y455910D02*
D03*
Y463910D02*
D03*
Y503910D02*
D03*
Y511910D02*
D03*
Y519910D02*
D03*
Y527910D02*
D03*
Y535910D02*
D03*
Y543910D02*
D03*
Y551910D02*
D03*
Y559910D02*
D03*
Y567910D02*
D03*
Y575910D02*
D03*
Y583910D02*
D03*
Y591910D02*
D03*
Y599910D02*
D03*
Y607910D02*
D03*
Y615910D02*
D03*
Y623910D02*
D03*
Y631910D02*
D03*
Y639910D02*
D03*
Y647910D02*
D03*
Y655910D02*
D03*
Y663910D02*
D03*
Y671910D02*
D03*
Y679910D02*
D03*
Y687910D02*
D03*
Y695910D02*
D03*
Y703910D02*
D03*
Y711910D02*
D03*
D51*
X224200Y874600D02*
D03*
X249600D02*
D03*
X275000D02*
D03*
X300400D02*
D03*
X820000Y849200D02*
D03*
X845400D02*
D03*
X870800D02*
D03*
X896200D02*
D03*
X353000Y841000D02*
D03*
Y815600D02*
D03*
X581500Y631300D02*
D03*
Y605900D02*
D03*
Y580499D02*
D03*
Y555099D02*
D03*
X895900Y349200D02*
D03*
X870500D02*
D03*
X845100D02*
D03*
X819700D02*
D03*
D52*
X353000Y866400D02*
D03*
D53*
X190700Y82300D02*
D03*
X165300D02*
D03*
X190700Y107700D02*
D03*
X165300D02*
D03*
X659600Y102600D02*
D03*
X634200D02*
D03*
X608800D02*
D03*
X583400D02*
D03*
X558000D02*
D03*
X532600D02*
D03*
X507200D02*
D03*
X481800D02*
D03*
X456400D02*
D03*
X431000D02*
D03*
X405600D02*
D03*
X380200D02*
D03*
X354800D02*
D03*
X329400D02*
D03*
X304000D02*
D03*
X659600Y128000D02*
D03*
X634200D02*
D03*
X608800D02*
D03*
X583400D02*
D03*
X558000D02*
D03*
X532600D02*
D03*
X507200D02*
D03*
X481800D02*
D03*
X456400D02*
D03*
X431000D02*
D03*
X405600D02*
D03*
X380200D02*
D03*
X354800D02*
D03*
X329400D02*
D03*
X304000D02*
D03*
X1323000Y71700D02*
D03*
Y97100D02*
D03*
Y122500D02*
D03*
Y147900D02*
D03*
Y173300D02*
D03*
Y198700D02*
D03*
Y224100D02*
D03*
Y249500D02*
D03*
Y274900D02*
D03*
Y300300D02*
D03*
Y325700D02*
D03*
Y351100D02*
D03*
Y376500D02*
D03*
Y401900D02*
D03*
Y427300D02*
D03*
X1348400Y71700D02*
D03*
Y97100D02*
D03*
Y122500D02*
D03*
Y147900D02*
D03*
Y173300D02*
D03*
Y198700D02*
D03*
Y224100D02*
D03*
Y249500D02*
D03*
Y274900D02*
D03*
Y300300D02*
D03*
Y325700D02*
D03*
Y351100D02*
D03*
Y376500D02*
D03*
Y401900D02*
D03*
Y427300D02*
D03*
X1323300Y571700D02*
D03*
Y597100D02*
D03*
Y622500D02*
D03*
Y647900D02*
D03*
Y673300D02*
D03*
Y698700D02*
D03*
Y724100D02*
D03*
Y749500D02*
D03*
Y774900D02*
D03*
Y800300D02*
D03*
Y825700D02*
D03*
Y851100D02*
D03*
Y876500D02*
D03*
Y901900D02*
D03*
Y927300D02*
D03*
X1348700Y571700D02*
D03*
Y597100D02*
D03*
Y622500D02*
D03*
Y647900D02*
D03*
Y673300D02*
D03*
Y698700D02*
D03*
Y724100D02*
D03*
Y749500D02*
D03*
Y774900D02*
D03*
Y800300D02*
D03*
Y825700D02*
D03*
Y851100D02*
D03*
Y876500D02*
D03*
Y901900D02*
D03*
Y927300D02*
D03*
D54*
X140696Y681500D02*
D03*
X140202Y560163D02*
D03*
X143000Y241800D02*
D03*
X219200D02*
D03*
X193800D02*
D03*
X168400D02*
D03*
X117600D02*
D03*
X92200D02*
D03*
X41000Y183000D02*
D03*
X-57500Y290000D02*
D03*
X67250Y168750D02*
D03*
X100000Y730000D02*
D03*
X-96000Y664000D02*
D03*
Y680000D02*
D03*
X140115Y440093D02*
D03*
X140000Y390000D02*
D03*
X1200586Y888842D02*
D03*
Y789826D02*
D03*
Y822831D02*
D03*
Y575293D02*
D03*
Y608298D02*
D03*
X1200836Y839334D02*
D03*
X1200586Y657806D02*
D03*
X1200587Y773324D02*
D03*
X1200586Y674308D02*
D03*
X1200586Y740318D02*
D03*
Y690811D02*
D03*
X1200586Y872339D02*
D03*
X1200586Y591796D02*
D03*
Y641303D02*
D03*
Y707313D02*
D03*
Y806329D02*
D03*
Y624801D02*
D03*
Y855836D02*
D03*
Y756821D02*
D03*
Y723816D02*
D03*
X1231871Y756791D02*
D03*
Y789796D02*
D03*
Y806299D02*
D03*
Y591766D02*
D03*
Y822801D02*
D03*
Y624771D02*
D03*
Y855807D02*
D03*
Y641273D02*
D03*
Y740289D02*
D03*
Y888812D02*
D03*
Y657776D02*
D03*
Y773294D02*
D03*
Y872309D02*
D03*
Y575263D02*
D03*
Y690781D02*
D03*
Y707283D02*
D03*
Y674278D02*
D03*
Y608268D02*
D03*
Y723786D02*
D03*
Y839304D02*
D03*
X1231250Y289718D02*
D03*
Y322723D02*
D03*
Y91687D02*
D03*
Y190703D02*
D03*
Y339226D02*
D03*
Y174200D02*
D03*
Y207205D02*
D03*
Y157697D02*
D03*
Y306220D02*
D03*
Y141195D02*
D03*
Y108190D02*
D03*
Y355728D02*
D03*
Y372231D02*
D03*
Y273215D02*
D03*
Y124692D02*
D03*
Y75185D02*
D03*
Y388733D02*
D03*
Y223708D02*
D03*
Y240210D02*
D03*
Y256713D02*
D03*
X1200027Y256700D02*
D03*
Y240197D02*
D03*
Y91674D02*
D03*
Y322710D02*
D03*
X1200277Y339212D02*
D03*
X1200027Y372218D02*
D03*
X1200027Y174187D02*
D03*
X1200027Y207192D02*
D03*
X1200027Y157684D02*
D03*
X1200027Y108177D02*
D03*
Y124679D02*
D03*
Y355715D02*
D03*
Y75171D02*
D03*
Y141182D02*
D03*
Y306207D02*
D03*
Y190689D02*
D03*
Y289705D02*
D03*
Y388720D02*
D03*
Y223694D02*
D03*
X1200027Y273202D02*
D03*
X439636Y251014D02*
D03*
X373626D02*
D03*
X406631Y251013D02*
D03*
X538652Y251014D02*
D03*
X571657Y250764D02*
D03*
X324118Y251014D02*
D03*
X555154D02*
D03*
X423134D02*
D03*
X390129Y251013D02*
D03*
X489144Y251014D02*
D03*
X522149D02*
D03*
X456139D02*
D03*
X588159D02*
D03*
X505647Y251013D02*
D03*
X307616Y251014D02*
D03*
X357123D02*
D03*
X340621D02*
D03*
X604662Y251013D02*
D03*
X472641Y251014D02*
D03*
X621165D02*
D03*
X488869Y219606D02*
D03*
X389854D02*
D03*
X604387D02*
D03*
X587885D02*
D03*
X323844D02*
D03*
X340346D02*
D03*
X571382D02*
D03*
X406357D02*
D03*
X521874D02*
D03*
X422859D02*
D03*
X439362D02*
D03*
X505372D02*
D03*
X356849D02*
D03*
X620890D02*
D03*
X554879D02*
D03*
X472367D02*
D03*
X373351D02*
D03*
X307341D02*
D03*
X538377D02*
D03*
X455864D02*
D03*
X844000Y567000D02*
D03*
X491000Y665500D02*
D03*
X307266Y282282D02*
D03*
X319000Y338500D02*
D03*
X323769Y282282D02*
D03*
X319000Y371750D02*
D03*
X340271Y282282D02*
D03*
X319000Y404250D02*
D03*
X373277Y282282D02*
D03*
X389779Y282282D02*
D03*
X406282Y282282D02*
D03*
X422784Y282282D02*
D03*
X439287D02*
D03*
X455789D02*
D03*
X472292D02*
D03*
X488795D02*
D03*
X505297Y282282D02*
D03*
X521799Y282282D02*
D03*
X538302D02*
D03*
X554805D02*
D03*
X571307Y282032D02*
D03*
X587810Y282282D02*
D03*
X604313Y282282D02*
D03*
X620815Y282282D02*
D03*
X395871Y418500D02*
D03*
X500300Y520300D02*
D03*
X450300Y490300D02*
D03*
X441500Y463000D02*
D03*
X469000Y433000D02*
D03*
X440250Y522497D02*
D03*
X462350Y466965D02*
D03*
X439375Y510125D02*
D03*
X456500Y433000D02*
D03*
X424000Y500500D02*
D03*
X356774Y282282D02*
D03*
X318978Y436916D02*
D03*
X552081Y423300D02*
D03*
X341500Y328000D02*
D03*
X1168718Y74966D02*
D03*
X1112500Y86700D02*
D03*
X1168718Y91469D02*
D03*
X1079250Y86700D02*
D03*
X1168718Y107971D02*
D03*
X1046750Y86700D02*
D03*
X1168718Y140977D02*
D03*
X1168718Y157479D02*
D03*
X1168718Y173982D02*
D03*
X1168718Y190484D02*
D03*
Y206987D02*
D03*
Y223489D02*
D03*
Y239992D02*
D03*
Y256495D02*
D03*
X1168718Y272997D02*
D03*
X1168718Y289499D02*
D03*
Y306002D02*
D03*
Y322505D02*
D03*
X1168968Y339007D02*
D03*
X1168718Y355510D02*
D03*
X1168718Y372012D02*
D03*
X1168718Y388515D02*
D03*
X1032500Y163571D02*
D03*
X930700Y268000D02*
D03*
X960700Y218000D02*
D03*
X988000Y209200D02*
D03*
X1018000Y236700D02*
D03*
X928503Y207950D02*
D03*
X984035Y230050D02*
D03*
X940875Y207075D02*
D03*
X1018000Y224200D02*
D03*
X950500Y191700D02*
D03*
X1168718Y124474D02*
D03*
X1014084Y86678D02*
D03*
X1027700Y319781D02*
D03*
X1123000Y109200D02*
D03*
X100000Y610000D02*
D03*
X100250Y650000D02*
D03*
X100000Y410000D02*
D03*
X100250Y690000D02*
D03*
X100000Y570000D02*
D03*
Y450000D02*
D03*
Y530000D02*
D03*
Y490000D02*
D03*
X1112800Y586700D02*
D03*
X1079550D02*
D03*
X1047050D02*
D03*
X1014384Y586678D02*
D03*
X1028000Y819781D02*
D03*
X961000Y718000D02*
D03*
X931000Y768000D02*
D03*
X785800Y758700D02*
D03*
X785800Y614200D02*
D03*
X984335Y730050D02*
D03*
X950800Y691700D02*
D03*
X941175Y707075D02*
D03*
X928803Y707950D02*
D03*
X1032800Y663571D02*
D03*
X1123300Y609200D02*
D03*
X1169018Y756494D02*
D03*
Y789499D02*
D03*
Y706987D02*
D03*
Y723489D02*
D03*
Y739992D02*
D03*
X1169018Y772997D02*
D03*
X1169268Y839007D02*
D03*
X1169018Y872012D02*
D03*
X1169018Y806002D02*
D03*
Y822505D02*
D03*
Y888515D02*
D03*
Y855510D02*
D03*
Y690484D02*
D03*
Y574966D02*
D03*
Y591469D02*
D03*
Y607971D02*
D03*
Y624474D02*
D03*
Y640977D02*
D03*
X1169018Y673982D02*
D03*
X1169018Y657479D02*
D03*
X1018300Y724200D02*
D03*
Y736700D02*
D03*
X988300Y709200D02*
D03*
D55*
X-70000Y712500D02*
D03*
X953250Y402500D02*
D03*
X932750D02*
D03*
M02*
