M48
;Layer_Color=9474304
;FILE_FORMAT=4:4
METRIC,TZ
;TYPE=PLATED
T1F00S00C0.3000
T2F00S00C0.4500
T3F00S00C0.7500
T4F00S00C0.9000
T5F00S00C1.0160
%
T01
X1014084Y86678
X1046750Y86700
X1079250
X1112500
X1123000Y109200
X1168718Y107971
Y91469
Y74966
X1200027Y75171
Y91674
Y108177
Y124679
X1231250Y124692
Y108190
Y91687
Y75185
X1168718Y124474
Y140977
X1168718Y157479
X1168718Y173982
X1168718Y190484
Y206987
Y223489
Y239992
Y256495
X1168718Y272997
X1168718Y289499
Y306002
Y322505
X1168968Y339007
X1168718Y355510
X1168718Y372012
X1168718Y388515
X1200027Y388720
X1200027Y372218
X1200027Y355715
X1200277Y339212
X1200027Y322710
Y306207
Y289705
X1200027Y273202
X1200027Y256700
Y240197
Y223694
Y207192
Y190689
X1200027Y174187
X1200027Y157684
X1200027Y141182
X1231250Y141195
Y157697
Y174200
Y190703
Y207205
Y223708
Y240210
Y256713
Y273215
Y289718
Y306220
Y322723
Y339226
Y355728
Y372231
Y388733
X1027700Y319781
X1018000Y236700
Y224200
X984035Y230050
X988000Y209200
X960700Y218000
X940875Y207075
X928503Y207950
X950500Y191700
X930700Y268000
X1032500Y163571
X620890Y219606
X604387
X587885
X571382
X554879
X538377
X521874
X505372
X488869
X472367
X455864
X439362
X422859
X406357
X389854
X373351
X356849
X340346
X340621Y251014
X357123
X373626
X390129Y251013
X406631Y251013
X423134Y251014
X439636
X456139
X472641
X489144
X505647Y251013
X522149Y251014
X538652
X555154
X571657Y250764
X588159Y251014
X604662Y251013
X621165Y251014
X620815Y282282
X604313Y282282
X587810Y282282
X571307Y282032
X554805Y282282
X538302
X521799
X505297Y282282
X488795Y282282
X472292
X455789
X439287
X422784
X406282Y282282
X389779Y282282
X373277Y282282
X356774
X340271
X341500Y328000
X395871Y418500
X456500Y433000
X469000
X462350Y466965
X441500Y463000
X450300Y490300
X439375Y510125
X440250Y522497
X424000Y500500
X500300Y520300
X552081Y423300
X318978Y436916
X319000Y404250
Y371750
Y338500
X323769Y282282
X307266
X307616Y251014
X324118
X323844Y219606
X307341
X219200Y241800
X193800
X168400
X143000
X117600
X92200
X67250Y168750
X41000Y183000
X-57500Y290000
X100000Y410000
Y450000
Y490000
Y530000
X140115Y440093
X140000Y390000
X-96000Y664000
Y680000
X100250Y690000
Y650000
X100000Y610000
Y570000
X140202Y560163
X140696Y681500
X100000Y730000
X491000Y665500
X785800Y614200
X844000Y567000
X1014384Y586678
X1047050Y586700
X1079550
X1112800
X1123300Y609200
X1032800Y663571
X1018300Y724200
Y736700
X984335Y730050
X988300Y709200
X961000Y718000
X941175Y707075
X928803Y707950
X950800Y691700
X931000Y768000
X1028000Y819781
X785800Y758700
X1169018Y756494
Y739992
Y723489
Y706987
Y690484
X1169018Y673982
X1169018Y657479
X1169018Y640977
Y624474
Y607971
Y591469
Y574966
X1200586Y575293
Y591796
Y608298
Y624801
Y641303
X1200586Y657806
X1200586Y674308
X1200586Y690811
Y707313
Y723816
Y740318
Y756821
X1200587Y773324
X1200586Y789826
Y806329
Y822831
X1200836Y839334
X1200586Y855836
X1200586Y872339
X1200586Y888842
X1231871Y888812
Y872309
Y855807
Y839304
Y822801
Y806299
Y789796
Y773294
Y756791
Y740289
Y723786
Y707283
Y690781
Y674278
Y657776
Y641273
Y624771
Y608268
Y591766
Y575263
X1169018Y772997
X1169018Y789499
Y806002
Y822505
X1169268Y839007
X1169018Y855510
X1169018Y872012
X1169018Y888515
T02
X932750Y402500
X953250
X-70000Y712500
T03
X819700Y349200
X845100
X870500
X895900
X300400Y874600
X275000
X249600
X224200
X581500Y631300
Y605900
Y580499
Y555099
X820000Y849200
X845400
X870800
X896200
T04
X353000Y815600
Y841000
Y866400
T05
X165300Y82300
X190700
Y107700
X165300
X304000Y102600
X329400
Y128000
X304000
X354800
Y102600
X380200
X405600
X431000
X456400
X481800
X507200
X532600
X558000
X583400
X608800
X634200
X659600
Y128000
X634200
X608800
X583400
X558000
X532600
X507200
X481800
X456400
X431000
X405600
X380200
X1323000Y122500
Y97100
Y71700
X1348400
Y97100
Y122500
Y147900
X1323000
Y173300
Y198700
Y224100
Y249500
Y274900
Y300300
Y325700
Y351100
Y376500
Y401900
Y427300
X1348400
Y401900
Y376500
Y351100
Y325700
Y300300
Y274900
Y249500
Y224100
Y198700
Y173300
X1348700Y571700
X1323300
Y597100
Y622500
Y647900
Y673300
Y698700
Y724100
Y749500
Y774900
Y800300
Y825700
Y851100
Y876500
Y901900
X1348700
Y876500
Y851100
Y825700
Y800300
Y774900
Y749500
Y724100
Y698700
Y673300
Y647900
Y622500
Y597100
Y927300
X1323300
M30
