G04*
G04 #@! TF.GenerationSoftware,Altium Limited,Altium Designer,21.2.0 (30)*
G04*
G04 Layer_Color=8421504*
%FSLAX44Y44*%
%MOMM*%
G71*
G04*
G04 #@! TF.SameCoordinates,64555E3A-4CFD-498E-A74A-373E445EAC9D*
G04*
G04*
G04 #@! TF.FilePolarity,Positive*
G04*
G01*
G75*
%ADD15R,1.2700X3.9370*%
%ADD16R,0.9500X0.8500*%
%ADD17R,0.6500X2.0000*%
%ADD18O,0.6500X2.0000*%
%ADD19R,0.3500X1.5000*%
%ADD20R,1.5000X0.3500*%
%ADD21O,1.5000X0.3500*%
%ADD22R,0.8500X0.9500*%
%ADD23R,0.8000X0.8000*%
%ADD24R,0.9000X0.7000*%
%ADD25R,0.7000X0.9000*%
%ADD26O,2.0000X0.6500*%
%ADD27R,4.2400X3.8100*%
%ADD28R,0.8000X0.8000*%
%ADD29R,2.0000X0.6500*%
%ADD30O,0.3500X1.5000*%
%ADD31R,0.9500X0.9500*%
%ADD32R,2.8000X0.5500*%
D15*
X41400Y275230D02*
D03*
X66800D02*
D03*
X92200D02*
D03*
X117600D02*
D03*
X143000D02*
D03*
X168400D02*
D03*
X193800D02*
D03*
X219200D02*
D03*
X41400Y213000D02*
D03*
X66800D02*
D03*
X92200D02*
D03*
X117600D02*
D03*
X143000D02*
D03*
X168400D02*
D03*
X193800D02*
D03*
X219200D02*
D03*
D16*
X621033Y197500D02*
D03*
Y210500D02*
D03*
X604531Y197500D02*
D03*
Y210500D02*
D03*
X588028Y197500D02*
D03*
Y210500D02*
D03*
X571526Y197500D02*
D03*
Y210500D02*
D03*
X555023Y197500D02*
D03*
Y210500D02*
D03*
X538521Y197500D02*
D03*
Y210500D02*
D03*
X522018Y197500D02*
D03*
Y210500D02*
D03*
X505515Y197500D02*
D03*
Y210500D02*
D03*
X319000Y446500D02*
D03*
Y459500D02*
D03*
Y414000D02*
D03*
Y427000D02*
D03*
Y381500D02*
D03*
Y394500D02*
D03*
Y349000D02*
D03*
Y362000D02*
D03*
X489013Y197500D02*
D03*
Y210500D02*
D03*
X472510Y197500D02*
D03*
Y210500D02*
D03*
X456008Y197500D02*
D03*
Y210500D02*
D03*
X439505Y197500D02*
D03*
Y210500D02*
D03*
X423003Y197500D02*
D03*
Y210500D02*
D03*
X406500Y197500D02*
D03*
Y210500D02*
D03*
X389997Y197500D02*
D03*
Y210500D02*
D03*
X373495Y197500D02*
D03*
Y210500D02*
D03*
X356992Y197500D02*
D03*
Y210500D02*
D03*
X340490Y197500D02*
D03*
Y210500D02*
D03*
X323987Y197500D02*
D03*
Y210500D02*
D03*
X307485Y197500D02*
D03*
Y210500D02*
D03*
X621033Y229000D02*
D03*
Y242000D02*
D03*
X604531Y229000D02*
D03*
Y242000D02*
D03*
X588028Y229001D02*
D03*
Y242001D02*
D03*
X571526Y229000D02*
D03*
Y242000D02*
D03*
X555023Y229000D02*
D03*
Y242000D02*
D03*
X538521Y229000D02*
D03*
Y242000D02*
D03*
X522018Y229000D02*
D03*
Y242000D02*
D03*
X505515Y229000D02*
D03*
Y242000D02*
D03*
X489013Y229000D02*
D03*
Y242000D02*
D03*
X472510Y229000D02*
D03*
Y242000D02*
D03*
X456008Y229000D02*
D03*
Y242000D02*
D03*
X439505Y229000D02*
D03*
Y242000D02*
D03*
X423003Y229000D02*
D03*
Y242000D02*
D03*
X406500Y229000D02*
D03*
Y242000D02*
D03*
X389997Y229000D02*
D03*
Y242000D02*
D03*
X373495Y229000D02*
D03*
Y242000D02*
D03*
X356992Y229000D02*
D03*
Y242000D02*
D03*
X340490Y229000D02*
D03*
Y242000D02*
D03*
X323987Y229000D02*
D03*
Y242000D02*
D03*
X307485Y229000D02*
D03*
Y242000D02*
D03*
X541500Y447000D02*
D03*
Y434000D02*
D03*
X589000Y504000D02*
D03*
Y517000D02*
D03*
X379587Y887252D02*
D03*
Y900252D02*
D03*
X970500Y233703D02*
D03*
Y220703D02*
D03*
X970800Y733703D02*
D03*
Y720703D02*
D03*
D17*
X489800Y642250D02*
D03*
D18*
X477100D02*
D03*
X413600D02*
D03*
X375500D02*
D03*
X489800Y543250D02*
D03*
X477100D02*
D03*
X464400D02*
D03*
X451700D02*
D03*
X439000D02*
D03*
X426300D02*
D03*
X413600D02*
D03*
X400900D02*
D03*
X388200D02*
D03*
X375500D02*
D03*
X426300Y642250D02*
D03*
X400900D02*
D03*
X388200D02*
D03*
X439000D02*
D03*
X451700D02*
D03*
X464400D02*
D03*
D19*
X424000Y448500D02*
D03*
X429000D02*
D03*
X434000D02*
D03*
X439000D02*
D03*
X444000D02*
D03*
X449000D02*
D03*
X454000D02*
D03*
X459000D02*
D03*
X464000D02*
D03*
X469000D02*
D03*
X474000D02*
D03*
X479000D02*
D03*
Y363500D02*
D03*
X474000D02*
D03*
X469000D02*
D03*
X464000D02*
D03*
X459000D02*
D03*
X454000D02*
D03*
X449000D02*
D03*
X444000D02*
D03*
X439000D02*
D03*
X434000D02*
D03*
X429000D02*
D03*
X424000D02*
D03*
X1017500Y261700D02*
D03*
X1022500D02*
D03*
X1027500D02*
D03*
X1032500D02*
D03*
X1037500D02*
D03*
X1042500D02*
D03*
X1047500D02*
D03*
X1052500D02*
D03*
X1057500D02*
D03*
X1062500D02*
D03*
X1067500D02*
D03*
X1072500D02*
D03*
Y176700D02*
D03*
X1067500D02*
D03*
X1062500D02*
D03*
X1057500D02*
D03*
X1052500D02*
D03*
X1047500D02*
D03*
X1042500D02*
D03*
X1037500D02*
D03*
X1032500D02*
D03*
X1027500D02*
D03*
X1022500D02*
D03*
X1017800Y761700D02*
D03*
X1022800D02*
D03*
X1027800D02*
D03*
X1032800D02*
D03*
X1037800D02*
D03*
X1042800D02*
D03*
X1047800D02*
D03*
X1052800D02*
D03*
X1057800D02*
D03*
X1062800D02*
D03*
X1067800D02*
D03*
X1072800D02*
D03*
Y676700D02*
D03*
X1067800D02*
D03*
X1062800D02*
D03*
X1057800D02*
D03*
X1052800D02*
D03*
X1047800D02*
D03*
X1042800D02*
D03*
X1037800D02*
D03*
X1032800D02*
D03*
X1027800D02*
D03*
X1022800D02*
D03*
D20*
X494000Y433500D02*
D03*
Y428500D02*
D03*
Y423500D02*
D03*
Y418500D02*
D03*
Y413500D02*
D03*
Y408500D02*
D03*
Y403500D02*
D03*
Y398500D02*
D03*
Y393500D02*
D03*
Y388500D02*
D03*
Y383500D02*
D03*
Y378500D02*
D03*
X409000D02*
D03*
Y383500D02*
D03*
Y388500D02*
D03*
Y393500D02*
D03*
Y398500D02*
D03*
Y403500D02*
D03*
Y408500D02*
D03*
Y413500D02*
D03*
Y418500D02*
D03*
Y423500D02*
D03*
Y428500D02*
D03*
X1002500Y191700D02*
D03*
Y196700D02*
D03*
Y201700D02*
D03*
Y206700D02*
D03*
Y211700D02*
D03*
Y216700D02*
D03*
Y221700D02*
D03*
Y226700D02*
D03*
Y231700D02*
D03*
Y236700D02*
D03*
Y241700D02*
D03*
Y246700D02*
D03*
X1087500D02*
D03*
Y241700D02*
D03*
Y236700D02*
D03*
Y231700D02*
D03*
Y226700D02*
D03*
Y221700D02*
D03*
Y216700D02*
D03*
Y211700D02*
D03*
Y206700D02*
D03*
Y201700D02*
D03*
Y196700D02*
D03*
Y191700D02*
D03*
X1002800Y691700D02*
D03*
Y696700D02*
D03*
Y701700D02*
D03*
Y706700D02*
D03*
Y711700D02*
D03*
Y716700D02*
D03*
Y721700D02*
D03*
Y726700D02*
D03*
Y731700D02*
D03*
Y736700D02*
D03*
Y741700D02*
D03*
Y746700D02*
D03*
X1087800D02*
D03*
Y741700D02*
D03*
Y736700D02*
D03*
Y731700D02*
D03*
Y726700D02*
D03*
Y721700D02*
D03*
Y716700D02*
D03*
Y711700D02*
D03*
Y706700D02*
D03*
Y701700D02*
D03*
Y696700D02*
D03*
Y691700D02*
D03*
D21*
X409000Y433500D02*
D03*
D22*
X453003Y480500D02*
D03*
X466003D02*
D03*
X113500Y390000D02*
D03*
X126500D02*
D03*
X113500Y410000D02*
D03*
X126500D02*
D03*
X113500Y430000D02*
D03*
X126500D02*
D03*
X113500Y450000D02*
D03*
X126500D02*
D03*
X113500Y470000D02*
D03*
X126500D02*
D03*
X113500Y490000D02*
D03*
X126500D02*
D03*
X113500Y510000D02*
D03*
X126500D02*
D03*
X113500Y530000D02*
D03*
X126500D02*
D03*
X113750Y550000D02*
D03*
X126750D02*
D03*
X113500Y570000D02*
D03*
X126500D02*
D03*
X113750Y590000D02*
D03*
X126750D02*
D03*
X113500Y610000D02*
D03*
X126500D02*
D03*
X113750Y630000D02*
D03*
X126750D02*
D03*
X113750Y650000D02*
D03*
X126750D02*
D03*
X113750Y670000D02*
D03*
X126750D02*
D03*
X113750Y690000D02*
D03*
X126750D02*
D03*
X113750Y710000D02*
D03*
X126750D02*
D03*
X113500Y730000D02*
D03*
X126500D02*
D03*
X113500Y750000D02*
D03*
X126500D02*
D03*
X991500Y86700D02*
D03*
X1004500D02*
D03*
X1024000D02*
D03*
X1037000D02*
D03*
X1056500D02*
D03*
X1069500D02*
D03*
X1089000D02*
D03*
X1102000D02*
D03*
X1240500Y388733D02*
D03*
X1253500D02*
D03*
X1240500Y372231D02*
D03*
X1253500D02*
D03*
X1240500Y355728D02*
D03*
X1253500D02*
D03*
X1240500Y339226D02*
D03*
X1253500D02*
D03*
X1240500Y322723D02*
D03*
X1253500D02*
D03*
X1240500Y306220D02*
D03*
X1253500D02*
D03*
X1240500Y289718D02*
D03*
X1253500D02*
D03*
X1240500Y273215D02*
D03*
X1253500D02*
D03*
X1240500Y256713D02*
D03*
X1253500D02*
D03*
X1240500Y240210D02*
D03*
X1253500D02*
D03*
X1240500Y223708D02*
D03*
X1253500D02*
D03*
X1240500Y207205D02*
D03*
X1253500D02*
D03*
X1240500Y190703D02*
D03*
X1253500D02*
D03*
X1240500Y174200D02*
D03*
X1253500D02*
D03*
X1240500Y157697D02*
D03*
X1253500D02*
D03*
X1240500Y141195D02*
D03*
X1253500D02*
D03*
X1240500Y124692D02*
D03*
X1253500D02*
D03*
X1240500Y108190D02*
D03*
X1253500D02*
D03*
X1240500Y91687D02*
D03*
X1253500D02*
D03*
X1240500Y75185D02*
D03*
X1253500D02*
D03*
X1209000Y388733D02*
D03*
X1222000D02*
D03*
X1209000Y372231D02*
D03*
X1222000D02*
D03*
X1208999Y355728D02*
D03*
X1221999D02*
D03*
X1209000Y339226D02*
D03*
X1222000D02*
D03*
X1209000Y322723D02*
D03*
X1222000D02*
D03*
X1209000Y306220D02*
D03*
X1222000D02*
D03*
X1209000Y289718D02*
D03*
X1222000D02*
D03*
X1209000Y273215D02*
D03*
X1222000D02*
D03*
X1209000Y256713D02*
D03*
X1222000D02*
D03*
X1209000Y240210D02*
D03*
X1222000D02*
D03*
X1209000Y223708D02*
D03*
X1222000D02*
D03*
X1209000Y207205D02*
D03*
X1222000D02*
D03*
X1209000Y190703D02*
D03*
X1222000D02*
D03*
X1209000Y174200D02*
D03*
X1222000D02*
D03*
X1209000Y157697D02*
D03*
X1222000D02*
D03*
X1209000Y141195D02*
D03*
X1222000D02*
D03*
X1209000Y124692D02*
D03*
X1222000D02*
D03*
X1209000Y108190D02*
D03*
X1222000D02*
D03*
X1209000Y91687D02*
D03*
X1222000D02*
D03*
X1209000Y75185D02*
D03*
X1222000D02*
D03*
X1017000Y309200D02*
D03*
X1004000D02*
D03*
X934000Y356700D02*
D03*
X947000D02*
D03*
X991800Y586700D02*
D03*
X1004800D02*
D03*
X1024300D02*
D03*
X1037300D02*
D03*
X1056800D02*
D03*
X1069800D02*
D03*
X1089300D02*
D03*
X1102300D02*
D03*
X1240800Y888733D02*
D03*
X1253800D02*
D03*
X1240800Y872231D02*
D03*
X1253800D02*
D03*
X1240800Y855728D02*
D03*
X1253800D02*
D03*
X1240800Y839226D02*
D03*
X1253800D02*
D03*
X1240800Y822723D02*
D03*
X1253800D02*
D03*
X1240800Y806220D02*
D03*
X1253800D02*
D03*
X1240800Y789718D02*
D03*
X1253800D02*
D03*
X1240800Y773215D02*
D03*
X1253800D02*
D03*
X1240800Y756713D02*
D03*
X1253800D02*
D03*
X1240800Y740210D02*
D03*
X1253800D02*
D03*
X1240800Y723708D02*
D03*
X1253800D02*
D03*
X1240800Y707205D02*
D03*
X1253800D02*
D03*
X1240800Y690703D02*
D03*
X1253800D02*
D03*
X1240800Y674200D02*
D03*
X1253800D02*
D03*
X1240800Y657697D02*
D03*
X1253800D02*
D03*
X1240800Y641195D02*
D03*
X1253800D02*
D03*
X1240800Y624692D02*
D03*
X1253800D02*
D03*
X1240800Y608190D02*
D03*
X1253800D02*
D03*
X1240800Y591687D02*
D03*
X1253800D02*
D03*
X1240800Y575185D02*
D03*
X1253800D02*
D03*
X1209300Y888733D02*
D03*
X1222300D02*
D03*
X1209300Y872231D02*
D03*
X1222300D02*
D03*
X1209299Y855728D02*
D03*
X1222299D02*
D03*
X1209300Y839226D02*
D03*
X1222300D02*
D03*
X1209300Y822723D02*
D03*
X1222300D02*
D03*
X1209300Y806220D02*
D03*
X1222300D02*
D03*
X1209300Y789718D02*
D03*
X1222300D02*
D03*
X1209300Y773215D02*
D03*
X1222300D02*
D03*
X1209300Y756713D02*
D03*
X1222300D02*
D03*
X1209300Y740210D02*
D03*
X1222300D02*
D03*
X1209300Y723708D02*
D03*
X1222300D02*
D03*
X1209300Y707205D02*
D03*
X1222300D02*
D03*
X1209300Y690703D02*
D03*
X1222300D02*
D03*
X1209300Y674200D02*
D03*
X1222300D02*
D03*
X1209300Y657697D02*
D03*
X1222300D02*
D03*
X1209300Y641195D02*
D03*
X1222300D02*
D03*
X1209300Y624692D02*
D03*
X1222300D02*
D03*
X1209300Y608190D02*
D03*
X1222300D02*
D03*
X1209300Y591687D02*
D03*
X1222300D02*
D03*
X1209300Y575185D02*
D03*
X1222300D02*
D03*
X1017300Y809200D02*
D03*
X1004300D02*
D03*
X934300Y856700D02*
D03*
X947300D02*
D03*
D23*
X606500Y520000D02*
D03*
Y504000D02*
D03*
D24*
X472510Y258000D02*
D03*
Y272000D02*
D03*
X456008D02*
D03*
Y258000D02*
D03*
X489013Y258000D02*
D03*
Y272000D02*
D03*
X439505Y272000D02*
D03*
Y258000D02*
D03*
X505515Y258000D02*
D03*
Y272000D02*
D03*
X423003Y272000D02*
D03*
Y258000D02*
D03*
X522018Y258000D02*
D03*
Y272000D02*
D03*
X406500Y272000D02*
D03*
Y258000D02*
D03*
X538521Y258000D02*
D03*
Y272000D02*
D03*
X389997Y272000D02*
D03*
Y258000D02*
D03*
X555023Y258000D02*
D03*
Y272000D02*
D03*
X373495Y272000D02*
D03*
Y258000D02*
D03*
X571526Y257750D02*
D03*
Y271750D02*
D03*
X356992Y272000D02*
D03*
Y258000D02*
D03*
X588028Y258000D02*
D03*
Y272000D02*
D03*
X340490Y272000D02*
D03*
Y258000D02*
D03*
X604531Y258000D02*
D03*
Y272000D02*
D03*
X323987Y272000D02*
D03*
Y258000D02*
D03*
X621033Y258000D02*
D03*
Y272000D02*
D03*
X307485Y272000D02*
D03*
Y258000D02*
D03*
X556500Y577500D02*
D03*
Y563500D02*
D03*
X386500Y418500D02*
D03*
Y432500D02*
D03*
X396497Y362500D02*
D03*
Y348500D02*
D03*
X409000Y456000D02*
D03*
Y470000D02*
D03*
X439000Y487500D02*
D03*
Y473500D02*
D03*
X409000Y348500D02*
D03*
Y362500D02*
D03*
X556500Y613500D02*
D03*
Y627500D02*
D03*
X389000Y392500D02*
D03*
Y378500D02*
D03*
X426500Y487500D02*
D03*
Y473500D02*
D03*
X541500Y627500D02*
D03*
Y613500D02*
D03*
X376500Y378500D02*
D03*
Y392500D02*
D03*
X930779Y244662D02*
D03*
Y258662D02*
D03*
X785500Y244700D02*
D03*
Y258700D02*
D03*
X931079Y744662D02*
D03*
Y758662D02*
D03*
X785800Y744700D02*
D03*
Y758700D02*
D03*
D25*
X490962Y520220D02*
D03*
X476962D02*
D03*
X491000Y665500D02*
D03*
X477000D02*
D03*
X294500Y842500D02*
D03*
X280500D02*
D03*
X242000Y827500D02*
D03*
X228000D02*
D03*
X242000Y842500D02*
D03*
X228000D02*
D03*
X1179000Y240210D02*
D03*
X1193000D02*
D03*
Y223708D02*
D03*
X1179000D02*
D03*
X1179000Y256713D02*
D03*
X1193000D02*
D03*
X1193000Y207205D02*
D03*
X1179000D02*
D03*
X1179000Y273215D02*
D03*
X1193000D02*
D03*
X1193000Y190703D02*
D03*
X1179000D02*
D03*
X1179000Y289718D02*
D03*
X1193000D02*
D03*
X1193000Y174200D02*
D03*
X1179000D02*
D03*
X1179000Y306220D02*
D03*
X1193000D02*
D03*
X1193000Y157697D02*
D03*
X1179000D02*
D03*
X1179000Y322723D02*
D03*
X1193000D02*
D03*
X1193000Y141195D02*
D03*
X1179000D02*
D03*
X1179250Y339226D02*
D03*
X1193250D02*
D03*
X1193000Y124692D02*
D03*
X1179000D02*
D03*
X1179000Y355728D02*
D03*
X1193000D02*
D03*
X1193000Y108190D02*
D03*
X1179000D02*
D03*
X1179000Y372231D02*
D03*
X1193000D02*
D03*
X1193000Y91687D02*
D03*
X1179000D02*
D03*
X1179000Y388733D02*
D03*
X1193000D02*
D03*
X1193000Y75185D02*
D03*
X1179000D02*
D03*
X887500Y324200D02*
D03*
X873500D02*
D03*
X1018500Y154200D02*
D03*
X1032500D02*
D03*
X1102500Y164197D02*
D03*
X1088500D02*
D03*
X981000Y176700D02*
D03*
X995000D02*
D03*
X977500Y206700D02*
D03*
X963500D02*
D03*
X1088500Y176700D02*
D03*
X1102500D02*
D03*
X823500Y324200D02*
D03*
X837500D02*
D03*
X1072500Y156700D02*
D03*
X1058500D02*
D03*
X977500Y194200D02*
D03*
X963500D02*
D03*
X837500Y309200D02*
D03*
X823500D02*
D03*
X1058500Y144200D02*
D03*
X1072500D02*
D03*
X1179300Y740210D02*
D03*
X1193300D02*
D03*
Y723708D02*
D03*
X1179300D02*
D03*
X1179300Y756713D02*
D03*
X1193300D02*
D03*
X1193300Y707205D02*
D03*
X1179300D02*
D03*
X1179300Y773215D02*
D03*
X1193300D02*
D03*
X1193300Y690703D02*
D03*
X1179300D02*
D03*
X1179300Y789718D02*
D03*
X1193300D02*
D03*
X1193300Y674200D02*
D03*
X1179300D02*
D03*
X1179300Y806220D02*
D03*
X1193300D02*
D03*
X1193300Y657698D02*
D03*
X1179300D02*
D03*
X1179300Y822723D02*
D03*
X1193300D02*
D03*
X1193300Y641195D02*
D03*
X1179300D02*
D03*
X1179550Y839226D02*
D03*
X1193550D02*
D03*
X1193300Y624692D02*
D03*
X1179300D02*
D03*
X1179300Y855728D02*
D03*
X1193300D02*
D03*
X1193300Y608190D02*
D03*
X1179300D02*
D03*
X1179300Y872231D02*
D03*
X1193300D02*
D03*
X1193300Y591687D02*
D03*
X1179300D02*
D03*
X1179300Y888733D02*
D03*
X1193300D02*
D03*
X1193300Y575185D02*
D03*
X1179300D02*
D03*
X887800Y824200D02*
D03*
X873800D02*
D03*
X1018800Y654200D02*
D03*
X1032800D02*
D03*
X1102800Y664197D02*
D03*
X1088800D02*
D03*
X981300Y676700D02*
D03*
X995300D02*
D03*
X977800Y706700D02*
D03*
X963800D02*
D03*
X1088800Y676700D02*
D03*
X1102800D02*
D03*
X823800Y824200D02*
D03*
X837800D02*
D03*
X1072800Y656700D02*
D03*
X1058800D02*
D03*
X977800Y694200D02*
D03*
X963800D02*
D03*
X837800Y809200D02*
D03*
X823800D02*
D03*
X1058800Y644200D02*
D03*
X1072800D02*
D03*
D26*
X809050Y732100D02*
D03*
Y719400D02*
D03*
Y706700D02*
D03*
Y668600D02*
D03*
Y681300D02*
D03*
Y694000D02*
D03*
Y655900D02*
D03*
X808750Y232100D02*
D03*
Y219400D02*
D03*
Y206700D02*
D03*
Y155900D02*
D03*
Y168600D02*
D03*
Y194000D02*
D03*
X907750Y143200D02*
D03*
Y155900D02*
D03*
Y168600D02*
D03*
Y181300D02*
D03*
Y194000D02*
D03*
Y206700D02*
D03*
Y219400D02*
D03*
Y232100D02*
D03*
Y244800D02*
D03*
Y257500D02*
D03*
X808750Y143200D02*
D03*
Y181300D02*
D03*
Y244800D02*
D03*
X908050Y643200D02*
D03*
Y655900D02*
D03*
Y668600D02*
D03*
Y681300D02*
D03*
Y694000D02*
D03*
Y706700D02*
D03*
Y719400D02*
D03*
Y732100D02*
D03*
Y744800D02*
D03*
Y757500D02*
D03*
X809050Y643200D02*
D03*
Y744800D02*
D03*
D27*
X105000Y880000D02*
D03*
X169000D02*
D03*
D28*
X344000Y900000D02*
D03*
X360000D02*
D03*
X947000Y374200D02*
D03*
X931000D02*
D03*
X947300Y874200D02*
D03*
X931300D02*
D03*
D29*
X808750Y257500D02*
D03*
X809050Y757500D02*
D03*
D30*
X1017500Y176700D02*
D03*
X1017800Y676700D02*
D03*
D31*
X-2500Y290000D02*
D03*
X-17500D02*
D03*
X-42500D02*
D03*
X-57500D02*
D03*
D32*
X-124400Y287910D02*
D03*
Y295910D02*
D03*
Y303910D02*
D03*
Y311910D02*
D03*
Y319910D02*
D03*
Y327910D02*
D03*
Y335910D02*
D03*
Y343910D02*
D03*
Y351910D02*
D03*
Y359910D02*
D03*
Y367910D02*
D03*
Y375910D02*
D03*
Y383910D02*
D03*
Y391910D02*
D03*
Y399910D02*
D03*
Y407910D02*
D03*
Y415910D02*
D03*
Y423910D02*
D03*
Y431910D02*
D03*
Y439910D02*
D03*
Y447910D02*
D03*
Y455910D02*
D03*
Y463910D02*
D03*
Y503910D02*
D03*
Y511910D02*
D03*
Y519910D02*
D03*
Y527910D02*
D03*
Y535910D02*
D03*
Y543910D02*
D03*
Y551910D02*
D03*
Y559910D02*
D03*
Y567910D02*
D03*
Y575910D02*
D03*
Y583910D02*
D03*
Y591910D02*
D03*
Y599910D02*
D03*
Y607910D02*
D03*
Y615910D02*
D03*
Y623910D02*
D03*
Y631910D02*
D03*
Y639910D02*
D03*
Y647910D02*
D03*
Y655910D02*
D03*
Y663910D02*
D03*
Y671910D02*
D03*
Y679910D02*
D03*
Y687910D02*
D03*
Y695910D02*
D03*
Y703910D02*
D03*
Y711910D02*
D03*
M02*
