  0
SECTION
  2
HEADER
  9
$ACADVER
  1
AC1014
  9
$HANDSEED
  5
FFFF
  9
$MEASUREMENT
 70
     1
  0
ENDSEC
  0
SECTION
  2
TABLES
  0
TABLE
  2
VPORT
  5
8
330
0
100
AcDbSymbolTable
 70
     4
  0
VPORT
  5
2E
330
8
100
AcDbSymbolTableRecord
100
AcDbViewportTableRecord
  2
*ACTIVE
 70
     0
 10
0.0
 20
0.0
 11
1.0
 21
1.0
 12
210.0
 22
148.5
 13
0.0
 23
0.0
 14
10.0
 24
10.0
 15
10.0
 25
10.0
 16
0.0
 26
0.0
 36
1.0
 17
0.0
 27
0.0
 37
0.0
 40
341.0
 41
1.24
 42
50.0
 43
0.0
 44
0.0
 50
0.0
 51
0.0
 71
     0
 72
   100
 73
     1
 74
     3
 75
     0
 76
     0
 77
     0
 78
     0
  0
ENDTAB
  0
TABLE
  2
LTYPE
  5
5
330
0
100
AcDbSymbolTable
 70
     1
  0
LTYPE
  5
14
330
5
100
AcDbSymbolTableRecord
100
AcDbLinetypeTableRecord
  2
BYBLOCK
 70
     0
  3

 72
    65
 73
     0
 40
0.0
  0
LTYPE
  5
15
330
5
100
AcDbSymbolTableRecord
100
AcDbLinetypeTableRecord
  2
BYLAYER
 70
     0
  3

 72
    65
 73
     0
 40
0.0
  0
LTYPE
  5
16
330
5
100
AcDbSymbolTableRecord
100
AcDbLinetypeTableRecord
  2
CONTINUOUS
 70
     0
  3
Solid line
 72
    65
 73
     0
 40
0.0
  0
ENDTAB
  0
TABLE
  2
LAYER
  5
2
100
AcDbSymbolTable
 70
5
  0
LAYER
  5
50
100
AcDbSymbolTableRecord
100
AcDbLayerTableRecord
  2
0
 70
0
  6
CONTINUOUS
  0
LAYER
  5
51
100
AcDbSymbolTableRecord
100
AcDbLayerTableRecord
  2
Background
 70
0
  6
CONTINUOUS
  0
LAYER
  5
52
100
AcDbSymbolTableRecord
100
AcDbLayerTableRecord
  2
Stator
 70
0
  6
CONTINUOUS
  0
LAYER
  5
53
100
AcDbSymbolTableRecord
100
AcDbLayerTableRecord
  2
Z_Background
 70
0
  6
CONTINUOUS
  0
LAYER
  5
54
100
AcDbSymbolTableRecord
100
AcDbLayerTableRecord
  2
Groﬂes_Z
 70
0
  6
CONTINUOUS
  0
ENDTAB
  0
TABLE
  2
STYLE
  5
3
330
0
100
AcDbSymbolTable
 70
     1
  0
STYLE
  5
11
330
3
100
AcDbSymbolTableRecord
100
AcDbTextStyleTableRecord
  2
STANDARD
 70
     0
 40
0.0
 41
1.0
 50
0.0
 71
     0
 42
2.5
  3
txt
  4

  0
ENDTAB
  0
TABLE
  2
VIEW
  5
6
330
0
100
AcDbSymbolTable
 70
     0
  0
ENDTAB
  0
TABLE
  2
UCS
  5
7
330
0
100
AcDbSymbolTable
 70
     0
  0
ENDTAB
  0
TABLE
  2
APPID
  5
9
330
0
100
AcDbSymbolTable
 70
     2
  0
APPID
  5
12
330
9
100
AcDbSymbolTableRecord
100
AcDbRegAppTableRecord
  2
ACAD
 70
     0
  0
ENDTAB
  0
TABLE
  2
DIMSTYLE
  5
A
330
0
100
AcDbSymbolTable
 70
     1
  0
DIMSTYLE
105
27
330
A
100
AcDbSymbolTableRecord
100
AcDbDimStyleTableRecord
  2
ISO-25
 70
     0
  3

  4

  5

  6

  7

 40
1.0
 41
2.5
 42
0.625
 43
3.75
 44
1.25
 45
0.0
 46
0.0
 47
0.0
 48
0.0
140
2.5
141
2.5
142
0.0
143
0.03937007874016
144
1.0
145
0.0
146
1.0
147
0.625
 71
     0
 72
     0
 73
     0
 74
     0
 75
     0
 76
     0
 77
     1
 78
     8
170
     0
171
     3
172
     1
173
     0
174
     0
175
     0
176
     0
177
     0
178
     0
270
     2
271
     2
272
     2
273
     2
274
     3
340
11
275
     0
280
     0
281
     0
282
     0
283
     0
284
     8
285
     0
286
     0
287
     3
288
     0
  0
ENDTAB
  0
TABLE
  2
BLOCK_RECORD
  5
1
330
0
100
AcDbSymbolTable
 70
     1
  0
BLOCK_RECORD
  5
1F
330
1
100
AcDbSymbolTableRecord
100
AcDbBlockTableRecord
  2
*MODEL_SPACE
  0
BLOCK_RECORD
  5
1B
330
1
100
AcDbSymbolTableRecord
100
AcDbBlockTableRecord
  2
*PAPER_SPACE
  0
ENDTAB
  0
ENDSEC
  0
SECTION
  2
BLOCKS
  0
BLOCK
  5
20
330
1F
100
AcDbEntity
  8
0
100
AcDbBlockBegin
  2
*MODEL_SPACE
 70
     0
 10
0.0
 20
0.0
 30
0.0
  3
*MODEL_SPACE
  1

  0
ENDBLK
  5
21
330
1F
100
AcDbEntity
  8
0
100
AcDbBlockEnd
  0
BLOCK
  5
1C
330
1B
100
AcDbEntity
 67
     1
  8
0
100
AcDbBlockBegin
  2
*PAPER_SPACE
  1

  0
ENDBLK
  5
1D
330
1B
100
AcDbEntity
 67
     1
  8
0
100
AcDbBlockEnd
  0
ENDSEC
  0
SECTION
  2
ENTITIES
  0
SPLINE
  5
100
100
AcDbEntity
  8
Background
 62
7
100
AcDbSpline
 70
8
 71
3
 72
8
 73
4
 74
0
 40
0
 40
0
 40
0
 40
0
 40
1
 40
1
 40
1
 40
1
 10
1.422895
 20
53.016661
 30
0.0
 10
0.692269
 20
53.016661
 30
0.0
 10
0.099979
 20
52.424372
 30
0.0
 10
0.099979
 20
51.693746
 30
0.0
  0
LWPOLYLINE
  5
101
100
AcDbEntity
  8
Background
 62
7
100
AcDbPolyline
 90
2
 70
0
 10
43.756204
 20
53.016661
 30
0.0
 10
1.422895
 20
53.016661
 30
0.0
  0
SPLINE
  5
102
100
AcDbEntity
  8
Background
 62
7
100
AcDbSpline
 70
8
 71
3
 72
8
 73
4
 74
0
 40
0
 40
0
 40
0
 40
0
 40
1
 40
1
 40
1
 40
1
 10
0.099979
 20
1.422940
 30
0.0
 10
0.099979
 20
1.072081
 30
0.0
 10
0.239357
 20
0.735592
 30
0.0
 10
0.487452
 20
0.487497
 30
0.0
  0
SPLINE
  5
103
100
AcDbEntity
  8
Background
 62
7
100
AcDbSpline
 70
8
 71
3
 72
8
 73
4
 74
0
 40
0
 40
0
 40
0
 40
0
 40
1
 40
1
 40
1
 40
1
 10
0.487452
 20
0.487497
 30
0.0
 10
0.735547
 20
0.239402
 30
0.0
 10
1.072036
 20
0.100024
 30
0.0
 10
1.422895
 20
0.100024
 30
0.0
  0
LWPOLYLINE
  5
104
100
AcDbEntity
  8
Background
 62
7
100
AcDbPolyline
 90
2
 70
0
 10
0.099979
 20
51.693746
 30
0.0
 10
0.099979
 20
1.422940
 30
0.0
  0
SPLINE
  5
105
100
AcDbEntity
  8
Background
 62
7
100
AcDbSpline
 70
8
 71
3
 72
8
 73
4
 74
0
 40
0
 40
0
 40
0
 40
0
 40
1
 40
1
 40
1
 40
1
 10
43.756204
 20
0.100024
 30
0.0
 10
44.107064
 20
0.100023
 30
0.0
 10
44.443554
 20
0.239401
 30
0.0
 10
44.691650
 20
0.487496
 30
0.0
  0
SPLINE
  5
106
100
AcDbEntity
  8
Background
 62
7
100
AcDbSpline
 70
8
 71
3
 72
8
 73
4
 74
0
 40
0
 40
0
 40
0
 40
0
 40
1
 40
1
 40
1
 40
1
 10
44.691650
 20
0.487496
 30
0.0
 10
44.939745
 20
0.735591
 30
0.0
 10
45.079124
 20
1.072080
 30
0.0
 10
45.079124
 20
1.422940
 30
0.0
  0
LWPOLYLINE
  5
107
100
AcDbEntity
  8
Background
 62
7
100
AcDbPolyline
 90
2
 70
0
 10
1.422895
 20
0.100024
 30
0.0
 10
43.756204
 20
0.100024
 30
0.0
  0
SPLINE
  5
108
100
AcDbEntity
  8
Background
 62
7
100
AcDbSpline
 70
8
 71
3
 72
8
 73
4
 74
0
 40
0
 40
0
 40
0
 40
0
 40
1
 40
1
 40
1
 40
1
 10
45.079124
 20
51.693746
 30
0.0
 10
45.079124
 20
52.044605
 30
0.0
 10
44.939745
 20
52.381095
 30
0.0
 10
44.691649
 20
52.629189
 30
0.0
  0
SPLINE
  5
109
100
AcDbEntity
  8
Background
 62
7
100
AcDbSpline
 70
8
 71
3
 72
8
 73
4
 74
0
 40
0
 40
0
 40
0
 40
0
 40
1
 40
1
 40
1
 40
1
 10
44.691649
 20
52.629189
 30
0.0
 10
44.443554
 20
52.877284
 30
0.0
 10
44.107064
 20
53.016662
 30
0.0
 10
43.756204
 20
53.016661
 30
0.0
  0
LWPOLYLINE
  5
10a
100
AcDbEntity
  8
Background
 62
7
100
AcDbPolyline
 90
2
 70
0
 10
45.079124
 20
1.422940
 30
0.0
 10
45.079124
 20
51.693746
 30
0.0
  0
LWPOLYLINE
  5
10b
100
AcDbEntity
  8
Background
 62
7
100
AcDbPolyline
 90
1
 70
1
 10
43.756204
 20
53.016661
 30
0.0
  0
LWPOLYLINE
  5
10c
100
AcDbEntity
  8
Stator
 62
7
100
AcDbPolyline
 90
3
 70
1
 10
22.787387
 20
26.723853
 30
0.0
 10
22.787387
 20
26.723853
 30
0.0
 10
22.787387
 20
26.723853
 30
0.0
  0
LWPOLYLINE
  5
10d
100
AcDbEntity
  8
Stator
 62
7
100
AcDbPolyline
 90
5
 70
0
 10
22.667189
 20
11.983506
 30
0.0
 10
23.053130
 20
7.960517
 30
0.0
 10
24.152133
 20
8.040796
 30
0.0
 10
25.251136
 20
8.121075
 30
0.0
 10
25.048363
 20
12.157444
 30
0.0
  0
LWPOLYLINE
  5
10e
100
AcDbEntity
  8
Stator
 62
7
100
AcDbPolyline
 90
5
 70
0
 10
18.856202
 20
12.516881
 30
0.0
 10
18.187766
 20
8.531083
 30
0.0
 10
19.270099
 20
8.324183
 30
0.0
 10
20.352433
 20
8.117284
 30
0.0
 10
21.201258
 20
12.068599
 30
0.0
  0
LWPOLYLINE
  5
10f
100
AcDbEntity
  8
Stator
 62
7
100
AcDbPolyline
 90
5
 70
0
 10
15.313118
 20
14.018437
 30
0.0
 10
13.635859
 20
10.341455
 30
0.0
 10
14.627763
 20
9.861478
 30
0.0
 10
15.619667
 20
9.381500
 30
0.0
 10
17.462245
 20
12.978485
 30
0.0
  0
LWPOLYLINE
  5
110
100
AcDbEntity
  8
Stator
 62
7
100
AcDbPolyline
 90
5
 70
0
 10
12.279394
 20
16.385846
 30
0.0
 10
9.707613
 20
13.268262
 30
0.0
 10
10.541492
 20
12.547916
 30
0.0
 10
11.375370
 20
11.827569
 30
0.0
 10
14.086132
 20
14.825095
 30
0.0
  0
LWPOLYLINE
  5
111
100
AcDbEntity
  8
Stator
 62
7
100
AcDbPolyline
 90
5
 70
0
 10
9.961772
 20
19.457774
 30
0.0
 10
6.670732
 20
17.112045
 30
0.0
 10
7.289757
 20
16.200420
 30
0.0
 10
7.908783
 20
15.288795
 30
0.0
 10
11.302994
 20
17.482586
 30
0.0
  0
LWPOLYLINE
  5
112
100
AcDbEntity
  8
Stator
 62
7
100
AcDbPolyline
 90
5
 70
0
 10
8.518195
 20
23.024873
 30
0.0
 10
4.732175
 20
21.610857
 30
0.0
 10
5.094161
 20
20.570079
 30
0.0
 10
5.456148
 20
19.529301
 30
0.0
 10
9.302500
 20
20.769854
 30
0.0
  0
LWPOLYLINE
  5
113
100
AcDbEntity
  8
Stator
 62
7
100
AcDbPolyline
 90
5
 70
0
 10
8.047039
 20
26.844051
 30
0.0
 10
4.024050
 20
26.458111
 30
0.0
 10
4.104329
 20
25.359107
 30
0.0
 10
4.184608
 20
24.260104
 30
0.0
 10
8.220977
 20
24.462877
 30
0.0
  0
LWPOLYLINE
  5
114
100
AcDbEntity
  8
Stator
 62
7
100
AcDbPolyline
 90
5
 70
0
 10
8.580414
 20
30.655038
 30
0.0
 10
4.594616
 20
31.323474
 30
0.0
 10
4.387717
 20
30.241141
 30
0.0
 10
4.180818
 20
29.158807
 30
0.0
 10
8.132132
 20
28.309982
 30
0.0
  0
LWPOLYLINE
  5
115
100
AcDbEntity
  8
Stator
 62
7
100
AcDbPolyline
 90
5
 70
0
 10
10.081970
 20
34.198122
 30
0.0
 10
6.404989
 20
35.875381
 30
0.0
 10
5.925011
 20
34.883477
 30
0.0
 10
5.445033
 20
33.891573
 30
0.0
 10
9.042018
 20
32.048995
 30
0.0
  0
LWPOLYLINE
  5
116
100
AcDbEntity
  8
Stator
 62
7
100
AcDbPolyline
 90
5
 70
0
 10
12.449380
 20
37.231846
 30
0.0
 10
9.331796
 20
39.803627
 30
0.0
 10
8.611449
 20
38.969749
 30
0.0
 10
7.891102
 20
38.135870
 30
0.0
 10
10.888628
 20
35.425108
 30
0.0
  0
LWPOLYLINE
  5
117
100
AcDbEntity
  8
Stator
 62
7
100
AcDbPolyline
 90
5
 70
0
 10
15.521307
 20
39.549468
 30
0.0
 10
13.175578
 20
42.840508
 30
0.0
 10
12.263953
 20
42.221483
 30
0.0
 10
11.352328
 20
41.602457
 30
0.0
 10
13.546119
 20
38.208246
 30
0.0
  0
LWPOLYLINE
  5
118
100
AcDbEntity
  8
Stator
 62
7
100
AcDbPolyline
 90
5
 70
0
 10
19.088406
 20
40.993045
 30
0.0
 10
17.674390
 20
44.779065
 30
0.0
 10
16.633612
 20
44.417079
 30
0.0
 10
15.592834
 20
44.055092
 30
0.0
 10
16.833387
 20
40.208741
 30
0.0
  0
LWPOLYLINE
  5
119
100
AcDbEntity
  8
Stator
 62
7
100
AcDbPolyline
 90
5
 70
0
 10
22.907584
 20
41.464201
 30
0.0
 10
22.521644
 20
45.487190
 30
0.0
 10
21.422640
 20
45.406911
 30
0.0
 10
20.323637
 20
45.326632
 30
0.0
 10
20.526410
 20
41.290263
 30
0.0
  0
LWPOLYLINE
  5
11a
100
AcDbEntity
  8
Stator
 62
7
100
AcDbPolyline
 90
5
 70
0
 10
26.718572
 20
40.930826
 30
0.0
 10
27.387008
 20
44.916624
 30
0.0
 10
26.304674
 20
45.123523
 30
0.0
 10
25.222341
 20
45.330422
 30
0.0
 10
24.373516
 20
41.379108
 30
0.0
  0
LWPOLYLINE
  5
11b
100
AcDbEntity
  8
Stator
 62
7
100
AcDbPolyline
 90
5
 70
0
 10
30.261655
 20
39.429270
 30
0.0
 10
31.938915
 20
43.106251
 30
0.0
 10
30.947010
 20
43.586229
 30
0.0
 10
29.955106
 20
44.066207
 30
0.0
 10
28.112529
 20
40.469222
 30
0.0
  0
LWPOLYLINE
  5
11c
100
AcDbEntity
  8
Stator
 62
7
100
AcDbPolyline
 90
5
 70
0
 10
33.295379
 20
37.061860
 30
0.0
 10
35.867161
 20
40.179444
 30
0.0
 10
35.033282
 20
40.899791
 30
0.0
 10
34.199403
 20
41.620138
 30
0.0
 10
31.488642
 20
38.622612
 30
0.0
  0
LWPOLYLINE
  5
11d
100
AcDbEntity
  8
Stator
 62
7
100
AcDbPolyline
 90
5
 70
0
 10
35.613001
 20
33.989933
 30
0.0
 10
38.904042
 20
36.335662
 30
0.0
 10
38.285016
 20
37.247287
 30
0.0
 10
37.665991
 20
38.158912
 30
0.0
 10
34.271779
 20
35.965121
 30
0.0
  0
LWPOLYLINE
  5
11e
100
AcDbEntity
  8
Stator
 62
7
100
AcDbPolyline
 90
5
 70
0
 10
37.056579
 20
30.422834
 30
0.0
 10
40.842599
 20
31.836850
 30
0.0
 10
40.480612
 20
32.877628
 30
0.0
 10
40.118625
 20
33.918406
 30
0.0
 10
36.272274
 20
32.677853
 30
0.0
  0
LWPOLYLINE
  5
11f
100
AcDbEntity
  8
Stator
 62
7
100
AcDbPolyline
 90
5
 70
0
 10
37.527735
 20
26.603656
 30
0.0
 10
41.550723
 20
26.989596
 30
0.0
 10
41.470444
 20
28.088600
 30
0.0
 10
41.390165
 20
29.187603
 30
0.0
 10
37.353796
 20
28.984830
 30
0.0
  0
LWPOLYLINE
  5
120
100
AcDbEntity
  8
Stator
 62
7
100
AcDbPolyline
 90
5
 70
0
 10
36.994360
 20
22.792668
 30
0.0
 10
40.980158
 20
22.124232
 30
0.0
 10
41.187057
 20
23.206566
 30
0.0
 10
41.393956
 20
24.288900
 30
0.0
 10
37.442641
 20
25.137725
 30
0.0
  0
LWPOLYLINE
  5
121
100
AcDbEntity
  8
Stator
 62
7
100
AcDbPolyline
 90
5
 70
0
 10
35.492803
 20
19.249585
 30
0.0
 10
39.169785
 20
17.572325
 30
0.0
 10
39.649763
 20
18.564230
 30
0.0
 10
40.129740
 20
19.556134
 30
0.0
 10
36.532755
 20
21.398712
 30
0.0
  0
LWPOLYLINE
  5
122
100
AcDbEntity
  8
Stator
 62
7
100
AcDbPolyline
 90
5
 70
0
 10
33.125394
 20
16.215861
 30
0.0
 10
36.242978
 20
13.644080
 30
0.0
 10
36.963325
 20
14.477958
 30
0.0
 10
37.683671
 20
15.311837
 30
0.0
 10
34.686145
 20
18.022598
 30
0.0
  0
LWPOLYLINE
  5
123
100
AcDbEntity
  8
Stator
 62
7
100
AcDbPolyline
 90
5
 70
0
 10
30.053466
 20
13.898239
 30
0.0
 10
32.399195
 20
10.607198
 30
0.0
 10
33.310820
 20
11.226224
 30
0.0
 10
34.222445
 20
11.845249
 30
0.0
 10
32.028654
 20
15.239461
 30
0.0
  0
SPLINE
  5
124
100
AcDbEntity
  8
Stator
 62
7
100
AcDbSpline
 70
8
 71
3
 72
8
 73
4
 74
0
 40
0
 40
0
 40
0
 40
0
 40
1
 40
1
 40
1
 40
1
 10
26.526286
 20
12.429817
 30
0.0
 10
26.038633
 20
12.312156
 30
0.0
 10
25.627549
 20
12.212266
 30
0.0
 10
25.024705
 20
12.121190
 30
0.0
  0
SPLINE
  5
125
100
AcDbEntity
  8
Stator
 62
7
100
AcDbSpline
 70
8
 71
3
 72
8
 73
4
 74
0
 40
0
 40
0
 40
0
 40
0
 40
1
 40
1
 40
1
 40
1
 10
22.699317
 20
11.949176
 30
0.0
 10
22.197828
 20
11.961737
 30
0.0
 10
21.774898
 20
11.971648
 30
0.0
 10
21.169023
 20
12.039702
 30
0.0
  0
SPLINE
  5
126
100
AcDbEntity
  8
Stator
 62
7
100
AcDbSpline
 70
8
 71
3
 72
8
 73
4
 74
0
 40
0
 40
0
 40
0
 40
0
 40
1
 40
1
 40
1
 40
1
 10
18.878350
 20
12.475405
 30
0.0
 10
18.397200
 20
12.617333
 30
0.0
 10
17.991246
 20
12.736368
 30
0.0
 10
17.423629
 20
12.958916
 30
0.0
  0
SPLINE
  5
127
100
AcDbEntity
  8
Stator
 62
7
100
AcDbSpline
 70
8
 71
3
 72
8
 73
4
 74
0
 40
0
 40
0
 40
0
 40
0
 40
1
 40
1
 40
1
 40
1
 10
15.323778
 20
13.972642
 30
0.0
 10
14.895756
 20
14.234265
 30
0.0
 10
14.534443
 20
14.454312
 30
0.0
 10
14.043767
 20
14.816187
 30
0.0
  0
SPLINE
  5
128
100
AcDbEntity
  8
Stator
 62
7
100
AcDbSpline
 70
8
 71
3
 72
8
 73
4
 74
0
 40
0
 40
0
 40
0
 40
0
 40
1
 40
1
 40
1
 40
1
 10
12.277838
 20
16.338853
 30
0.0
 10
11.932114
 20
16.702342
 30
0.0
 10
11.640065
 20
17.008406
 30
0.0
 10
11.259768
 20
17.484946
 30
0.0
  0
SPLINE
  5
129
100
AcDbEntity
  8
Stator
 62
7
100
AcDbSpline
 70
8
 71
3
 72
8
 73
4
 74
0
 40
0
 40
0
 40
0
 40
0
 40
1
 40
1
 40
1
 40
1
 10
9.948107
 20
19.412785
 30
0.0
 10
9.708240
 20
19.853368
 30
0.0
 10
9.505358
 20
20.224591
 30
0.0
 10
9.261357
 20
20.783322
 30
0.0
  0
SPLINE
  5
12a
100
AcDbEntity
  8
Stator
 62
7
100
AcDbSpline
 70
8
 71
3
 72
8
 73
4
 74
0
 40
0
 40
0
 40
0
 40
0
 40
1
 40
1
 40
1
 40
1
 10
8.493351
 20
22.984954
 30
0.0
 10
8.375689
 20
23.472606
 30
0.0
 10
8.275800
 20
23.883690
 30
0.0
 10
8.184723
 20
24.486535
 30
0.0
  0
SPLINE
  5
12b
100
AcDbEntity
  8
Stator
 62
7
100
AcDbSpline
 70
8
 71
3
 72
8
 73
4
 74
0
 40
0
 40
0
 40
0
 40
0
 40
1
 40
1
 40
1
 40
1
 10
8.012709
 20
26.811922
 30
0.0
 10
8.025271
 20
27.313411
 30
0.0
 10
8.035181
 20
27.736341
 30
0.0
 10
8.103235
 20
28.342217
 30
0.0
  0
SPLINE
  5
12c
100
AcDbEntity
  8
Stator
 62
7
100
AcDbSpline
 70
8
 71
3
 72
8
 73
4
 74
0
 40
0
 40
0
 40
0
 40
0
 40
1
 40
1
 40
1
 40
1
 10
8.538938
 20
30.632889
 30
0.0
 10
8.680867
 20
31.114039
 30
0.0
 10
8.799901
 20
31.519993
 30
0.0
 10
9.022449
 20
32.087610
 30
0.0
  0
SPLINE
  5
12d
100
AcDbEntity
  8
Stator
 62
7
100
AcDbSpline
 70
8
 71
3
 72
8
 73
4
 74
0
 40
0
 40
0
 40
0
 40
0
 40
1
 40
1
 40
1
 40
1
 10
10.036175
 20
34.187462
 30
0.0
 10
10.297799
 20
34.615483
 30
0.0
 10
10.517846
 20
34.976796
 30
0.0
 10
10.879721
 20
35.467473
 30
0.0
  0
SPLINE
  5
12e
100
AcDbEntity
  8
Stator
 62
7
100
AcDbSpline
 70
8
 71
3
 72
8
 73
4
 74
0
 40
0
 40
0
 40
0
 40
0
 40
1
 40
1
 40
1
 40
1
 10
12.402386
 20
37.233401
 30
0.0
 10
12.765875
 20
37.579126
 30
0.0
 10
13.071939
 20
37.871174
 30
0.0
 10
13.548480
 20
38.251471
 30
0.0
  0
SPLINE
  5
12f
100
AcDbEntity
  8
Stator
 62
7
100
AcDbSpline
 70
8
 71
3
 72
8
 73
4
 74
0
 40
0
 40
0
 40
0
 40
0
 40
1
 40
1
 40
1
 40
1
 10
15.476318
 20
39.563133
 30
0.0
 10
15.916901
 20
39.802999
 30
0.0
 10
16.288124
 20
40.005882
 30
0.0
 10
16.846855
 20
40.249882
 30
0.0
  0
SPLINE
  5
130
100
AcDbEntity
  8
Stator
 62
7
100
AcDbSpline
 70
8
 71
3
 72
8
 73
4
 74
0
 40
0
 40
0
 40
0
 40
0
 40
1
 40
1
 40
1
 40
1
 10
19.048487
 20
41.017889
 30
0.0
 10
19.536139
 20
41.135550
 30
0.0
 10
19.947223
 20
41.235440
 30
0.0
 10
20.550068
 20
41.326517
 30
0.0
  0
SPLINE
  5
131
100
AcDbEntity
  8
Stator
 62
7
100
AcDbSpline
 70
8
 71
3
 72
8
 73
4
 74
0
 40
0
 40
0
 40
0
 40
0
 40
1
 40
1
 40
1
 40
1
 10
22.875456
 20
41.498530
 30
0.0
 10
23.376945
 20
41.485969
 30
0.0
 10
23.799875
 20
41.476058
 30
0.0
 10
24.405750
 20
41.408004
 30
0.0
  0
SPLINE
  5
132
100
AcDbEntity
  8
Stator
 62
7
100
AcDbSpline
 70
8
 71
3
 72
8
 73
4
 74
0
 40
0
 40
0
 40
0
 40
0
 40
1
 40
1
 40
1
 40
1
 10
26.696423
 20
40.972301
 30
0.0
 10
27.177573
 20
40.830373
 30
0.0
 10
27.583527
 20
40.711338
 30
0.0
 10
28.151144
 20
40.488790
 30
0.0
  0
SPLINE
  5
133
100
AcDbEntity
  8
Stator
 62
7
100
AcDbSpline
 70
8
 71
3
 72
8
 73
4
 74
0
 40
0
 40
0
 40
0
 40
0
 40
1
 40
1
 40
1
 40
1
 10
30.250995
 20
39.475064
 30
0.0
 10
30.679016
 20
39.213441
 30
0.0
 10
31.040329
 20
38.993394
 30
0.0
 10
31.531006
 20
38.631519
 30
0.0
  0
SPLINE
  5
134
100
AcDbEntity
  8
Stator
 62
7
100
AcDbSpline
 70
8
 71
3
 72
8
 73
4
 74
0
 40
0
 40
0
 40
0
 40
0
 40
1
 40
1
 40
1
 40
1
 10
33.296935
 20
37.108853
 30
0.0
 10
33.642659
 20
36.745364
 30
0.0
 10
33.934708
 20
36.439300
 30
0.0
 10
34.315005
 20
35.962760
 30
0.0
  0
SPLINE
  5
135
100
AcDbEntity
  8
Stator
 62
7
100
AcDbSpline
 70
8
 71
3
 72
8
 73
4
 74
0
 40
0
 40
0
 40
0
 40
0
 40
1
 40
1
 40
1
 40
1
 10
35.626666
 20
34.034921
 30
0.0
 10
35.866533
 20
33.594338
 30
0.0
 10
36.069415
 20
33.223115
 30
0.0
 10
36.313416
 20
32.664384
 30
0.0
  0
SPLINE
  5
136
100
AcDbEntity
  8
Stator
 62
7
100
AcDbSpline
 70
8
 71
3
 72
8
 73
4
 74
0
 40
0
 40
0
 40
0
 40
0
 40
1
 40
1
 40
1
 40
1
 10
37.081422
 20
30.462752
 30
0.0
 10
37.199084
 20
29.975100
 30
0.0
 10
37.298973
 20
29.564016
 30
0.0
 10
37.390050
 20
28.961171
 30
0.0
  0
SPLINE
  5
137
100
AcDbEntity
  8
Stator
 62
7
100
AcDbSpline
 70
8
 71
3
 72
8
 73
4
 74
0
 40
0
 40
0
 40
0
 40
0
 40
1
 40
1
 40
1
 40
1
 10
37.562064
 20
26.635784
 30
0.0
 10
37.549502
 20
26.134295
 30
0.0
 10
37.539591
 20
25.711365
 30
0.0
 10
37.471537
 20
25.105489
 30
0.0
  0
SPLINE
  5
138
100
AcDbEntity
  8
Stator
 62
7
100
AcDbSpline
 70
8
 71
3
 72
8
 73
4
 74
0
 40
0
 40
0
 40
0
 40
0
 40
1
 40
1
 40
1
 40
1
 10
37.035835
 20
22.814817
 30
0.0
 10
36.893906
 20
22.333667
 30
0.0
 10
36.774871
 20
21.927713
 30
0.0
 10
36.552324
 20
21.360096
 30
0.0
  0
SPLINE
  5
139
100
AcDbEntity
  8
Stator
 62
7
100
AcDbSpline
 70
8
 71
3
 72
8
 73
4
 74
0
 40
0
 40
0
 40
0
 40
0
 40
1
 40
1
 40
1
 40
1
 10
35.538597
 20
19.260244
 30
0.0
 10
35.276974
 20
18.832223
 30
0.0
 10
35.056927
 20
18.470910
 30
0.0
 10
34.695052
 20
17.980233
 30
0.0
  0
SPLINE
  5
13a
100
AcDbEntity
  8
Stator
 62
7
100
AcDbSpline
 70
8
 71
3
 72
8
 73
4
 74
0
 40
0
 40
0
 40
0
 40
0
 40
1
 40
1
 40
1
 40
1
 10
33.172386
 20
16.214305
 30
0.0
 10
32.808898
 20
15.868580
 30
0.0
 10
32.502833
 20
15.576532
 30
0.0
 10
32.026293
 20
15.196235
 30
0.0
  0
SPLINE
  5
13b
100
AcDbEntity
  8
Stator
 62
7
100
AcDbSpline
 70
8
 71
3
 72
8
 73
4
 74
0
 40
0
 40
0
 40
0
 40
0
 40
1
 40
1
 40
1
 40
1
 10
30.098454
 20
13.884573
 30
0.0
 10
29.657872
 20
13.644707
 30
0.0
 10
29.286648
 20
13.441825
 30
0.0
 10
28.727918
 20
13.197824
 30
0.0
  0
LWPOLYLINE
  5
13c
100
AcDbEntity
  8
Stator
 62
7
100
AcDbPolyline
 90
5
 70
0
 10
26.486367
 20
12.454661
 30
0.0
 10
27.900383
 20
8.668642
 30
0.0
 10
28.941161
 20
9.030628
 30
0.0
 10
29.981939
 20
9.392615
 30
0.0
 10
28.741386
 20
13.238966
 30
0.0
  0
LWPOLYLINE
  5
13d
100
AcDbEntity
  8
Z_Background
 62
7
100
AcDbPolyline
 90
8
 70
1
 10
39.764077
 20
51.709822
 30
0.0
 10
1.399512
 20
51.709822
 30
0.0
 10
33.149498
 20
6.730682
 30
0.0
 10
4.045351
 20
6.730682
 30
0.0
 10
4.045351
 20
1.439019
 30
0.0
 10
43.997404
 20
1.174436
 30
0.0
 10
11.982843
 20
46.418159
 30
0.0
 10
39.764077
 20
46.418159
 30
0.0
  0
SPLINE
  5
13e
100
AcDbEntity
  8
Groﬂes_Z
 62
7
100
AcDbSpline
 70
8
 71
3
 72
8
 73
4
 74
0
 40
0
 40
0
 40
0
 40
0
 40
1
 40
1
 40
1
 40
1
 10
41.714760
 20
46.319141
 30
0.0
 10
41.651371
 20
46.382530
 30
0.0
 10
41.565396
 20
46.418142
 30
0.0
 10
41.475750
 20
46.418142
 30
0.0
  0
LWPOLYLINE
  5
13f
100
AcDbEntity
  8
Groﬂes_Z
 62
7
100
AcDbPolyline
 90
2
 70
0
 10
42.674092
 20
45.359809
 30
0.0
 10
41.714760
 20
46.319141
 30
0.0
  0
SPLINE
  5
140
100
AcDbEntity
  8
Groﬂes_Z
 62
7
100
AcDbSpline
 70
8
 71
3
 72
8
 73
4
 74
0
 40
0
 40
0
 40
0
 40
0
 40
1
 40
1
 40
1
 40
1
 10
12.122453
 20
46.418142
 30
0.0
 10
12.095351
 20
46.418142
 30
0.0
 10
12.070508
 20
46.403036
 30
0.0
 10
12.058039
 20
46.378972
 30
0.0
  0
SPLINE
  5
141
100
AcDbEntity
  8
Groﬂes_Z
 62
7
100
AcDbSpline
 70
8
 71
3
 72
8
 73
4
 74
0
 40
0
 40
0
 40
0
 40
0
 40
1
 40
1
 40
1
 40
1
 10
12.058039
 20
46.378972
 30
0.0
 10
12.045570
 20
46.354908
 30
0.0
 10
12.047554
 20
46.325901
 30
0.0
 10
12.063184
 20
46.303759
 30
0.0
  0
LWPOLYLINE
  5
142
100
AcDbEntity
  8
Groﬂes_Z
 62
7
100
AcDbPolyline
 90
2
 70
0
 10
41.475750
 20
46.418142
 30
0.0
 10
12.122453
 20
46.418142
 30
0.0
  0
LWPOLYLINE
  5
143
100
AcDbEntity
  8
Groﬂes_Z
 62
7
100
AcDbPolyline
 90
2
 70
0
 10
12.063184
 20
46.303759
 30
0.0
 10
25.989809
 20
26.574375
 30
0.0
  0
SPLINE
  5
144
100
AcDbEntity
  8
Groﬂes_Z
 62
7
100
AcDbSpline
 70
8
 71
3
 72
8
 73
4
 74
0
 40
0
 40
0
 40
0
 40
0
 40
1
 40
1
 40
1
 40
1
 10
9.476621
 20
47.741058
 30
0.0
 10
9.449519
 20
47.741058
 30
0.0
 10
9.424676
 20
47.725952
 30
0.0
 10
9.412207
 20
47.701888
 30
0.0
  0
SPLINE
  5
145
100
AcDbEntity
  8
Groﬂes_Z
 62
7
100
AcDbSpline
 70
8
 71
3
 72
8
 73
4
 74
0
 40
0
 40
0
 40
0
 40
0
 40
1
 40
1
 40
1
 40
1
 10
9.412207
 20
47.701888
 30
0.0
 10
9.399738
 20
47.677824
 30
0.0
 10
9.401722
 20
47.648817
 30
0.0
 10
9.417352
 20
47.626675
 30
0.0
  0
LWPOLYLINE
  5
146
100
AcDbEntity
  8
Groﬂes_Z
 62
7
100
AcDbPolyline
 90
2
 70
0
 10
41.086593
 20
47.741058
 30
0.0
 10
9.476621
 20
47.741058
 30
0.0
  0
LWPOLYLINE
  5
147
100
AcDbEntity
  8
Groﬂes_Z
 62
7
100
AcDbPolyline
 90
2
 70
0
 10
9.417352
 20
47.626675
 30
0.0
 10
24.277790
 20
26.574389
 30
0.0
  0
SPLINE
  5
148
100
AcDbEntity
  8
Groﬂes_Z
 62
7
100
AcDbSpline
 70
8
 71
3
 72
8
 73
4
 74
0
 40
0
 40
0
 40
0
 40
0
 40
1
 40
1
 40
1
 40
1
 10
6.830789
 20
49.063974
 30
0.0
 10
6.803687
 20
49.063974
 30
0.0
 10
6.778845
 20
49.048867
 30
0.0
 10
6.766376
 20
49.024804
 30
0.0
  0
SPLINE
  5
149
100
AcDbEntity
  8
Groﬂes_Z
 62
7
100
AcDbSpline
 70
8
 71
3
 72
8
 73
4
 74
0
 40
0
 40
0
 40
0
 40
0
 40
1
 40
1
 40
1
 40
1
 10
6.766376
 20
49.024804
 30
0.0
 10
6.753907
 20
49.000740
 30
0.0
 10
6.755891
 20
48.971733
 30
0.0
 10
6.771520
 20
48.949591
 30
0.0
  0
LWPOLYLINE
  5
14a
100
AcDbEntity
  8
Groﬂes_Z
 62
7
100
AcDbPolyline
 90
2
 70
0
 10
39.763677
 20
49.063974
 30
0.0
 10
6.830789
 20
49.063974
 30
0.0
  0
LWPOLYLINE
  5
14b
100
AcDbEntity
  8
Groﬂes_Z
 62
7
100
AcDbPolyline
 90
2
 70
0
 10
6.771520
 20
48.949591
 30
0.0
 10
22.565770
 20
26.574404
 30
0.0
  0
SPLINE
  5
14c
100
AcDbEntity
  8
Groﬂes_Z
 62
7
100
AcDbSpline
 70
8
 71
3
 72
8
 73
4
 74
0
 40
0
 40
0
 40
0
 40
0
 40
1
 40
1
 40
1
 40
1
 10
4.184958
 20
50.386890
 30
0.0
 10
4.157855
 20
50.386890
 30
0.0
 10
4.133013
 20
50.371783
 30
0.0
 10
4.120544
 20
50.347720
 30
0.0
  0
SPLINE
  5
14d
100
AcDbEntity
  8
Groﬂes_Z
 62
7
100
AcDbSpline
 70
8
 71
3
 72
8
 73
4
 74
0
 40
0
 40
0
 40
0
 40
0
 40
1
 40
1
 40
1
 40
1
 10
4.120544
 20
50.347720
 30
0.0
 10
4.108075
 20
50.323656
 30
0.0
 10
4.110059
 20
50.294649
 30
0.0
 10
4.125688
 20
50.272507
 30
0.0
  0
LWPOLYLINE
  5
14e
100
AcDbEntity
  8
Groﬂes_Z
 62
7
100
AcDbPolyline
 90
2
 70
0
 10
38.440761
 20
50.386890
 30
0.0
 10
4.184958
 20
50.386890
 30
0.0
  0
LWPOLYLINE
  5
14f
100
AcDbEntity
  8
Groﬂes_Z
 62
7
100
AcDbPolyline
 90
2
 70
0
 10
4.125688
 20
50.272507
 30
0.0
 10
20.853751
 20
26.574418
 30
0.0
  0
SPLINE
  5
150
100
AcDbEntity
  8
Groﬂes_Z
 62
7
100
AcDbSpline
 70
8
 71
3
 72
8
 73
4
 74
0
 40
0
 40
0
 40
0
 40
0
 40
1
 40
1
 40
1
 40
1
 10
2.799203
 20
51.709805
 30
0.0
 10
2.528183
 20
51.709805
 30
0.0
 10
2.279762
 20
51.558737
 30
0.0
 10
2.155075
 20
51.318101
 30
0.0
  0
SPLINE
  5
151
100
AcDbEntity
  8
Groﬂes_Z
 62
7
100
AcDbSpline
 70
8
 71
3
 72
8
 73
4
 74
0
 40
0
 40
0
 40
0
 40
0
 40
1
 40
1
 40
1
 40
1
 10
2.155075
 20
51.318101
 30
0.0
 10
2.030388
 20
51.077466
 30
0.0
 10
2.050231
 20
50.787395
 30
0.0
 10
2.206524
 20
50.565980
 30
0.0
  0
LWPOLYLINE
  5
152
100
AcDbEntity
  8
Groﬂes_Z
 62
7
100
AcDbPolyline
 90
2
 70
0
 10
39.763677
 20
51.709805
 30
0.0
 10
2.799203
 20
51.709805
 30
0.0
  0
SPLINE
  5
153
100
AcDbEntity
  8
Groﬂes_Z
 62
7
100
AcDbSpline
 70
8
 71
3
 72
8
 73
4
 74
0
 40
0
 40
0
 40
0
 40
0
 40
1
 40
1
 40
1
 40
1
 10
42.979601
 20
45.571774
 30
0.0
 10
43.193628
 20
45.571774
 30
0.0
 10
43.386582
 20
45.442846
 30
0.0
 10
43.468486
 20
45.245111
 30
0.0
  0
SPLINE
  5
154
100
AcDbEntity
  8
Groﬂes_Z
 62
7
100
AcDbSpline
 70
8
 71
3
 72
8
 73
4
 74
0
 40
0
 40
0
 40
0
 40
0
 40
1
 40
1
 40
1
 40
1
 10
43.468486
 20
45.245111
 30
0.0
 10
43.550391
 20
45.047375
 30
0.0
 10
43.505118
 20
44.819771
 30
0.0
 10
43.353778
 20
44.668430
 30
0.0
  0
SPLINE
  5
155
100
AcDbEntity
  8
Groﬂes_Z
 62
7
100
AcDbSpline
 70
8
 71
3
 72
8
 73
4
 74
0
 40
0
 40
0
 40
0
 40
0
 40
1
 40
1
 40
1
 40
1
 10
43.353778
 20
44.668430
 30
0.0
 10
43.202437
 20
44.517090
 30
0.0
 10
42.974833
 20
44.471816
 30
0.0
 10
42.777097
 20
44.553721
 30
0.0
  0
SPLINE
  5
156
100
AcDbEntity
  8
Groﬂes_Z
 62
7
100
AcDbSpline
 70
8
 71
3
 72
8
 73
4
 74
0
 40
0
 40
0
 40
0
 40
0
 40
1
 40
1
 40
1
 40
1
 10
42.777097
 20
44.553721
 30
0.0
 10
42.579362
 20
44.635626
 30
0.0
 10
42.450434
 20
44.828580
 30
0.0
 10
42.450434
 20
45.042607
 30
0.0
  0
SPLINE
  5
157
100
AcDbEntity
  8
Groﬂes_Z
 62
7
100
AcDbSpline
 70
8
 71
3
 72
8
 73
4
 74
0
 40
0
 40
0
 40
0
 40
0
 40
1
 40
1
 40
1
 40
1
 10
42.450434
 20
45.042607
 30
0.0
 10
42.450434
 20
45.182951
 30
0.0
 10
42.506186
 20
45.317546
 30
0.0
 10
42.605424
 20
45.416784
 30
0.0
  0
SPLINE
  5
158
100
AcDbEntity
  8
Groﬂes_Z
 62
7
100
AcDbSpline
 70
8
 71
3
 72
8
 73
4
 74
0
 40
0
 40
0
 40
0
 40
0
 40
1
 40
1
 40
1
 40
1
 10
42.605424
 20
45.416784
 30
0.0
 10
42.704662
 20
45.516022
 30
0.0
 10
42.839257
 20
45.571774
 30
0.0
 10
42.979601
 20
45.571774
 30
0.0
  0
LWPOLYLINE
  5
159
100
AcDbEntity
  8
Groﬂes_Z
 62
7
100
AcDbPolyline
 90
2
 70
0
 10
2.206524
 20
50.565980
 30
0.0
 10
19.141733
 20
26.574433
 30
0.0
  0
SPLINE
  5
15a
100
AcDbEntity
  8
Groﬂes_Z
 62
7
100
AcDbSpline
 70
8
 71
3
 72
8
 73
4
 74
0
 40
0
 40
0
 40
0
 40
0
 40
1
 40
1
 40
1
 40
1
 10
41.615759
 20
48.270224
 30
0.0
 10
41.829787
 20
48.270224
 30
0.0
 10
42.022740
 20
48.141297
 30
0.0
 10
42.104645
 20
47.943561
 30
0.0
  0
SPLINE
  5
15b
100
AcDbEntity
  8
Groﬂes_Z
 62
7
100
AcDbSpline
 70
8
 71
3
 72
8
 73
4
 74
0
 40
0
 40
0
 40
0
 40
0
 40
1
 40
1
 40
1
 40
1
 10
42.104645
 20
47.943561
 30
0.0
 10
42.186550
 20
47.745825
 30
0.0
 10
42.141277
 20
47.518221
 30
0.0
 10
41.989936
 20
47.366881
 30
0.0
  0
SPLINE
  5
15c
100
AcDbEntity
  8
Groﬂes_Z
 62
7
100
AcDbSpline
 70
8
 71
3
 72
8
 73
4
 74
0
 40
0
 40
0
 40
0
 40
0
 40
1
 40
1
 40
1
 40
1
 10
41.989936
 20
47.366881
 30
0.0
 10
41.838596
 20
47.215540
 30
0.0
 10
41.610992
 20
47.170267
 30
0.0
 10
41.413256
 20
47.252172
 30
0.0
  0
SPLINE
  5
15d
100
AcDbEntity
  8
Groﬂes_Z
 62
7
100
AcDbSpline
 70
8
 71
3
 72
8
 73
4
 74
0
 40
0
 40
0
 40
0
 40
0
 40
1
 40
1
 40
1
 40
1
 10
41.413256
 20
47.252172
 30
0.0
 10
41.215520
 20
47.334077
 30
0.0
 10
41.086592
 20
47.527030
 30
0.0
 10
41.086592
 20
47.741058
 30
0.0
  0
SPLINE
  5
15e
100
AcDbEntity
  8
Groﬂes_Z
 62
7
100
AcDbSpline
 70
8
 71
3
 72
8
 73
4
 74
0
 40
0
 40
0
 40
0
 40
0
 40
1
 40
1
 40
1
 40
1
 10
41.086592
 20
47.741058
 30
0.0
 10
41.086592
 20
47.881401
 30
0.0
 10
41.142344
 20
48.015997
 30
0.0
 10
41.241582
 20
48.115235
 30
0.0
  0
SPLINE
  5
15f
100
AcDbEntity
  8
Groﬂes_Z
 62
7
100
AcDbSpline
 70
8
 71
3
 72
8
 73
4
 74
0
 40
0
 40
0
 40
0
 40
0
 40
1
 40
1
 40
1
 40
1
 10
41.241582
 20
48.115235
 30
0.0
 10
41.340820
 20
48.214473
 30
0.0
 10
41.475415
 20
48.270224
 30
0.0
 10
41.615759
 20
48.270224
 30
0.0
  0
LWPOLYLINE
  5
160
100
AcDbEntity
  8
Groﬂes_Z
 62
7
100
AcDbPolyline
 90
1
 70
1
 10
42.979601
 20
45.571774
 30
0.0
  0
SPLINE
  5
161
100
AcDbEntity
  8
Groﬂes_Z
 62
7
100
AcDbSpline
 70
8
 71
3
 72
8
 73
4
 74
0
 40
0
 40
0
 40
0
 40
0
 40
1
 40
1
 40
1
 40
1
 10
40.292843
 20
49.593140
 30
0.0
 10
40.506871
 20
49.593140
 30
0.0
 10
40.699824
 20
49.464213
 30
0.0
 10
40.781729
 20
49.266477
 30
0.0
  0
SPLINE
  5
162
100
AcDbEntity
  8
Groﬂes_Z
 62
7
100
AcDbSpline
 70
8
 71
3
 72
8
 73
4
 74
0
 40
0
 40
0
 40
0
 40
0
 40
1
 40
1
 40
1
 40
1
 10
40.781729
 20
49.266477
 30
0.0
 10
40.863634
 20
49.068741
 30
0.0
 10
40.818361
 20
48.841137
 30
0.0
 10
40.667020
 20
48.689796
 30
0.0
  0
SPLINE
  5
163
100
AcDbEntity
  8
Groﬂes_Z
 62
7
100
AcDbSpline
 70
8
 71
3
 72
8
 73
4
 74
0
 40
0
 40
0
 40
0
 40
0
 40
1
 40
1
 40
1
 40
1
 10
40.667020
 20
48.689796
 30
0.0
 10
40.515680
 20
48.538456
 30
0.0
 10
40.288076
 20
48.493183
 30
0.0
 10
40.090340
 20
48.575088
 30
0.0
  0
SPLINE
  5
164
100
AcDbEntity
  8
Groﬂes_Z
 62
7
100
AcDbSpline
 70
8
 71
3
 72
8
 73
4
 74
0
 40
0
 40
0
 40
0
 40
0
 40
1
 40
1
 40
1
 40
1
 10
40.090340
 20
48.575088
 30
0.0
 10
39.892604
 20
48.656993
 30
0.0
 10
39.763677
 20
48.849946
 30
0.0
 10
39.763677
 20
49.063974
 30
0.0
  0
SPLINE
  5
165
100
AcDbEntity
  8
Groﬂes_Z
 62
7
100
AcDbSpline
 70
8
 71
3
 72
8
 73
4
 74
0
 40
0
 40
0
 40
0
 40
0
 40
1
 40
1
 40
1
 40
1
 10
39.763677
 20
49.063974
 30
0.0
 10
39.763677
 20
49.356224
 30
0.0
 10
40.000593
 20
49.593140
 30
0.0
 10
40.292843
 20
49.593140
 30
0.0
  0
LWPOLYLINE
  5
166
100
AcDbEntity
  8
Groﬂes_Z
 62
7
100
AcDbPolyline
 90
1
 70
1
 10
41.615759
 20
48.270224
 30
0.0
  0
SPLINE
  5
167
100
AcDbEntity
  8
Groﬂes_Z
 62
7
100
AcDbSpline
 70
8
 71
3
 72
8
 73
4
 74
0
 40
0
 40
0
 40
0
 40
0
 40
1
 40
1
 40
1
 40
1
 10
38.969927
 20
50.916056
 30
0.0
 10
39.183955
 20
50.916056
 30
0.0
 10
39.376908
 20
50.787129
 30
0.0
 10
39.458813
 20
50.589393
 30
0.0
  0
SPLINE
  5
168
100
AcDbEntity
  8
Groﬂes_Z
 62
7
100
AcDbSpline
 70
8
 71
3
 72
8
 73
4
 74
0
 40
0
 40
0
 40
0
 40
0
 40
1
 40
1
 40
1
 40
1
 10
39.458813
 20
50.589393
 30
0.0
 10
39.540718
 20
50.391657
 30
0.0
 10
39.495445
 20
50.164053
 30
0.0
 10
39.344104
 20
50.012712
 30
0.0
  0
SPLINE
  5
169
100
AcDbEntity
  8
Groﬂes_Z
 62
7
100
AcDbSpline
 70
8
 71
3
 72
8
 73
4
 74
0
 40
0
 40
0
 40
0
 40
0
 40
1
 40
1
 40
1
 40
1
 10
39.344104
 20
50.012712
 30
0.0
 10
39.192764
 20
49.861372
 30
0.0
 10
38.965160
 20
49.816099
 30
0.0
 10
38.767424
 20
49.898004
 30
0.0
  0
SPLINE
  5
16a
100
AcDbEntity
  8
Groﬂes_Z
 62
7
100
AcDbSpline
 70
8
 71
3
 72
8
 73
4
 74
0
 40
0
 40
0
 40
0
 40
0
 40
1
 40
1
 40
1
 40
1
 10
38.767424
 20
49.898004
 30
0.0
 10
38.569688
 20
49.979909
 30
0.0
 10
38.440761
 20
50.172862
 30
0.0
 10
38.440761
 20
50.386890
 30
0.0
  0
SPLINE
  5
16b
100
AcDbEntity
  8
Groﬂes_Z
 62
7
100
AcDbSpline
 70
8
 71
3
 72
8
 73
4
 74
0
 40
0
 40
0
 40
0
 40
0
 40
1
 40
1
 40
1
 40
1
 10
38.440761
 20
50.386890
 30
0.0
 10
38.440761
 20
50.527233
 30
0.0
 10
38.496513
 20
50.661829
 30
0.0
 10
38.595750
 20
50.761067
 30
0.0
  0
SPLINE
  5
16c
100
AcDbEntity
  8
Groﬂes_Z
 62
7
100
AcDbSpline
 70
8
 71
3
 72
8
 73
4
 74
0
 40
0
 40
0
 40
0
 40
0
 40
1
 40
1
 40
1
 40
1
 10
38.595750
 20
50.761067
 30
0.0
 10
38.694988
 20
50.860305
 30
0.0
 10
38.829584
 20
50.916056
 30
0.0
 10
38.969927
 20
50.916056
 30
0.0
  0
LWPOLYLINE
  5
16d
100
AcDbEntity
  8
Groﬂes_Z
 62
7
100
AcDbPolyline
 90
1
 70
1
 10
40.292843
 20
49.593140
 30
0.0
  0
SPLINE
  5
16e
100
AcDbEntity
  8
Groﬂes_Z
 62
7
100
AcDbSpline
 70
8
 71
3
 72
8
 73
4
 74
0
 40
0
 40
0
 40
0
 40
0
 40
1
 40
1
 40
1
 40
1
 10
40.292843
 20
52.238972
 30
0.0
 10
40.506871
 20
52.238972
 30
0.0
 10
40.699824
 20
52.110045
 30
0.0
 10
40.781729
 20
51.912309
 30
0.0
  0
SPLINE
  5
16f
100
AcDbEntity
  8
Groﬂes_Z
 62
7
100
AcDbSpline
 70
8
 71
3
 72
8
 73
4
 74
0
 40
0
 40
0
 40
0
 40
0
 40
1
 40
1
 40
1
 40
1
 10
40.781729
 20
51.912309
 30
0.0
 10
40.863634
 20
51.714573
 30
0.0
 10
40.818361
 20
51.486969
 30
0.0
 10
40.667020
 20
51.335628
 30
0.0
  0
SPLINE
  5
170
100
AcDbEntity
  8
Groﬂes_Z
 62
7
100
AcDbSpline
 70
8
 71
3
 72
8
 73
4
 74
0
 40
0
 40
0
 40
0
 40
0
 40
1
 40
1
 40
1
 40
1
 10
40.667020
 20
51.335628
 30
0.0
 10
40.515680
 20
51.184288
 30
0.0
 10
40.288076
 20
51.139014
 30
0.0
 10
40.090340
 20
51.220919
 30
0.0
  0
SPLINE
  5
171
100
AcDbEntity
  8
Groﬂes_Z
 62
7
100
AcDbSpline
 70
8
 71
3
 72
8
 73
4
 74
0
 40
0
 40
0
 40
0
 40
0
 40
1
 40
1
 40
1
 40
1
 10
40.090340
 20
51.220919
 30
0.0
 10
39.892604
 20
51.302824
 30
0.0
 10
39.763677
 20
51.495777
 30
0.0
 10
39.763677
 20
51.709805
 30
0.0
  0
SPLINE
  5
172
100
AcDbEntity
  8
Groﬂes_Z
 62
7
100
AcDbSpline
 70
8
 71
3
 72
8
 73
4
 74
0
 40
0
 40
0
 40
0
 40
0
 40
1
 40
1
 40
1
 40
1
 10
39.763677
 20
51.709805
 30
0.0
 10
39.763677
 20
52.002056
 30
0.0
 10
40.000593
 20
52.238972
 30
0.0
 10
40.292843
 20
52.238972
 30
0.0
  0
LWPOLYLINE
  5
173
100
AcDbEntity
  8
Groﬂes_Z
 62
7
100
AcDbPolyline
 90
1
 70
1
 10
38.969927
 20
50.916056
 30
0.0
  0
LWPOLYLINE
  5
174
100
AcDbEntity
  8
Groﬂes_Z
 62
7
100
AcDbPolyline
 90
1
 70
1
 10
40.292843
 20
52.238972
 30
0.0
  0
LWPOLYLINE
  5
175
100
AcDbEntity
  8
Groﬂes_Z
 62
7
100
AcDbPolyline
 90
1
 70
1
 10
42.409509
 20
46.418142
 30
0.0
  0
SPLINE
  5
176
100
AcDbEntity
  8
Groﬂes_Z
 62
7
100
AcDbSpline
 70
8
 71
3
 72
8
 73
4
 74
0
 40
0
 40
0
 40
0
 40
0
 40
1
 40
1
 40
1
 40
1
 10
3.417214
 20
6.829666
 30
0.0
 10
3.480603
 20
6.766277
 30
0.0
 10
3.566577
 20
6.730665
 30
0.0
 10
3.656223
 20
6.730665
 30
0.0
  0
LWPOLYLINE
  5
177
100
AcDbEntity
  8
Groﬂes_Z
 62
7
100
AcDbPolyline
 90
2
 70
0
 10
2.457882
 20
7.788998
 30
0.0
 10
3.417214
 20
6.829666
 30
0.0
  0
SPLINE
  5
178
100
AcDbEntity
  8
Groﬂes_Z
 62
7
100
AcDbSpline
 70
8
 71
3
 72
8
 73
4
 74
0
 40
0
 40
0
 40
0
 40
0
 40
1
 40
1
 40
1
 40
1
 10
33.009521
 20
6.730665
 30
0.0
 10
33.036623
 20
6.730665
 30
0.0
 10
33.061466
 20
6.745771
 30
0.0
 10
33.073935
 20
6.769835
 30
0.0
  0
SPLINE
  5
179
100
AcDbEntity
  8
Groﬂes_Z
 62
7
100
AcDbSpline
 70
8
 71
3
 72
8
 73
4
 74
0
 40
0
 40
0
 40
0
 40
0
 40
1
 40
1
 40
1
 40
1
 10
33.073935
 20
6.769835
 30
0.0
 10
33.086404
 20
6.793899
 30
0.0
 10
33.084419
 20
6.822906
 30
0.0
 10
33.068790
 20
6.845048
 30
0.0
  0
LWPOLYLINE
  5
17a
100
AcDbEntity
  8
Groﬂes_Z
 62
7
100
AcDbPolyline
 90
2
 70
0
 10
3.656223
 20
6.730665
 30
0.0
 10
33.009521
 20
6.730665
 30
0.0
  0
LWPOLYLINE
  5
17b
100
AcDbEntity
  8
Groﬂes_Z
 62
7
100
AcDbPolyline
 90
2
 70
0
 10
33.068790
 20
6.845048
 30
0.0
 10
19.142165
 20
26.574432
 30
0.0
  0
SPLINE
  5
17c
100
AcDbEntity
  8
Groﬂes_Z
 62
7
100
AcDbSpline
 70
8
 71
3
 72
8
 73
4
 74
0
 40
0
 40
0
 40
0
 40
0
 40
1
 40
1
 40
1
 40
1
 10
35.655352
 20
5.407749
 30
0.0
 10
35.682455
 20
5.407749
 30
0.0
 10
35.707297
 20
5.422855
 30
0.0
 10
35.719766
 20
5.446919
 30
0.0
  0
SPLINE
  5
17d
100
AcDbEntity
  8
Groﬂes_Z
 62
7
100
AcDbSpline
 70
8
 71
3
 72
8
 73
4
 74
0
 40
0
 40
0
 40
0
 40
0
 40
1
 40
1
 40
1
 40
1
 10
35.719766
 20
5.446919
 30
0.0
 10
35.732235
 20
5.470983
 30
0.0
 10
35.730251
 20
5.499990
 30
0.0
 10
35.714622
 20
5.522132
 30
0.0
  0
LWPOLYLINE
  5
17e
100
AcDbEntity
  8
Groﬂes_Z
 62
7
100
AcDbPolyline
 90
2
 70
0
 10
4.045381
 20
5.407749
 30
0.0
 10
35.655352
 20
5.407749
 30
0.0
  0
LWPOLYLINE
  5
17f
100
AcDbEntity
  8
Groﬂes_Z
 62
7
100
AcDbPolyline
 90
2
 70
0
 10
35.714622
 20
5.522132
 30
0.0
 10
20.854184
 20
26.574418
 30
0.0
  0
SPLINE
  5
180
100
AcDbEntity
  8
Groﬂes_Z
 62
7
100
AcDbSpline
 70
8
 71
3
 72
8
 73
4
 74
0
 40
0
 40
0
 40
0
 40
0
 40
1
 40
1
 40
1
 40
1
 10
38.301184
 20
4.084833
 30
0.0
 10
38.328287
 20
4.084833
 30
0.0
 10
38.353129
 20
4.099940
 30
0.0
 10
38.365598
 20
4.124003
 30
0.0
  0
SPLINE
  5
181
100
AcDbEntity
  8
Groﬂes_Z
 62
7
100
AcDbSpline
 70
8
 71
3
 72
8
 73
4
 74
0
 40
0
 40
0
 40
0
 40
0
 40
1
 40
1
 40
1
 40
1
 10
38.365598
 20
4.124003
 30
0.0
 10
38.378067
 20
4.148067
 30
0.0
 10
38.376083
 20
4.177074
 30
0.0
 10
38.360454
 20
4.199216
 30
0.0
  0
LWPOLYLINE
  5
182
100
AcDbEntity
  8
Groﬂes_Z
 62
7
100
AcDbPolyline
 90
2
 70
0
 10
5.368297
 20
4.084833
 30
0.0
 10
38.301184
 20
4.084833
 30
0.0
  0
LWPOLYLINE
  5
183
100
AcDbEntity
  8
Groﬂes_Z
 62
7
100
AcDbPolyline
 90
2
 70
0
 10
38.360454
 20
4.199216
 30
0.0
 10
22.566203
 20
26.574403
 30
0.0
  0
SPLINE
  5
184
100
AcDbEntity
  8
Groﬂes_Z
 62
7
100
AcDbSpline
 70
8
 71
3
 72
8
 73
4
 74
0
 40
0
 40
0
 40
0
 40
0
 40
1
 40
1
 40
1
 40
1
 10
40.947016
 20
2.761917
 30
0.0
 10
40.974118
 20
2.761917
 30
0.0
 10
40.998961
 20
2.777024
 30
0.0
 10
41.011430
 20
2.801087
 30
0.0
  0
SPLINE
  5
185
100
AcDbEntity
  8
Groﬂes_Z
 62
7
100
AcDbSpline
 70
8
 71
3
 72
8
 73
4
 74
0
 40
0
 40
0
 40
0
 40
0
 40
1
 40
1
 40
1
 40
1
 10
41.011430
 20
2.801087
 30
0.0
 10
41.023899
 20
2.825151
 30
0.0
 10
41.021915
 20
2.854158
 30
0.0
 10
41.006285
 20
2.876300
 30
0.0
  0
LWPOLYLINE
  5
186
100
AcDbEntity
  8
Groﬂes_Z
 62
7
100
AcDbPolyline
 90
2
 70
0
 10
6.691213
 20
2.761917
 30
0.0
 10
40.947016
 20
2.761917
 30
0.0
  0
LWPOLYLINE
  5
187
100
AcDbEntity
  8
Groﬂes_Z
 62
7
100
AcDbPolyline
 90
2
 70
0
 10
41.006285
 20
2.876300
 30
0.0
 10
24.278223
 20
26.574389
 30
0.0
  0
SPLINE
  5
188
100
AcDbEntity
  8
Groﬂes_Z
 62
7
100
AcDbSpline
 70
8
 71
3
 72
8
 73
4
 74
0
 40
0
 40
0
 40
0
 40
0
 40
1
 40
1
 40
1
 40
1
 10
42.332770
 20
1.439002
 30
0.0
 10
42.603791
 20
1.439002
 30
0.0
 10
42.852212
 20
1.590070
 30
0.0
 10
42.976899
 20
1.830706
 30
0.0
  0
SPLINE
  5
189
100
AcDbEntity
  8
Groﬂes_Z
 62
7
100
AcDbSpline
 70
8
 71
3
 72
8
 73
4
 74
0
 40
0
 40
0
 40
0
 40
0
 40
1
 40
1
 40
1
 40
1
 10
42.976899
 20
1.830706
 30
0.0
 10
43.101585
 20
2.071341
 30
0.0
 10
43.081743
 20
2.361412
 30
0.0
 10
42.925450
 20
2.582827
 30
0.0
  0
LWPOLYLINE
  5
18a
100
AcDbEntity
  8
Groﬂes_Z
 62
7
100
AcDbPolyline
 90
2
 70
0
 10
5.368297
 20
1.439002
 30
0.0
 10
42.332770
 20
1.439002
 30
0.0
  0
SPLINE
  5
18b
100
AcDbEntity
  8
Groﬂes_Z
 62
7
100
AcDbSpline
 70
8
 71
3
 72
8
 73
4
 74
0
 40
0
 40
0
 40
0
 40
0
 40
1
 40
1
 40
1
 40
1
 10
2.139191
 20
7.601909
 30
0.0
 10
1.925163
 20
7.601909
 30
0.0
 10
1.732210
 20
7.730836
 30
0.0
 10
1.650305
 20
7.928572
 30
0.0
  0
SPLINE
  5
18c
100
AcDbEntity
  8
Groﬂes_Z
 62
7
100
AcDbSpline
 70
8
 71
3
 72
8
 73
4
 74
0
 40
0
 40
0
 40
0
 40
0
 40
1
 40
1
 40
1
 40
1
 10
1.650305
 20
7.928572
 30
0.0
 10
1.568400
 20
8.126308
 30
0.0
 10
1.613673
 20
8.353912
 30
0.0
 10
1.765014
 20
8.505253
 30
0.0
  0
SPLINE
  5
18d
100
AcDbEntity
  8
Groﬂes_Z
 62
7
100
AcDbSpline
 70
8
 71
3
 72
8
 73
4
 74
0
 40
0
 40
0
 40
0
 40
0
 40
1
 40
1
 40
1
 40
1
 10
1.765014
 20
8.505253
 30
0.0
 10
1.916354
 20
8.656593
 30
0.0
 10
2.143958
 20
8.701866
 30
0.0
 10
2.341694
 20
8.619961
 30
0.0
  0
SPLINE
  5
18e
100
AcDbEntity
  8
Groﬂes_Z
 62
7
100
AcDbSpline
 70
8
 71
3
 72
8
 73
4
 74
0
 40
0
 40
0
 40
0
 40
0
 40
1
 40
1
 40
1
 40
1
 10
2.341694
 20
8.619961
 30
0.0
 10
2.539430
 20
8.538057
 30
0.0
 10
2.668357
 20
8.345103
 30
0.0
 10
2.668357
 20
8.131075
 30
0.0
  0
SPLINE
  5
18f
100
AcDbEntity
  8
Groﬂes_Z
 62
7
100
AcDbSpline
 70
8
 71
3
 72
8
 73
4
 74
0
 40
0
 40
0
 40
0
 40
0
 40
1
 40
1
 40
1
 40
1
 10
2.668357
 20
8.131075
 30
0.0
 10
2.668357
 20
7.990732
 30
0.0
 10
2.612606
 20
7.856136
 30
0.0
 10
2.513368
 20
7.756898
 30
0.0
  0
SPLINE
  5
190
100
AcDbEntity
  8
Groﬂes_Z
 62
7
100
AcDbSpline
 70
8
 71
3
 72
8
 73
4
 74
0
 40
0
 40
0
 40
0
 40
0
 40
1
 40
1
 40
1
 40
1
 10
2.513368
 20
7.756898
 30
0.0
 10
2.414130
 20
7.657660
 30
0.0
 10
2.279534
 20
7.601909
 30
0.0
 10
2.139191
 20
7.601909
 30
0.0
  0
LWPOLYLINE
  5
191
100
AcDbEntity
  8
Groﬂes_Z
 62
7
100
AcDbPolyline
 90
2
 70
0
 10
42.925450
 20
2.582827
 30
0.0
 10
25.990240
 20
26.574374
 30
0.0
  0
SPLINE
  5
192
100
AcDbEntity
  8
Groﬂes_Z
 62
7
100
AcDbSpline
 70
8
 71
3
 72
8
 73
4
 74
0
 40
0
 40
0
 40
0
 40
0
 40
1
 40
1
 40
1
 40
1
 10
3.516215
 20
4.878583
 30
0.0
 10
3.302187
 20
4.878583
 30
0.0
 10
3.109234
 20
5.007510
 30
0.0
 10
3.027329
 20
5.205246
 30
0.0
  0
SPLINE
  5
193
100
AcDbEntity
  8
Groﬂes_Z
 62
7
100
AcDbSpline
 70
8
 71
3
 72
8
 73
4
 74
0
 40
0
 40
0
 40
0
 40
0
 40
1
 40
1
 40
1
 40
1
 10
3.027329
 20
5.205246
 30
0.0
 10
2.945424
 20
5.402982
 30
0.0
 10
2.990697
 20
5.630586
 30
0.0
 10
3.142038
 20
5.781926
 30
0.0
  0
SPLINE
  5
194
100
AcDbEntity
  8
Groﬂes_Z
 62
7
100
AcDbSpline
 70
8
 71
3
 72
8
 73
4
 74
0
 40
0
 40
0
 40
0
 40
0
 40
1
 40
1
 40
1
 40
1
 10
3.142038
 20
5.781926
 30
0.0
 10
3.293378
 20
5.933267
 30
0.0
 10
3.520982
 20
5.978540
 30
0.0
 10
3.718718
 20
5.896635
 30
0.0
  0
SPLINE
  5
195
100
AcDbEntity
  8
Groﬂes_Z
 62
7
100
AcDbSpline
 70
8
 71
3
 72
8
 73
4
 74
0
 40
0
 40
0
 40
0
 40
0
 40
1
 40
1
 40
1
 40
1
 10
3.718718
 20
5.896635
 30
0.0
 10
3.916454
 20
5.814730
 30
0.0
 10
4.045381
 20
5.621777
 30
0.0
 10
4.045381
 20
5.407749
 30
0.0
  0
SPLINE
  5
196
100
AcDbEntity
  8
Groﬂes_Z
 62
7
100
AcDbSpline
 70
8
 71
3
 72
8
 73
4
 74
0
 40
0
 40
0
 40
0
 40
0
 40
1
 40
1
 40
1
 40
1
 10
4.045381
 20
5.407749
 30
0.0
 10
4.045381
 20
5.267406
 30
0.0
 10
3.989630
 20
5.132810
 30
0.0
 10
3.890392
 20
5.033572
 30
0.0
  0
SPLINE
  5
197
100
AcDbEntity
  8
Groﬂes_Z
 62
7
100
AcDbSpline
 70
8
 71
3
 72
8
 73
4
 74
0
 40
0
 40
0
 40
0
 40
0
 40
1
 40
1
 40
1
 40
1
 10
3.890392
 20
5.033572
 30
0.0
 10
3.791154
 20
4.934334
 30
0.0
 10
3.656558
 20
4.878583
 30
0.0
 10
3.516215
 20
4.878583
 30
0.0
  0
LWPOLYLINE
  5
198
100
AcDbEntity
  8
Groﬂes_Z
 62
7
100
AcDbPolyline
 90
1
 70
1
 10
2.139191
 20
7.601909
 30
0.0
  0
SPLINE
  5
199
100
AcDbEntity
  8
Groﬂes_Z
 62
7
100
AcDbSpline
 70
8
 71
3
 72
8
 73
4
 74
0
 40
0
 40
0
 40
0
 40
0
 40
1
 40
1
 40
1
 40
1
 10
4.839130
 20
3.555667
 30
0.0
 10
4.625103
 20
3.555667
 30
0.0
 10
4.432149
 20
3.684594
 30
0.0
 10
4.350245
 20
3.882330
 30
0.0
  0
SPLINE
  5
19a
100
AcDbEntity
  8
Groﬂes_Z
 62
7
100
AcDbSpline
 70
8
 71
3
 72
8
 73
4
 74
0
 40
0
 40
0
 40
0
 40
0
 40
1
 40
1
 40
1
 40
1
 10
4.350245
 20
3.882330
 30
0.0
 10
4.268340
 20
4.080066
 30
0.0
 10
4.313613
 20
4.307670
 30
0.0
 10
4.464953
 20
4.459011
 30
0.0
  0
SPLINE
  5
19b
100
AcDbEntity
  8
Groﬂes_Z
 62
7
100
AcDbSpline
 70
8
 71
3
 72
8
 73
4
 74
0
 40
0
 40
0
 40
0
 40
0
 40
1
 40
1
 40
1
 40
1
 10
4.464953
 20
4.459011
 30
0.0
 10
4.616294
 20
4.610351
 30
0.0
 10
4.843898
 20
4.655624
 30
0.0
 10
5.041634
 20
4.573719
 30
0.0
  0
SPLINE
  5
19c
100
AcDbEntity
  8
Groﬂes_Z
 62
7
100
AcDbSpline
 70
8
 71
3
 72
8
 73
4
 74
0
 40
0
 40
0
 40
0
 40
0
 40
1
 40
1
 40
1
 40
1
 10
5.041634
 20
4.573719
 30
0.0
 10
5.239370
 20
4.491814
 30
0.0
 10
5.368297
 20
4.298861
 30
0.0
 10
5.368297
 20
4.084833
 30
0.0
  0
SPLINE
  5
19d
100
AcDbEntity
  8
Groﬂes_Z
 62
7
100
AcDbSpline
 70
8
 71
3
 72
8
 73
4
 74
0
 40
0
 40
0
 40
0
 40
0
 40
1
 40
1
 40
1
 40
1
 10
5.368297
 20
4.084833
 30
0.0
 10
5.368297
 20
3.792583
 30
0.0
 10
5.131381
 20
3.555667
 30
0.0
 10
4.839130
 20
3.555667
 30
0.0
  0
LWPOLYLINE
  5
19e
100
AcDbEntity
  8
Groﬂes_Z
 62
7
100
AcDbPolyline
 90
1
 70
1
 10
3.516215
 20
4.878583
 30
0.0
  0
SPLINE
  5
19f
100
AcDbEntity
  8
Groﬂes_Z
 62
7
100
AcDbSpline
 70
8
 71
3
 72
8
 73
4
 74
0
 40
0
 40
0
 40
0
 40
0
 40
1
 40
1
 40
1
 40
1
 10
6.162046
 20
2.232751
 30
0.0
 10
5.948018
 20
2.232751
 30
0.0
 10
5.755065
 20
2.361678
 30
0.0
 10
5.673160
 20
2.559414
 30
0.0
  0
SPLINE
  5
1a0
100
AcDbEntity
  8
Groﬂes_Z
 62
7
100
AcDbSpline
 70
8
 71
3
 72
8
 73
4
 74
0
 40
0
 40
0
 40
0
 40
0
 40
1
 40
1
 40
1
 40
1
 10
5.673160
 20
2.559414
 30
0.0
 10
5.591256
 20
2.757150
 30
0.0
 10
5.636529
 20
2.984754
 30
0.0
 10
5.787869
 20
3.136094
 30
0.0
  0
SPLINE
  5
1a1
100
AcDbEntity
  8
Groﬂes_Z
 62
7
100
AcDbSpline
 70
8
 71
3
 72
8
 73
4
 74
0
 40
0
 40
0
 40
0
 40
0
 40
1
 40
1
 40
1
 40
1
 10
5.787869
 20
3.136094
 30
0.0
 10
5.939210
 20
3.287435
 30
0.0
 10
6.166813
 20
3.332708
 30
0.0
 10
6.364549
 20
3.250803
 30
0.0
  0
SPLINE
  5
1a2
100
AcDbEntity
  8
Groﬂes_Z
 62
7
100
AcDbSpline
 70
8
 71
3
 72
8
 73
4
 74
0
 40
0
 40
0
 40
0
 40
0
 40
1
 40
1
 40
1
 40
1
 10
6.364549
 20
3.250803
 30
0.0
 10
6.562285
 20
3.168898
 30
0.0
 10
6.691212
 20
2.975945
 30
0.0
 10
6.691212
 20
2.761917
 30
0.0
  0
SPLINE
  5
1a3
100
AcDbEntity
  8
Groﬂes_Z
 62
7
100
AcDbSpline
 70
8
 71
3
 72
8
 73
4
 74
0
 40
0
 40
0
 40
0
 40
0
 40
1
 40
1
 40
1
 40
1
 10
6.691212
 20
2.761917
 30
0.0
 10
6.691212
 20
2.621574
 30
0.0
 10
6.635461
 20
2.486978
 30
0.0
 10
6.536223
 20
2.387740
 30
0.0
  0
SPLINE
  5
1a4
100
AcDbEntity
  8
Groﬂes_Z
 62
7
100
AcDbSpline
 70
8
 71
3
 72
8
 73
4
 74
0
 40
0
 40
0
 40
0
 40
0
 40
1
 40
1
 40
1
 40
1
 10
6.536223
 20
2.387740
 30
0.0
 10
6.436985
 20
2.288502
 30
0.0
 10
6.302390
 20
2.232751
 30
0.0
 10
6.162046
 20
2.232751
 30
0.0
  0
LWPOLYLINE
  5
1a5
100
AcDbEntity
  8
Groﬂes_Z
 62
7
100
AcDbPolyline
 90
1
 70
1
 10
4.839130
 20
3.555667
 30
0.0
  0
SPLINE
  5
1a6
100
AcDbEntity
  8
Groﬂes_Z
 62
7
100
AcDbSpline
 70
8
 71
3
 72
8
 73
4
 74
0
 40
0
 40
0
 40
0
 40
0
 40
1
 40
1
 40
1
 40
1
 10
4.839130
 20
0.909835
 30
0.0
 10
4.625103
 20
0.909835
 30
0.0
 10
4.432149
 20
1.038762
 30
0.0
 10
4.350245
 20
1.236498
 30
0.0
  0
SPLINE
  5
1a7
100
AcDbEntity
  8
Groﬂes_Z
 62
7
100
AcDbSpline
 70
8
 71
3
 72
8
 73
4
 74
0
 40
0
 40
0
 40
0
 40
0
 40
1
 40
1
 40
1
 40
1
 10
4.350245
 20
1.236498
 30
0.0
 10
4.268340
 20
1.434234
 30
0.0
 10
4.313613
 20
1.661838
 30
0.0
 10
4.464953
 20
1.813179
 30
0.0
  0
SPLINE
  5
1a8
100
AcDbEntity
  8
Groﬂes_Z
 62
7
100
AcDbSpline
 70
8
 71
3
 72
8
 73
4
 74
0
 40
0
 40
0
 40
0
 40
0
 40
1
 40
1
 40
1
 40
1
 10
4.464953
 20
1.813179
 30
0.0
 10
4.616294
 20
1.964519
 30
0.0
 10
4.843898
 20
2.009793
 30
0.0
 10
5.041634
 20
1.927888
 30
0.0
  0
SPLINE
  5
1a9
100
AcDbEntity
  8
Groﬂes_Z
 62
7
100
AcDbSpline
 70
8
 71
3
 72
8
 73
4
 74
0
 40
0
 40
0
 40
0
 40
0
 40
1
 40
1
 40
1
 40
1
 10
5.041634
 20
1.927888
 30
0.0
 10
5.239370
 20
1.845983
 30
0.0
 10
5.368297
 20
1.653030
 30
0.0
 10
5.368297
 20
1.439002
 30
0.0
  0
SPLINE
  5
1aa
100
AcDbEntity
  8
Groﬂes_Z
 62
7
100
AcDbSpline
 70
8
 71
3
 72
8
 73
4
 74
0
 40
0
 40
0
 40
0
 40
0
 40
1
 40
1
 40
1
 40
1
 10
5.368297
 20
1.439002
 30
0.0
 10
5.368297
 20
1.146751
 30
0.0
 10
5.131381
 20
0.909835
 30
0.0
 10
4.839130
 20
0.909835
 30
0.0
  0
LWPOLYLINE
  5
1ab
100
AcDbEntity
  8
Groﬂes_Z
 62
7
100
AcDbPolyline
 90
1
 70
1
 10
6.162046
 20
2.232751
 30
0.0
  0
LWPOLYLINE
  5
1ac
100
AcDbEntity
  8
Groﬂes_Z
 62
7
100
AcDbPolyline
 90
1
 70
1
 10
4.839130
 20
0.909835
 30
0.0
  0
LWPOLYLINE
  5
1ad
100
AcDbEntity
  8
Groﬂes_Z
 62
7
100
AcDbPolyline
 90
1
 70
1
 10
2.722465
 20
6.730665
 30
0.0
  0
LWPOLYLINE
  5
1ae
100
AcDbEntity
  8
Groﬂes_Z
 62
7
100
AcDbPolyline
 90
4
 70
1
 10
45.055734
 20
53.032736
 30
0.0
 10
1.399509
 20
53.032736
 30
0.0
 10
1.399509
 20
0.116103
 30
0.0
 10
45.055734
 20
0.116103
 30
0.0
  0
ENDSEC
  0
SECTION
  2
OBJECTS
  0
DICTIONARY
  5
C
330
0
100
AcDbDictionary
  3
ACAD_GROUP
350
D
  3
ACAD_MLINESTYLE
350
17
  0
DICTIONARY
  5
D
330
C
100
AcDbDictionary
  0
DICTIONARY
  5
1A
330
C
100
AcDbDictionary
  0
DICTIONARY
  5
17
330
C
100
AcDbDictionary
  3
STANDARD
350
18
  0
DICTIONARY
  5
19
330
C
100
AcDbDictionary
  0
ENDSEC
  0
EOF
