G04*
G04 #@! TF.GenerationSoftware,Altium Limited,Altium Designer,23.6.0 (18)*
G04*
G04 Layer_Physical_Order=2*
G04 Layer_Color=16711680*
%FSLAX25Y25*%
%MOIN*%
G70*
G04*
G04 #@! TF.SameCoordinates,F384C1C5-83AD-4AAC-9640-CFCABEBE81EF*
G04*
G04*
G04 #@! TF.FilePolarity,Positive*
G04*
G01*
G75*
%ADD13C,0.03937*%
%ADD30R,0.11024X0.02165*%
%ADD55C,0.02362*%
%ADD56C,0.01181*%
%ADD57C,0.01968*%
%ADD59C,0.01378*%
%ADD61C,0.06000*%
%ADD62C,0.05906*%
%ADD63R,0.05906X0.05906*%
%ADD64C,0.03937*%
%ADD65C,0.01968*%
G36*
X541339Y212598D02*
X360236Y212598D01*
X348425Y224410D01*
Y321850D01*
X338583Y331693D01*
Y333056D01*
X339083Y333122D01*
X339166Y332811D01*
X339443Y332331D01*
X341443Y334331D01*
X339443Y336330D01*
X339166Y335850D01*
X339083Y335540D01*
X338583Y335605D01*
Y374016D01*
X541339Y374016D01*
X541339Y212598D01*
D02*
G37*
G36*
X-36765Y282018D02*
X-41774Y277009D01*
X-48228D01*
Y282480D01*
X-36956D01*
X-36765Y282018D01*
D02*
G37*
G36*
X-22638Y278054D02*
X-27682Y273010D01*
X-39793Y273010D01*
X-54133D01*
X-54485Y273365D01*
X-54470Y275002D01*
X-40943D01*
X-31899Y284046D01*
X-22638D01*
Y278054D01*
D02*
G37*
G36*
X331693Y388779D02*
X331693Y337489D01*
X331543Y337449D01*
X330780Y337009D01*
X330157Y336385D01*
X329716Y335622D01*
X329488Y334771D01*
Y333890D01*
X329716Y333039D01*
X330157Y332276D01*
X330780Y331653D01*
X331543Y331212D01*
X331693Y331172D01*
X331693Y225637D01*
X302966D01*
X288357Y240246D01*
X287575Y240768D01*
X286654Y240952D01*
X231261D01*
X230992Y241221D01*
X230229Y241662D01*
X229378Y241890D01*
X228496D01*
X227645Y241662D01*
X226882Y241221D01*
X226259Y240598D01*
X225819Y239835D01*
X225590Y238984D01*
Y238103D01*
X225819Y237251D01*
X226259Y236488D01*
X226882Y235865D01*
X227645Y235425D01*
X228496Y235197D01*
X229378D01*
X230229Y235425D01*
X230992Y235865D01*
X231261Y236135D01*
X285656D01*
X293444Y228346D01*
X300266Y221525D01*
X301047Y221003D01*
X301969Y220820D01*
X331693D01*
Y140671D01*
X331425Y140599D01*
X330662Y140158D01*
X330039Y139535D01*
X329598Y138772D01*
X329370Y137921D01*
Y137040D01*
X329598Y136189D01*
X330039Y135425D01*
X330662Y134802D01*
X331425Y134362D01*
X331693Y134290D01*
Y4921D01*
X281496D01*
Y224410D01*
X96457Y224409D01*
Y123003D01*
X95995Y122811D01*
X76802Y142004D01*
Y294882D01*
X76802Y294882D01*
X76680Y295496D01*
X76332Y296017D01*
X76332Y296017D01*
X72198Y300151D01*
X71678Y300499D01*
X71063Y300621D01*
X71063Y300621D01*
X16043D01*
X16043Y300621D01*
X15429Y300499D01*
X14908Y300151D01*
X-15957Y269287D01*
X-48228D01*
Y271003D01*
X-39793D01*
X-27682Y271003D01*
D01*
X-27682D01*
X-26913Y271156D01*
X-26262Y271591D01*
X-21219Y276635D01*
X-20784Y277286D01*
X-20631Y278054D01*
Y284046D01*
X-20784Y284814D01*
X-21219Y285465D01*
X-21870Y285900D01*
X-22638Y286053D01*
X-27270D01*
X-27461Y286515D01*
X-23622Y290354D01*
X984D01*
X4921Y294291D01*
Y378937D01*
X14764Y388779D01*
X331693Y388779D01*
D02*
G37*
G36*
X4694Y116443D02*
Y101338D01*
X4232Y101146D01*
X-0Y105378D01*
X-25653D01*
X-31496Y111221D01*
Y112347D01*
X-23674D01*
X-23290Y112423D01*
X-22964Y112641D01*
X-22809Y112795D01*
X-22364D01*
X-21857Y113005D01*
X-21470Y113393D01*
X-21260Y113899D01*
Y114447D01*
X-21470Y114954D01*
X-21857Y115341D01*
X-22364Y115551D01*
X-22912D01*
X-23418Y115341D01*
X-23806Y114954D01*
X-24016Y114447D01*
Y114427D01*
X-24089Y114354D01*
X-43071D01*
Y114827D01*
X-48228D01*
Y118173D01*
X-43071D01*
Y121126D01*
X-43071D01*
Y121323D01*
X-43071D01*
Y124276D01*
X-43071D01*
Y124472D01*
X-43071D01*
Y127425D01*
X-42599Y127493D01*
X-6356D01*
X4694Y116443D01*
D02*
G37*
G36*
X73591Y294217D02*
Y141339D01*
X73591Y141339D01*
X73713Y140724D01*
X74062Y140203D01*
X95638Y118626D01*
Y68191D01*
X95195Y67747D01*
X27350D01*
X27091Y67920D01*
X26476Y68043D01*
X25862Y67920D01*
X25341Y67572D01*
X24993Y67052D01*
X24871Y66437D01*
X24993Y65823D01*
X25341Y65302D01*
X25636Y65006D01*
X26157Y64658D01*
X26772Y64536D01*
X26772Y64536D01*
X95860D01*
X95860Y64536D01*
X95957Y64555D01*
X96457Y64145D01*
Y4921D01*
X11811D01*
X4921Y11811D01*
Y66904D01*
X5421Y67111D01*
X41266Y31266D01*
X41787Y30918D01*
X42402Y30796D01*
X62087D01*
X62363Y30318D01*
X62995Y29686D01*
X63769Y29239D01*
X64632Y29008D01*
X65526D01*
X66389Y29239D01*
X67163Y29686D01*
X67794Y30318D01*
X68241Y31092D01*
X68472Y31955D01*
Y32848D01*
X68241Y33711D01*
X67794Y34485D01*
X67163Y35117D01*
X66389Y35564D01*
X65526Y35795D01*
X64632D01*
X63769Y35564D01*
X62995Y35117D01*
X62363Y34485D01*
X62087Y34007D01*
X43067D01*
X7905Y69169D01*
Y117108D01*
X7783Y117723D01*
X7435Y118244D01*
X7435Y118244D01*
X-4556Y130234D01*
X-5077Y130582D01*
X-5691Y130704D01*
X-5691Y130704D01*
X-48228D01*
Y133921D01*
X-43071D01*
Y136874D01*
X-43071D01*
Y137071D01*
X-43071D01*
Y140024D01*
X-48228D01*
Y143370D01*
X-43071D01*
Y146323D01*
X-43071D01*
Y146520D01*
X-43071D01*
Y149472D01*
X-48228D01*
Y152690D01*
X-23464D01*
X35164Y94061D01*
X35685Y93713D01*
X36299Y93591D01*
X36914Y93713D01*
X37435Y94061D01*
X37783Y94582D01*
X37905Y95197D01*
X37783Y95811D01*
X37435Y96332D01*
X-21664Y155431D01*
X-22185Y155779D01*
X-22799Y155901D01*
X-22799Y155901D01*
X-48228D01*
Y158989D01*
X-19763D01*
X45164Y94061D01*
X45685Y93713D01*
X46299Y93591D01*
X46914Y93713D01*
X47435Y94061D01*
X47783Y94582D01*
X47905Y95197D01*
X47783Y95811D01*
X47435Y96332D01*
X-17963Y161730D01*
X-18484Y162078D01*
X-19098Y162200D01*
X-19098Y162200D01*
X-48228D01*
Y165288D01*
X-16063D01*
X55164Y94061D01*
X55685Y93713D01*
X56299Y93591D01*
X56914Y93713D01*
X57435Y94061D01*
X57783Y94582D01*
X57905Y95197D01*
X57783Y95811D01*
X57435Y96332D01*
X-14262Y168029D01*
X-14783Y168377D01*
X-15398Y168499D01*
X-15398Y168499D01*
X-48228D01*
Y171587D01*
X-12362D01*
X65164Y94061D01*
X65685Y93713D01*
X66299Y93591D01*
X66914Y93713D01*
X67435Y94061D01*
X67783Y94582D01*
X67905Y95197D01*
X67783Y95811D01*
X67435Y96332D01*
X-10561Y174328D01*
X-11082Y174676D01*
X-11697Y174799D01*
X-11697Y174799D01*
X-48228D01*
Y177887D01*
X-8661D01*
X75164Y94061D01*
X75685Y93713D01*
X76299Y93591D01*
X76914Y93713D01*
X77435Y94061D01*
X77783Y94582D01*
X77905Y95197D01*
X77783Y95811D01*
X77435Y96332D01*
X-6861Y180628D01*
X-7382Y180976D01*
X-7996Y181098D01*
X-7996Y181098D01*
X-48228D01*
Y184055D01*
X-35433D01*
X-31496Y187992D01*
Y193898D01*
X-33921Y196322D01*
X-33729Y196784D01*
X-17559D01*
X85164Y94061D01*
X85685Y93713D01*
X86299Y93591D01*
X86914Y93713D01*
X87435Y94061D01*
X87783Y94582D01*
X87905Y95197D01*
X87783Y95811D01*
X87435Y96332D01*
X-15758Y199525D01*
X-16279Y199873D01*
X-16894Y199996D01*
X-16894Y199996D01*
X-48228D01*
Y203213D01*
X-43071D01*
Y203284D01*
X-1531D01*
X37965Y163788D01*
Y161417D01*
X37992Y161282D01*
Y161143D01*
X38045Y161015D01*
X38072Y160880D01*
X38149Y160765D01*
X38202Y160637D01*
X38300Y160539D01*
X38377Y160424D01*
X38492Y160347D01*
X38590Y160249D01*
X38717Y160196D01*
X38832Y160119D01*
X38968Y160092D01*
X39096Y160039D01*
X39234D01*
X39370Y160012D01*
X39506Y160039D01*
X39644D01*
X39772Y160092D01*
X39908Y160119D01*
X40023Y160196D01*
X40151Y160249D01*
X40249Y160347D01*
X40363Y160424D01*
X40440Y160539D01*
X40538Y160637D01*
X40591Y160765D01*
X40668Y160880D01*
X40695Y161015D01*
X40748Y161143D01*
Y161282D01*
X40775Y161417D01*
Y164370D01*
X40668Y164908D01*
X40363Y165364D01*
X45Y205682D01*
X-411Y205987D01*
X-949Y206094D01*
X-43071D01*
Y206165D01*
X-48228D01*
Y209512D01*
X-43071D01*
Y209583D01*
X7918D01*
X37965Y179536D01*
Y177165D01*
X37992Y177030D01*
Y176891D01*
X38045Y176763D01*
X38072Y176628D01*
X38149Y176513D01*
X38202Y176385D01*
X38300Y176287D01*
X38377Y176172D01*
X38492Y176095D01*
X38590Y175997D01*
X38717Y175944D01*
X38832Y175867D01*
X38968Y175840D01*
X39096Y175787D01*
X39234D01*
X39370Y175760D01*
X39506Y175787D01*
X39644D01*
X39772Y175840D01*
X39908Y175867D01*
X40023Y175944D01*
X40151Y175997D01*
X40249Y176095D01*
X40363Y176172D01*
X40440Y176287D01*
X40538Y176385D01*
X40591Y176513D01*
X40668Y176628D01*
X40695Y176763D01*
X40748Y176891D01*
Y177030D01*
X40775Y177165D01*
Y180118D01*
X40668Y180656D01*
X40363Y181112D01*
X9493Y211982D01*
X9038Y212286D01*
X8500Y212393D01*
X-43071D01*
Y212465D01*
X-48228D01*
Y215811D01*
X-43071D01*
Y215882D01*
X18351D01*
X37965Y196268D01*
Y192913D01*
X37992Y192778D01*
Y192639D01*
X38045Y192511D01*
X38072Y192376D01*
X38149Y192261D01*
X38202Y192133D01*
X38300Y192035D01*
X38377Y191920D01*
X38492Y191843D01*
X38590Y191745D01*
X38717Y191692D01*
X38832Y191615D01*
X38968Y191588D01*
X39096Y191535D01*
X39234D01*
X39370Y191508D01*
X39506Y191535D01*
X39644D01*
X39772Y191588D01*
X39908Y191615D01*
X40023Y191692D01*
X40151Y191745D01*
X40249Y191843D01*
X40363Y191920D01*
X40440Y192035D01*
X40538Y192133D01*
X40591Y192261D01*
X40668Y192376D01*
X40695Y192511D01*
X40748Y192639D01*
Y192778D01*
X40775Y192913D01*
Y196850D01*
X40668Y197388D01*
X40363Y197844D01*
X19927Y218281D01*
X19471Y218585D01*
X18933Y218692D01*
X-43071D01*
Y218764D01*
X-48228D01*
Y222110D01*
X-43071D01*
Y222182D01*
X23863D01*
X38377Y207668D01*
X38377Y207668D01*
X38492Y207591D01*
X38590Y207493D01*
X38717Y207440D01*
X38832Y207363D01*
X38968Y207336D01*
X39096Y207283D01*
X39234D01*
X39370Y207257D01*
X39506Y207283D01*
X39644D01*
X39772Y207336D01*
X39908Y207363D01*
X40023Y207440D01*
X40151Y207493D01*
X40249Y207591D01*
X40363Y207668D01*
X40440Y207783D01*
X40538Y207881D01*
X40591Y208009D01*
X40668Y208124D01*
X40695Y208260D01*
X40748Y208387D01*
Y208526D01*
X40775Y208661D01*
X40748Y208797D01*
Y208935D01*
X40695Y209063D01*
X40668Y209199D01*
X40591Y209314D01*
X40538Y209442D01*
X40440Y209540D01*
X40363Y209655D01*
X25438Y224580D01*
X24983Y224885D01*
X24445Y224992D01*
X-43071D01*
Y225063D01*
X-48228D01*
Y228410D01*
X-43071D01*
Y228481D01*
X27406D01*
X32471Y223416D01*
X32927Y223112D01*
X33465Y223005D01*
X39370D01*
X39506Y223031D01*
X39644D01*
X39772Y223084D01*
X39908Y223112D01*
X40023Y223188D01*
X40151Y223241D01*
X40249Y223339D01*
X40363Y223416D01*
X40440Y223531D01*
X40538Y223629D01*
X40591Y223757D01*
X40668Y223872D01*
X40695Y224008D01*
X40748Y224135D01*
Y224274D01*
X40775Y224410D01*
X40748Y224545D01*
Y224683D01*
X40695Y224811D01*
X40668Y224947D01*
X40591Y225062D01*
X40538Y225190D01*
X40440Y225288D01*
X40363Y225403D01*
X40249Y225480D01*
X40151Y225578D01*
X40023Y225631D01*
X39908Y225708D01*
X39772Y225734D01*
X39644Y225787D01*
X39506D01*
X39370Y225814D01*
X34047D01*
X28982Y230879D01*
X28526Y231184D01*
X27988Y231291D01*
X-43071D01*
Y231362D01*
X-48228D01*
Y234709D01*
X-43071D01*
Y234780D01*
X19650D01*
X20187Y234887D01*
X20643Y235192D01*
X24204Y238753D01*
X39370D01*
X39506Y238779D01*
X39644D01*
X39772Y238832D01*
X39908Y238860D01*
X40023Y238936D01*
X40151Y238989D01*
X40249Y239087D01*
X40363Y239164D01*
X40440Y239279D01*
X40538Y239377D01*
X40591Y239505D01*
X40668Y239620D01*
X40695Y239756D01*
X40748Y239883D01*
Y240022D01*
X40775Y240158D01*
X40748Y240293D01*
Y240432D01*
X40695Y240559D01*
X40668Y240695D01*
X40591Y240810D01*
X40538Y240938D01*
X40440Y241036D01*
X40363Y241151D01*
X40249Y241228D01*
X40151Y241326D01*
X40023Y241379D01*
X39908Y241456D01*
X39772Y241482D01*
X39644Y241535D01*
X39506D01*
X39370Y241562D01*
X23622D01*
X23084Y241456D01*
X22629Y241151D01*
X19068Y237590D01*
X-43071D01*
Y237661D01*
X-48228D01*
Y241008D01*
X-43071D01*
Y241079D01*
X6264D01*
X6801Y241186D01*
X7257Y241491D01*
X20267Y254501D01*
X39469D01*
X39604Y254528D01*
X39743D01*
X39870Y254580D01*
X40006Y254608D01*
X40121Y254684D01*
X40249Y254737D01*
X40347Y254835D01*
X40462Y254912D01*
X40539Y255027D01*
X40637Y255125D01*
X40690Y255253D01*
X40767Y255368D01*
X40793Y255504D01*
X40846Y255631D01*
Y255770D01*
X40874Y255906D01*
X40846Y256041D01*
Y256180D01*
X40793Y256307D01*
X40767Y256443D01*
X40690Y256558D01*
X40637Y256686D01*
X40539Y256784D01*
X40462Y256899D01*
X40347Y256976D01*
X40249Y257074D01*
X40121Y257127D01*
X40006Y257204D01*
X39870Y257230D01*
X39743Y257283D01*
X39604D01*
X39469Y257311D01*
X19685D01*
X19147Y257204D01*
X18692Y256899D01*
X5682Y243889D01*
X-43071D01*
Y243961D01*
X-48228D01*
Y247307D01*
X-43071D01*
Y247378D01*
X-3185D01*
X-2647Y247485D01*
X-2192Y247790D01*
X20267Y270249D01*
X39469D01*
X39604Y270276D01*
X39743D01*
X39870Y270328D01*
X40006Y270356D01*
X40121Y270432D01*
X40249Y270485D01*
X40347Y270583D01*
X40462Y270660D01*
X40539Y270775D01*
X40637Y270873D01*
X40690Y271001D01*
X40767Y271116D01*
X40793Y271252D01*
X40846Y271379D01*
Y271518D01*
X40874Y271654D01*
X40846Y271789D01*
Y271928D01*
X40793Y272056D01*
X40767Y272191D01*
X40690Y272306D01*
X40637Y272434D01*
X40539Y272532D01*
X40462Y272647D01*
X40347Y272724D01*
X40249Y272822D01*
X40121Y272875D01*
X40006Y272952D01*
X39870Y272978D01*
X39743Y273031D01*
X39604D01*
X39469Y273059D01*
X19685D01*
X19147Y272952D01*
X18692Y272647D01*
X-3767Y250188D01*
X-43071D01*
Y250260D01*
X-48228D01*
Y253606D01*
X-43071D01*
Y253678D01*
X-12634D01*
X-12096Y253785D01*
X-11641Y254089D01*
X20267Y285997D01*
X39370D01*
X39506Y286024D01*
X39644D01*
X39772Y286077D01*
X39908Y286104D01*
X40023Y286180D01*
X40151Y286233D01*
X40249Y286331D01*
X40363Y286408D01*
X40440Y286523D01*
X40538Y286621D01*
X40591Y286749D01*
X40668Y286864D01*
X40695Y287000D01*
X40748Y287127D01*
Y287266D01*
X40775Y287402D01*
X40748Y287537D01*
Y287676D01*
X40695Y287804D01*
X40668Y287939D01*
X40591Y288054D01*
X40538Y288182D01*
X40440Y288280D01*
X40363Y288395D01*
X40249Y288472D01*
X40151Y288570D01*
X40023Y288623D01*
X39908Y288700D01*
X39772Y288727D01*
X39644Y288779D01*
X39506D01*
X39370Y288807D01*
X19685D01*
X19147Y288700D01*
X18692Y288395D01*
X-13216Y256488D01*
X-43071D01*
Y256559D01*
X-48228D01*
Y259812D01*
X-13386D01*
X-13386Y259812D01*
X-12771Y259934D01*
X-12251Y260282D01*
X19563Y292095D01*
X65870D01*
X68867Y289099D01*
Y137402D01*
X68867Y137402D01*
X68989Y136787D01*
X69337Y136266D01*
X91701Y113902D01*
Y76256D01*
X88705Y73259D01*
X17163D01*
X16756Y73531D01*
X16142Y73653D01*
X15527Y73531D01*
X15006Y73183D01*
X14658Y72662D01*
X14536Y72047D01*
X14658Y71433D01*
X15006Y70912D01*
X15400Y70518D01*
X15400Y70518D01*
X15921Y70170D01*
X16535Y70048D01*
X16535Y70048D01*
X89370D01*
X89370Y70048D01*
X89985Y70170D01*
X90505Y70518D01*
X94442Y74455D01*
X94442Y74455D01*
X94791Y74976D01*
X94913Y75591D01*
X94913Y75591D01*
Y114567D01*
X94791Y115181D01*
X94442Y115702D01*
X94442Y115702D01*
X72078Y138067D01*
Y289764D01*
X71956Y290378D01*
X71608Y290899D01*
X71608Y290899D01*
X67671Y294836D01*
X67150Y295184D01*
X66535Y295306D01*
X66535Y295306D01*
X18898D01*
X18283Y295184D01*
X17762Y294836D01*
X-14051Y263023D01*
X-48228D01*
Y266075D01*
X-15292D01*
X-15291Y266075D01*
X-14677Y266198D01*
X-14156Y266546D01*
X16708Y297410D01*
X70398D01*
X73591Y294217D01*
D02*
G37*
G36*
X272559Y33661D02*
X111142D01*
X111142Y214764D01*
X118780Y222402D01*
X272559Y222402D01*
X272559Y33661D01*
D02*
G37*
G36*
X542520Y18701D02*
X361417D01*
X349606Y30512D01*
Y127953D01*
X344216Y133343D01*
X344374Y133891D01*
X344716Y134089D01*
X342021Y136784D01*
X342717Y137480D01*
X342021Y138176D01*
X344716Y140872D01*
X344236Y141149D01*
X343235Y141417D01*
X342198D01*
X341197Y141149D01*
X340299Y140631D01*
X340226Y140557D01*
X339764Y140748D01*
Y180118D01*
X542520Y180118D01*
X542520Y18701D01*
D02*
G37*
%LPC*%
G36*
X531431Y368472D02*
X530538D01*
X529674Y368241D01*
X528900Y367794D01*
X528269Y367162D01*
X527822Y366389D01*
X527591Y365526D01*
Y364632D01*
X527822Y363769D01*
X528269Y362995D01*
X528576Y362688D01*
Y357487D01*
X523393D01*
Y362688D01*
X523700Y362995D01*
X524147Y363769D01*
X524378Y364632D01*
Y365526D01*
X524147Y366389D01*
X523700Y367162D01*
X523068Y367794D01*
X522294Y368241D01*
X521431Y368472D01*
X520538D01*
X519674Y368241D01*
X518900Y367794D01*
X518269Y367162D01*
X517822Y366389D01*
X517591Y365526D01*
Y364632D01*
X517822Y363769D01*
X518269Y362995D01*
X518576Y362688D01*
Y357487D01*
X437008D01*
X436086Y357304D01*
X435305Y356782D01*
X403021Y324498D01*
X402499Y323717D01*
X402316Y322795D01*
Y322748D01*
X402499Y321827D01*
X403021Y321045D01*
X403803Y320523D01*
X404724Y320340D01*
X405646Y320523D01*
X406427Y321045D01*
X406522Y321186D01*
X438005Y352670D01*
X455904D01*
Y255064D01*
X442061Y241220D01*
X441970D01*
X441464Y241011D01*
X441076Y240623D01*
X440866Y240117D01*
Y239568D01*
X441076Y239062D01*
X441464Y238674D01*
X441970Y238465D01*
X441900Y237994D01*
X408779D01*
X408357Y237910D01*
X407999Y237670D01*
X402408Y232080D01*
X400209D01*
X400144Y232144D01*
X399638Y232354D01*
X399090D01*
X398583Y232144D01*
X398196Y231756D01*
X397986Y231250D01*
Y230701D01*
X398196Y230195D01*
X398583Y229807D01*
X399090Y229598D01*
X399638D01*
X400144Y229807D01*
X400209Y229872D01*
X402865D01*
X403288Y229956D01*
X403646Y230195D01*
X409237Y235786D01*
X419187D01*
X419394Y235286D01*
X416196Y232088D01*
X413069D01*
X413005Y232152D01*
X412499Y232362D01*
X411950D01*
X411444Y232152D01*
X411056Y231765D01*
X410847Y231258D01*
Y230710D01*
X411056Y230204D01*
X411444Y229816D01*
X411950Y229606D01*
X412499D01*
X413005Y229816D01*
X413069Y229880D01*
X416653D01*
X417076Y229964D01*
X417434Y230204D01*
X421048Y233817D01*
X425762D01*
X425888Y233616D01*
X425951Y233317D01*
X424996Y232362D01*
X424746D01*
X424239Y232152D01*
X423851Y231765D01*
X423642Y231258D01*
Y230710D01*
X423851Y230204D01*
X424239Y229816D01*
X424746Y229606D01*
X425294D01*
X425800Y229816D01*
X426188Y230204D01*
X426349Y230593D01*
X427265Y231508D01*
X428681D01*
X429104Y231592D01*
X429462Y231832D01*
X429577Y231947D01*
X436476D01*
X436810Y231447D01*
X436732Y231258D01*
Y230710D01*
X436942Y230204D01*
X437330Y229816D01*
X437836Y229606D01*
X438384D01*
X438891Y229816D01*
X438955Y229880D01*
X455166D01*
X458645Y226402D01*
X458638Y226365D01*
X458760Y225750D01*
X459108Y225229D01*
X459629Y224881D01*
X460243Y224759D01*
X472543D01*
X472543Y224759D01*
X473158Y224881D01*
X473678Y225229D01*
X473807Y225358D01*
X474155Y225879D01*
X474277Y226493D01*
X474155Y227108D01*
X473807Y227629D01*
X473286Y227977D01*
X472672Y228099D01*
X472057Y227977D01*
X472048Y227970D01*
X460243D01*
X460206Y227963D01*
X456722Y231447D01*
X456929Y231947D01*
X458960D01*
X459108Y231726D01*
X459629Y231378D01*
X460243Y231256D01*
X472543D01*
X472543Y231256D01*
X473158Y231378D01*
X473678Y231726D01*
X473807Y231855D01*
X474155Y232376D01*
X474277Y232990D01*
X474155Y233605D01*
X473807Y234126D01*
X473286Y234474D01*
X472672Y234596D01*
X472057Y234474D01*
X472048Y234467D01*
X460243D01*
X459629Y234345D01*
X459344Y234155D01*
X457254D01*
X457062Y234617D01*
X460206Y237761D01*
X460243Y237753D01*
X460675Y237839D01*
X472629D01*
X472629Y237839D01*
X473244Y237961D01*
X473764Y238309D01*
X473807Y238352D01*
X474155Y238873D01*
X474277Y239487D01*
X474155Y240102D01*
X473807Y240623D01*
X473286Y240971D01*
X472672Y241093D01*
X472457Y241050D01*
X460329D01*
X460329Y241050D01*
X459715Y240928D01*
X459194Y240580D01*
X459108Y240494D01*
X458760Y239973D01*
X458638Y239359D01*
X458645Y239322D01*
X455348Y236025D01*
X452681D01*
X452473Y236525D01*
X460206Y244258D01*
X460243Y244250D01*
X460675Y244336D01*
X472629D01*
X472629Y244336D01*
X473244Y244458D01*
X473764Y244806D01*
X473807Y244849D01*
X474155Y245370D01*
X474277Y245985D01*
X474155Y246599D01*
X473807Y247120D01*
X473286Y247468D01*
X472672Y247590D01*
X472457Y247548D01*
X460329D01*
X460329Y247548D01*
X459715Y247425D01*
X459194Y247077D01*
X459108Y246991D01*
X458760Y246470D01*
X458638Y245856D01*
X458645Y245819D01*
X450820Y237994D01*
X442588D01*
X442518Y238465D01*
X443025Y238674D01*
X443412Y239062D01*
X443622Y239568D01*
Y239659D01*
X457788Y253826D01*
X458028Y254184D01*
X458112Y254606D01*
Y352670D01*
X518576D01*
Y347470D01*
X518269Y347163D01*
X517822Y346389D01*
X517591Y345526D01*
Y344632D01*
X517822Y343769D01*
X518269Y342995D01*
X518576Y342688D01*
Y337470D01*
X518269Y337162D01*
X517822Y336389D01*
X517591Y335525D01*
Y334632D01*
X517822Y333769D01*
X518269Y332995D01*
X518576Y332688D01*
Y327470D01*
X518269Y327163D01*
X517822Y326389D01*
X517591Y325525D01*
Y324632D01*
X517822Y323769D01*
X518269Y322995D01*
X518900Y322363D01*
X519674Y321916D01*
X520538Y321685D01*
X521431D01*
X522294Y321916D01*
X523068Y322363D01*
X523700Y322995D01*
X524147Y323769D01*
X524378Y324632D01*
Y325525D01*
X524147Y326389D01*
X523700Y327163D01*
X523393Y327470D01*
Y332688D01*
X523700Y332995D01*
X524147Y333769D01*
X524378Y334632D01*
Y335525D01*
X524147Y336389D01*
X523700Y337162D01*
X523393Y337470D01*
Y342688D01*
X523700Y342995D01*
X524147Y343769D01*
X524378Y344632D01*
Y345526D01*
X524147Y346389D01*
X523700Y347163D01*
X523393Y347470D01*
Y352670D01*
X528576D01*
Y347470D01*
X528269Y347163D01*
X527822Y346389D01*
X527591Y345526D01*
Y344632D01*
X527822Y343769D01*
X528269Y342995D01*
X528576Y342688D01*
Y337470D01*
X528269Y337162D01*
X527822Y336389D01*
X527591Y335525D01*
Y334632D01*
X527822Y333769D01*
X528269Y332995D01*
X528576Y332688D01*
Y327470D01*
X528269Y327163D01*
X527822Y326389D01*
X527591Y325525D01*
Y324632D01*
X527822Y323769D01*
X528269Y322995D01*
X528900Y322363D01*
X529674Y321916D01*
X530538Y321685D01*
X531431D01*
X532294Y321916D01*
X533068Y322363D01*
X533700Y322995D01*
X534147Y323769D01*
X534378Y324632D01*
Y325525D01*
X534147Y326389D01*
X533700Y327163D01*
X533393Y327470D01*
Y332688D01*
X533700Y332995D01*
X534147Y333769D01*
X534378Y334632D01*
Y335525D01*
X534147Y336389D01*
X533700Y337162D01*
X533393Y337470D01*
Y342688D01*
X533700Y342995D01*
X534147Y343769D01*
X534378Y344632D01*
Y345526D01*
X534147Y346389D01*
X533700Y347163D01*
X533393Y347470D01*
Y352688D01*
X533700Y352995D01*
X534147Y353769D01*
X534378Y354632D01*
Y355525D01*
X534147Y356389D01*
X533700Y357162D01*
X533393Y357470D01*
Y362688D01*
X533700Y362995D01*
X534147Y363769D01*
X534378Y364632D01*
Y365526D01*
X534147Y366389D01*
X533700Y367162D01*
X533068Y367794D01*
X532294Y368241D01*
X531431Y368472D01*
D02*
G37*
G36*
X472672Y351543D02*
X472057Y351421D01*
X472048Y351415D01*
X460243D01*
X459629Y351292D01*
X459108Y350944D01*
X458760Y350424D01*
X458638Y349809D01*
X458760Y349195D01*
X459108Y348674D01*
X459629Y348326D01*
X460243Y348203D01*
X472543D01*
X472543Y348203D01*
X473158Y348326D01*
X473678Y348674D01*
X473807Y348802D01*
X474155Y349323D01*
X474277Y349938D01*
X474155Y350552D01*
X473807Y351073D01*
X473286Y351421D01*
X472672Y351543D01*
D02*
G37*
G36*
X472672Y345046D02*
X472057Y344924D01*
X472048Y344918D01*
X460243D01*
X459629Y344795D01*
X459108Y344447D01*
X458760Y343927D01*
X458638Y343312D01*
X458760Y342698D01*
X459108Y342177D01*
X459629Y341829D01*
X460243Y341706D01*
X472543D01*
X472543Y341706D01*
X473158Y341829D01*
X473679Y342177D01*
X473807Y342305D01*
X474155Y342826D01*
X474277Y343441D01*
X474155Y344055D01*
X473807Y344576D01*
X473286Y344924D01*
X472672Y345046D01*
D02*
G37*
G36*
X343353Y338268D02*
X342316D01*
X341315Y337999D01*
X340835Y337722D01*
X342835Y335723D01*
X344834Y337722D01*
X344354Y337999D01*
X343353Y338268D01*
D02*
G37*
G36*
X472672Y338549D02*
X472057Y338427D01*
X472048Y338421D01*
X460243D01*
X459629Y338298D01*
X459108Y337950D01*
X458760Y337429D01*
X458638Y336815D01*
X458760Y336200D01*
X459108Y335680D01*
X459629Y335331D01*
X460243Y335209D01*
X472543D01*
X472543Y335209D01*
X473158Y335331D01*
X473678Y335680D01*
X473807Y335808D01*
X474155Y336329D01*
X474277Y336944D01*
X474155Y337558D01*
X473807Y338079D01*
X473286Y338427D01*
X472672Y338549D01*
D02*
G37*
G36*
X346226Y336330D02*
X344227Y334331D01*
X346226Y332331D01*
X346503Y332811D01*
X346772Y333812D01*
Y334849D01*
X346503Y335850D01*
X346226Y336330D01*
D02*
G37*
G36*
X353275Y337677D02*
X352394D01*
X351543Y337449D01*
X350780Y337009D01*
X350157Y336385D01*
X349716Y335622D01*
X349488Y334771D01*
Y333890D01*
X349716Y333039D01*
X350157Y332276D01*
X350780Y331653D01*
X351543Y331212D01*
X352394Y330984D01*
X353275D01*
X354126Y331212D01*
X354889Y331653D01*
X355512Y332276D01*
X355953Y333039D01*
X356181Y333890D01*
Y334771D01*
X355953Y335622D01*
X355512Y336385D01*
X354889Y337009D01*
X354126Y337449D01*
X353275Y337677D01*
D02*
G37*
G36*
X342835Y332939D02*
X340835Y330939D01*
X341315Y330662D01*
X342316Y330394D01*
X343353D01*
X344354Y330662D01*
X344834Y330939D01*
X342835Y332939D01*
D02*
G37*
G36*
X472770Y332052D02*
X472156Y331930D01*
X472146Y331924D01*
X460342D01*
X459727Y331801D01*
X459206Y331453D01*
X458858Y330932D01*
X458736Y330318D01*
X458858Y329703D01*
X459206Y329183D01*
X459727Y328834D01*
X460342Y328712D01*
X472641D01*
X472642Y328712D01*
X473256Y328834D01*
X473777Y329183D01*
X473906Y329311D01*
X474254Y329832D01*
X474376Y330446D01*
X474254Y331061D01*
X473906Y331582D01*
X473385Y331930D01*
X472770Y332052D01*
D02*
G37*
G36*
X472672Y325555D02*
X472057Y325433D01*
X472048Y325426D01*
X460243D01*
X459629Y325304D01*
X459108Y324956D01*
X458760Y324435D01*
X458638Y323821D01*
X458760Y323206D01*
X459108Y322685D01*
X459629Y322337D01*
X460243Y322215D01*
X472543D01*
X472543Y322215D01*
X473158Y322337D01*
X473678Y322685D01*
X473807Y322814D01*
X474155Y323335D01*
X474277Y323949D01*
X474155Y324564D01*
X473807Y325085D01*
X473286Y325433D01*
X472672Y325555D01*
D02*
G37*
G36*
Y319058D02*
X472057Y318936D01*
X472048Y318929D01*
X460243D01*
X459629Y318807D01*
X459108Y318459D01*
X458760Y317938D01*
X458638Y317324D01*
X458760Y316709D01*
X459108Y316188D01*
X459629Y315840D01*
X460243Y315718D01*
X472543D01*
X472543Y315718D01*
X473158Y315840D01*
X473678Y316188D01*
X473807Y316317D01*
X474155Y316838D01*
X474277Y317452D01*
X474155Y318067D01*
X473807Y318588D01*
X473286Y318936D01*
X472672Y319058D01*
D02*
G37*
G36*
X485263Y351304D02*
X484715D01*
X484208Y351094D01*
X483820Y350706D01*
X483611Y350200D01*
Y349652D01*
X483820Y349145D01*
X484208Y348758D01*
X484715Y348548D01*
X485263D01*
X485651Y348709D01*
X485793D01*
X517929Y316573D01*
X517822Y316389D01*
X517591Y315526D01*
Y314632D01*
X517822Y313769D01*
X518082Y313319D01*
X517682Y313012D01*
X489614Y341079D01*
Y341661D01*
X489530Y342084D01*
X489291Y342442D01*
X487637Y344096D01*
X487279Y344336D01*
X486856Y344420D01*
X485946D01*
X485769Y344597D01*
X485263Y344807D01*
X484715D01*
X484208Y344597D01*
X483820Y344209D01*
X483611Y343703D01*
Y343155D01*
X483820Y342648D01*
X484208Y342261D01*
X484715Y342051D01*
X485263D01*
X485651Y342212D01*
X486399D01*
X487407Y341204D01*
Y340622D01*
X487491Y340199D01*
X487730Y339841D01*
X518195Y309376D01*
X518553Y309137D01*
X518975Y309053D01*
X526062D01*
X526485Y309137D01*
X526843Y309376D01*
X529490Y312023D01*
X529674Y311916D01*
X530538Y311685D01*
X531431D01*
X532294Y311916D01*
X533068Y312363D01*
X533700Y312995D01*
X534147Y313769D01*
X534378Y314632D01*
Y315526D01*
X534147Y316389D01*
X533700Y317162D01*
X533068Y317794D01*
X532294Y318241D01*
X531431Y318472D01*
X530538D01*
X529674Y318241D01*
X528900Y317794D01*
X528269Y317162D01*
X527822Y316389D01*
X527591Y315526D01*
Y314632D01*
X527822Y313769D01*
X527928Y313584D01*
X525605Y311261D01*
X521780D01*
X521714Y311761D01*
X522294Y311916D01*
X523068Y312363D01*
X523700Y312995D01*
X524147Y313769D01*
X524378Y314632D01*
Y315526D01*
X524147Y316389D01*
X523700Y317162D01*
X523068Y317794D01*
X522294Y318241D01*
X521431Y318472D01*
X520538D01*
X519674Y318241D01*
X519490Y318134D01*
X487031Y350593D01*
X486673Y350833D01*
X486250Y350917D01*
X485946D01*
X485769Y351094D01*
X485263Y351304D01*
D02*
G37*
G36*
X472672Y312561D02*
X472057Y312439D01*
X472048Y312432D01*
X460243D01*
X459629Y312310D01*
X459108Y311962D01*
X458760Y311441D01*
X458638Y310826D01*
X458760Y310212D01*
X459108Y309691D01*
X459629Y309343D01*
X460243Y309221D01*
X472543D01*
X472543Y309221D01*
X473158Y309343D01*
X473678Y309691D01*
X473807Y309820D01*
X474155Y310341D01*
X474277Y310955D01*
X474155Y311570D01*
X473807Y312090D01*
X473286Y312439D01*
X472672Y312561D01*
D02*
G37*
G36*
X472672Y306064D02*
X472057Y305942D01*
X472048Y305935D01*
X460243D01*
X459629Y305813D01*
X459108Y305465D01*
X458760Y304944D01*
X458638Y304330D01*
X458760Y303715D01*
X459108Y303194D01*
X459629Y302846D01*
X460243Y302724D01*
X472543D01*
X472543Y302724D01*
X473158Y302846D01*
X473679Y303194D01*
X473807Y303323D01*
X474155Y303844D01*
X474277Y304458D01*
X474155Y305073D01*
X473807Y305594D01*
X473286Y305942D01*
X472672Y306064D01*
D02*
G37*
G36*
X485263Y338310D02*
X484715D01*
X484208Y338100D01*
X483820Y337712D01*
X483611Y337206D01*
Y336658D01*
X483820Y336151D01*
X484208Y335764D01*
X484715Y335554D01*
X484965D01*
X486132Y334387D01*
X486490Y334148D01*
X486913Y334064D01*
X488160D01*
X517059Y305165D01*
X517417Y304925D01*
X517591Y304891D01*
Y304632D01*
X517822Y303769D01*
X518269Y302995D01*
X518664Y302600D01*
X518457Y302100D01*
X514884D01*
X486367Y330618D01*
Y330709D01*
X486157Y331215D01*
X485769Y331603D01*
X485263Y331813D01*
X484715D01*
X484208Y331603D01*
X483820Y331215D01*
X483611Y330709D01*
Y330160D01*
X483820Y329654D01*
X484208Y329266D01*
X484715Y329057D01*
X484805D01*
X488321Y325541D01*
X488113Y325041D01*
X485833D01*
X485769Y325106D01*
X485263Y325315D01*
X484715D01*
X484208Y325106D01*
X483820Y324718D01*
X483611Y324212D01*
Y323663D01*
X483820Y323157D01*
X484208Y322769D01*
X484715Y322560D01*
X485263D01*
X485769Y322769D01*
X485833Y322834D01*
X488016D01*
X516206Y294643D01*
X516564Y294404D01*
X516987Y294320D01*
X517674D01*
X517822Y293769D01*
X518269Y292995D01*
X518664Y292600D01*
X518457Y292100D01*
X511890D01*
X486367Y317624D01*
Y317715D01*
X486157Y318221D01*
X485769Y318609D01*
X485263Y318818D01*
X484715D01*
X484208Y318609D01*
X483820Y318221D01*
X483611Y317715D01*
Y317166D01*
X483820Y316660D01*
X484208Y316272D01*
X484715Y316062D01*
X484805D01*
X510652Y290215D01*
X511011Y289976D01*
X511433Y289892D01*
X526902D01*
X527324Y289976D01*
X527682Y290215D01*
X529490Y292023D01*
X529674Y291916D01*
X530538Y291685D01*
X531431D01*
X532294Y291916D01*
X533068Y292363D01*
X533700Y292995D01*
X534147Y293769D01*
X534378Y294632D01*
Y295526D01*
X534147Y296389D01*
X533700Y297163D01*
X533068Y297794D01*
X532294Y298241D01*
X531431Y298472D01*
X530538D01*
X529674Y298241D01*
X528900Y297794D01*
X528269Y297163D01*
X527822Y296389D01*
X527591Y295526D01*
Y294632D01*
X527822Y293769D01*
X527928Y293584D01*
X526444Y292100D01*
X523512D01*
X523305Y292600D01*
X523700Y292995D01*
X524147Y293769D01*
X524378Y294632D01*
Y295526D01*
X524147Y296389D01*
X523700Y297163D01*
X523068Y297794D01*
X522294Y298241D01*
X521431Y298472D01*
X520538D01*
X519674Y298241D01*
X518900Y297794D01*
X518269Y297163D01*
X517927Y296570D01*
X517437Y296535D01*
X514580Y299392D01*
X514787Y299892D01*
X526902D01*
X527324Y299976D01*
X527682Y300216D01*
X529490Y302023D01*
X529674Y301916D01*
X530538Y301685D01*
X531431D01*
X532294Y301916D01*
X533068Y302363D01*
X533700Y302995D01*
X534147Y303769D01*
X534378Y304632D01*
Y305525D01*
X534147Y306389D01*
X533700Y307162D01*
X533068Y307794D01*
X532294Y308241D01*
X531431Y308472D01*
X530538D01*
X529674Y308241D01*
X528900Y307794D01*
X528269Y307162D01*
X527822Y306389D01*
X527591Y305525D01*
Y304632D01*
X527822Y303769D01*
X527928Y303584D01*
X526444Y302100D01*
X523512D01*
X523305Y302600D01*
X523700Y302995D01*
X524147Y303769D01*
X524378Y304632D01*
Y305525D01*
X524147Y306389D01*
X523700Y307162D01*
X523068Y307794D01*
X522294Y308241D01*
X521431Y308472D01*
X520538D01*
X519674Y308241D01*
X518900Y307794D01*
X518269Y307162D01*
X518193Y307153D01*
X489397Y335948D01*
X489039Y336187D01*
X488617Y336271D01*
X487370D01*
X486318Y337323D01*
X486157Y337712D01*
X485769Y338100D01*
X485263Y338310D01*
D02*
G37*
G36*
X472672Y299567D02*
X472057Y299445D01*
X472048Y299438D01*
X460243D01*
X459629Y299316D01*
X459108Y298968D01*
X458760Y298447D01*
X458638Y297832D01*
X458760Y297218D01*
X459108Y296697D01*
X459629Y296349D01*
X460243Y296227D01*
X472543D01*
X472543Y296227D01*
X473158Y296349D01*
X473678Y296697D01*
X473807Y296826D01*
X474155Y297347D01*
X474277Y297961D01*
X474155Y298575D01*
X473807Y299096D01*
X473286Y299445D01*
X472672Y299567D01*
D02*
G37*
G36*
Y293070D02*
X472057Y292947D01*
X472048Y292941D01*
X460243D01*
X459629Y292819D01*
X459108Y292471D01*
X458760Y291950D01*
X458638Y291335D01*
X458760Y290721D01*
X459108Y290200D01*
X459629Y289852D01*
X460243Y289730D01*
X472543D01*
X472543Y289730D01*
X473158Y289852D01*
X473678Y290200D01*
X473807Y290329D01*
X474155Y290849D01*
X474277Y291464D01*
X474155Y292078D01*
X473807Y292599D01*
X473286Y292947D01*
X472672Y293070D01*
D02*
G37*
G36*
X397246Y303968D02*
X397246Y303968D01*
X366535D01*
X365921Y303846D01*
X365400Y303498D01*
X365052Y302977D01*
X364930Y302362D01*
X365052Y301748D01*
X365400Y301227D01*
X365921Y300879D01*
X366535Y300757D01*
X396581D01*
X405009Y292329D01*
Y279332D01*
X390632D01*
X390469Y279495D01*
X390263Y279993D01*
X389875Y280381D01*
X389369Y280591D01*
X389136D01*
X386303Y283423D01*
X386167Y283514D01*
X386319Y284014D01*
X395412D01*
X395412Y284014D01*
X400061D01*
X400125Y283950D01*
X400631Y283740D01*
X401180D01*
X401686Y283950D01*
X402074Y284338D01*
X402283Y284844D01*
Y285392D01*
X402074Y285899D01*
X401686Y286286D01*
X401180Y286496D01*
X400631D01*
X400125Y286286D01*
X400061Y286222D01*
X395412D01*
X395412Y286222D01*
X388990D01*
X388861Y286409D01*
X388735Y286722D01*
X388911Y287147D01*
Y287695D01*
X388702Y288202D01*
X388468Y288436D01*
X388675Y288935D01*
X400061D01*
X400125Y288871D01*
X400631Y288661D01*
X401180D01*
X401686Y288871D01*
X402074Y289259D01*
X402283Y289765D01*
Y290314D01*
X402074Y290820D01*
X401686Y291208D01*
X401180Y291417D01*
X400631D01*
X400125Y291208D01*
X400061Y291143D01*
X373346D01*
X372924Y291059D01*
X372566Y290820D01*
X364890Y283144D01*
X364651Y282786D01*
X364567Y282363D01*
Y279565D01*
X364502Y279501D01*
X364293Y278995D01*
Y278446D01*
X364502Y277940D01*
X364890Y277552D01*
X365396Y277343D01*
X365945D01*
X366451Y277552D01*
X366839Y277940D01*
X367048Y278446D01*
Y278995D01*
X366839Y279501D01*
X366774Y279565D01*
Y281906D01*
X373804Y288935D01*
X374896D01*
X375103Y288436D01*
X369859Y283192D01*
X369620Y282834D01*
X369536Y282411D01*
Y279319D01*
X369373Y279156D01*
X369163Y278650D01*
Y278102D01*
X369373Y277595D01*
X369761Y277208D01*
X370267Y276998D01*
X370815D01*
X371322Y277208D01*
X371709Y277595D01*
X371919Y278102D01*
Y278650D01*
X371744Y279074D01*
Y281954D01*
X376560Y286770D01*
X382882D01*
X382939Y286722D01*
X382779Y286289D01*
X382705Y286222D01*
X377864D01*
X377442Y286138D01*
X377084Y285899D01*
X373550Y282365D01*
X373311Y282007D01*
X373227Y281585D01*
Y273168D01*
X373163Y273103D01*
X372953Y272597D01*
Y272049D01*
X373163Y271542D01*
X373550Y271155D01*
X374057Y270945D01*
X374605D01*
X375111Y271155D01*
X375499Y271542D01*
X375709Y272049D01*
Y272597D01*
X375499Y273103D01*
X375435Y273168D01*
Y281127D01*
X376510Y282203D01*
X377100Y282086D01*
X377178Y281897D01*
X377566Y281509D01*
X378072Y281299D01*
X378621D01*
X379127Y281509D01*
X379328Y281710D01*
X385177D01*
X387717Y279171D01*
Y278939D01*
X387926Y278432D01*
X388314Y278044D01*
X388820Y277835D01*
X389007D01*
X389394Y277448D01*
X389752Y277208D01*
X390175Y277125D01*
X405009D01*
Y261248D01*
X405131Y260634D01*
X405479Y260113D01*
X406000Y259765D01*
X406614Y259643D01*
X407229Y259765D01*
X407750Y260113D01*
X408098Y260634D01*
X408220Y261248D01*
Y278228D01*
Y292994D01*
X408098Y293608D01*
X407750Y294129D01*
X407750Y294129D01*
X398381Y303498D01*
X397860Y303846D01*
X397758Y303866D01*
X397246Y303968D01*
D02*
G37*
G36*
X472672Y286573D02*
X472057Y286450D01*
X472048Y286444D01*
X460243D01*
X459629Y286322D01*
X459108Y285974D01*
X458760Y285453D01*
X458638Y284838D01*
X458760Y284224D01*
X459108Y283703D01*
X459629Y283355D01*
X460243Y283233D01*
X472543D01*
X472543Y283233D01*
X473158Y283355D01*
X473678Y283703D01*
X473807Y283832D01*
X474155Y284352D01*
X474277Y284967D01*
X474155Y285581D01*
X473807Y286102D01*
X473286Y286450D01*
X472672Y286573D01*
D02*
G37*
G36*
X485263Y312321D02*
X484715D01*
X484208Y312112D01*
X483820Y311724D01*
X483611Y311217D01*
Y310669D01*
X483820Y310163D01*
X484208Y309775D01*
X484715Y309565D01*
X484805D01*
X510073Y284298D01*
X510431Y284059D01*
X510853Y283975D01*
X517767D01*
X517822Y283769D01*
X518269Y282995D01*
X518664Y282600D01*
X518457Y282100D01*
X508896D01*
X486367Y304629D01*
Y304720D01*
X486157Y305227D01*
X485769Y305614D01*
X485263Y305824D01*
X484715D01*
X484208Y305614D01*
X483820Y305227D01*
X483611Y304720D01*
Y304172D01*
X483820Y303666D01*
X484208Y303278D01*
X484715Y303068D01*
X484805D01*
X507658Y280216D01*
X508016Y279976D01*
X508439Y279892D01*
X526902D01*
X527324Y279976D01*
X527682Y280216D01*
X529490Y282023D01*
X529674Y281916D01*
X530538Y281685D01*
X531431D01*
X532294Y281916D01*
X533068Y282363D01*
X533700Y282995D01*
X534147Y283769D01*
X534378Y284632D01*
Y285525D01*
X534147Y286389D01*
X533700Y287162D01*
X533068Y287794D01*
X532294Y288241D01*
X531431Y288472D01*
X530538D01*
X529674Y288241D01*
X528900Y287794D01*
X528269Y287162D01*
X527822Y286389D01*
X527591Y285525D01*
Y284632D01*
X527822Y283769D01*
X527928Y283584D01*
X526444Y282100D01*
X523512D01*
X523305Y282600D01*
X523700Y282995D01*
X524147Y283769D01*
X524378Y284632D01*
Y285525D01*
X524147Y286389D01*
X523700Y287162D01*
X523068Y287794D01*
X522294Y288241D01*
X521431Y288472D01*
X520538D01*
X519674Y288241D01*
X518900Y287794D01*
X518269Y287162D01*
X517822Y286389D01*
X517767Y286183D01*
X511310D01*
X486367Y311127D01*
Y311217D01*
X486157Y311724D01*
X485769Y312112D01*
X485263Y312321D01*
D02*
G37*
G36*
X472672Y280075D02*
X472057Y279953D01*
X472048Y279947D01*
X460243D01*
X459629Y279825D01*
X459108Y279476D01*
X458760Y278956D01*
X458638Y278341D01*
X458760Y277727D01*
X459108Y277206D01*
X459629Y276858D01*
X460243Y276735D01*
X472543D01*
X472543Y276735D01*
X473158Y276858D01*
X473678Y277206D01*
X473807Y277334D01*
X474155Y277855D01*
X474277Y278470D01*
X474155Y279084D01*
X473807Y279605D01*
X473286Y279953D01*
X472672Y280075D01*
D02*
G37*
G36*
X485263Y299327D02*
X484715D01*
X484208Y299117D01*
X483820Y298730D01*
X483611Y298223D01*
Y297675D01*
X483820Y297169D01*
X484208Y296781D01*
X484715Y296571D01*
X484805D01*
X507079Y274298D01*
X507437Y274059D01*
X507859Y273975D01*
X517767D01*
X517822Y273769D01*
X518269Y272995D01*
X518664Y272600D01*
X518457Y272100D01*
X505902D01*
X486367Y291635D01*
Y291726D01*
X486157Y292233D01*
X485769Y292620D01*
X485263Y292830D01*
X484715D01*
X484208Y292620D01*
X483820Y292233D01*
X483611Y291726D01*
Y291178D01*
X483820Y290672D01*
X484208Y290284D01*
X484715Y290074D01*
X484805D01*
X504664Y270216D01*
X505022Y269976D01*
X505445Y269892D01*
X526902D01*
X527324Y269976D01*
X527682Y270216D01*
X529490Y272023D01*
X529674Y271916D01*
X530538Y271685D01*
X531431D01*
X532294Y271916D01*
X533068Y272363D01*
X533700Y272995D01*
X534147Y273769D01*
X534378Y274632D01*
Y275525D01*
X534147Y276389D01*
X533700Y277163D01*
X533068Y277794D01*
X532294Y278241D01*
X531431Y278472D01*
X530538D01*
X529674Y278241D01*
X528900Y277794D01*
X528269Y277163D01*
X527822Y276389D01*
X527591Y275525D01*
Y274632D01*
X527822Y273769D01*
X527928Y273584D01*
X526444Y272100D01*
X523512D01*
X523305Y272600D01*
X523700Y272995D01*
X524147Y273769D01*
X524378Y274632D01*
Y275525D01*
X524147Y276389D01*
X523700Y277163D01*
X523068Y277794D01*
X522294Y278241D01*
X521431Y278472D01*
X520538D01*
X519674Y278241D01*
X518900Y277794D01*
X518269Y277163D01*
X517822Y276389D01*
X517767Y276183D01*
X508316D01*
X486367Y298132D01*
Y298223D01*
X486157Y298730D01*
X485769Y299117D01*
X485263Y299327D01*
D02*
G37*
G36*
X472672Y273578D02*
X472057Y273456D01*
X472048Y273450D01*
X460243D01*
X459629Y273328D01*
X459108Y272980D01*
X458760Y272459D01*
X458638Y271844D01*
X458760Y271230D01*
X459108Y270709D01*
X459629Y270361D01*
X460243Y270238D01*
X472543D01*
X472543Y270238D01*
X473158Y270361D01*
X473678Y270709D01*
X473807Y270837D01*
X474155Y271358D01*
X474277Y271973D01*
X474155Y272587D01*
X473807Y273108D01*
X473286Y273456D01*
X472672Y273578D01*
D02*
G37*
G36*
X472672Y267081D02*
X472457Y267039D01*
X460329D01*
X460329Y267039D01*
X459715Y266916D01*
X459194Y266568D01*
X459108Y266482D01*
X458760Y265962D01*
X458638Y265347D01*
X458760Y264733D01*
X459108Y264212D01*
X459629Y263864D01*
X460243Y263741D01*
X460675Y263827D01*
X472629D01*
X472629Y263827D01*
X473244Y263950D01*
X473765Y264298D01*
X473807Y264340D01*
X474155Y264861D01*
X474277Y265476D01*
X474155Y266090D01*
X473807Y266611D01*
X473286Y266959D01*
X472672Y267081D01*
D02*
G37*
G36*
X485263Y286333D02*
X484715D01*
X484208Y286123D01*
X483820Y285736D01*
X483611Y285229D01*
Y284681D01*
X483820Y284175D01*
X484208Y283787D01*
X484715Y283577D01*
X484805D01*
X504084Y264298D01*
X504443Y264059D01*
X504865Y263975D01*
X517767D01*
X517822Y263769D01*
X518269Y262995D01*
X518664Y262600D01*
X518457Y262100D01*
X502908D01*
X486367Y278641D01*
Y278732D01*
X486157Y279239D01*
X485769Y279626D01*
X485263Y279836D01*
X484715D01*
X484208Y279626D01*
X483820Y279239D01*
X483611Y278732D01*
Y278184D01*
X483820Y277677D01*
X484208Y277290D01*
X484715Y277080D01*
X484805D01*
X501670Y260215D01*
X502028Y259976D01*
X502451Y259892D01*
X526902D01*
X527324Y259976D01*
X527682Y260215D01*
X529490Y262023D01*
X529674Y261916D01*
X530538Y261685D01*
X531431D01*
X532294Y261916D01*
X533068Y262363D01*
X533700Y262995D01*
X534147Y263769D01*
X534378Y264632D01*
Y265526D01*
X534147Y266389D01*
X533700Y267162D01*
X533068Y267794D01*
X532294Y268241D01*
X531431Y268472D01*
X530538D01*
X529674Y268241D01*
X528900Y267794D01*
X528269Y267162D01*
X527822Y266389D01*
X527591Y265526D01*
Y264632D01*
X527822Y263769D01*
X527928Y263584D01*
X526444Y262100D01*
X523512D01*
X523305Y262600D01*
X523700Y262995D01*
X524147Y263769D01*
X524378Y264632D01*
Y265526D01*
X524147Y266389D01*
X523700Y267162D01*
X523068Y267794D01*
X522294Y268241D01*
X521431Y268472D01*
X520538D01*
X519674Y268241D01*
X518900Y267794D01*
X518269Y267162D01*
X517822Y266389D01*
X517767Y266183D01*
X505322D01*
X486367Y285138D01*
Y285229D01*
X486157Y285736D01*
X485769Y286123D01*
X485263Y286333D01*
D02*
G37*
G36*
X472672Y260584D02*
X472057Y260462D01*
X472048Y260456D01*
X460243D01*
X459629Y260333D01*
X459108Y259985D01*
X458760Y259465D01*
X458638Y258850D01*
X458760Y258236D01*
X459108Y257715D01*
X459629Y257367D01*
X460243Y257244D01*
X472543D01*
X472543Y257244D01*
X473158Y257367D01*
X473679Y257715D01*
X473807Y257843D01*
X474155Y258364D01*
X474277Y258979D01*
X474155Y259593D01*
X473807Y260114D01*
X473286Y260462D01*
X472672Y260584D01*
D02*
G37*
G36*
X485263Y273339D02*
X484715D01*
X484208Y273129D01*
X483820Y272742D01*
X483611Y272235D01*
Y271687D01*
X483820Y271180D01*
X484208Y270793D01*
X484715Y270583D01*
X484805D01*
X501090Y254298D01*
X501448Y254059D01*
X501871Y253975D01*
X517767D01*
X517822Y253769D01*
X518269Y252995D01*
X518664Y252600D01*
X518457Y252100D01*
X499914D01*
X486367Y265647D01*
Y265738D01*
X486157Y266245D01*
X485769Y266632D01*
X485263Y266842D01*
X484715D01*
X484208Y266632D01*
X483820Y266245D01*
X483611Y265738D01*
Y265190D01*
X483820Y264683D01*
X484208Y264296D01*
X484715Y264086D01*
X484805D01*
X498676Y250216D01*
X499034Y249976D01*
X499456Y249892D01*
X526902D01*
X527324Y249976D01*
X527682Y250216D01*
X529490Y252023D01*
X529674Y251916D01*
X530538Y251685D01*
X531431D01*
X532294Y251916D01*
X533068Y252363D01*
X533700Y252995D01*
X534147Y253769D01*
X534378Y254632D01*
Y255525D01*
X534147Y256389D01*
X533700Y257162D01*
X533068Y257794D01*
X532294Y258241D01*
X531431Y258472D01*
X530538D01*
X529674Y258241D01*
X528900Y257794D01*
X528269Y257162D01*
X527822Y256389D01*
X527591Y255525D01*
Y254632D01*
X527822Y253769D01*
X527928Y253584D01*
X526444Y252100D01*
X523512D01*
X523305Y252600D01*
X523700Y252995D01*
X524147Y253769D01*
X524378Y254632D01*
Y255525D01*
X524147Y256389D01*
X523700Y257162D01*
X523068Y257794D01*
X522294Y258241D01*
X521431Y258472D01*
X520538D01*
X519674Y258241D01*
X518900Y257794D01*
X518269Y257162D01*
X517822Y256389D01*
X517767Y256183D01*
X502328D01*
X486367Y272144D01*
Y272235D01*
X486157Y272742D01*
X485769Y273129D01*
X485263Y273339D01*
D02*
G37*
G36*
X472672Y254087D02*
X472057Y253965D01*
X472048Y253959D01*
X460243D01*
X459629Y253836D01*
X459108Y253488D01*
X458760Y252967D01*
X458638Y252353D01*
X458760Y251739D01*
X459108Y251218D01*
X459629Y250869D01*
X460243Y250747D01*
X472543D01*
X472543Y250747D01*
X473158Y250869D01*
X473678Y251218D01*
X473807Y251346D01*
X474155Y251867D01*
X474277Y252482D01*
X474155Y253096D01*
X473807Y253617D01*
X473286Y253965D01*
X472672Y254087D01*
D02*
G37*
G36*
X485263Y260345D02*
X484715D01*
X484208Y260135D01*
X483820Y259747D01*
X483611Y259241D01*
Y258693D01*
X483820Y258186D01*
X484208Y257799D01*
X484715Y257589D01*
X484805D01*
X498096Y244298D01*
X498454Y244059D01*
X498877Y243975D01*
X517767D01*
X517822Y243769D01*
X518269Y242995D01*
X518664Y242600D01*
X518457Y242100D01*
X496919D01*
X486367Y252653D01*
Y252744D01*
X486157Y253250D01*
X485769Y253638D01*
X485263Y253848D01*
X484715D01*
X484208Y253638D01*
X483820Y253250D01*
X483611Y252744D01*
Y252196D01*
X483820Y251689D01*
X484208Y251302D01*
X484715Y251092D01*
X484805D01*
X495682Y240215D01*
X496040Y239976D01*
X496462Y239892D01*
X526902D01*
X527324Y239976D01*
X527682Y240215D01*
X529490Y242023D01*
X529674Y241916D01*
X530538Y241685D01*
X531431D01*
X532294Y241916D01*
X533068Y242363D01*
X533700Y242995D01*
X534147Y243769D01*
X534378Y244632D01*
Y245526D01*
X534147Y246389D01*
X533700Y247163D01*
X533068Y247794D01*
X532294Y248241D01*
X531431Y248472D01*
X530538D01*
X529674Y248241D01*
X528900Y247794D01*
X528269Y247163D01*
X527822Y246389D01*
X527591Y245526D01*
Y244632D01*
X527822Y243769D01*
X527928Y243584D01*
X526444Y242100D01*
X523512D01*
X523305Y242600D01*
X523700Y242995D01*
X524147Y243769D01*
X524378Y244632D01*
Y245526D01*
X524147Y246389D01*
X523700Y247163D01*
X523068Y247794D01*
X522294Y248241D01*
X521431Y248472D01*
X520538D01*
X519674Y248241D01*
X518900Y247794D01*
X518269Y247163D01*
X517822Y246389D01*
X517767Y246183D01*
X499334D01*
X486367Y259150D01*
Y259241D01*
X486157Y259747D01*
X485769Y260135D01*
X485263Y260345D01*
D02*
G37*
G36*
Y247351D02*
X484715D01*
X484208Y247141D01*
X483820Y246753D01*
X483611Y246247D01*
Y245699D01*
X483820Y245192D01*
X484208Y244805D01*
X484715Y244595D01*
X484805D01*
X495102Y234298D01*
X495460Y234059D01*
X495883Y233975D01*
X517767D01*
X517822Y233769D01*
X518269Y232995D01*
X518664Y232600D01*
X518457Y232100D01*
X493925D01*
X486367Y239659D01*
Y239750D01*
X486157Y240256D01*
X485769Y240644D01*
X485263Y240854D01*
X484715D01*
X484208Y240644D01*
X483820Y240256D01*
X483611Y239750D01*
Y239201D01*
X483820Y238695D01*
X484208Y238307D01*
X484715Y238098D01*
X484805D01*
X492688Y230216D01*
X493046Y229976D01*
X493468Y229892D01*
X526902D01*
X527324Y229976D01*
X527682Y230216D01*
X529490Y232023D01*
X529674Y231916D01*
X530538Y231685D01*
X531431D01*
X532294Y231916D01*
X533068Y232363D01*
X533700Y232995D01*
X534147Y233769D01*
X534378Y234632D01*
Y235525D01*
X534147Y236389D01*
X533700Y237162D01*
X533068Y237794D01*
X532294Y238241D01*
X531431Y238472D01*
X530538D01*
X529674Y238241D01*
X528900Y237794D01*
X528269Y237162D01*
X527822Y236389D01*
X527591Y235525D01*
Y234632D01*
X527822Y233769D01*
X527928Y233584D01*
X526444Y232100D01*
X523512D01*
X523305Y232600D01*
X523700Y232995D01*
X524147Y233769D01*
X524378Y234632D01*
Y235525D01*
X524147Y236389D01*
X523700Y237162D01*
X523068Y237794D01*
X522294Y238241D01*
X521431Y238472D01*
X520538D01*
X519674Y238241D01*
X518900Y237794D01*
X518269Y237162D01*
X517822Y236389D01*
X517767Y236183D01*
X496340D01*
X486367Y246156D01*
Y246247D01*
X486157Y246753D01*
X485769Y247141D01*
X485263Y247351D01*
D02*
G37*
G36*
Y234356D02*
X484715D01*
X484208Y234147D01*
X483820Y233759D01*
X483611Y233253D01*
Y232704D01*
X483820Y232198D01*
X484208Y231810D01*
X484715Y231601D01*
X484805D01*
X492108Y224298D01*
X492466Y224059D01*
X492888Y223975D01*
X517767D01*
X517822Y223769D01*
X518269Y222995D01*
X518664Y222600D01*
X518457Y222100D01*
X490931D01*
X486367Y226665D01*
Y226756D01*
X486157Y227262D01*
X485769Y227650D01*
X485263Y227859D01*
X484715D01*
X484208Y227650D01*
X483820Y227262D01*
X483611Y226756D01*
Y226207D01*
X483820Y225701D01*
X484208Y225313D01*
X484715Y225103D01*
X484805D01*
X489693Y220216D01*
X490052Y219976D01*
X490474Y219892D01*
X526902D01*
X527324Y219976D01*
X527682Y220216D01*
X529490Y222023D01*
X529674Y221916D01*
X530538Y221685D01*
X531431D01*
X532294Y221916D01*
X533068Y222363D01*
X533700Y222995D01*
X534147Y223769D01*
X534378Y224632D01*
Y225525D01*
X534147Y226389D01*
X533700Y227163D01*
X533068Y227794D01*
X532294Y228241D01*
X531431Y228472D01*
X530538D01*
X529674Y228241D01*
X528900Y227794D01*
X528269Y227163D01*
X527822Y226389D01*
X527591Y225525D01*
Y224632D01*
X527822Y223769D01*
X527928Y223584D01*
X526444Y222100D01*
X523512D01*
X523305Y222600D01*
X523700Y222995D01*
X524147Y223769D01*
X524378Y224632D01*
Y225525D01*
X524147Y226389D01*
X523700Y227163D01*
X523068Y227794D01*
X522294Y228241D01*
X521431Y228472D01*
X520538D01*
X519674Y228241D01*
X518900Y227794D01*
X518269Y227163D01*
X517822Y226389D01*
X517767Y226183D01*
X493346D01*
X486367Y233162D01*
Y233253D01*
X486157Y233759D01*
X485769Y234147D01*
X485263Y234356D01*
D02*
G37*
G36*
X108786Y348268D02*
X107749D01*
X106748Y347999D01*
X106268Y347722D01*
X108268Y345723D01*
X110267Y347722D01*
X109787Y347999D01*
X108786Y348268D01*
D02*
G37*
G36*
X88786D02*
X87749D01*
X86748Y347999D01*
X86268Y347722D01*
X88268Y345723D01*
X90267Y347722D01*
X89787Y347999D01*
X88786Y348268D01*
D02*
G37*
G36*
X111659Y346330D02*
X109660Y344331D01*
X111659Y342331D01*
X111936Y342811D01*
X112205Y343812D01*
Y344849D01*
X111936Y345850D01*
X111659Y346330D01*
D02*
G37*
G36*
X91659D02*
X89660Y344331D01*
X91659Y342331D01*
X91936Y342811D01*
X92205Y343812D01*
Y344849D01*
X91936Y345850D01*
X91659Y346330D01*
D02*
G37*
G36*
X104876D02*
X104599Y345850D01*
X104331Y344849D01*
Y343812D01*
X104599Y342811D01*
X104876Y342331D01*
X106876Y344331D01*
X104876Y346330D01*
D02*
G37*
G36*
X84876D02*
X84599Y345850D01*
X84331Y344849D01*
Y343812D01*
X84599Y342811D01*
X84876Y342331D01*
X86876Y344331D01*
X84876Y346330D01*
D02*
G37*
G36*
X118708Y347677D02*
X117827D01*
X116976Y347449D01*
X116213Y347008D01*
X115590Y346386D01*
X115149Y345622D01*
X114921Y344771D01*
Y343890D01*
X115149Y343039D01*
X115590Y342276D01*
X116213Y341653D01*
X116976Y341212D01*
X117827Y340984D01*
X118708D01*
X119559Y341212D01*
X120323Y341653D01*
X120946Y342276D01*
X121386Y343039D01*
X121614Y343890D01*
Y344771D01*
X121386Y345622D01*
X120946Y346386D01*
X120323Y347008D01*
X119559Y347449D01*
X118708Y347677D01*
D02*
G37*
G36*
X98708D02*
X97827D01*
X96976Y347449D01*
X96213Y347008D01*
X95590Y346386D01*
X95149Y345622D01*
X94921Y344771D01*
Y343890D01*
X95149Y343039D01*
X95590Y342276D01*
X96213Y341653D01*
X96976Y341212D01*
X97827Y340984D01*
X98708D01*
X99559Y341212D01*
X100322Y341653D01*
X100946Y342276D01*
X101386Y343039D01*
X101614Y343890D01*
Y344771D01*
X101386Y345622D01*
X100946Y346386D01*
X100322Y347008D01*
X99559Y347449D01*
X98708Y347677D01*
D02*
G37*
G36*
X108268Y342939D02*
X106268Y340939D01*
X106748Y340662D01*
X107749Y340394D01*
X108786D01*
X109787Y340662D01*
X110267Y340939D01*
X108268Y342939D01*
D02*
G37*
G36*
X88268D02*
X86268Y340939D01*
X86748Y340662D01*
X87749Y340394D01*
X88786D01*
X89787Y340662D01*
X90267Y340939D01*
X88268Y342939D01*
D02*
G37*
G36*
X142323Y344449D02*
X135630D01*
Y337756D01*
X142323D01*
Y344449D01*
D02*
G37*
G36*
X323353Y338268D02*
X322316D01*
X321315Y337999D01*
X320835Y337722D01*
X322835Y335723D01*
X324834Y337722D01*
X324354Y337999D01*
X323353Y338268D01*
D02*
G37*
G36*
X326226Y336330D02*
X324227Y334331D01*
X326226Y332331D01*
X326503Y332811D01*
X326772Y333812D01*
Y334849D01*
X326503Y335850D01*
X326226Y336330D01*
D02*
G37*
G36*
X319443D02*
X319166Y335850D01*
X318898Y334849D01*
Y333812D01*
X319166Y332811D01*
X319443Y332331D01*
X321443Y334331D01*
X319443Y336330D01*
D02*
G37*
G36*
X322835Y332939D02*
X320835Y330939D01*
X321315Y330662D01*
X322316Y330394D01*
X323353D01*
X324354Y330662D01*
X324834Y330939D01*
X322835Y332939D01*
D02*
G37*
G36*
X139417Y334449D02*
X138536D01*
X137685Y334221D01*
X136922Y333780D01*
X136299Y333157D01*
X135858Y332394D01*
X135630Y331543D01*
Y330662D01*
X135858Y329811D01*
X136299Y329048D01*
X136922Y328425D01*
X137685Y327984D01*
X138536Y327756D01*
X139417D01*
X140268Y327984D01*
X141031Y328425D01*
X141654Y329048D01*
X142095Y329811D01*
X142323Y330662D01*
Y331543D01*
X142095Y332394D01*
X141654Y333157D01*
X141031Y333780D01*
X140268Y334221D01*
X139417Y334449D01*
D02*
G37*
G36*
Y324449D02*
X138536D01*
X137685Y324221D01*
X136922Y323780D01*
X136299Y323157D01*
X135858Y322394D01*
X135630Y321543D01*
Y320662D01*
X135858Y319811D01*
X136299Y319048D01*
X136922Y318425D01*
X137685Y317984D01*
X138536Y317756D01*
X139417D01*
X140268Y317984D01*
X141031Y318425D01*
X141654Y319048D01*
X142095Y319811D01*
X142323Y320662D01*
Y321543D01*
X142095Y322394D01*
X141654Y323157D01*
X141031Y323780D01*
X140268Y324221D01*
X139417Y324449D01*
D02*
G37*
G36*
X229455Y252480D02*
X228419D01*
X227417Y252212D01*
X226937Y251935D01*
X228937Y249935D01*
X230937Y251935D01*
X230457Y252212D01*
X229455Y252480D01*
D02*
G37*
G36*
X228937Y248543D02*
D01*
D01*
D01*
D02*
G37*
G36*
X232329Y250543D02*
X230329Y248543D01*
X232329Y246544D01*
X232606Y247024D01*
X232874Y248025D01*
Y249061D01*
X232606Y250063D01*
X232329Y250543D01*
D02*
G37*
G36*
X225545Y250543D02*
X225268Y250063D01*
X225000Y249061D01*
Y248025D01*
X225268Y247024D01*
X225545Y246544D01*
X227545Y248543D01*
X225545Y250543D01*
D02*
G37*
G36*
X309370Y300306D02*
X308756Y300184D01*
X308235Y299836D01*
X307887Y299315D01*
X307764Y298701D01*
X307764Y298701D01*
Y246341D01*
X307302Y246149D01*
X290309Y263143D01*
X289788Y263491D01*
X289173Y263614D01*
X289173Y263614D01*
X193307D01*
X193307Y263614D01*
X192693Y263491D01*
X192172Y263143D01*
X192172Y263143D01*
X191824Y262622D01*
X191701Y262008D01*
X191824Y261393D01*
X192172Y260873D01*
X192693Y260524D01*
X193307Y260402D01*
X193307Y260402D01*
X288508D01*
X308235Y240676D01*
X308235Y240676D01*
X308756Y240328D01*
X309370Y240205D01*
X309984Y240328D01*
X310506Y240676D01*
X310854Y241197D01*
X310976Y241811D01*
X310976Y241811D01*
Y298701D01*
X310976Y298701D01*
X310854Y299315D01*
X310506Y299836D01*
X310505Y299836D01*
X309984Y300184D01*
X309370Y300306D01*
D02*
G37*
G36*
X228937Y247151D02*
X226937Y245151D01*
X227417Y244874D01*
X228419Y244606D01*
X229455D01*
X230457Y244874D01*
X230937Y245152D01*
X228937Y247151D01*
D02*
G37*
G36*
X229378Y231890D02*
X228496D01*
X227645Y231662D01*
X226882Y231221D01*
X226259Y230598D01*
X225819Y229835D01*
X225590Y228984D01*
Y228102D01*
X225819Y227251D01*
X226259Y226488D01*
X226882Y225865D01*
X227645Y225425D01*
X228496Y225197D01*
X229378D01*
X230229Y225425D01*
X230992Y225865D01*
X231615Y226488D01*
X232055Y227251D01*
X232283Y228102D01*
Y228984D01*
X232055Y229835D01*
X231615Y230598D01*
X230992Y231221D01*
X230229Y231662D01*
X229378Y231890D01*
D02*
G37*
G36*
X323235Y141417D02*
X322198D01*
X321197Y141149D01*
X320717Y140872D01*
X322717Y138872D01*
X324716Y140872D01*
X324236Y141149D01*
X323235Y141417D01*
D02*
G37*
G36*
X326108Y139480D02*
X324109Y137480D01*
X326108Y135481D01*
X326385Y135961D01*
X326654Y136962D01*
Y137999D01*
X326385Y139000D01*
X326108Y139480D01*
D02*
G37*
G36*
X319325D02*
X319048Y139000D01*
X318780Y137999D01*
Y136962D01*
X319048Y135961D01*
X319325Y135481D01*
X321325Y137480D01*
X319325Y139480D01*
D02*
G37*
G36*
X322717Y136088D02*
X320717Y134089D01*
X321197Y133812D01*
X322198Y133543D01*
X323235D01*
X324236Y133812D01*
X324716Y134089D01*
X322717Y136088D01*
D02*
G37*
G36*
X55666Y269685D02*
X55118D01*
X54612Y269475D01*
X54224Y269088D01*
X54014Y268581D01*
Y268033D01*
X54224Y267527D01*
X54291Y267459D01*
Y221579D01*
X54030Y221317D01*
X53820Y220811D01*
Y220263D01*
X54030Y219756D01*
X54115Y219671D01*
Y174165D01*
X53995Y174045D01*
X53786Y173539D01*
Y172991D01*
X53995Y172484D01*
X54115Y172365D01*
Y154489D01*
X53950Y154324D01*
X53740Y153817D01*
Y153269D01*
X53950Y152763D01*
X54338Y152375D01*
X54844Y152165D01*
X55392D01*
X55899Y152375D01*
X56286Y152763D01*
X56496Y153269D01*
Y153817D01*
X56286Y154324D01*
X56122Y154489D01*
Y172274D01*
X56332Y172484D01*
X56541Y172991D01*
Y173539D01*
X56332Y174045D01*
X56122Y174255D01*
Y219512D01*
X56366Y219756D01*
X56576Y220263D01*
Y220811D01*
X56366Y221317D01*
X56299Y221385D01*
Y267265D01*
X56560Y267527D01*
X56770Y268033D01*
Y268581D01*
X56560Y269088D01*
X56173Y269475D01*
X55666Y269685D01*
D02*
G37*
G36*
X65603Y46386D02*
X64554D01*
X63541Y46114D01*
X63045Y45828D01*
X65079Y43793D01*
X67113Y45828D01*
X66617Y46114D01*
X65603Y46386D01*
D02*
G37*
G36*
X61653Y44436D02*
X61366Y43939D01*
X61094Y42926D01*
Y41877D01*
X61366Y40864D01*
X61653Y40367D01*
X63687Y42402D01*
X61653Y44436D01*
D02*
G37*
G36*
X68505Y44436D02*
X66471Y42402D01*
X68505Y40367D01*
X68792Y40864D01*
X69063Y41877D01*
Y42926D01*
X68792Y43939D01*
X68505Y44436D01*
D02*
G37*
G36*
X75525Y45795D02*
X74632D01*
X73769Y45564D01*
X72995Y45117D01*
X72363Y44485D01*
X71916Y43712D01*
X71685Y42848D01*
Y41955D01*
X71916Y41092D01*
X72363Y40318D01*
X72995Y39686D01*
X73769Y39239D01*
X74632Y39008D01*
X75525D01*
X76389Y39239D01*
X77162Y39686D01*
X77794Y40318D01*
X78241Y41092D01*
X78472Y41955D01*
Y42848D01*
X78241Y43712D01*
X77794Y44485D01*
X77162Y45117D01*
X76389Y45564D01*
X75525Y45795D01*
D02*
G37*
G36*
X65079Y41010D02*
X63045Y38975D01*
X63541Y38689D01*
X64554Y38417D01*
X65603D01*
X66617Y38689D01*
X67113Y38975D01*
X65079Y41010D01*
D02*
G37*
G36*
X75525Y35795D02*
X74632D01*
X73769Y35564D01*
X72995Y35117D01*
X72363Y34485D01*
X71916Y33711D01*
X71685Y32848D01*
Y31955D01*
X71916Y31092D01*
X72363Y30318D01*
X72995Y29686D01*
X73769Y29239D01*
X74632Y29008D01*
X75525D01*
X76389Y29239D01*
X77162Y29686D01*
X77794Y30318D01*
X78241Y31092D01*
X78472Y31955D01*
Y32848D01*
X78241Y33711D01*
X77794Y34485D01*
X77162Y35117D01*
X76389Y35564D01*
X75525Y35795D01*
D02*
G37*
G36*
X229378Y221890D02*
X228496D01*
X227645Y221661D01*
X226882Y221221D01*
X226259Y220598D01*
X225819Y219835D01*
X225590Y218984D01*
Y218103D01*
X225819Y217251D01*
X226259Y216488D01*
X226882Y215865D01*
X227645Y215425D01*
X228496Y215197D01*
X229378D01*
X230229Y215425D01*
X230992Y215865D01*
X231615Y216488D01*
X232055Y217251D01*
X232283Y218103D01*
Y218984D01*
X232055Y219835D01*
X231615Y220598D01*
X230992Y221221D01*
X230229Y221661D01*
X229378Y221890D01*
D02*
G37*
G36*
X173601Y207085D02*
X173053D01*
X172546Y206876D01*
X172159Y206488D01*
X171949Y205982D01*
Y205433D01*
X172159Y204927D01*
X172546Y204539D01*
X173053Y204330D01*
X173601D01*
X174107Y204539D01*
X174172Y204604D01*
X176512D01*
X183542Y197574D01*
Y196482D01*
X183042Y196275D01*
X177798Y201519D01*
X177440Y201758D01*
X177018Y201842D01*
X173925D01*
X173763Y202005D01*
X173256Y202215D01*
X172708D01*
X172202Y202005D01*
X171814Y201617D01*
X171604Y201111D01*
Y200563D01*
X171814Y200056D01*
X172202Y199669D01*
X172708Y199459D01*
X173256D01*
X173680Y199634D01*
X176560D01*
X181376Y194818D01*
Y188496D01*
X181328Y188440D01*
X180895Y188599D01*
X180828Y188673D01*
Y193514D01*
X180744Y193936D01*
X180505Y194294D01*
X176971Y197828D01*
X176613Y198067D01*
X176191Y198151D01*
X167774D01*
X167710Y198215D01*
X167203Y198425D01*
X166655D01*
X166149Y198215D01*
X165761Y197828D01*
X165551Y197321D01*
Y196773D01*
X165761Y196267D01*
X166149Y195879D01*
X166655Y195669D01*
X167203D01*
X167710Y195879D01*
X167774Y195943D01*
X175734D01*
X176809Y194868D01*
X176692Y194278D01*
X176503Y194200D01*
X176115Y193812D01*
X175906Y193306D01*
Y192757D01*
X176115Y192251D01*
X176317Y192050D01*
Y186200D01*
X173778Y183661D01*
X173545D01*
X173038Y183452D01*
X172651Y183064D01*
X172441Y182558D01*
Y182371D01*
X172054Y181984D01*
X171815Y181626D01*
X171731Y181203D01*
Y166369D01*
X155855D01*
X155240Y166247D01*
X154719Y165899D01*
X154371Y165378D01*
X154249Y164764D01*
X154371Y164149D01*
X154719Y163628D01*
X155240Y163280D01*
X155855Y163158D01*
X187600D01*
X187600Y163158D01*
X188215Y163280D01*
X188735Y163628D01*
X198104Y172997D01*
X198104Y172997D01*
X198452Y173518D01*
X198574Y174132D01*
Y204842D01*
X198452Y205457D01*
X198104Y205978D01*
X197583Y206326D01*
X196968Y206448D01*
X196354Y206326D01*
X195833Y205978D01*
X195485Y205457D01*
X195363Y204842D01*
Y174797D01*
X186935Y166369D01*
X173939D01*
Y180746D01*
X174101Y180909D01*
X174599Y181115D01*
X174987Y181503D01*
X175197Y182009D01*
Y182242D01*
X178030Y185075D01*
X178121Y185211D01*
X178621Y185059D01*
Y175966D01*
X178621Y175966D01*
Y171317D01*
X178556Y171253D01*
X178347Y170747D01*
Y170198D01*
X178556Y169692D01*
X178944Y169304D01*
X179450Y169095D01*
X179999D01*
X180505Y169304D01*
X180893Y169692D01*
X181102Y170198D01*
Y170747D01*
X180893Y171253D01*
X180828Y171317D01*
Y175966D01*
X180828Y175966D01*
Y182388D01*
X181016Y182517D01*
X181328Y182643D01*
X181753Y182467D01*
X182302D01*
X182808Y182676D01*
X183042Y182910D01*
X183542Y182703D01*
Y171317D01*
X183477Y171253D01*
X183268Y170747D01*
Y170198D01*
X183477Y169692D01*
X183865Y169304D01*
X184372Y169095D01*
X184920D01*
X185426Y169304D01*
X185814Y169692D01*
X186024Y170198D01*
Y170747D01*
X185814Y171253D01*
X185749Y171317D01*
Y198031D01*
X185666Y198454D01*
X185426Y198812D01*
X177750Y206488D01*
X177392Y206727D01*
X176970Y206811D01*
X174172D01*
X174107Y206876D01*
X173601Y207085D01*
D02*
G37*
G36*
X125856Y173392D02*
X125308D01*
X124801Y173182D01*
X124414Y172795D01*
X124204Y172288D01*
Y171740D01*
X124414Y171234D01*
X124478Y171169D01*
Y168513D01*
X124562Y168090D01*
X124801Y167732D01*
X130392Y162141D01*
Y152191D01*
X129892Y151984D01*
X126694Y155182D01*
Y158309D01*
X126759Y158373D01*
X126969Y158879D01*
Y159428D01*
X126759Y159934D01*
X126371Y160322D01*
X125865Y160531D01*
X125317D01*
X124810Y160322D01*
X124422Y159934D01*
X124213Y159428D01*
Y158879D01*
X124422Y158373D01*
X124487Y158309D01*
Y154724D01*
X124571Y154302D01*
X124810Y153944D01*
X128424Y150330D01*
Y145616D01*
X128222Y145490D01*
X127924Y145426D01*
X126969Y146382D01*
Y146632D01*
X126759Y147139D01*
X126371Y147527D01*
X125865Y147736D01*
X125317D01*
X124810Y147527D01*
X124422Y147139D01*
X124213Y146632D01*
Y146084D01*
X124422Y145578D01*
X124810Y145190D01*
X125199Y145029D01*
X126115Y144113D01*
Y142697D01*
X126199Y142274D01*
X126438Y141916D01*
X126554Y141800D01*
Y134901D01*
X126054Y134567D01*
X125865Y134646D01*
X125317D01*
X124810Y134436D01*
X124422Y134048D01*
X124213Y133542D01*
Y132994D01*
X124422Y132487D01*
X124487Y132423D01*
Y116212D01*
X121008Y112733D01*
X120971Y112740D01*
X120357Y112618D01*
X119836Y112270D01*
X119488Y111749D01*
X119365Y111135D01*
Y98962D01*
X119365Y98962D01*
X119488Y98347D01*
X119836Y97826D01*
X119973Y97689D01*
X120494Y97341D01*
X121109Y97219D01*
X121723Y97341D01*
X122244Y97689D01*
X122592Y98210D01*
X122714Y98824D01*
X122592Y99439D01*
X122577Y99462D01*
Y111135D01*
X122569Y111172D01*
X126054Y114656D01*
X126554Y114449D01*
Y112418D01*
X126333Y112270D01*
X125985Y111749D01*
X125862Y111135D01*
Y98962D01*
X125862Y98962D01*
X125985Y98347D01*
X126333Y97826D01*
X126470Y97689D01*
X126991Y97341D01*
X127606Y97219D01*
X128220Y97341D01*
X128741Y97689D01*
X129089Y98210D01*
X129211Y98824D01*
X129089Y99439D01*
X129074Y99462D01*
Y111135D01*
X128952Y111749D01*
X128761Y112034D01*
Y114124D01*
X129223Y114315D01*
X132367Y111172D01*
X132360Y111135D01*
X132445Y110703D01*
Y98876D01*
X132445Y98876D01*
X132568Y98261D01*
X132916Y97741D01*
X132967Y97689D01*
X133488Y97341D01*
X134103Y97219D01*
X134717Y97341D01*
X135238Y97689D01*
X135586Y98210D01*
X135708Y98824D01*
X135657Y99084D01*
Y111049D01*
X135657Y111049D01*
X135535Y111663D01*
X135186Y112184D01*
X135100Y112270D01*
X134580Y112618D01*
X133965Y112741D01*
X133928Y112733D01*
X130631Y116030D01*
Y118697D01*
X131131Y118904D01*
X138864Y111172D01*
X138856Y111135D01*
X138943Y110703D01*
Y98876D01*
X138943Y98876D01*
X139065Y98261D01*
X139413Y97741D01*
X139464Y97689D01*
X139985Y97341D01*
X140600Y97219D01*
X141214Y97341D01*
X141735Y97689D01*
X142083Y98210D01*
X142206Y98824D01*
X142154Y99084D01*
Y111049D01*
X142154Y111049D01*
X142032Y111663D01*
X141683Y112184D01*
X141598Y112270D01*
X141077Y112618D01*
X140462Y112741D01*
X140425Y112733D01*
X132600Y120558D01*
Y128790D01*
X133071Y128860D01*
X133281Y128353D01*
X133668Y127966D01*
X134175Y127756D01*
X134266D01*
X148432Y113590D01*
X148790Y113350D01*
X149213Y113266D01*
X247277D01*
Y60676D01*
X242076D01*
X241769Y60983D01*
X240995Y61430D01*
X240132Y61661D01*
X239238D01*
X238375Y61430D01*
X237601Y60983D01*
X237294Y60676D01*
X232076D01*
X231769Y60983D01*
X230995Y61430D01*
X230132Y61661D01*
X229238D01*
X228375Y61430D01*
X227601Y60983D01*
X227294Y60676D01*
X222076D01*
X221769Y60983D01*
X220995Y61430D01*
X220132Y61661D01*
X219238D01*
X218375Y61430D01*
X217601Y60983D01*
X216969Y60352D01*
X216523Y59578D01*
X216291Y58714D01*
Y57821D01*
X216523Y56958D01*
X216969Y56184D01*
X217601Y55552D01*
X218375Y55105D01*
X219238Y54874D01*
X220132D01*
X220995Y55105D01*
X221769Y55552D01*
X222076Y55859D01*
X227294D01*
X227601Y55552D01*
X228375Y55105D01*
X229238Y54874D01*
X230132D01*
X230995Y55105D01*
X231769Y55552D01*
X232076Y55859D01*
X237294D01*
X237601Y55552D01*
X238375Y55105D01*
X239238Y54874D01*
X240132D01*
X240995Y55105D01*
X241769Y55552D01*
X242076Y55859D01*
X247277D01*
Y50676D01*
X242076D01*
X241769Y50983D01*
X240995Y51430D01*
X240132Y51661D01*
X239238D01*
X238375Y51430D01*
X237601Y50983D01*
X237294Y50676D01*
X232076D01*
X231769Y50983D01*
X230995Y51430D01*
X230132Y51661D01*
X229238D01*
X228375Y51430D01*
X227601Y50983D01*
X227294Y50676D01*
X222076D01*
X221769Y50983D01*
X220995Y51430D01*
X220132Y51661D01*
X219238D01*
X218375Y51430D01*
X217601Y50983D01*
X216969Y50352D01*
X216523Y49578D01*
X216291Y48715D01*
Y47821D01*
X216523Y46958D01*
X216969Y46184D01*
X217601Y45552D01*
X218375Y45105D01*
X219238Y44874D01*
X220132D01*
X220995Y45105D01*
X221769Y45552D01*
X222076Y45859D01*
X227294D01*
X227601Y45552D01*
X228375Y45105D01*
X229238Y44874D01*
X230132D01*
X230995Y45105D01*
X231769Y45552D01*
X232076Y45859D01*
X237294D01*
X237601Y45552D01*
X238375Y45105D01*
X239238Y44874D01*
X240132D01*
X240995Y45105D01*
X241769Y45552D01*
X242076Y45859D01*
X247294D01*
X247601Y45552D01*
X248375Y45105D01*
X249238Y44874D01*
X250132D01*
X250995Y45105D01*
X251769Y45552D01*
X252076Y45859D01*
X257294D01*
X257601Y45552D01*
X258375Y45105D01*
X259238Y44874D01*
X260132D01*
X260995Y45105D01*
X261769Y45552D01*
X262401Y46184D01*
X262847Y46958D01*
X263079Y47821D01*
Y48715D01*
X262847Y49578D01*
X262401Y50352D01*
X261769Y50983D01*
X260995Y51430D01*
X260132Y51661D01*
X259238D01*
X258375Y51430D01*
X257601Y50983D01*
X257294Y50676D01*
X252094D01*
Y55859D01*
X257294D01*
X257601Y55552D01*
X258375Y55105D01*
X259238Y54874D01*
X260132D01*
X260995Y55105D01*
X261769Y55552D01*
X262401Y56184D01*
X262847Y56958D01*
X263079Y57821D01*
Y58714D01*
X262847Y59578D01*
X262401Y60352D01*
X261769Y60983D01*
X260995Y61430D01*
X260132Y61661D01*
X259238D01*
X258375Y61430D01*
X257601Y60983D01*
X257294Y60676D01*
X252094D01*
Y114370D01*
Y134370D01*
X251910Y135292D01*
X251388Y136073D01*
X219105Y168357D01*
X218323Y168879D01*
X217402Y169062D01*
X217355D01*
X216433Y168879D01*
X215652Y168357D01*
X215130Y167575D01*
X214946Y166654D01*
X215130Y165732D01*
X215652Y164951D01*
X215793Y164856D01*
X247277Y133372D01*
Y115474D01*
X149670D01*
X135827Y129317D01*
Y129408D01*
X135617Y129914D01*
X135229Y130302D01*
X134723Y130512D01*
X134175D01*
X133668Y130302D01*
X133281Y129914D01*
X133071Y129408D01*
X132600Y129478D01*
Y162598D01*
X132516Y163021D01*
X132277Y163379D01*
X126686Y168970D01*
Y171169D01*
X126750Y171234D01*
X126960Y171740D01*
Y172288D01*
X126750Y172795D01*
X126363Y173182D01*
X125856Y173392D01*
D02*
G37*
G36*
X244415Y112740D02*
X243801Y112618D01*
X243280Y112270D01*
X242932Y111749D01*
X242810Y111135D01*
Y98962D01*
X242810Y98962D01*
X242932Y98347D01*
X243280Y97826D01*
X243418Y97689D01*
X243938Y97341D01*
X244553Y97219D01*
X245167Y97341D01*
X245688Y97689D01*
X246036Y98210D01*
X246159Y98824D01*
X246036Y99439D01*
X246021Y99462D01*
Y111135D01*
X245899Y111749D01*
X245551Y112270D01*
X245030Y112618D01*
X244415Y112740D01*
D02*
G37*
G36*
X231421D02*
X230807Y112618D01*
X230286Y112270D01*
X229938Y111749D01*
X229816Y111135D01*
Y98962D01*
X229816Y98962D01*
X229938Y98347D01*
X230286Y97826D01*
X230423Y97689D01*
X230944Y97341D01*
X231559Y97219D01*
X232173Y97341D01*
X232694Y97689D01*
X233042Y98210D01*
X233164Y98824D01*
X233042Y99439D01*
X233027Y99462D01*
Y111135D01*
X232905Y111749D01*
X232557Y112270D01*
X232036Y112618D01*
X231421Y112740D01*
D02*
G37*
G36*
X218427D02*
X217812Y112618D01*
X217292Y112270D01*
X216944Y111749D01*
X216821Y111135D01*
Y98962D01*
X216821Y98962D01*
X216944Y98347D01*
X217292Y97826D01*
X217429Y97689D01*
X217950Y97341D01*
X218565Y97219D01*
X219179Y97341D01*
X219700Y97689D01*
X220048Y98210D01*
X220170Y98824D01*
X220048Y99439D01*
X220033Y99462D01*
Y111135D01*
X219910Y111749D01*
X219562Y112270D01*
X219041Y112618D01*
X218427Y112740D01*
D02*
G37*
G36*
X211930D02*
X211315Y112618D01*
X210795Y112270D01*
X210447Y111749D01*
X210324Y111135D01*
Y98962D01*
X210324Y98962D01*
X210447Y98347D01*
X210795Y97826D01*
X210932Y97689D01*
X211453Y97341D01*
X212068Y97219D01*
X212682Y97341D01*
X213203Y97689D01*
X213551Y98210D01*
X213673Y98824D01*
X213551Y99439D01*
X213536Y99462D01*
Y111135D01*
X213413Y111749D01*
X213065Y112270D01*
X212544Y112618D01*
X211930Y112740D01*
D02*
G37*
G36*
X205433D02*
X204818Y112618D01*
X204297Y112270D01*
X203949Y111749D01*
X203827Y111135D01*
Y98962D01*
X203827Y98962D01*
X203949Y98347D01*
X204297Y97826D01*
X204435Y97689D01*
X204956Y97341D01*
X205571Y97219D01*
X206185Y97341D01*
X206706Y97689D01*
X207054Y98210D01*
X207176Y98824D01*
X207054Y99439D01*
X207038Y99462D01*
Y111135D01*
X206916Y111749D01*
X206568Y112270D01*
X206047Y112618D01*
X205433Y112740D01*
D02*
G37*
G36*
X192439D02*
X191824Y112618D01*
X191303Y112270D01*
X190955Y111749D01*
X190833Y111135D01*
Y98962D01*
X190833Y98962D01*
X190955Y98347D01*
X191303Y97826D01*
X191441Y97689D01*
X191962Y97341D01*
X192576Y97219D01*
X193191Y97341D01*
X193712Y97689D01*
X194060Y98210D01*
X194182Y98824D01*
X194060Y99439D01*
X194044Y99462D01*
Y111135D01*
X193922Y111749D01*
X193574Y112270D01*
X193053Y112618D01*
X192439Y112740D01*
D02*
G37*
G36*
X185942D02*
X185327Y112618D01*
X184806Y112270D01*
X184458Y111749D01*
X184336Y111135D01*
Y98962D01*
X184336Y98962D01*
X184458Y98347D01*
X184806Y97826D01*
X184944Y97689D01*
X185465Y97341D01*
X186079Y97219D01*
X186694Y97341D01*
X187215Y97689D01*
X187563Y98210D01*
X187685Y98824D01*
X187563Y99439D01*
X187547Y99462D01*
Y111135D01*
X187425Y111749D01*
X187077Y112270D01*
X186556Y112618D01*
X185942Y112740D01*
D02*
G37*
G36*
X179445D02*
X178830Y112618D01*
X178309Y112270D01*
X177961Y111749D01*
X177839Y111135D01*
Y98962D01*
X177839Y98962D01*
X177961Y98347D01*
X178309Y97826D01*
X178447Y97689D01*
X178968Y97341D01*
X179582Y97219D01*
X180197Y97341D01*
X180718Y97689D01*
X181066Y98210D01*
X181188Y98824D01*
X181066Y99439D01*
X181050Y99462D01*
Y111135D01*
X180928Y111749D01*
X180580Y112270D01*
X180059Y112618D01*
X179445Y112740D01*
D02*
G37*
G36*
X172948D02*
X172333Y112618D01*
X171812Y112270D01*
X171464Y111749D01*
X171342Y111135D01*
Y98962D01*
X171342Y98962D01*
X171464Y98347D01*
X171812Y97826D01*
X171950Y97689D01*
X172471Y97341D01*
X173085Y97219D01*
X173699Y97341D01*
X174221Y97689D01*
X174568Y98210D01*
X174691Y98824D01*
X174568Y99439D01*
X174553Y99462D01*
Y111135D01*
X174431Y111749D01*
X174083Y112270D01*
X173562Y112618D01*
X172948Y112740D01*
D02*
G37*
G36*
X166451D02*
X165836Y112618D01*
X165315Y112270D01*
X164967Y111749D01*
X164845Y111135D01*
Y98962D01*
X164845Y98962D01*
X164967Y98347D01*
X165315Y97826D01*
X165453Y97689D01*
X165974Y97341D01*
X166588Y97219D01*
X167202Y97341D01*
X167724Y97689D01*
X168071Y98210D01*
X168194Y98824D01*
X168071Y99439D01*
X168056Y99462D01*
Y111135D01*
X167934Y111749D01*
X167586Y112270D01*
X167065Y112618D01*
X166451Y112740D01*
D02*
G37*
G36*
X146959D02*
X146345Y112618D01*
X145824Y112270D01*
X145476Y111749D01*
X145354Y111135D01*
Y98962D01*
X145354Y98962D01*
X145476Y98347D01*
X145824Y97826D01*
X145961Y97689D01*
X146482Y97341D01*
X147097Y97219D01*
X147711Y97341D01*
X148232Y97689D01*
X148580Y98210D01*
X148703Y98824D01*
X148580Y99439D01*
X148565Y99462D01*
Y111135D01*
X148443Y111749D01*
X148095Y112270D01*
X147574Y112618D01*
X146959Y112740D01*
D02*
G37*
G36*
X159953Y112740D02*
X159339Y112618D01*
X158818Y112270D01*
X158470Y111749D01*
X158348Y111135D01*
X158434Y110703D01*
Y98876D01*
X158434Y98876D01*
X158556Y98261D01*
X158904Y97740D01*
X158956Y97689D01*
X159477Y97341D01*
X160091Y97218D01*
X160705Y97341D01*
X161226Y97689D01*
X161574Y98210D01*
X161697Y98824D01*
X161645Y99084D01*
Y111049D01*
X161645Y111049D01*
X161523Y111663D01*
X161175Y112184D01*
X161089Y112270D01*
X160568Y112618D01*
X159953Y112740D01*
D02*
G37*
G36*
X153456Y112740D02*
X152842Y112618D01*
X152321Y112270D01*
X151973Y111749D01*
X151851Y111135D01*
Y98962D01*
X151851Y98962D01*
X151973Y98347D01*
X152321Y97826D01*
X152459Y97689D01*
X152980Y97341D01*
X153594Y97218D01*
X154208Y97341D01*
X154729Y97689D01*
X155077Y98210D01*
X155200Y98824D01*
X155077Y99439D01*
X155062Y99462D01*
Y111135D01*
X154940Y111749D01*
X154592Y112270D01*
X154071Y112618D01*
X153456Y112740D01*
D02*
G37*
G36*
X237918Y112740D02*
X237304Y112618D01*
X236783Y112270D01*
X236435Y111749D01*
X236313Y111135D01*
Y98962D01*
X236313Y98962D01*
X236435Y98347D01*
X236783Y97826D01*
X236921Y97689D01*
X237441Y97341D01*
X238056Y97218D01*
X238670Y97341D01*
X239191Y97689D01*
X239539Y98210D01*
X239662Y98824D01*
X239539Y99439D01*
X239524Y99462D01*
Y111135D01*
X239402Y111749D01*
X239054Y112270D01*
X238533Y112618D01*
X237918Y112740D01*
D02*
G37*
G36*
X198936Y112740D02*
X198321Y112618D01*
X197801Y112270D01*
X197452Y111749D01*
X197330Y111135D01*
Y98962D01*
X197330Y98962D01*
X197452Y98347D01*
X197801Y97826D01*
X197938Y97689D01*
X198459Y97341D01*
X199074Y97218D01*
X199688Y97341D01*
X200209Y97689D01*
X200557Y98210D01*
X200679Y98824D01*
X200557Y99439D01*
X200541Y99462D01*
Y111135D01*
X200419Y111749D01*
X200071Y112270D01*
X199550Y112618D01*
X198936Y112740D01*
D02*
G37*
G36*
X224924Y112642D02*
X224310Y112520D01*
X223789Y112172D01*
X223441Y111651D01*
X223319Y111036D01*
Y98864D01*
X223319Y98864D01*
X223441Y98249D01*
X223789Y97728D01*
X223926Y97591D01*
X224447Y97242D01*
X225062Y97120D01*
X225676Y97242D01*
X226197Y97591D01*
X226545Y98111D01*
X226667Y98726D01*
X226545Y99340D01*
X226530Y99363D01*
Y111036D01*
X226408Y111651D01*
X226060Y112172D01*
X225539Y112520D01*
X224924Y112642D01*
D02*
G37*
G36*
X231725Y87837D02*
X231177D01*
X230670Y87627D01*
X230282Y87240D01*
X230073Y86733D01*
Y86483D01*
X229316Y85726D01*
X226591D01*
X226314Y86142D01*
X226331Y86185D01*
Y86733D01*
X226122Y87240D01*
X225734Y87627D01*
X225228Y87837D01*
X224679D01*
X224173Y87627D01*
X223785Y87240D01*
X223576Y86733D01*
Y86642D01*
X204653Y67720D01*
X202259D01*
X201837Y67636D01*
X201549Y67443D01*
X201230Y67832D01*
X218480Y85081D01*
X218731D01*
X219237Y85291D01*
X219625Y85679D01*
X219834Y86185D01*
Y86733D01*
X219625Y87240D01*
X219237Y87627D01*
X218731Y87837D01*
X218182D01*
X217676Y87627D01*
X217288Y87240D01*
X217127Y86851D01*
X191446Y61170D01*
X190995Y61430D01*
X190132Y61661D01*
X189430D01*
X189212Y62150D01*
X212143Y85081D01*
X212233D01*
X212740Y85291D01*
X213128Y85679D01*
X213337Y86185D01*
Y86733D01*
X213128Y87240D01*
X212740Y87627D01*
X212233Y87837D01*
X211685D01*
X211179Y87627D01*
X210791Y87240D01*
X210581Y86733D01*
Y86642D01*
X184822Y60883D01*
X184582Y60525D01*
X184499Y60102D01*
Y52350D01*
X184582Y51928D01*
X184822Y51570D01*
X186629Y49762D01*
X186523Y49578D01*
X186291Y48715D01*
Y47821D01*
X186523Y46958D01*
X186969Y46184D01*
X187601Y45552D01*
X188375Y45105D01*
X189238Y44874D01*
X190132D01*
X190995Y45105D01*
X191769Y45552D01*
X192401Y46184D01*
X192848Y46958D01*
X193079Y47821D01*
Y48715D01*
X192848Y49578D01*
X192401Y50352D01*
X191769Y50983D01*
X190995Y51430D01*
X190132Y51661D01*
X189238D01*
X188375Y51430D01*
X188190Y51323D01*
X186706Y52808D01*
Y55740D01*
X187206Y55947D01*
X187601Y55552D01*
X188375Y55105D01*
X189238Y54874D01*
X190132D01*
X190995Y55105D01*
X191769Y55552D01*
X192401Y56184D01*
X192848Y56958D01*
X193079Y57821D01*
Y58714D01*
X192875Y59476D01*
X194387Y60988D01*
X194775Y60669D01*
X194582Y60381D01*
X194499Y59959D01*
Y56577D01*
X194582Y56154D01*
X194822Y55796D01*
X197740Y52877D01*
Y51064D01*
X197601Y50983D01*
X196969Y50352D01*
X196523Y49578D01*
X196291Y48715D01*
Y47821D01*
X196523Y46958D01*
X196969Y46184D01*
X197601Y45552D01*
X198375Y45105D01*
X199238Y44874D01*
X200132D01*
X200995Y45105D01*
X201769Y45552D01*
X202401Y46184D01*
X202848Y46958D01*
X203079Y47821D01*
Y48715D01*
X202848Y49578D01*
X202401Y50352D01*
X201769Y50983D01*
X200995Y51430D01*
X200132Y51661D01*
X199948D01*
Y53335D01*
X199864Y53757D01*
X199625Y54115D01*
X199366Y54374D01*
X199573Y54874D01*
X200132D01*
X200995Y55105D01*
X201769Y55552D01*
X202401Y56184D01*
X202848Y56958D01*
X203079Y57821D01*
Y58714D01*
X202848Y59578D01*
X202741Y59762D01*
X226497Y83519D01*
X229774D01*
X230196Y83603D01*
X230554Y83842D01*
X231842Y85130D01*
X232231Y85291D01*
X232619Y85679D01*
X232829Y86185D01*
Y86733D01*
X232619Y87240D01*
X232231Y87627D01*
X231725Y87837D01*
D02*
G37*
G36*
X244719D02*
X244171D01*
X243664Y87627D01*
X243277Y87240D01*
X243067Y86733D01*
Y86185D01*
X243228Y85796D01*
Y85498D01*
X230684Y72954D01*
X226657D01*
X226466Y73416D01*
X238131Y85081D01*
X238222D01*
X238728Y85291D01*
X239116Y85679D01*
X239326Y86185D01*
Y86733D01*
X239116Y87240D01*
X238728Y87627D01*
X238222Y87837D01*
X237674D01*
X237167Y87627D01*
X236780Y87240D01*
X236570Y86733D01*
Y86642D01*
X224653Y74726D01*
X219265D01*
X218843Y74642D01*
X218485Y74402D01*
X204822Y60739D01*
X204583Y60381D01*
X204499Y59959D01*
Y56577D01*
X204583Y56154D01*
X204822Y55796D01*
X207740Y52877D01*
Y51064D01*
X207601Y50983D01*
X206969Y50352D01*
X206523Y49578D01*
X206291Y48715D01*
Y47821D01*
X206523Y46958D01*
X206969Y46184D01*
X207601Y45552D01*
X208375Y45105D01*
X209238Y44874D01*
X210132D01*
X210995Y45105D01*
X211769Y45552D01*
X212401Y46184D01*
X212847Y46958D01*
X213079Y47821D01*
Y48715D01*
X212847Y49578D01*
X212401Y50352D01*
X211769Y50983D01*
X210995Y51430D01*
X210132Y51661D01*
X209948D01*
Y53335D01*
X209864Y53757D01*
X209625Y54115D01*
X209366Y54374D01*
X209573Y54874D01*
X210132D01*
X210995Y55105D01*
X211769Y55552D01*
X212401Y56184D01*
X212847Y56958D01*
X213079Y57821D01*
Y58714D01*
X212847Y59578D01*
X212401Y60352D01*
X212304Y60448D01*
X222603Y70746D01*
X231141D01*
X231564Y70830D01*
X231922Y71070D01*
X245112Y84260D01*
X245352Y84618D01*
X245436Y85040D01*
Y85501D01*
X245613Y85679D01*
X245823Y86185D01*
Y86733D01*
X245613Y87240D01*
X245225Y87627D01*
X244719Y87837D01*
D02*
G37*
G36*
X205736D02*
X205188D01*
X204682Y87627D01*
X204294Y87240D01*
X204084Y86733D01*
Y86642D01*
X183176Y65734D01*
X182937Y65376D01*
X182853Y64954D01*
Y62997D01*
X181180Y61323D01*
X180995Y61430D01*
X180132Y61661D01*
X179238D01*
X178375Y61430D01*
X177601Y60983D01*
X177206Y60588D01*
X176706Y60795D01*
Y62639D01*
X199148Y85081D01*
X199239D01*
X199746Y85291D01*
X200133Y85679D01*
X200343Y86185D01*
Y86733D01*
X200133Y87240D01*
X199746Y87627D01*
X199239Y87837D01*
X198691D01*
X198185Y87627D01*
X197797Y87240D01*
X197587Y86733D01*
Y86642D01*
X174822Y63877D01*
X174583Y63519D01*
X174498Y63096D01*
Y52350D01*
X174583Y51928D01*
X174822Y51570D01*
X176629Y49762D01*
X176523Y49578D01*
X176291Y48715D01*
Y47821D01*
X176523Y46958D01*
X176969Y46184D01*
X177601Y45552D01*
X178375Y45105D01*
X179238Y44874D01*
X180132D01*
X180995Y45105D01*
X181769Y45552D01*
X182401Y46184D01*
X182847Y46958D01*
X183079Y47821D01*
Y48715D01*
X182847Y49578D01*
X182401Y50352D01*
X181769Y50983D01*
X180995Y51430D01*
X180132Y51661D01*
X179238D01*
X178375Y51430D01*
X178190Y51323D01*
X176706Y52808D01*
Y55740D01*
X177206Y55947D01*
X177601Y55552D01*
X178375Y55105D01*
X179238Y54874D01*
X180132D01*
X180995Y55105D01*
X181769Y55552D01*
X182401Y56184D01*
X182847Y56958D01*
X183079Y57821D01*
Y58714D01*
X182847Y59578D01*
X182741Y59762D01*
X184737Y61759D01*
X184976Y62117D01*
X185061Y62539D01*
Y64496D01*
X205645Y85081D01*
X205736D01*
X206243Y85291D01*
X206630Y85679D01*
X206840Y86185D01*
Y86733D01*
X206630Y87240D01*
X206243Y87627D01*
X205736Y87837D01*
D02*
G37*
G36*
X192742D02*
X192194D01*
X191688Y87627D01*
X191300Y87240D01*
X191090Y86733D01*
Y86642D01*
X168904Y64457D01*
X168665Y64099D01*
X168581Y63676D01*
Y61485D01*
X168375Y61430D01*
X167601Y60983D01*
X167206Y60588D01*
X166706Y60795D01*
Y65633D01*
X186154Y85081D01*
X186245D01*
X186752Y85291D01*
X187139Y85679D01*
X187349Y86185D01*
Y86733D01*
X187139Y87240D01*
X186752Y87627D01*
X186245Y87837D01*
X185697D01*
X185191Y87627D01*
X184803Y87240D01*
X184593Y86733D01*
Y86642D01*
X164822Y66871D01*
X164583Y66513D01*
X164498Y66091D01*
Y52350D01*
X164583Y51928D01*
X164822Y51570D01*
X166629Y49762D01*
X166523Y49578D01*
X166291Y48715D01*
Y47821D01*
X166523Y46958D01*
X166969Y46184D01*
X167601Y45552D01*
X168375Y45105D01*
X169238Y44874D01*
X170132D01*
X170995Y45105D01*
X171769Y45552D01*
X172401Y46184D01*
X172847Y46958D01*
X173079Y47821D01*
Y48715D01*
X172847Y49578D01*
X172401Y50352D01*
X171769Y50983D01*
X170995Y51430D01*
X170132Y51661D01*
X169238D01*
X168375Y51430D01*
X168190Y51323D01*
X166706Y52808D01*
Y55740D01*
X167206Y55947D01*
X167601Y55552D01*
X168375Y55105D01*
X169238Y54874D01*
X170132D01*
X170995Y55105D01*
X171769Y55552D01*
X172401Y56184D01*
X172847Y56958D01*
X173079Y57821D01*
Y58714D01*
X172847Y59578D01*
X172401Y60352D01*
X171769Y60983D01*
X170995Y61430D01*
X170789Y61485D01*
Y63219D01*
X192651Y85081D01*
X192742D01*
X193249Y85291D01*
X193636Y85679D01*
X193846Y86185D01*
Y86733D01*
X193636Y87240D01*
X193249Y87627D01*
X192742Y87837D01*
D02*
G37*
G36*
X179748D02*
X179200D01*
X178693Y87627D01*
X178306Y87240D01*
X178096Y86733D01*
Y86642D01*
X158905Y67451D01*
X158665Y67093D01*
X158581Y66670D01*
Y61485D01*
X158375Y61430D01*
X157601Y60983D01*
X157206Y60588D01*
X156706Y60795D01*
Y68627D01*
X173160Y85081D01*
X173251D01*
X173758Y85291D01*
X174145Y85679D01*
X174355Y86185D01*
Y86733D01*
X174145Y87240D01*
X173758Y87627D01*
X173251Y87837D01*
X172703D01*
X172196Y87627D01*
X171809Y87240D01*
X171599Y86733D01*
Y86642D01*
X154822Y69865D01*
X154583Y69507D01*
X154499Y69085D01*
Y52350D01*
X154583Y51928D01*
X154822Y51570D01*
X156629Y49762D01*
X156523Y49578D01*
X156291Y48715D01*
Y47821D01*
X156523Y46958D01*
X156969Y46184D01*
X157601Y45552D01*
X158375Y45105D01*
X159238Y44874D01*
X160132D01*
X160995Y45105D01*
X161769Y45552D01*
X162401Y46184D01*
X162847Y46958D01*
X163079Y47821D01*
Y48715D01*
X162847Y49578D01*
X162401Y50352D01*
X161769Y50983D01*
X160995Y51430D01*
X160132Y51661D01*
X159238D01*
X158375Y51430D01*
X158190Y51323D01*
X156706Y52808D01*
Y55740D01*
X157206Y55947D01*
X157601Y55552D01*
X158375Y55105D01*
X159238Y54874D01*
X160132D01*
X160995Y55105D01*
X161769Y55552D01*
X162401Y56184D01*
X162847Y56958D01*
X163079Y57821D01*
Y58714D01*
X162847Y59578D01*
X162401Y60352D01*
X161769Y60983D01*
X160995Y61430D01*
X160789Y61485D01*
Y66213D01*
X179657Y85081D01*
X179748D01*
X180255Y85291D01*
X180642Y85679D01*
X180852Y86185D01*
Y86733D01*
X180642Y87240D01*
X180255Y87627D01*
X179748Y87837D01*
D02*
G37*
G36*
X166754D02*
X166206D01*
X165699Y87627D01*
X165312Y87240D01*
X165102Y86733D01*
Y86642D01*
X148905Y70445D01*
X148665Y70087D01*
X148581Y69664D01*
Y61485D01*
X148375Y61430D01*
X147601Y60983D01*
X147206Y60588D01*
X146706Y60795D01*
Y71622D01*
X160166Y85081D01*
X160257D01*
X160763Y85291D01*
X161151Y85679D01*
X161361Y86185D01*
Y86733D01*
X161151Y87240D01*
X160763Y87627D01*
X160257Y87837D01*
X159709D01*
X159202Y87627D01*
X158815Y87240D01*
X158605Y86733D01*
Y86642D01*
X144822Y72859D01*
X144582Y72501D01*
X144499Y72079D01*
Y52350D01*
X144582Y51928D01*
X144822Y51570D01*
X146629Y49762D01*
X146523Y49578D01*
X146291Y48715D01*
Y47821D01*
X146523Y46958D01*
X146969Y46184D01*
X147601Y45552D01*
X148375Y45105D01*
X149238Y44874D01*
X150132D01*
X150995Y45105D01*
X151769Y45552D01*
X152401Y46184D01*
X152848Y46958D01*
X153079Y47821D01*
Y48715D01*
X152848Y49578D01*
X152401Y50352D01*
X151769Y50983D01*
X150995Y51430D01*
X150132Y51661D01*
X149238D01*
X148375Y51430D01*
X148190Y51323D01*
X146706Y52808D01*
Y55740D01*
X147206Y55947D01*
X147601Y55552D01*
X148375Y55105D01*
X149238Y54874D01*
X150132D01*
X150995Y55105D01*
X151769Y55552D01*
X152401Y56184D01*
X152848Y56958D01*
X153079Y57821D01*
Y58714D01*
X152848Y59578D01*
X152401Y60352D01*
X151769Y60983D01*
X150995Y61430D01*
X150789Y61485D01*
Y69207D01*
X166663Y85081D01*
X166754D01*
X167261Y85291D01*
X167648Y85679D01*
X167858Y86185D01*
Y86733D01*
X167648Y87240D01*
X167261Y87627D01*
X166754Y87837D01*
D02*
G37*
G36*
X153760D02*
X153212D01*
X152705Y87627D01*
X152318Y87240D01*
X152108Y86733D01*
Y86642D01*
X138905Y73439D01*
X138665Y73081D01*
X138581Y72658D01*
Y61485D01*
X138375Y61430D01*
X137601Y60983D01*
X137206Y60588D01*
X136706Y60795D01*
Y74616D01*
X147172Y85081D01*
X147263D01*
X147769Y85291D01*
X148157Y85679D01*
X148367Y86185D01*
Y86733D01*
X148157Y87240D01*
X147769Y87627D01*
X147263Y87837D01*
X146715D01*
X146208Y87627D01*
X145821Y87240D01*
X145611Y86733D01*
Y86642D01*
X134822Y75853D01*
X134582Y75495D01*
X134499Y75073D01*
Y52350D01*
X134582Y51928D01*
X134822Y51570D01*
X136629Y49762D01*
X136523Y49578D01*
X136291Y48715D01*
Y47821D01*
X136523Y46958D01*
X136969Y46184D01*
X137601Y45552D01*
X138375Y45105D01*
X139238Y44874D01*
X140132D01*
X140995Y45105D01*
X141769Y45552D01*
X142401Y46184D01*
X142848Y46958D01*
X143079Y47821D01*
Y48715D01*
X142848Y49578D01*
X142401Y50352D01*
X141769Y50983D01*
X140995Y51430D01*
X140132Y51661D01*
X139238D01*
X138375Y51430D01*
X138190Y51323D01*
X136706Y52808D01*
Y55740D01*
X137206Y55947D01*
X137601Y55552D01*
X138375Y55105D01*
X139238Y54874D01*
X140132D01*
X140995Y55105D01*
X141769Y55552D01*
X142401Y56184D01*
X142848Y56958D01*
X143079Y57821D01*
Y58714D01*
X142848Y59578D01*
X142401Y60352D01*
X141769Y60983D01*
X140995Y61430D01*
X140789Y61485D01*
Y72201D01*
X153669Y85081D01*
X153760D01*
X154266Y85291D01*
X154654Y85679D01*
X154864Y86185D01*
Y86733D01*
X154654Y87240D01*
X154266Y87627D01*
X153760Y87837D01*
D02*
G37*
G36*
X140766D02*
X140218D01*
X139711Y87627D01*
X139323Y87240D01*
X139114Y86733D01*
Y86642D01*
X128904Y76433D01*
X128665Y76075D01*
X128581Y75653D01*
Y61485D01*
X128375Y61430D01*
X127601Y60983D01*
X127206Y60588D01*
X126706Y60795D01*
Y77610D01*
X134178Y85081D01*
X134269D01*
X134775Y85291D01*
X135163Y85679D01*
X135373Y86185D01*
Y86733D01*
X135163Y87240D01*
X134775Y87627D01*
X134269Y87837D01*
X133721D01*
X133214Y87627D01*
X132826Y87240D01*
X132617Y86733D01*
Y86642D01*
X124822Y78848D01*
X124583Y78490D01*
X124498Y78067D01*
Y52350D01*
X124583Y51928D01*
X124822Y51570D01*
X126629Y49762D01*
X126523Y49578D01*
X126291Y48715D01*
Y47821D01*
X126523Y46958D01*
X126969Y46184D01*
X127601Y45552D01*
X128375Y45105D01*
X129238Y44874D01*
X130132D01*
X130995Y45105D01*
X131769Y45552D01*
X132401Y46184D01*
X132847Y46958D01*
X133079Y47821D01*
Y48715D01*
X132847Y49578D01*
X132401Y50352D01*
X131769Y50983D01*
X130995Y51430D01*
X130132Y51661D01*
X129238D01*
X128375Y51430D01*
X128190Y51323D01*
X126706Y52808D01*
Y55740D01*
X127206Y55947D01*
X127601Y55552D01*
X128375Y55105D01*
X129238Y54874D01*
X130132D01*
X130995Y55105D01*
X131769Y55552D01*
X132401Y56184D01*
X132847Y56958D01*
X133079Y57821D01*
Y58714D01*
X132847Y59578D01*
X132401Y60352D01*
X131769Y60983D01*
X130995Y61430D01*
X130789Y61485D01*
Y75195D01*
X140675Y85081D01*
X140766D01*
X141272Y85291D01*
X141660Y85679D01*
X141870Y86185D01*
Y86733D01*
X141660Y87240D01*
X141272Y87627D01*
X140766Y87837D01*
D02*
G37*
G36*
X127772D02*
X127223D01*
X126717Y87627D01*
X126329Y87240D01*
X126120Y86733D01*
Y86642D01*
X118904Y79427D01*
X118665Y79069D01*
X118581Y78647D01*
Y61485D01*
X118375Y61430D01*
X117601Y60983D01*
X117206Y60588D01*
X116706Y60795D01*
Y80604D01*
X121184Y85081D01*
X121274D01*
X121781Y85291D01*
X122169Y85679D01*
X122378Y86185D01*
Y86733D01*
X122169Y87240D01*
X121781Y87627D01*
X121274Y87837D01*
X120726D01*
X120220Y87627D01*
X119832Y87240D01*
X119623Y86733D01*
Y86642D01*
X114822Y81842D01*
X114583Y81484D01*
X114498Y81061D01*
Y52350D01*
X114583Y51928D01*
X114822Y51570D01*
X116629Y49762D01*
X116523Y49578D01*
X116291Y48715D01*
Y47821D01*
X116523Y46958D01*
X116969Y46184D01*
X117601Y45552D01*
X118375Y45105D01*
X119238Y44874D01*
X120132D01*
X120995Y45105D01*
X121769Y45552D01*
X122401Y46184D01*
X122847Y46958D01*
X123079Y47821D01*
Y48715D01*
X122847Y49578D01*
X122401Y50352D01*
X121769Y50983D01*
X120995Y51430D01*
X120132Y51661D01*
X119238D01*
X118375Y51430D01*
X118190Y51323D01*
X116706Y52808D01*
Y55740D01*
X117206Y55947D01*
X117601Y55552D01*
X118375Y55105D01*
X119238Y54874D01*
X120132D01*
X120995Y55105D01*
X121769Y55552D01*
X122401Y56184D01*
X122847Y56958D01*
X123079Y57821D01*
Y58714D01*
X122847Y59578D01*
X122401Y60352D01*
X121769Y60983D01*
X120995Y61430D01*
X120789Y61485D01*
Y78189D01*
X127681Y85081D01*
X127772D01*
X128278Y85291D01*
X128666Y85679D01*
X128876Y86185D01*
Y86733D01*
X128666Y87240D01*
X128278Y87627D01*
X127772Y87837D01*
D02*
G37*
G36*
X531313Y171622D02*
X530419D01*
X529556Y171391D01*
X528782Y170944D01*
X528151Y170312D01*
X527704Y169538D01*
X527472Y168675D01*
Y167782D01*
X527704Y166918D01*
X528151Y166145D01*
X528458Y165837D01*
Y160637D01*
X523275D01*
Y165837D01*
X523582Y166145D01*
X524029Y166918D01*
X524260Y167782D01*
Y168675D01*
X524029Y169538D01*
X523582Y170312D01*
X522950Y170944D01*
X522176Y171391D01*
X521313Y171622D01*
X520419D01*
X519556Y171391D01*
X518782Y170944D01*
X518151Y170312D01*
X517704Y169538D01*
X517472Y168675D01*
Y167782D01*
X517704Y166918D01*
X518151Y166145D01*
X518458Y165837D01*
Y160637D01*
X436890D01*
X435968Y160453D01*
X435187Y159931D01*
X402903Y127648D01*
X402381Y126867D01*
X402198Y125945D01*
Y125898D01*
X402381Y124976D01*
X402903Y124195D01*
X403685Y123673D01*
X404606Y123490D01*
X405528Y123673D01*
X406309Y124195D01*
X406403Y124336D01*
X437887Y155820D01*
X455786D01*
Y58213D01*
X441943Y44370D01*
X441852D01*
X441345Y44160D01*
X440958Y43773D01*
X440748Y43266D01*
Y42718D01*
X440958Y42212D01*
X441345Y41824D01*
X441852Y41614D01*
X441782Y41143D01*
X408661D01*
X408239Y41059D01*
X407881Y40820D01*
X402290Y35229D01*
X400091D01*
X400026Y35293D01*
X399520Y35503D01*
X398972D01*
X398465Y35293D01*
X398078Y34906D01*
X397868Y34399D01*
Y33851D01*
X398078Y33345D01*
X398465Y32957D01*
X398972Y32747D01*
X399520D01*
X400026Y32957D01*
X400091Y33021D01*
X402747D01*
X403170Y33105D01*
X403528Y33345D01*
X409119Y38936D01*
X419069D01*
X419276Y38436D01*
X416078Y35238D01*
X412951D01*
X412887Y35302D01*
X412380Y35512D01*
X411832D01*
X411326Y35302D01*
X410938Y34914D01*
X410728Y34408D01*
Y33860D01*
X410938Y33353D01*
X411326Y32966D01*
X411832Y32756D01*
X412380D01*
X412887Y32966D01*
X412951Y33030D01*
X416535D01*
X416958Y33114D01*
X417316Y33353D01*
X420930Y36967D01*
X425644D01*
X425770Y36765D01*
X425833Y36467D01*
X424878Y35512D01*
X424627D01*
X424121Y35302D01*
X423733Y34914D01*
X423524Y34408D01*
Y33860D01*
X423733Y33353D01*
X424121Y32966D01*
X424627Y32756D01*
X425176D01*
X425682Y32966D01*
X426070Y33353D01*
X426231Y33742D01*
X427146Y34658D01*
X428563D01*
X428986Y34742D01*
X429344Y34981D01*
X429459Y35097D01*
X436358D01*
X436692Y34597D01*
X436614Y34408D01*
Y33860D01*
X436824Y33353D01*
X437212Y32966D01*
X437718Y32756D01*
X438266D01*
X438773Y32966D01*
X438837Y33030D01*
X455048D01*
X458527Y29551D01*
X458519Y29514D01*
X458642Y28900D01*
X458990Y28379D01*
X459511Y28031D01*
X460125Y27909D01*
X472371D01*
X472371Y27909D01*
X472985Y28031D01*
X473506Y28379D01*
X473587Y28460D01*
X473935Y28981D01*
X474057Y29595D01*
X473935Y30209D01*
X473587Y30731D01*
X473066Y31078D01*
X472451Y31201D01*
X472045Y31120D01*
X460125D01*
X460088Y31113D01*
X456604Y34597D01*
X456811Y35097D01*
X458842D01*
X458990Y34876D01*
X459511Y34528D01*
X460125Y34406D01*
X472371D01*
X472371Y34406D01*
X472985Y34528D01*
X473506Y34876D01*
X473587Y34957D01*
X473935Y35478D01*
X474057Y36092D01*
X473935Y36707D01*
X473587Y37227D01*
X473066Y37576D01*
X472451Y37698D01*
X472045Y37617D01*
X460125D01*
X459511Y37495D01*
X459226Y37305D01*
X457136D01*
X456944Y37767D01*
X460088Y40910D01*
X460125Y40903D01*
X460531Y40984D01*
X472451D01*
X473066Y41106D01*
X473587Y41454D01*
X473935Y41975D01*
X474057Y42589D01*
X473935Y43204D01*
X473587Y43725D01*
X473066Y44073D01*
X472451Y44195D01*
X460206D01*
X460206Y44195D01*
X459591Y44073D01*
X459070Y43725D01*
X459070Y43725D01*
X458990Y43644D01*
X458642Y43123D01*
X458519Y42508D01*
X458527Y42471D01*
X455230Y39175D01*
X452563D01*
X452355Y39675D01*
X460088Y47407D01*
X460125Y47400D01*
X460531Y47481D01*
X472451D01*
X473066Y47603D01*
X473587Y47951D01*
X473935Y48472D01*
X474057Y49086D01*
X473935Y49701D01*
X473587Y50222D01*
X473066Y50570D01*
X472451Y50692D01*
X460206D01*
X460206Y50692D01*
X459591Y50570D01*
X459070Y50222D01*
X459070Y50222D01*
X458990Y50141D01*
X458642Y49620D01*
X458519Y49005D01*
X458527Y48968D01*
X450702Y41143D01*
X442470D01*
X442400Y41614D01*
X442907Y41824D01*
X443294Y42212D01*
X443504Y42718D01*
Y42809D01*
X457670Y56975D01*
X457910Y57333D01*
X457994Y57756D01*
Y155820D01*
X518458D01*
Y150619D01*
X518151Y150312D01*
X517704Y149538D01*
X517472Y148675D01*
Y147782D01*
X517704Y146918D01*
X518151Y146145D01*
X518458Y145837D01*
Y140619D01*
X518151Y140312D01*
X517704Y139538D01*
X517472Y138675D01*
Y137782D01*
X517704Y136918D01*
X518151Y136145D01*
X518458Y135837D01*
Y130619D01*
X518151Y130312D01*
X517704Y129538D01*
X517472Y128675D01*
Y127782D01*
X517704Y126918D01*
X518151Y126145D01*
X518782Y125513D01*
X519556Y125066D01*
X520419Y124835D01*
X521313D01*
X522176Y125066D01*
X522950Y125513D01*
X523582Y126145D01*
X524029Y126918D01*
X524260Y127782D01*
Y128675D01*
X524029Y129538D01*
X523582Y130312D01*
X523275Y130619D01*
Y135837D01*
X523582Y136145D01*
X524029Y136918D01*
X524260Y137782D01*
Y138675D01*
X524029Y139538D01*
X523582Y140312D01*
X523275Y140619D01*
Y145837D01*
X523582Y146145D01*
X524029Y146918D01*
X524260Y147782D01*
Y148675D01*
X524029Y149538D01*
X523582Y150312D01*
X523275Y150619D01*
Y155820D01*
X528458D01*
Y150619D01*
X528151Y150312D01*
X527704Y149538D01*
X527472Y148675D01*
Y147782D01*
X527704Y146918D01*
X528151Y146145D01*
X528458Y145837D01*
Y140619D01*
X528151Y140312D01*
X527704Y139538D01*
X527472Y138675D01*
Y137782D01*
X527704Y136918D01*
X528151Y136145D01*
X528458Y135837D01*
Y130619D01*
X528151Y130312D01*
X527704Y129538D01*
X527472Y128675D01*
Y127782D01*
X527704Y126918D01*
X528151Y126145D01*
X528782Y125513D01*
X529556Y125066D01*
X530419Y124835D01*
X531313D01*
X532176Y125066D01*
X532950Y125513D01*
X533582Y126145D01*
X534029Y126918D01*
X534260Y127782D01*
Y128675D01*
X534029Y129538D01*
X533582Y130312D01*
X533275Y130619D01*
Y135837D01*
X533582Y136145D01*
X534029Y136918D01*
X534260Y137782D01*
Y138675D01*
X534029Y139538D01*
X533582Y140312D01*
X533275Y140619D01*
Y145837D01*
X533582Y146145D01*
X534029Y146918D01*
X534260Y147782D01*
Y148675D01*
X534029Y149538D01*
X533582Y150312D01*
X533275Y150619D01*
Y155837D01*
X533582Y156145D01*
X534029Y156918D01*
X534260Y157782D01*
Y158675D01*
X534029Y159538D01*
X533582Y160312D01*
X533275Y160619D01*
Y165837D01*
X533582Y166145D01*
X534029Y166918D01*
X534260Y167782D01*
Y168675D01*
X534029Y169538D01*
X533582Y170312D01*
X532950Y170944D01*
X532176Y171391D01*
X531313Y171622D01*
D02*
G37*
G36*
X375765Y160827D02*
X374825D01*
X373957Y160467D01*
X373293Y159803D01*
X372933Y158934D01*
Y157995D01*
X373293Y157126D01*
X373957Y156462D01*
X374825Y156102D01*
X375765D01*
X376633Y156462D01*
X377298Y157126D01*
X377658Y157995D01*
Y158934D01*
X377298Y159803D01*
X376633Y160467D01*
X375765Y160827D01*
D02*
G37*
G36*
X367694D02*
X366755D01*
X365886Y160467D01*
X365222Y159803D01*
X364862Y158934D01*
Y157995D01*
X365222Y157126D01*
X365886Y156462D01*
X366755Y156102D01*
X367694D01*
X368563Y156462D01*
X369227Y157126D01*
X369587Y157995D01*
Y158934D01*
X369227Y159803D01*
X368563Y160467D01*
X367694Y160827D01*
D02*
G37*
G36*
X472451Y154645D02*
X472045Y154564D01*
X460125D01*
X459511Y154442D01*
X458990Y154094D01*
X458642Y153573D01*
X458519Y152959D01*
X458642Y152344D01*
X458990Y151823D01*
X459511Y151475D01*
X460125Y151353D01*
X472371D01*
X472371Y151353D01*
X472985Y151475D01*
X473506Y151823D01*
X473587Y151904D01*
X473935Y152425D01*
X474057Y153039D01*
X473935Y153654D01*
X473587Y154175D01*
X473066Y154523D01*
X472451Y154645D01*
D02*
G37*
G36*
X472452Y148148D02*
X472046Y148067D01*
X460125D01*
X459511Y147945D01*
X458990Y147597D01*
X458642Y147076D01*
X458520Y146462D01*
X458642Y145847D01*
X458990Y145326D01*
X459511Y144978D01*
X460125Y144856D01*
X472371D01*
X472371Y144856D01*
X472985Y144978D01*
X473506Y145326D01*
X473587Y145407D01*
X473935Y145928D01*
X474057Y146542D01*
X473935Y147157D01*
X473587Y147678D01*
X473066Y148026D01*
X472452Y148148D01*
D02*
G37*
G36*
X472451Y141651D02*
X472045Y141570D01*
X460125D01*
X459511Y141448D01*
X458990Y141100D01*
X458642Y140579D01*
X458519Y139964D01*
X458642Y139350D01*
X458990Y138829D01*
X459511Y138481D01*
X460125Y138359D01*
X472371D01*
X472371Y138359D01*
X472985Y138481D01*
X473506Y138829D01*
X473587Y138910D01*
X473935Y139431D01*
X474057Y140045D01*
X473935Y140660D01*
X473587Y141181D01*
X473066Y141529D01*
X472451Y141651D01*
D02*
G37*
G36*
X346108Y139480D02*
X344109Y137480D01*
X346108Y135481D01*
X346385Y135961D01*
X346654Y136962D01*
Y137999D01*
X346385Y139000D01*
X346108Y139480D01*
D02*
G37*
G36*
X353157Y140827D02*
X352276D01*
X351425Y140599D01*
X350662Y140158D01*
X350039Y139535D01*
X349598Y138772D01*
X349370Y137921D01*
Y137040D01*
X349598Y136189D01*
X350039Y135425D01*
X350662Y134802D01*
X351425Y134362D01*
X352276Y134134D01*
X353157D01*
X354008Y134362D01*
X354771Y134802D01*
X355395Y135425D01*
X355835Y136189D01*
X356063Y137040D01*
Y137921D01*
X355835Y138772D01*
X355395Y139535D01*
X354771Y140158D01*
X354008Y140599D01*
X353157Y140827D01*
D02*
G37*
G36*
X472550Y135154D02*
X472144Y135073D01*
X460223D01*
X459609Y134951D01*
X459088Y134603D01*
X458740Y134082D01*
X458618Y133467D01*
X458740Y132853D01*
X459088Y132332D01*
X459609Y131984D01*
X460223Y131862D01*
X472469D01*
X472469Y131862D01*
X473084Y131984D01*
X473604Y132332D01*
X473685Y132413D01*
X474033Y132934D01*
X474156Y133548D01*
X474033Y134163D01*
X473685Y134684D01*
X473164Y135032D01*
X472550Y135154D01*
D02*
G37*
G36*
X472451Y128657D02*
X472045Y128576D01*
X460125D01*
X459511Y128454D01*
X458990Y128106D01*
X458642Y127585D01*
X458519Y126970D01*
X458642Y126356D01*
X458990Y125835D01*
X459511Y125487D01*
X460125Y125365D01*
X472371D01*
X472371Y125365D01*
X472985Y125487D01*
X473506Y125835D01*
X473587Y125916D01*
X473935Y126437D01*
X474057Y127051D01*
X473935Y127665D01*
X473587Y128186D01*
X473066Y128534D01*
X472451Y128657D01*
D02*
G37*
G36*
Y122160D02*
X472045Y122079D01*
X460125D01*
X459511Y121957D01*
X458990Y121609D01*
X458642Y121088D01*
X458519Y120473D01*
X458642Y119859D01*
X458990Y119338D01*
X459511Y118990D01*
X460125Y118868D01*
X472371D01*
X472371Y118868D01*
X472985Y118990D01*
X473506Y119338D01*
X473587Y119419D01*
X473935Y119940D01*
X474057Y120554D01*
X473935Y121168D01*
X473587Y121689D01*
X473066Y122037D01*
X472451Y122160D01*
D02*
G37*
G36*
X485018Y154422D02*
X484470D01*
X483963Y154213D01*
X483576Y153825D01*
X483366Y153319D01*
Y152770D01*
X483576Y152264D01*
X483963Y151876D01*
X484470Y151667D01*
X485018D01*
X485407Y151828D01*
X485706D01*
X517810Y119723D01*
X517704Y119538D01*
X517472Y118675D01*
Y117782D01*
X517704Y116918D01*
X517964Y116468D01*
X517563Y116161D01*
X489496Y144228D01*
Y144906D01*
X489412Y145329D01*
X489173Y145687D01*
X487645Y147215D01*
X487287Y147454D01*
X486865Y147538D01*
X485702D01*
X485525Y147716D01*
X485018Y147925D01*
X484470D01*
X483963Y147716D01*
X483576Y147328D01*
X483366Y146822D01*
Y146273D01*
X483576Y145767D01*
X483963Y145379D01*
X484470Y145170D01*
X485018D01*
X485407Y145331D01*
X486407D01*
X487289Y144449D01*
Y143771D01*
X487373Y143349D01*
X487612Y142991D01*
X518077Y112526D01*
X518435Y112287D01*
X518857Y112203D01*
X525944D01*
X526367Y112287D01*
X526725Y112526D01*
X529372Y115173D01*
X529556Y115066D01*
X530419Y114835D01*
X531313D01*
X532176Y115066D01*
X532950Y115513D01*
X533582Y116145D01*
X534029Y116918D01*
X534260Y117782D01*
Y118675D01*
X534029Y119538D01*
X533582Y120312D01*
X532950Y120944D01*
X532176Y121391D01*
X531313Y121622D01*
X530419D01*
X529556Y121391D01*
X528782Y120944D01*
X528151Y120312D01*
X527704Y119538D01*
X527472Y118675D01*
Y117782D01*
X527704Y116918D01*
X527810Y116734D01*
X525487Y114410D01*
X521662D01*
X521596Y114910D01*
X522176Y115066D01*
X522950Y115513D01*
X523582Y116145D01*
X524029Y116918D01*
X524260Y117782D01*
Y118675D01*
X524029Y119538D01*
X523582Y120312D01*
X522950Y120944D01*
X522176Y121391D01*
X521313Y121622D01*
X520419D01*
X519556Y121391D01*
X519372Y121284D01*
X486943Y153712D01*
X486585Y153951D01*
X486163Y154035D01*
X485702D01*
X485525Y154213D01*
X485018Y154422D01*
D02*
G37*
G36*
X472451Y115663D02*
X472045Y115582D01*
X460125D01*
X459511Y115460D01*
X458990Y115111D01*
X458642Y114591D01*
X458519Y113976D01*
X458642Y113362D01*
X458990Y112841D01*
X459511Y112493D01*
X460125Y112371D01*
X472371D01*
X472371Y112371D01*
X472985Y112493D01*
X473506Y112841D01*
X473587Y112922D01*
X473935Y113443D01*
X474057Y114057D01*
X473935Y114671D01*
X473587Y115192D01*
X473066Y115540D01*
X472451Y115663D01*
D02*
G37*
G36*
X472452Y109166D02*
X472046Y109085D01*
X460125D01*
X459511Y108963D01*
X458990Y108615D01*
X458642Y108094D01*
X458520Y107479D01*
X458642Y106865D01*
X458990Y106344D01*
X459511Y105996D01*
X460125Y105874D01*
X472371D01*
X472371Y105874D01*
X472985Y105996D01*
X473506Y106344D01*
X473587Y106425D01*
X473935Y106946D01*
X474057Y107560D01*
X473935Y108174D01*
X473587Y108695D01*
X473066Y109043D01*
X472452Y109166D01*
D02*
G37*
G36*
X485018Y141428D02*
X484470D01*
X483963Y141219D01*
X483576Y140831D01*
X483366Y140324D01*
Y139776D01*
X483576Y139270D01*
X483963Y138882D01*
X484470Y138672D01*
X484721D01*
X485857Y137536D01*
X486215Y137297D01*
X486637Y137213D01*
X488042D01*
X516940Y108314D01*
X517299Y108075D01*
X517472Y108040D01*
Y107782D01*
X517704Y106918D01*
X518151Y106145D01*
X518545Y105749D01*
X518338Y105250D01*
X514609D01*
X486122Y133737D01*
Y133827D01*
X485912Y134334D01*
X485525Y134722D01*
X485018Y134931D01*
X484470D01*
X483963Y134722D01*
X483576Y134334D01*
X483366Y133827D01*
Y133279D01*
X483576Y132773D01*
X483963Y132385D01*
X484470Y132175D01*
X484561D01*
X488076Y128660D01*
X487869Y128160D01*
X485589D01*
X485525Y128225D01*
X485018Y128434D01*
X484470D01*
X483963Y128225D01*
X483576Y127837D01*
X483366Y127330D01*
Y126782D01*
X483576Y126276D01*
X483963Y125888D01*
X484470Y125678D01*
X485018D01*
X485525Y125888D01*
X485589Y125952D01*
X487929D01*
X499416Y114465D01*
X499416Y114465D01*
X516088Y97793D01*
X516446Y97554D01*
X516868Y97470D01*
X517556D01*
X517704Y96918D01*
X518151Y96145D01*
X518545Y95749D01*
X518338Y95249D01*
X511615D01*
X486122Y120742D01*
Y120833D01*
X485912Y121340D01*
X485525Y121727D01*
X485018Y121937D01*
X484470D01*
X483963Y121727D01*
X483576Y121340D01*
X483366Y120833D01*
Y120285D01*
X483576Y119779D01*
X483963Y119391D01*
X484470Y119181D01*
X484561D01*
X510377Y93365D01*
X510735Y93126D01*
X511158Y93042D01*
X526784D01*
X527206Y93126D01*
X527564Y93365D01*
X529372Y95173D01*
X529556Y95066D01*
X530419Y94835D01*
X531313D01*
X532176Y95066D01*
X532950Y95513D01*
X533582Y96145D01*
X534029Y96918D01*
X534260Y97782D01*
Y98675D01*
X534029Y99538D01*
X533582Y100312D01*
X532950Y100944D01*
X532176Y101391D01*
X531313Y101622D01*
X530419D01*
X529556Y101391D01*
X528782Y100944D01*
X528151Y100312D01*
X527704Y99538D01*
X527472Y98675D01*
Y97782D01*
X527704Y96918D01*
X527810Y96734D01*
X526326Y95249D01*
X523394D01*
X523187Y95749D01*
X523582Y96145D01*
X524029Y96918D01*
X524260Y97782D01*
Y98675D01*
X524029Y99538D01*
X523582Y100312D01*
X522950Y100944D01*
X522176Y101391D01*
X521313Y101622D01*
X520419D01*
X519556Y101391D01*
X518782Y100944D01*
X518151Y100312D01*
X517808Y99720D01*
X517319Y99684D01*
X514461Y102542D01*
X514669Y103042D01*
X526784D01*
X527206Y103126D01*
X527564Y103365D01*
X529372Y105173D01*
X529556Y105066D01*
X530419Y104835D01*
X531313D01*
X532176Y105066D01*
X532950Y105513D01*
X533582Y106145D01*
X534029Y106918D01*
X534260Y107782D01*
Y108675D01*
X534029Y109538D01*
X533582Y110312D01*
X532950Y110944D01*
X532176Y111391D01*
X531313Y111622D01*
X530419D01*
X529556Y111391D01*
X528782Y110944D01*
X528151Y110312D01*
X527704Y109538D01*
X527472Y108675D01*
Y107782D01*
X527704Y106918D01*
X527810Y106734D01*
X526326Y105250D01*
X523394D01*
X523187Y105749D01*
X523582Y106145D01*
X524029Y106918D01*
X524260Y107782D01*
Y108675D01*
X524029Y109538D01*
X523582Y110312D01*
X522950Y110944D01*
X522176Y111391D01*
X521313Y111622D01*
X520419D01*
X519556Y111391D01*
X518782Y110944D01*
X518151Y110312D01*
X518075Y110302D01*
X489279Y139097D01*
X488921Y139337D01*
X488499Y139421D01*
X487095D01*
X486073Y140442D01*
X485912Y140831D01*
X485525Y141219D01*
X485018Y141428D01*
D02*
G37*
G36*
X472451Y102668D02*
X472045Y102588D01*
X460125D01*
X459511Y102465D01*
X458990Y102117D01*
X458642Y101596D01*
X458519Y100982D01*
X458642Y100368D01*
X458990Y99847D01*
X459511Y99499D01*
X460125Y99376D01*
X472371D01*
X472371Y99376D01*
X472985Y99499D01*
X473506Y99847D01*
X473587Y99928D01*
X473935Y100448D01*
X474057Y101063D01*
X473935Y101677D01*
X473587Y102198D01*
X473066Y102546D01*
X472451Y102668D01*
D02*
G37*
G36*
Y96171D02*
X472045Y96091D01*
X460125D01*
X459511Y95968D01*
X458990Y95620D01*
X458642Y95099D01*
X458519Y94485D01*
X458642Y93871D01*
X458990Y93350D01*
X459511Y93002D01*
X460125Y92879D01*
X472371D01*
X472371Y92879D01*
X472985Y93002D01*
X473506Y93350D01*
X473587Y93430D01*
X473935Y93951D01*
X474057Y94566D01*
X473935Y95180D01*
X473587Y95701D01*
X473066Y96049D01*
X472451Y96171D01*
D02*
G37*
G36*
X397128Y107117D02*
X397128Y107117D01*
X366417D01*
X365803Y106995D01*
X365282Y106647D01*
X364934Y106126D01*
X364812Y105512D01*
X364934Y104897D01*
X365282Y104376D01*
X365803Y104028D01*
X366417Y103906D01*
X396462D01*
X404890Y95478D01*
Y82482D01*
X390514D01*
X390351Y82645D01*
X390144Y83143D01*
X389757Y83530D01*
X389250Y83740D01*
X389018D01*
X386185Y86573D01*
X386049Y86664D01*
X386201Y87164D01*
X395294D01*
X395294Y87164D01*
X399943D01*
X400007Y87099D01*
X400513Y86890D01*
X401061D01*
X401568Y87099D01*
X401956Y87487D01*
X402165Y87994D01*
Y88542D01*
X401956Y89048D01*
X401568Y89436D01*
X401061Y89646D01*
X400513D01*
X400007Y89436D01*
X399943Y89372D01*
X395294D01*
X395294Y89372D01*
X388872D01*
X388743Y89559D01*
X388617Y89872D01*
X388793Y90297D01*
Y90845D01*
X388583Y91351D01*
X388350Y91585D01*
X388557Y92085D01*
X399943D01*
X400007Y92021D01*
X400513Y91811D01*
X401061D01*
X401568Y92021D01*
X401956Y92408D01*
X402165Y92915D01*
Y93463D01*
X401956Y93970D01*
X401568Y94357D01*
X401061Y94567D01*
X400513D01*
X400007Y94357D01*
X399943Y94293D01*
X373228D01*
X372806Y94209D01*
X372448Y93970D01*
X364772Y86294D01*
X364532Y85935D01*
X364448Y85513D01*
Y82715D01*
X364384Y82651D01*
X364174Y82144D01*
Y81596D01*
X364384Y81090D01*
X364772Y80702D01*
X365278Y80492D01*
X365826D01*
X366333Y80702D01*
X366721Y81090D01*
X366930Y81596D01*
Y82144D01*
X366721Y82651D01*
X366656Y82715D01*
Y85056D01*
X373686Y92085D01*
X374778D01*
X374985Y91585D01*
X369741Y86342D01*
X369502Y85983D01*
X369418Y85561D01*
Y82469D01*
X369255Y82306D01*
X369045Y81800D01*
Y81252D01*
X369255Y80745D01*
X369643Y80357D01*
X370149Y80148D01*
X370697D01*
X371204Y80357D01*
X371591Y80745D01*
X371801Y81252D01*
Y81800D01*
X371625Y82224D01*
Y85104D01*
X376442Y89920D01*
X382764D01*
X382820Y89872D01*
X382661Y89439D01*
X382587Y89372D01*
X377746D01*
X377324Y89288D01*
X376966Y89048D01*
X373432Y85515D01*
X373193Y85157D01*
X373109Y84734D01*
Y76317D01*
X373044Y76253D01*
X372835Y75747D01*
Y75198D01*
X373044Y74692D01*
X373432Y74304D01*
X373938Y74094D01*
X374487D01*
X374993Y74304D01*
X375381Y74692D01*
X375590Y75198D01*
Y75747D01*
X375381Y76253D01*
X375317Y76317D01*
Y84277D01*
X376392Y85352D01*
X376982Y85235D01*
X377060Y85046D01*
X377448Y84659D01*
X377954Y84449D01*
X378502D01*
X379009Y84659D01*
X379210Y84860D01*
X385059D01*
X387598Y82321D01*
Y82088D01*
X387808Y81582D01*
X388196Y81194D01*
X388702Y80984D01*
X388889D01*
X389276Y80597D01*
X389634Y80358D01*
X390056Y80274D01*
X404890D01*
Y64398D01*
X405013Y63784D01*
X405361Y63263D01*
X405882Y62915D01*
X406496Y62792D01*
X407111Y62915D01*
X407631Y63263D01*
X407979Y63784D01*
X408102Y64398D01*
Y81378D01*
Y96143D01*
X407979Y96758D01*
X407631Y97279D01*
X407631Y97279D01*
X398263Y106647D01*
X397742Y106995D01*
X397640Y107016D01*
X397128Y107117D01*
D02*
G37*
G36*
X472451Y89674D02*
X472045Y89594D01*
X460125D01*
X459511Y89471D01*
X458990Y89123D01*
X458642Y88602D01*
X458519Y87988D01*
X458642Y87374D01*
X458990Y86853D01*
X459511Y86505D01*
X460125Y86382D01*
X472371D01*
X472371Y86382D01*
X472985Y86505D01*
X473506Y86853D01*
X473587Y86933D01*
X473935Y87454D01*
X474057Y88069D01*
X473935Y88683D01*
X473587Y89204D01*
X473066Y89552D01*
X472451Y89674D01*
D02*
G37*
G36*
X485018Y115440D02*
X484470D01*
X483963Y115230D01*
X483576Y114843D01*
X483366Y114336D01*
Y113788D01*
X483576Y113282D01*
X483963Y112894D01*
X484470Y112684D01*
X484561D01*
X509797Y87448D01*
X510155Y87208D01*
X510578Y87125D01*
X517649D01*
X517704Y86918D01*
X518151Y86145D01*
X518545Y85750D01*
X518338Y85250D01*
X508621D01*
X486122Y107748D01*
Y107839D01*
X485912Y108346D01*
X485525Y108733D01*
X485018Y108943D01*
X484470D01*
X483963Y108733D01*
X483576Y108346D01*
X483366Y107839D01*
Y107291D01*
X483576Y106784D01*
X483963Y106397D01*
X484470Y106187D01*
X484561D01*
X507383Y83365D01*
X507741Y83126D01*
X508163Y83042D01*
X526784D01*
X527206Y83126D01*
X527564Y83365D01*
X529372Y85173D01*
X529556Y85066D01*
X530419Y84835D01*
X531313D01*
X532176Y85066D01*
X532950Y85513D01*
X533582Y86145D01*
X534029Y86918D01*
X534260Y87782D01*
Y88675D01*
X534029Y89538D01*
X533582Y90312D01*
X532950Y90944D01*
X532176Y91391D01*
X531313Y91622D01*
X530419D01*
X529556Y91391D01*
X528782Y90944D01*
X528151Y90312D01*
X527704Y89538D01*
X527472Y88675D01*
Y87782D01*
X527704Y86918D01*
X527810Y86734D01*
X526326Y85250D01*
X523394D01*
X523187Y85750D01*
X523582Y86145D01*
X524029Y86918D01*
X524260Y87782D01*
Y88675D01*
X524029Y89538D01*
X523582Y90312D01*
X522950Y90944D01*
X522176Y91391D01*
X521313Y91622D01*
X520419D01*
X519556Y91391D01*
X518782Y90944D01*
X518151Y90312D01*
X517704Y89538D01*
X517649Y89332D01*
X511035D01*
X486122Y114245D01*
Y114336D01*
X485912Y114843D01*
X485525Y115230D01*
X485018Y115440D01*
D02*
G37*
G36*
X472451Y83177D02*
X472045Y83096D01*
X460125D01*
X459511Y82974D01*
X458990Y82626D01*
X458642Y82105D01*
X458519Y81491D01*
X458642Y80876D01*
X458990Y80355D01*
X459511Y80007D01*
X460125Y79885D01*
X472371D01*
X472371Y79885D01*
X472985Y80007D01*
X473506Y80355D01*
X473587Y80436D01*
X473935Y80957D01*
X474057Y81572D01*
X473935Y82186D01*
X473587Y82707D01*
X473066Y83055D01*
X472451Y83177D01*
D02*
G37*
G36*
X485018Y102446D02*
X484470D01*
X483963Y102236D01*
X483576Y101849D01*
X483366Y101342D01*
Y100794D01*
X483576Y100287D01*
X483963Y99900D01*
X484470Y99690D01*
X484561D01*
X506803Y77448D01*
X507161Y77209D01*
X507584Y77125D01*
X517649D01*
X517704Y76918D01*
X518151Y76145D01*
X518545Y75749D01*
X518338Y75249D01*
X505627D01*
X486122Y94754D01*
Y94845D01*
X485912Y95351D01*
X485525Y95739D01*
X485018Y95949D01*
X484470D01*
X483963Y95739D01*
X483576Y95351D01*
X483366Y94845D01*
Y94297D01*
X483576Y93790D01*
X483963Y93403D01*
X484470Y93193D01*
X484561D01*
X504389Y73365D01*
X504747Y73126D01*
X505169Y73042D01*
X526784D01*
X527206Y73126D01*
X527564Y73365D01*
X529372Y75173D01*
X529556Y75066D01*
X530419Y74835D01*
X531313D01*
X532176Y75066D01*
X532950Y75513D01*
X533582Y76145D01*
X534029Y76918D01*
X534260Y77782D01*
Y78675D01*
X534029Y79538D01*
X533582Y80312D01*
X532950Y80944D01*
X532176Y81391D01*
X531313Y81622D01*
X530419D01*
X529556Y81391D01*
X528782Y80944D01*
X528151Y80312D01*
X527704Y79538D01*
X527472Y78675D01*
Y77782D01*
X527704Y76918D01*
X527810Y76734D01*
X526326Y75249D01*
X523394D01*
X523187Y75749D01*
X523582Y76145D01*
X524029Y76918D01*
X524260Y77782D01*
Y78675D01*
X524029Y79538D01*
X523582Y80312D01*
X522950Y80944D01*
X522176Y81391D01*
X521313Y81622D01*
X520419D01*
X519556Y81391D01*
X518782Y80944D01*
X518151Y80312D01*
X517704Y79538D01*
X517649Y79332D01*
X508041D01*
X486122Y101251D01*
Y101342D01*
X485912Y101849D01*
X485525Y102236D01*
X485018Y102446D01*
D02*
G37*
G36*
X472451Y76680D02*
X472045Y76599D01*
X460125D01*
X459511Y76477D01*
X458990Y76129D01*
X458642Y75608D01*
X458519Y74994D01*
X458642Y74379D01*
X458990Y73858D01*
X459511Y73510D01*
X460125Y73388D01*
X472371D01*
X472371Y73388D01*
X472985Y73510D01*
X473506Y73858D01*
X473587Y73939D01*
X473935Y74460D01*
X474057Y75075D01*
X473935Y75689D01*
X473587Y76210D01*
X473066Y76558D01*
X472451Y76680D01*
D02*
G37*
G36*
X460206Y70183D02*
X459591Y70061D01*
X459071Y69713D01*
X459071Y69713D01*
X458990Y69632D01*
X458642Y69111D01*
X458520Y68497D01*
X458642Y67882D01*
X458990Y67361D01*
X459511Y67013D01*
X460125Y66891D01*
X460531Y66972D01*
X472452D01*
X473066Y67094D01*
X473587Y67442D01*
X473935Y67963D01*
X474057Y68577D01*
X473935Y69192D01*
X473587Y69713D01*
X473066Y70061D01*
X472452Y70183D01*
X460206D01*
X460206Y70183D01*
D02*
G37*
G36*
X485018Y89452D02*
X484470D01*
X483963Y89242D01*
X483576Y88854D01*
X483366Y88348D01*
Y87800D01*
X483576Y87293D01*
X483963Y86906D01*
X484470Y86696D01*
X484561D01*
X503809Y67448D01*
X504167Y67208D01*
X504590Y67124D01*
X517649D01*
X517704Y66918D01*
X518151Y66145D01*
X518545Y65750D01*
X518338Y65250D01*
X502633D01*
X486122Y81760D01*
Y81851D01*
X485912Y82357D01*
X485525Y82745D01*
X485018Y82955D01*
X484470D01*
X483963Y82745D01*
X483576Y82357D01*
X483366Y81851D01*
Y81303D01*
X483576Y80796D01*
X483963Y80409D01*
X484470Y80199D01*
X484561D01*
X501395Y63365D01*
X501753Y63126D01*
X502175Y63042D01*
X526784D01*
X527206Y63126D01*
X527564Y63365D01*
X529372Y65173D01*
X529556Y65066D01*
X530419Y64835D01*
X531313D01*
X532176Y65066D01*
X532950Y65513D01*
X533582Y66145D01*
X534029Y66918D01*
X534260Y67782D01*
Y68675D01*
X534029Y69538D01*
X533582Y70312D01*
X532950Y70944D01*
X532176Y71391D01*
X531313Y71622D01*
X530419D01*
X529556Y71391D01*
X528782Y70944D01*
X528151Y70312D01*
X527704Y69538D01*
X527472Y68675D01*
Y67782D01*
X527704Y66918D01*
X527810Y66734D01*
X526326Y65250D01*
X523394D01*
X523187Y65750D01*
X523582Y66145D01*
X524029Y66918D01*
X524260Y67782D01*
Y68675D01*
X524029Y69538D01*
X523582Y70312D01*
X522950Y70944D01*
X522176Y71391D01*
X521313Y71622D01*
X520419D01*
X519556Y71391D01*
X518782Y70944D01*
X518151Y70312D01*
X517704Y69538D01*
X517649Y69332D01*
X505047D01*
X486122Y88257D01*
Y88348D01*
X485912Y88854D01*
X485525Y89242D01*
X485018Y89452D01*
D02*
G37*
G36*
X472452Y63686D02*
X472046Y63605D01*
X460125D01*
X459511Y63483D01*
X458990Y63135D01*
X458642Y62614D01*
X458520Y62000D01*
X458642Y61385D01*
X458990Y60864D01*
X459511Y60516D01*
X460125Y60394D01*
X472371D01*
X472371Y60394D01*
X472985Y60516D01*
X473506Y60864D01*
X473587Y60945D01*
X473935Y61466D01*
X474057Y62081D01*
X473935Y62695D01*
X473587Y63216D01*
X473066Y63564D01*
X472452Y63686D01*
D02*
G37*
G36*
X485018Y76458D02*
X484470D01*
X483963Y76248D01*
X483576Y75860D01*
X483366Y75354D01*
Y74806D01*
X483576Y74299D01*
X483963Y73912D01*
X484470Y73702D01*
X484561D01*
X500815Y57448D01*
X501173Y57209D01*
X501595Y57125D01*
X517649D01*
X517704Y56918D01*
X518151Y56145D01*
X518545Y55749D01*
X518338Y55250D01*
X499638D01*
X486122Y68766D01*
Y68857D01*
X485912Y69363D01*
X485525Y69751D01*
X485018Y69961D01*
X484470D01*
X483963Y69751D01*
X483576Y69363D01*
X483366Y68857D01*
Y68309D01*
X483576Y67802D01*
X483963Y67414D01*
X484470Y67205D01*
X484561D01*
X498400Y53365D01*
X498759Y53126D01*
X499181Y53042D01*
X526784D01*
X527206Y53126D01*
X527564Y53365D01*
X529372Y55173D01*
X529556Y55066D01*
X530419Y54835D01*
X531313D01*
X532176Y55066D01*
X532950Y55513D01*
X533582Y56145D01*
X534029Y56918D01*
X534260Y57782D01*
Y58675D01*
X534029Y59538D01*
X533582Y60312D01*
X532950Y60944D01*
X532176Y61391D01*
X531313Y61622D01*
X530419D01*
X529556Y61391D01*
X528782Y60944D01*
X528151Y60312D01*
X527704Y59538D01*
X527472Y58675D01*
Y57782D01*
X527704Y56918D01*
X527810Y56734D01*
X526326Y55250D01*
X523394D01*
X523187Y55749D01*
X523582Y56145D01*
X524029Y56918D01*
X524260Y57782D01*
Y58675D01*
X524029Y59538D01*
X523582Y60312D01*
X522950Y60944D01*
X522176Y61391D01*
X521313Y61622D01*
X520419D01*
X519556Y61391D01*
X518782Y60944D01*
X518151Y60312D01*
X517704Y59538D01*
X517649Y59332D01*
X502053D01*
X486122Y75263D01*
Y75354D01*
X485912Y75860D01*
X485525Y76248D01*
X485018Y76458D01*
D02*
G37*
G36*
X472451Y57189D02*
X472045Y57108D01*
X460125D01*
X459511Y56986D01*
X458990Y56638D01*
X458642Y56117D01*
X458519Y55503D01*
X458642Y54888D01*
X458990Y54367D01*
X459511Y54019D01*
X460125Y53897D01*
X472371D01*
X472371Y53897D01*
X472985Y54019D01*
X473506Y54367D01*
X473587Y54448D01*
X473935Y54969D01*
X474057Y55583D01*
X473935Y56198D01*
X473587Y56719D01*
X473066Y57067D01*
X472451Y57189D01*
D02*
G37*
G36*
X485018Y63464D02*
X484470D01*
X483963Y63254D01*
X483576Y62866D01*
X483366Y62360D01*
Y61812D01*
X483576Y61305D01*
X483963Y60917D01*
X484470Y60708D01*
X484561D01*
X497821Y47448D01*
X498179Y47208D01*
X498601Y47124D01*
X517649D01*
X517704Y46918D01*
X518151Y46145D01*
X518545Y45750D01*
X518338Y45250D01*
X496644D01*
X486122Y55772D01*
Y55863D01*
X485912Y56369D01*
X485525Y56757D01*
X485018Y56967D01*
X484470D01*
X483963Y56757D01*
X483576Y56369D01*
X483366Y55863D01*
Y55314D01*
X483576Y54808D01*
X483963Y54420D01*
X484470Y54211D01*
X484561D01*
X495406Y43365D01*
X495764Y43126D01*
X496187Y43042D01*
X526784D01*
X527206Y43126D01*
X527564Y43365D01*
X529372Y45173D01*
X529556Y45066D01*
X530419Y44835D01*
X531313D01*
X532176Y45066D01*
X532950Y45513D01*
X533582Y46145D01*
X534029Y46918D01*
X534260Y47782D01*
Y48675D01*
X534029Y49538D01*
X533582Y50312D01*
X532950Y50944D01*
X532176Y51391D01*
X531313Y51622D01*
X530419D01*
X529556Y51391D01*
X528782Y50944D01*
X528151Y50312D01*
X527704Y49538D01*
X527472Y48675D01*
Y47782D01*
X527704Y46918D01*
X527810Y46734D01*
X526326Y45250D01*
X523394D01*
X523187Y45750D01*
X523582Y46145D01*
X524029Y46918D01*
X524260Y47782D01*
Y48675D01*
X524029Y49538D01*
X523582Y50312D01*
X522950Y50944D01*
X522176Y51391D01*
X521313Y51622D01*
X520419D01*
X519556Y51391D01*
X518782Y50944D01*
X518151Y50312D01*
X517704Y49538D01*
X517649Y49332D01*
X499059D01*
X486122Y62269D01*
Y62360D01*
X485912Y62866D01*
X485525Y63254D01*
X485018Y63464D01*
D02*
G37*
G36*
Y50469D02*
X484470D01*
X483963Y50260D01*
X483576Y49872D01*
X483366Y49366D01*
Y48817D01*
X483576Y48311D01*
X483963Y47923D01*
X484470Y47714D01*
X484561D01*
X494827Y37448D01*
X495185Y37209D01*
X495607Y37124D01*
X517649D01*
X517704Y36918D01*
X518151Y36145D01*
X518545Y35750D01*
X518338Y35250D01*
X493650D01*
X486122Y42778D01*
Y42869D01*
X485912Y43375D01*
X485525Y43763D01*
X485018Y43972D01*
X484470D01*
X483963Y43763D01*
X483576Y43375D01*
X483366Y42869D01*
Y42320D01*
X483576Y41814D01*
X483963Y41426D01*
X484470Y41216D01*
X484561D01*
X492412Y33365D01*
X492770Y33126D01*
X493193Y33042D01*
X526784D01*
X527206Y33126D01*
X527564Y33365D01*
X529372Y35173D01*
X529556Y35066D01*
X530419Y34835D01*
X531313D01*
X532176Y35066D01*
X532950Y35513D01*
X533582Y36145D01*
X534029Y36918D01*
X534260Y37782D01*
Y38675D01*
X534029Y39538D01*
X533582Y40312D01*
X532950Y40944D01*
X532176Y41391D01*
X531313Y41622D01*
X530419D01*
X529556Y41391D01*
X528782Y40944D01*
X528151Y40312D01*
X527704Y39538D01*
X527472Y38675D01*
Y37782D01*
X527704Y36918D01*
X527810Y36734D01*
X526326Y35250D01*
X523394D01*
X523187Y35750D01*
X523582Y36145D01*
X524029Y36918D01*
X524260Y37782D01*
Y38675D01*
X524029Y39538D01*
X523582Y40312D01*
X522950Y40944D01*
X522176Y41391D01*
X521313Y41622D01*
X520419D01*
X519556Y41391D01*
X518782Y40944D01*
X518151Y40312D01*
X517704Y39538D01*
X517649Y39332D01*
X496065D01*
X486122Y49275D01*
Y49366D01*
X485912Y49872D01*
X485525Y50260D01*
X485018Y50469D01*
D02*
G37*
G36*
Y37475D02*
X484470D01*
X483963Y37266D01*
X483576Y36878D01*
X483366Y36371D01*
Y35823D01*
X483576Y35317D01*
X483963Y34929D01*
X484470Y34719D01*
X484561D01*
X491832Y27448D01*
X492191Y27209D01*
X492613Y27125D01*
X517649D01*
X517704Y26918D01*
X518151Y26145D01*
X518545Y25749D01*
X518338Y25249D01*
X490656D01*
X486122Y29783D01*
Y29874D01*
X485912Y30381D01*
X485525Y30768D01*
X485018Y30978D01*
X484470D01*
X483963Y30768D01*
X483576Y30381D01*
X483366Y29874D01*
Y29326D01*
X483576Y28820D01*
X483963Y28432D01*
X484470Y28222D01*
X484561D01*
X489418Y23365D01*
X489776Y23126D01*
X490199Y23042D01*
X526784D01*
X527206Y23126D01*
X527564Y23365D01*
X529372Y25173D01*
X529556Y25066D01*
X530419Y24835D01*
X531313D01*
X532176Y25066D01*
X532950Y25513D01*
X533582Y26145D01*
X534029Y26918D01*
X534260Y27782D01*
Y28675D01*
X534029Y29538D01*
X533582Y30312D01*
X532950Y30944D01*
X532176Y31391D01*
X531313Y31622D01*
X530419D01*
X529556Y31391D01*
X528782Y30944D01*
X528151Y30312D01*
X527704Y29538D01*
X527472Y28675D01*
Y27782D01*
X527704Y26918D01*
X527810Y26734D01*
X526326Y25249D01*
X523394D01*
X523187Y25749D01*
X523582Y26145D01*
X524029Y26918D01*
X524260Y27782D01*
Y28675D01*
X524029Y29538D01*
X523582Y30312D01*
X522950Y30944D01*
X522176Y31391D01*
X521313Y31622D01*
X520419D01*
X519556Y31391D01*
X518782Y30944D01*
X518151Y30312D01*
X517704Y29538D01*
X517649Y29332D01*
X493070D01*
X486122Y36281D01*
Y36371D01*
X485912Y36878D01*
X485525Y37266D01*
X485018Y37475D01*
D02*
G37*
%LPD*%
D13*
X249685Y48268D02*
X259685D01*
X249685Y58268D02*
X259685D01*
X239685D02*
X249685D01*
X229685D02*
X239685D01*
X219685D02*
X229685D01*
Y48268D02*
X239685D01*
X219685D02*
X229685D01*
X239685D02*
X249685D01*
Y58268D01*
Y114370D01*
X286654Y238543D02*
X301969Y223228D01*
X332283D01*
X228937Y238543D02*
X286654D01*
X249685Y114370D02*
Y134370D01*
X217402Y166654D02*
X249685Y134370D01*
X217355Y166654D02*
X217402D01*
X530866Y158228D02*
Y168228D01*
Y148228D02*
Y158228D01*
Y138228D02*
Y148228D01*
Y128228D02*
Y138228D01*
X520866Y158228D02*
X530866D01*
X520866D02*
Y168228D01*
X436890Y158228D02*
X456890D01*
X520866D01*
X404606Y125945D02*
X436890Y158228D01*
X404606Y125898D02*
Y125945D01*
X520866Y148228D02*
Y158228D01*
Y138228D02*
Y148228D01*
Y128228D02*
Y138228D01*
X404724Y322748D02*
Y322795D01*
X437008Y355079D01*
X457008D01*
X520984D01*
X530984D01*
Y365079D01*
Y345079D02*
Y355079D01*
Y335079D02*
Y345079D01*
Y325079D02*
Y335079D01*
X520984Y355079D02*
Y365079D01*
Y345079D02*
Y355079D01*
Y335079D02*
Y345079D01*
Y325079D02*
Y335079D01*
D30*
X-48976Y113350D02*
D03*
Y116500D02*
D03*
Y119650D02*
D03*
Y122799D02*
D03*
Y125949D02*
D03*
Y129098D02*
D03*
Y132248D02*
D03*
Y135398D02*
D03*
Y138547D02*
D03*
Y141697D02*
D03*
Y144846D02*
D03*
Y147996D02*
D03*
Y151146D02*
D03*
Y154295D02*
D03*
Y157445D02*
D03*
Y160594D02*
D03*
Y163744D02*
D03*
Y166894D02*
D03*
Y170043D02*
D03*
Y173193D02*
D03*
Y176343D02*
D03*
Y179492D02*
D03*
Y182642D02*
D03*
Y198390D02*
D03*
Y201539D02*
D03*
Y204689D02*
D03*
Y207839D02*
D03*
Y210988D02*
D03*
Y214138D02*
D03*
Y217287D02*
D03*
Y220437D02*
D03*
Y223587D02*
D03*
Y226736D02*
D03*
Y229886D02*
D03*
Y233035D02*
D03*
Y236185D02*
D03*
Y239335D02*
D03*
Y242484D02*
D03*
Y245634D02*
D03*
Y248783D02*
D03*
Y251933D02*
D03*
Y255083D02*
D03*
Y258232D02*
D03*
Y261382D02*
D03*
Y264531D02*
D03*
Y267681D02*
D03*
Y270831D02*
D03*
Y273980D02*
D03*
Y277130D02*
D03*
Y280280D02*
D03*
D55*
X209685Y48268D02*
X209789D01*
X-48976Y267681D02*
X-37831D01*
X-15291D02*
X16043Y299016D01*
X71063D02*
X75197Y294882D01*
X16043Y299016D02*
X71063D01*
X75197Y141339D02*
Y294882D01*
X-37831Y267681D02*
X-15291D01*
X75197Y141339D02*
X97244Y119291D01*
X-48976Y198390D02*
X-16894D01*
X86299Y95197D01*
X-48976Y179492D02*
X-7996D01*
X76299Y95197D01*
X-48976Y173193D02*
X-11697D01*
X66299Y95197D01*
X-15398Y166894D02*
X56299Y95197D01*
X-48976Y166894D02*
X-15398D01*
X-48976Y160594D02*
X-19098D01*
X46299Y95197D01*
X-22799Y154295D02*
X36299Y95197D01*
X-48976Y154295D02*
X-22799D01*
X42402Y32402D02*
X65079D01*
X6299Y68504D02*
X42402Y32402D01*
X6299Y68504D02*
Y117108D01*
X16142Y72047D02*
X16535Y71653D01*
X89370D01*
X-48976Y129098D02*
X-5691D01*
X6299Y117108D01*
X26772Y66142D02*
X95860D01*
X26476Y66437D02*
X26772Y66142D01*
X93307Y75591D02*
Y114567D01*
X70472Y137402D02*
X93307Y114567D01*
X89370Y71653D02*
X93307Y75591D01*
X95860Y66142D02*
X97244Y67526D01*
Y119291D01*
X70472Y137402D02*
Y289764D01*
X18898Y293701D02*
X66535D01*
X70472Y289764D01*
X-13386Y261417D02*
X18898Y293701D01*
X-37795Y261417D02*
X-13386D01*
X-48976Y261382D02*
X-48941Y261417D01*
X-37795D01*
X472629Y239445D02*
X472672Y239487D01*
X460329Y245942D02*
X472629D01*
X460329Y265433D02*
X472629D01*
X472543Y226365D02*
X472672Y226493D01*
X472543Y297832D02*
X472672Y297961D01*
X460243Y349809D02*
X472543D01*
X472672Y349938D01*
X472543Y336815D02*
X472672Y336944D01*
X460243Y336815D02*
X472543D01*
X460243Y232862D02*
X472543D01*
X472543Y258850D02*
X472672Y258979D01*
X460243Y258850D02*
X472543D01*
X472629Y245942D02*
X472672Y245985D01*
X472543Y310826D02*
X472672Y310955D01*
X460243Y304330D02*
X472543D01*
X472543Y278341D02*
X472672Y278470D01*
X460243Y343312D02*
X472543D01*
X472543Y291335D02*
X472672Y291464D01*
X472543Y271844D02*
X472672Y271973D01*
X472543Y304330D02*
X472672Y304458D01*
X460329Y239445D02*
X472629D01*
X460243Y317324D02*
X472543D01*
X460342Y330318D02*
X472642D01*
X472543Y317324D02*
X472672Y317452D01*
X460243Y291335D02*
X472543D01*
X460243Y284838D02*
X472543D01*
X472629Y265433D02*
X472672Y265476D01*
X460243Y252353D02*
X472543D01*
X460243Y297832D02*
X472543D01*
X472642Y330318D02*
X472770Y330446D01*
X460243Y323821D02*
X472543D01*
X472672Y323949D01*
X472543Y284838D02*
X472672Y284967D01*
X460243Y310826D02*
X472543D01*
X460243Y278341D02*
X472543D01*
X460243Y226365D02*
X472543D01*
X460243Y271844D02*
X472543D01*
Y232862D02*
X472672Y232990D01*
X472543Y252353D02*
X472672Y252482D01*
X472543Y343312D02*
X472672Y343441D01*
X460206Y68577D02*
X472452D01*
X472371Y100982D02*
X472451Y101063D01*
X460125Y100982D02*
X472371D01*
X460125Y113976D02*
X472371D01*
X472451Y114057D01*
X460206Y49086D02*
X472451D01*
X472371Y36011D02*
X472451Y36092D01*
X460125Y36011D02*
X472371D01*
Y55503D02*
X472451Y55583D01*
X460125Y55503D02*
X472371D01*
Y126970D02*
X472451Y127051D01*
X460125Y107479D02*
X472371D01*
X472371Y120473D02*
X472451Y120554D01*
X472371Y87988D02*
X472451Y88069D01*
X460125Y139964D02*
X472371D01*
X460125Y94485D02*
X472371D01*
X460125Y29514D02*
X472371D01*
X472371Y107479D02*
X472452Y107560D01*
X472371Y139964D02*
X472451Y140045D01*
X460125Y120473D02*
X472371D01*
X460125Y152959D02*
X472371D01*
X460125Y81491D02*
X472371D01*
X460223Y133467D02*
X472469D01*
X472371Y62000D02*
X472452Y62081D01*
X460125Y49005D02*
X460206Y49086D01*
X472371Y94485D02*
X472451Y94566D01*
X472371Y29514D02*
X472451Y29595D01*
X460125Y74994D02*
X472371D01*
X460125Y68497D02*
X460206Y68577D01*
X460125Y42508D02*
X460206Y42589D01*
X472469Y133467D02*
X472550Y133548D01*
X472371Y81491D02*
X472451Y81572D01*
X472371Y146462D02*
X472452Y146542D01*
X472371Y74994D02*
X472451Y75075D01*
X460125Y146462D02*
X472371D01*
X460206Y42589D02*
X472451D01*
X472371Y152959D02*
X472451Y153039D01*
X460125Y87988D02*
X472371D01*
X460125Y62000D02*
X472371D01*
X460125Y126970D02*
X472371D01*
X160039Y98876D02*
Y111049D01*
X140548Y98876D02*
Y111049D01*
X134051Y98876D02*
Y111049D01*
X179445Y98962D02*
Y111135D01*
X153456Y98962D02*
Y111135D01*
X166451Y98962D02*
X166588Y98824D01*
X179445Y98962D02*
X179582Y98824D01*
X146959Y98962D02*
Y111135D01*
Y98962D02*
X147097Y98824D01*
X172948Y98962D02*
Y111135D01*
X211930Y98962D02*
Y111135D01*
X205433Y98962D02*
Y111135D01*
X218427Y98962D02*
X218565Y98824D01*
X218427Y98962D02*
Y111135D01*
X237918Y98962D02*
Y111135D01*
X166451Y98962D02*
Y111135D01*
X244415Y98962D02*
X244553Y98824D01*
X224924Y98864D02*
Y111036D01*
X134051Y98876D02*
X134103Y98824D01*
X231421Y98962D02*
X231559Y98824D01*
X153456Y98962D02*
X153594Y98824D01*
X120971Y98962D02*
X121109Y98824D01*
X224924Y98864D02*
X225062Y98726D01*
X140548Y98876D02*
X140600Y98824D01*
X205433Y98962D02*
X205571Y98824D01*
X237918Y98962D02*
X238056Y98824D01*
X160039Y98876D02*
X160091Y98824D01*
X172948Y98962D02*
X173085Y98824D01*
X192439Y98962D02*
Y111135D01*
X185942Y98962D02*
X186079Y98824D01*
X127468Y98962D02*
X127606Y98824D01*
X231421Y98962D02*
Y111135D01*
X198936Y98962D02*
Y111135D01*
X192439Y98962D02*
X192576Y98824D01*
X198936Y98962D02*
X199074Y98824D01*
X185942Y98962D02*
Y111135D01*
X127468Y98962D02*
Y111135D01*
X120971Y98962D02*
Y111135D01*
X244415Y98962D02*
Y111135D01*
X211930Y98962D02*
X212068Y98824D01*
X133965Y111135D02*
X134051Y111049D01*
X140462Y111135D02*
X140548Y111049D01*
X159953Y111135D02*
X160039Y111049D01*
X193307Y262008D02*
X289173D01*
X309370Y241811D01*
X256811Y248543D02*
X267323Y259055D01*
X228937Y248543D02*
X256811D01*
X322835Y334331D02*
Y352362D01*
X311024Y364173D02*
X322835Y352362D01*
X122047Y364173D02*
X311024D01*
X193307Y262008D02*
X193307Y262008D01*
X172835Y164764D02*
X187600D01*
X196968Y174132D01*
X155855Y164764D02*
X172835D01*
X196968Y174132D02*
Y204842D01*
X406496Y81378D02*
Y96143D01*
X397128Y105512D02*
X406496Y96143D01*
Y64398D02*
Y81378D01*
X366417Y105512D02*
X397128D01*
X366535Y302362D02*
X397246D01*
X406614Y292994D01*
X309370Y298701D02*
X309370Y298701D01*
Y241811D02*
Y298701D01*
X108268Y344331D02*
Y350394D01*
X122047Y364173D01*
X406614Y278228D02*
Y292994D01*
Y261248D02*
Y278228D01*
X460243Y265347D02*
X460329Y265433D01*
X460243Y239359D02*
X460329Y239445D01*
X460243Y245856D02*
X460329Y245942D01*
D56*
X55118Y173265D02*
Y220537D01*
X55295Y220713D01*
Y268210D01*
X55392Y268307D01*
X55118Y153543D02*
Y173265D01*
X-22851Y114173D02*
X-22638D01*
X-23674Y113350D02*
X-22851Y114173D01*
X-48976Y113350D02*
X-23674D01*
X173819Y182283D02*
X177320Y185785D01*
Y192995D01*
X177284Y193032D02*
X177320Y192995D01*
X385475Y85864D02*
X388976Y82362D01*
X378265Y85864D02*
X385475D01*
X378228Y85827D02*
X378265Y85864D01*
X378346Y282677D02*
X378383Y282714D01*
X385593D01*
X389094Y279213D01*
D57*
X19685Y287402D02*
X39370D01*
X-12634Y255083D02*
X19685Y287402D01*
X-48976Y255083D02*
X-12634D01*
X-3185Y248783D02*
X19685Y271654D01*
X-48976Y248783D02*
X-3185D01*
X19685Y271654D02*
X39469D01*
X23622Y240158D02*
X39370D01*
X24445Y223587D02*
X39370Y208661D01*
Y208661D02*
Y208661D01*
X18933Y217287D02*
X39370Y196850D01*
X-949Y204689D02*
X39370Y164370D01*
Y192913D02*
Y196850D01*
X8500Y210988D02*
X39370Y180118D01*
X19685Y255906D02*
X39469D01*
X39370Y177165D02*
Y180118D01*
Y161417D02*
Y164370D01*
X33465Y224410D02*
X39370D01*
X6264Y242484D02*
X19685Y255906D01*
X19650Y236185D02*
X23622Y240158D01*
X-48976Y204689D02*
X-949D01*
X-48976Y210988D02*
X8500D01*
X-48976Y217287D02*
X18933D01*
X-48976Y223587D02*
X24445D01*
X-48976Y229886D02*
X27988D01*
X33465Y224410D01*
X-48976Y236185D02*
X19650D01*
X-48976Y242484D02*
X6264D01*
D59*
X209685Y58268D02*
Y59390D01*
X231141Y71850D02*
X244332Y85040D01*
X222145Y71850D02*
X231141D01*
X209685Y59390D02*
X222145Y71850D01*
X208844Y49108D02*
X209685Y48268D01*
X208844Y49108D02*
Y53335D01*
X205602Y56577D02*
X208844Y53335D01*
X205602Y56577D02*
Y59959D01*
X219265Y73622D01*
X225110D01*
X199685Y58268D02*
X226040Y84623D01*
X229774D01*
X231451Y86300D02*
Y86459D01*
X229774Y84623D02*
X231451Y86300D01*
X225110Y73622D02*
X237948Y86459D01*
X198844Y49108D02*
X199685Y48268D01*
X198844Y49108D02*
Y53335D01*
X195602Y56577D02*
X198844Y53335D01*
X195602Y56577D02*
Y59959D01*
X202259Y66616D01*
X205110D01*
X224954Y86459D01*
X190105Y58268D02*
X218297Y86459D01*
X189685Y58268D02*
X190105D01*
X218297Y86459D02*
X218457D01*
X185602Y60102D02*
X211959Y86459D01*
X185602Y52350D02*
Y60102D01*
Y52350D02*
X189685Y48268D01*
X179685Y58268D02*
X183957Y62539D01*
Y64954D01*
X175602Y52350D02*
X179685Y48268D01*
X175602Y52350D02*
Y63096D01*
X169685Y58268D02*
Y63676D01*
X165602Y52350D02*
X169685Y48268D01*
X165602Y52350D02*
Y66091D01*
X159685Y58268D02*
Y66670D01*
X155602Y52350D02*
X159685Y48268D01*
X155602Y52350D02*
Y69085D01*
X149685Y58268D02*
Y69664D01*
X145602Y52350D02*
X149685Y48268D01*
X145602Y52350D02*
Y72079D01*
X139685Y58268D02*
Y72658D01*
X135602Y52350D02*
X139685Y48268D01*
X135602Y52350D02*
Y75073D01*
X129685Y58268D02*
Y75653D01*
X125602Y52350D02*
X129685Y48268D01*
X125602Y52350D02*
Y78067D01*
X119685Y58268D02*
Y78647D01*
X115602Y52350D02*
X119685Y48268D01*
X115602Y52350D02*
Y81061D01*
X486913Y335167D02*
X488617D01*
X485102Y343316D02*
X486856D01*
X488511Y340622D02*
Y341661D01*
X490474Y220996D02*
X526902D01*
Y240996D02*
X530984Y245079D01*
X484988Y265464D02*
X499456Y250996D01*
X502451Y260996D02*
X526902D01*
X484988Y291452D02*
X505445Y270996D01*
X526902Y290996D02*
X530984Y295079D01*
X514427Y300996D02*
X526902D01*
X484988Y336932D02*
X485148D01*
X484988Y349926D02*
X485102Y349813D01*
X484988Y297949D02*
X507859Y275079D01*
X484988Y310943D02*
X510853Y285079D01*
X520984D01*
X526902Y220996D02*
X530984Y225079D01*
X484988Y226482D02*
X490474Y220996D01*
X511433Y290996D02*
X526902D01*
X484988Y317441D02*
X511433Y290996D01*
X492888Y225079D02*
X520984D01*
X501871Y255079D02*
X520984D01*
X485148Y336932D02*
X486913Y335167D01*
X484988Y284955D02*
X504865Y265079D01*
X526902Y250996D02*
X530984Y255079D01*
X495883Y235079D02*
X520984D01*
X484988Y232979D02*
X492888Y225079D01*
X484988Y239476D02*
X493468Y230996D01*
X526902Y270996D02*
X530984Y275079D01*
X507859D02*
X520984D01*
X484988Y258967D02*
X498877Y245079D01*
X496462Y240996D02*
X526902D01*
X486250Y349813D02*
X520984Y315079D01*
X484988Y323938D02*
X488473D01*
X484988Y271961D02*
X501871Y255079D01*
X526902Y260996D02*
X530984Y265079D01*
X484988Y330435D02*
X514427Y300996D01*
X526902D02*
X530984Y305079D01*
X526902Y230996D02*
X530984Y235079D01*
X505445Y270996D02*
X526902D01*
X484988Y245973D02*
X495883Y235079D01*
X498877Y245079D02*
X520984D01*
X485102Y349813D02*
X486250D01*
X484988Y278458D02*
X502451Y260996D01*
X488473Y323938D02*
X516987Y295424D01*
X486856Y343316D02*
X488511Y341661D01*
X504865Y265079D02*
X520984D01*
X499456Y250996D02*
X526902D01*
X484988Y343429D02*
X485102Y343316D01*
X493468Y230996D02*
X526902D01*
Y280996D02*
X530984Y285079D01*
X484988Y304446D02*
X508439Y280996D01*
X526902D01*
X484988Y252470D02*
X496462Y240996D01*
X488617Y335167D02*
X517839Y305945D01*
X488511Y340622D02*
X518975Y310157D01*
X484904Y140050D02*
X486637Y138317D01*
X486865Y146434D02*
X488392Y144906D01*
X484857Y146434D02*
X486865D01*
X484744Y127056D02*
X488386D01*
X484744Y29600D02*
X490199Y24146D01*
X526784Y34146D02*
X530866Y38228D01*
X484744Y55589D02*
X496187Y44146D01*
X484744Y68583D02*
X499181Y54146D01*
X484744Y81577D02*
X502175Y64146D01*
X526784Y74146D02*
X530866Y78228D01*
X508163Y84146D02*
X526784D01*
X511158Y94146D02*
X526784D01*
X484744Y133553D02*
X514152Y104146D01*
X484744Y140050D02*
X484904D01*
X486637Y138317D02*
X488499D01*
X484744Y146547D02*
X484857Y146434D01*
X484744Y153045D02*
X484857Y152932D01*
X488386Y127056D02*
X500197Y115245D01*
X510578Y88228D02*
X520866D01*
X488392Y143771D02*
Y144906D01*
X492613Y28228D02*
X520866D01*
X484744Y36097D02*
X492613Y28228D01*
X484744Y88074D02*
X504590Y68228D01*
X520866D01*
X501595Y58228D02*
X520866D01*
X496187Y44146D02*
X526784D01*
Y64146D02*
X530866Y68228D01*
X495607Y38228D02*
X520866D01*
X484744Y49092D02*
X495607Y38228D01*
X484857Y152932D02*
X486163D01*
X484744Y62086D02*
X498601Y48228D01*
X526784Y84146D02*
X530866Y88228D01*
X526784Y54146D02*
X530866Y58228D01*
X484744Y42594D02*
X493193Y34146D01*
X526784Y104146D02*
X530866Y108228D01*
X493193Y34146D02*
X526784D01*
X514152Y104146D02*
X526784D01*
X484744Y101068D02*
X507584Y78228D01*
X502175Y64146D02*
X526784D01*
X484744Y107565D02*
X508163Y84146D01*
X486163Y152932D02*
X520866Y118228D01*
X507584Y78228D02*
X520866D01*
X484744Y94571D02*
X505169Y74146D01*
X499181Y54146D02*
X526784D01*
X484744Y75080D02*
X501595Y58228D01*
X526784Y24146D02*
X530866Y28228D01*
X484744Y120559D02*
X511158Y94146D01*
X484744Y114062D02*
X510578Y88228D01*
X490199Y24146D02*
X526784D01*
Y94146D02*
X530866Y98228D01*
X526784Y44146D02*
X530866Y48228D01*
X498601D02*
X520866D01*
X505169Y74146D02*
X526784D01*
X488499Y138317D02*
X517721Y109095D01*
X488392Y143771D02*
X518857Y113306D01*
X169685Y63676D02*
X192468Y86459D01*
X115602Y81061D02*
X121001Y86459D01*
X129685Y75653D02*
X140492Y86459D01*
X165602Y66091D02*
X185971Y86459D01*
X139685Y72658D02*
X153486Y86459D01*
X155602Y69085D02*
X172977Y86459D01*
X119685Y78647D02*
X127497Y86459D01*
X183957Y64954D02*
X205462Y86459D01*
X159685Y66670D02*
X179474Y86459D01*
X135602Y75073D02*
X146989Y86459D01*
X244332Y85040D02*
Y86346D01*
X145602Y72079D02*
X159983Y86459D01*
X149685Y69664D02*
X166480Y86459D01*
X125602Y78067D02*
X133995Y86459D01*
X175602Y63096D02*
X198965Y86459D01*
X244332Y86346D02*
X244445Y86459D01*
X120971Y111135D02*
X125591Y115754D01*
Y133268D01*
X127468Y111135D02*
Y111295D01*
X127657Y111484D01*
Y142258D01*
X127218Y142697D02*
X127657Y142258D01*
X127218Y142697D02*
Y144571D01*
X125591Y146198D02*
X127218Y144571D01*
X125591Y146198D02*
Y146358D01*
X129528Y115572D02*
X133965Y111135D01*
X129528Y115572D02*
Y150787D01*
X125591Y154724D02*
X129528Y150787D01*
X125591Y154724D02*
Y159154D01*
X172835Y164764D02*
X172835Y164764D01*
Y181203D01*
X173819Y182188D01*
Y182283D01*
X184646Y170472D02*
Y198031D01*
X176970Y205708D02*
X184646Y198031D01*
X173327Y205708D02*
X176970D01*
X182027Y183845D02*
Y187132D01*
X182480Y187585D02*
Y195276D01*
X182027Y187132D02*
X182480Y187585D01*
X177018Y200738D02*
X182480Y195276D01*
X173081Y200738D02*
X177018D01*
X172982Y200837D02*
X173081Y200738D01*
X179724Y175966D02*
X179724Y175966D01*
Y170472D02*
Y175966D01*
X176191Y197047D02*
X179724Y193514D01*
Y175966D02*
Y193514D01*
X166929Y197047D02*
X176191D01*
X131496Y120101D02*
X140462Y111135D01*
X131496Y120101D02*
Y162598D01*
X125582Y168513D02*
X131496Y162598D01*
X125582Y168513D02*
Y172014D01*
X149213Y114370D02*
X249685D01*
X134449Y129134D02*
X149213Y114370D01*
X455506Y34134D02*
X460125Y29514D01*
X437992Y34134D02*
X455506D01*
X459965Y36011D02*
X460125D01*
X459776Y36201D02*
X459965Y36011D01*
X429002Y36201D02*
X459776D01*
X428563Y35762D02*
X429002Y36201D01*
X426689Y35762D02*
X428563D01*
X425061Y34134D02*
X426689Y35762D01*
X424902Y34134D02*
X425061D01*
X455688Y38071D02*
X460125Y42508D01*
X420472Y38071D02*
X455688D01*
X416535Y34134D02*
X420472Y38071D01*
X412106Y34134D02*
X416535D01*
X406496Y81378D02*
X406496Y81378D01*
X390056Y81378D02*
X406496D01*
X389072Y82362D02*
X390056Y81378D01*
X388976Y82362D02*
X389072D01*
X373228Y93189D02*
X400787D01*
X365552Y85513D02*
X373228Y93189D01*
X365552Y81870D02*
Y85513D01*
X384128Y90571D02*
X387415D01*
X375984Y91024D02*
X383675D01*
X384128Y90571D01*
X370522Y85561D02*
X375984Y91024D01*
X370522Y81624D02*
Y85561D01*
X370423Y81526D02*
X370522Y81624D01*
X395294Y88268D02*
X395294Y88268D01*
X400787D01*
X374213Y84734D02*
X377746Y88268D01*
X395294D01*
X374213Y75472D02*
Y84734D01*
X451159Y40039D02*
X460125Y49005D01*
X408661Y40039D02*
X451159D01*
X402747Y34125D02*
X408661Y40039D01*
X399246Y34125D02*
X402747D01*
X525944Y113306D02*
X530866Y118228D01*
X518857Y113306D02*
X525944D01*
X456890Y57756D02*
Y158228D01*
X442126Y42992D02*
X456890Y57756D01*
X517721Y109095D02*
X520000D01*
X520866Y108228D01*
X500197Y115245D02*
X516868Y98574D01*
X520521D01*
X500197Y115245D02*
Y115245D01*
X520521Y98574D02*
X520866Y98228D01*
X438110Y230984D02*
X455624D01*
X460243Y226365D01*
X428681Y232612D02*
X429120Y233051D01*
X425179Y230984D02*
X426807Y232612D01*
X425020Y230984D02*
X425179D01*
X426807Y232612D02*
X428681D01*
X412224Y230984D02*
X416653D01*
X399364Y230976D02*
X402865D01*
X408779Y236890D01*
X374331Y272323D02*
Y281585D01*
X377864Y285118D01*
X395412D01*
X395412Y285118D01*
X400906D01*
X383793Y287874D02*
X384246Y287421D01*
X387533D01*
X376102Y287874D02*
X383793D01*
X370640Y278474D02*
Y282411D01*
X376102Y287874D01*
X370541Y278376D02*
X370640Y278474D01*
X365670Y282363D02*
X373346Y290039D01*
X365670Y278720D02*
Y282363D01*
X373346Y290039D02*
X400906D01*
X390175Y278228D02*
X406614D01*
X406614Y278228D01*
X389094Y279213D02*
X389190D01*
X390175Y278228D01*
X442244Y239843D02*
X457008Y254606D01*
Y355079D01*
X408779Y236890D02*
X451277D01*
X460243Y245856D01*
X455806Y234921D02*
X460243Y239359D01*
X459894Y233051D02*
X460083Y232862D01*
X460243D01*
X517839Y305945D02*
X520118D01*
X518975Y310157D02*
X526062D01*
X520118Y305945D02*
X520984Y305079D01*
X526062Y310157D02*
X530984Y315079D01*
X520639Y295424D02*
X520984Y295079D01*
X516987Y295424D02*
X520639D01*
X416653Y230984D02*
X420591Y234921D01*
X455806D01*
X429120Y233051D02*
X459894D01*
D61*
X530866Y168228D02*
D03*
Y158228D02*
D03*
Y148228D02*
D03*
Y138228D02*
D03*
Y128228D02*
D03*
Y118228D02*
D03*
Y108228D02*
D03*
Y98228D02*
D03*
Y88228D02*
D03*
Y78228D02*
D03*
Y68228D02*
D03*
Y58228D02*
D03*
Y48228D02*
D03*
Y38228D02*
D03*
Y28228D02*
D03*
X520866Y168228D02*
D03*
Y158228D02*
D03*
Y148228D02*
D03*
Y138228D02*
D03*
Y128228D02*
D03*
Y118228D02*
D03*
Y108228D02*
D03*
Y98228D02*
D03*
Y88228D02*
D03*
Y78228D02*
D03*
Y68228D02*
D03*
Y58228D02*
D03*
Y48228D02*
D03*
Y38228D02*
D03*
Y28228D02*
D03*
X259685Y48268D02*
D03*
X249685D02*
D03*
X239685D02*
D03*
X229685D02*
D03*
X219685D02*
D03*
X209685D02*
D03*
X199685D02*
D03*
X189685D02*
D03*
X179685D02*
D03*
X169685D02*
D03*
X159685D02*
D03*
X149685D02*
D03*
X139685D02*
D03*
X129685D02*
D03*
X119685D02*
D03*
X259685Y58268D02*
D03*
X249685D02*
D03*
X239685D02*
D03*
X229685D02*
D03*
X219685D02*
D03*
X209685D02*
D03*
X199685D02*
D03*
X189685D02*
D03*
X179685D02*
D03*
X169685D02*
D03*
X159685D02*
D03*
X149685D02*
D03*
X139685D02*
D03*
X129685D02*
D03*
X119685D02*
D03*
X530984Y365079D02*
D03*
Y355079D02*
D03*
Y345079D02*
D03*
Y335079D02*
D03*
Y325079D02*
D03*
Y315079D02*
D03*
Y305079D02*
D03*
Y295079D02*
D03*
Y285079D02*
D03*
Y275079D02*
D03*
Y265079D02*
D03*
Y255079D02*
D03*
Y245079D02*
D03*
Y235079D02*
D03*
Y225079D02*
D03*
X520984Y365079D02*
D03*
Y355079D02*
D03*
Y345079D02*
D03*
Y335079D02*
D03*
Y325079D02*
D03*
Y315079D02*
D03*
Y305079D02*
D03*
Y295079D02*
D03*
Y285079D02*
D03*
Y275079D02*
D03*
Y265079D02*
D03*
Y255079D02*
D03*
Y245079D02*
D03*
Y235079D02*
D03*
Y225079D02*
D03*
X75079Y32402D02*
D03*
X65079D02*
D03*
X75079Y42402D02*
D03*
X65079D02*
D03*
D62*
X88268Y344331D02*
D03*
X98268D02*
D03*
X108268D02*
D03*
X118268D02*
D03*
X322835Y334331D02*
D03*
X332835D02*
D03*
X342835D02*
D03*
X352835D02*
D03*
X138976Y331102D02*
D03*
Y321102D02*
D03*
X228937Y248543D02*
D03*
Y238543D02*
D03*
Y228543D02*
D03*
Y218543D02*
D03*
X352717Y137480D02*
D03*
X342717D02*
D03*
X332717D02*
D03*
X322717D02*
D03*
D63*
X138976Y341102D02*
D03*
D64*
X-27559Y280512D02*
D03*
X375295Y158465D02*
D03*
X367224D02*
D03*
D65*
X-37831Y267681D02*
D03*
X55392Y268307D02*
D03*
X55198Y220537D02*
D03*
X56299Y95197D02*
D03*
X86299D02*
D03*
X76299D02*
D03*
X66299D02*
D03*
X46299D02*
D03*
X36299D02*
D03*
X16142Y72047D02*
D03*
X-22638Y114173D02*
D03*
X26476Y66437D02*
D03*
X39370Y287402D02*
D03*
X-37795Y261417D02*
D03*
X55163Y173265D02*
D03*
X55118Y153543D02*
D03*
X472672Y349938D02*
D03*
Y310955D02*
D03*
Y323949D02*
D03*
Y226493D02*
D03*
Y239487D02*
D03*
X472770Y330446D02*
D03*
X472672Y258979D02*
D03*
X472672Y304458D02*
D03*
X472672Y265476D02*
D03*
X472672Y291464D02*
D03*
Y271973D02*
D03*
X472672Y343441D02*
D03*
X472672Y232990D02*
D03*
Y252482D02*
D03*
Y278470D02*
D03*
Y317452D02*
D03*
Y245985D02*
D03*
Y336944D02*
D03*
Y297961D02*
D03*
Y284967D02*
D03*
X484988Y297949D02*
D03*
Y310943D02*
D03*
Y317441D02*
D03*
Y232979D02*
D03*
Y323938D02*
D03*
Y245973D02*
D03*
Y336932D02*
D03*
Y252470D02*
D03*
Y291452D02*
D03*
Y349926D02*
D03*
Y258967D02*
D03*
Y304446D02*
D03*
Y343429D02*
D03*
Y226482D02*
D03*
Y271961D02*
D03*
Y278458D02*
D03*
Y265464D02*
D03*
Y239476D02*
D03*
Y284955D02*
D03*
Y330435D02*
D03*
X484744Y114062D02*
D03*
Y127056D02*
D03*
Y36097D02*
D03*
Y75080D02*
D03*
Y133553D02*
D03*
Y68583D02*
D03*
Y81577D02*
D03*
Y62086D02*
D03*
Y120559D02*
D03*
Y55589D02*
D03*
Y42594D02*
D03*
Y140050D02*
D03*
Y146547D02*
D03*
Y107565D02*
D03*
Y49092D02*
D03*
Y29600D02*
D03*
Y153045D02*
D03*
Y88074D02*
D03*
Y94571D02*
D03*
Y101068D02*
D03*
X472451Y101063D02*
D03*
Y94566D02*
D03*
Y36092D02*
D03*
Y127051D02*
D03*
X472550Y133548D02*
D03*
X472452Y146542D02*
D03*
X472452Y68577D02*
D03*
X472451Y81572D02*
D03*
X472452Y62081D02*
D03*
X472451Y42589D02*
D03*
Y49086D02*
D03*
Y140045D02*
D03*
Y29595D02*
D03*
Y55583D02*
D03*
Y120554D02*
D03*
Y75075D02*
D03*
Y114057D02*
D03*
Y153039D02*
D03*
Y88069D02*
D03*
X472452Y107560D02*
D03*
X173085Y98824D02*
D03*
X147097D02*
D03*
X160091Y98824D02*
D03*
X212068Y98824D02*
D03*
X225062Y98726D02*
D03*
X127606Y98824D02*
D03*
X218565D02*
D03*
X166588D02*
D03*
X153594Y98824D02*
D03*
X192576Y98824D02*
D03*
X205571D02*
D03*
X179582D02*
D03*
X231559D02*
D03*
X199074Y98824D02*
D03*
X121109Y98824D02*
D03*
X140600D02*
D03*
X134103D02*
D03*
X238056Y98824D02*
D03*
X186079Y98824D02*
D03*
X244553D02*
D03*
X192468Y86459D02*
D03*
X153486D02*
D03*
X237948D02*
D03*
X231451D02*
D03*
X127497D02*
D03*
X133995D02*
D03*
X224954D02*
D03*
X159983D02*
D03*
X205462D02*
D03*
X166480D02*
D03*
X172977D02*
D03*
X198965D02*
D03*
X140492D02*
D03*
X244445D02*
D03*
X218457D02*
D03*
X185971D02*
D03*
X146989D02*
D03*
X121001D02*
D03*
X211959D02*
D03*
X179474D02*
D03*
X332283Y223228D02*
D03*
X193307Y262008D02*
D03*
X120971Y111135D02*
D03*
X125591Y133268D02*
D03*
X127468Y111135D02*
D03*
X125591Y146358D02*
D03*
X133965Y111135D02*
D03*
X125591Y159154D02*
D03*
X146959Y111135D02*
D03*
X153456Y111135D02*
D03*
X159953Y111135D02*
D03*
X166451Y111135D02*
D03*
X172948D02*
D03*
X179445D02*
D03*
X185942D02*
D03*
X192439D02*
D03*
X198936Y111135D02*
D03*
X205433Y111135D02*
D03*
X211930D02*
D03*
X218427D02*
D03*
X224924Y111036D02*
D03*
X231421Y111135D02*
D03*
X237918Y111135D02*
D03*
X244415Y111135D02*
D03*
X155855Y164764D02*
D03*
X196968Y204842D02*
D03*
X177284Y193032D02*
D03*
X173819Y182283D02*
D03*
X184646Y170472D02*
D03*
X173327Y205708D02*
D03*
X182027Y183845D02*
D03*
X172982Y200837D02*
D03*
X179724Y170472D02*
D03*
X166929Y197047D02*
D03*
X140462Y111135D02*
D03*
X125582Y172014D02*
D03*
X217355Y166654D02*
D03*
X134449Y129134D02*
D03*
X460125Y29514D02*
D03*
X437992Y34134D02*
D03*
X460125Y36011D02*
D03*
X424902Y34134D02*
D03*
X460125Y42508D02*
D03*
X412106Y34134D02*
D03*
X460125Y55503D02*
D03*
X460125Y62000D02*
D03*
X460125Y68497D02*
D03*
X460125Y74994D02*
D03*
Y81491D02*
D03*
Y87988D02*
D03*
Y94485D02*
D03*
Y100982D02*
D03*
X460125Y107479D02*
D03*
X460125Y113976D02*
D03*
Y120473D02*
D03*
Y126970D02*
D03*
X460223Y133467D02*
D03*
X460125Y139964D02*
D03*
X460125Y146462D02*
D03*
X460125Y152959D02*
D03*
X406496Y64398D02*
D03*
X366417Y105512D02*
D03*
X378228Y85827D02*
D03*
X388976Y82362D02*
D03*
X400787Y93189D02*
D03*
X365552Y81870D02*
D03*
X387415Y90571D02*
D03*
X370423Y81526D02*
D03*
X400787Y88268D02*
D03*
X374213Y75472D02*
D03*
X460125Y49005D02*
D03*
X399246Y34125D02*
D03*
X404606Y125898D02*
D03*
X442126Y42992D02*
D03*
X39370Y240158D02*
D03*
X39469Y255906D02*
D03*
X39370Y161417D02*
D03*
X39469Y271654D02*
D03*
X39370Y224410D02*
D03*
Y177165D02*
D03*
Y208661D02*
D03*
Y192913D02*
D03*
X438110Y230984D02*
D03*
X425020D02*
D03*
X412224D02*
D03*
X399364Y230976D02*
D03*
X404724Y322748D02*
D03*
X378346Y282677D02*
D03*
X366535Y302362D02*
D03*
X309370Y298701D02*
D03*
X309370Y241811D02*
D03*
X387533Y287421D02*
D03*
X374331Y272323D02*
D03*
X370541Y278376D02*
D03*
X365670Y278720D02*
D03*
X406614Y261248D02*
D03*
X442244Y239843D02*
D03*
X460243Y297832D02*
D03*
Y310826D02*
D03*
Y278341D02*
D03*
Y284838D02*
D03*
Y291335D02*
D03*
X460243Y304330D02*
D03*
X460342Y330318D02*
D03*
X460243Y343312D02*
D03*
X460243Y317324D02*
D03*
Y323821D02*
D03*
Y349809D02*
D03*
Y336815D02*
D03*
Y271844D02*
D03*
Y226365D02*
D03*
Y232862D02*
D03*
Y239359D02*
D03*
Y245856D02*
D03*
Y252353D02*
D03*
X460243Y265347D02*
D03*
X460243Y258850D02*
D03*
X400906Y285118D02*
D03*
Y290039D02*
D03*
X389094Y279213D02*
D03*
M02*
