G04*
G04 #@! TF.GenerationSoftware,Altium Limited,Altium Designer,24.0.1 (36)*
G04*
G04 Layer_Color=65535*
%FSLAX25Y25*%
%MOIN*%
G70*
G04*
G04 #@! TF.SameCoordinates,90A6A26D-EC95-4B51-8AA5-A465589135C4*
G04*
G04*
G04 #@! TF.FilePolarity,Positive*
G04*
G01*
G75*
%ADD10C,0.02362*%
%ADD11C,0.00984*%
%ADD12C,0.00787*%
%ADD13C,0.00591*%
%ADD14C,0.01000*%
%ADD15C,0.03937*%
G36*
X238779Y202492D02*
X237795Y200787D01*
X239764D01*
X238779Y202492D01*
D02*
G37*
G36*
X137665Y354331D02*
X139370Y353346D01*
Y355315D01*
X137665Y354331D01*
D02*
G37*
G36*
X368768Y147323D02*
X370472Y146339D01*
Y148307D01*
X368768Y147323D01*
D02*
G37*
G36*
X368886Y344173D02*
X370590Y343189D01*
Y345158D01*
X368886Y344173D01*
D02*
G37*
G36*
X-28670Y286702D02*
X-27492Y285050D01*
X-28006D01*
X-28802Y286170D01*
X-28807Y286174D01*
X-28816Y286188D01*
X-28825Y286206D01*
X-28843Y286229D01*
X-28884Y286293D01*
X-28929Y286361D01*
X-28934Y286356D01*
X-28948Y286338D01*
X-28966Y286311D01*
X-28989Y286274D01*
X-29039Y286202D01*
X-29061Y286170D01*
X-29080Y286142D01*
X-29876Y285050D01*
X-30376D01*
X-29162Y286679D01*
X-30235Y288199D01*
X-29739D01*
X-29166Y287389D01*
Y287385D01*
X-29157Y287380D01*
X-29148Y287366D01*
X-29134Y287348D01*
X-29107Y287303D01*
X-29066Y287248D01*
X-29025Y287184D01*
X-28984Y287121D01*
X-28948Y287062D01*
X-28916Y287007D01*
X-28911Y287016D01*
X-28898Y287034D01*
X-28875Y287071D01*
X-28843Y287116D01*
X-28807Y287166D01*
X-28761Y287230D01*
X-28716Y287294D01*
X-28661Y287362D01*
X-28033Y288199D01*
X-27578D01*
X-28670Y286702D01*
D02*
G37*
G36*
X-26158Y288208D02*
X-26122Y288204D01*
X-26077Y288199D01*
X-26027Y288190D01*
X-25976Y288181D01*
X-25858Y288149D01*
X-25740Y288103D01*
X-25681Y288076D01*
X-25622Y288044D01*
X-25567Y288003D01*
X-25517Y287958D01*
X-25512Y287953D01*
X-25503Y287949D01*
X-25494Y287930D01*
X-25476Y287912D01*
X-25453Y287890D01*
X-25431Y287858D01*
X-25408Y287826D01*
X-25381Y287785D01*
X-25335Y287699D01*
X-25289Y287589D01*
X-25271Y287535D01*
X-25262Y287471D01*
X-25253Y287407D01*
X-25249Y287339D01*
Y287330D01*
Y287307D01*
X-25253Y287271D01*
X-25258Y287221D01*
X-25267Y287166D01*
X-25285Y287102D01*
X-25303Y287034D01*
X-25330Y286966D01*
X-25335Y286957D01*
X-25344Y286934D01*
X-25362Y286898D01*
X-25390Y286848D01*
X-25426Y286793D01*
X-25471Y286725D01*
X-25526Y286656D01*
X-25590Y286579D01*
X-25599Y286570D01*
X-25622Y286543D01*
X-25644Y286520D01*
X-25667Y286497D01*
X-25694Y286470D01*
X-25731Y286434D01*
X-25767Y286397D01*
X-25813Y286356D01*
X-25858Y286311D01*
X-25913Y286261D01*
X-25972Y286211D01*
X-26036Y286152D01*
X-26109Y286092D01*
X-26181Y286029D01*
X-26186Y286024D01*
X-26195Y286015D01*
X-26213Y286001D01*
X-26236Y285983D01*
X-26263Y285956D01*
X-26295Y285929D01*
X-26368Y285869D01*
X-26445Y285801D01*
X-26518Y285733D01*
X-26582Y285674D01*
X-26609Y285651D01*
X-26632Y285628D01*
X-26636Y285624D01*
X-26650Y285610D01*
X-26668Y285592D01*
X-26691Y285564D01*
X-26714Y285533D01*
X-26741Y285501D01*
X-26796Y285423D01*
X-25244D01*
Y285050D01*
X-27332D01*
Y285055D01*
Y285073D01*
Y285100D01*
X-27328Y285137D01*
X-27323Y285178D01*
X-27314Y285223D01*
X-27305Y285269D01*
X-27287Y285319D01*
Y285323D01*
X-27282Y285328D01*
X-27273Y285355D01*
X-27255Y285396D01*
X-27228Y285451D01*
X-27191Y285514D01*
X-27146Y285587D01*
X-27096Y285660D01*
X-27032Y285737D01*
Y285742D01*
X-27023Y285747D01*
X-27000Y285774D01*
X-26959Y285815D01*
X-26900Y285874D01*
X-26832Y285942D01*
X-26746Y286024D01*
X-26641Y286115D01*
X-26527Y286211D01*
X-26522Y286215D01*
X-26504Y286229D01*
X-26477Y286252D01*
X-26445Y286279D01*
X-26404Y286315D01*
X-26354Y286356D01*
X-26304Y286402D01*
X-26245Y286452D01*
X-26131Y286561D01*
X-26017Y286670D01*
X-25963Y286725D01*
X-25913Y286779D01*
X-25867Y286829D01*
X-25831Y286879D01*
Y286884D01*
X-25822Y286889D01*
X-25813Y286902D01*
X-25804Y286920D01*
X-25772Y286970D01*
X-25735Y287030D01*
X-25703Y287102D01*
X-25672Y287180D01*
X-25653Y287266D01*
X-25644Y287348D01*
Y287353D01*
Y287357D01*
X-25649Y287385D01*
X-25653Y287430D01*
X-25667Y287480D01*
X-25685Y287544D01*
X-25717Y287608D01*
X-25758Y287671D01*
X-25813Y287735D01*
X-25822Y287744D01*
X-25845Y287762D01*
X-25876Y287785D01*
X-25927Y287817D01*
X-25990Y287844D01*
X-26063Y287871D01*
X-26149Y287890D01*
X-26245Y287894D01*
X-26272D01*
X-26291Y287890D01*
X-26345Y287885D01*
X-26409Y287871D01*
X-26477Y287853D01*
X-26554Y287821D01*
X-26627Y287780D01*
X-26695Y287726D01*
X-26704Y287717D01*
X-26723Y287694D01*
X-26750Y287657D01*
X-26777Y287603D01*
X-26809Y287539D01*
X-26836Y287457D01*
X-26855Y287366D01*
X-26864Y287262D01*
X-27260Y287303D01*
Y287307D01*
X-27255Y287321D01*
Y287344D01*
X-27250Y287375D01*
X-27241Y287412D01*
X-27232Y287453D01*
X-27219Y287503D01*
X-27205Y287553D01*
X-27169Y287662D01*
X-27114Y287771D01*
X-27082Y287826D01*
X-27041Y287880D01*
X-27000Y287930D01*
X-26955Y287976D01*
X-26950Y287981D01*
X-26941Y287985D01*
X-26928Y287999D01*
X-26905Y288012D01*
X-26877Y288031D01*
X-26846Y288049D01*
X-26809Y288072D01*
X-26764Y288094D01*
X-26714Y288117D01*
X-26659Y288140D01*
X-26600Y288158D01*
X-26536Y288176D01*
X-26468Y288190D01*
X-26395Y288204D01*
X-26318Y288208D01*
X-26236Y288213D01*
X-26190D01*
X-26158Y288208D01*
D02*
G37*
D10*
X50394Y45647D02*
X49949Y46571D01*
X48950Y46799D01*
X48149Y46160D01*
Y45135D01*
X48950Y44496D01*
X49949Y44724D01*
X50394Y45647D01*
D11*
X41339Y50588D02*
X40600Y51015D01*
Y50162D01*
X41339Y50588D01*
D12*
X200709Y235404D02*
X199825Y235037D01*
X199459Y234154D01*
X199825Y233270D01*
X200709Y232904D01*
X335856Y109252D02*
X336222Y108368D01*
X337106Y108002D01*
X337990Y108368D01*
X338356Y109252D01*
X335974Y306102D02*
X336340Y305219D01*
X337224Y304852D01*
X338108Y305219D01*
X338474Y306102D01*
X45276Y29899D02*
X57874D01*
X45276Y49584D02*
X57874D01*
Y29899D02*
Y49584D01*
X45276Y29899D02*
Y49584D01*
X59194Y54314D02*
X59588D01*
X59194Y51558D02*
X59588D01*
X112992Y333071D02*
X113386D01*
X112992Y330315D02*
X113386D01*
X92323Y327165D02*
X92716D01*
X92323Y324410D02*
X92716D01*
X92323Y333071D02*
X92716D01*
X92323Y330315D02*
X92716D01*
X466732Y95949D02*
X467126D01*
X466732Y93193D02*
X467126D01*
X187406Y104134D02*
Y104527D01*
X184650Y104134D02*
Y104527D01*
X466850Y292799D02*
X467244D01*
X466850Y290043D02*
X467244D01*
X466732Y86696D02*
X467126D01*
X466732Y89452D02*
X467126D01*
X178153Y104134D02*
Y104527D01*
X180909Y104134D02*
Y104527D01*
X466850Y283546D02*
X467244D01*
X466850Y286302D02*
X467244D01*
X466732Y102446D02*
X467126D01*
X466732Y99690D02*
X467126D01*
X193903Y104134D02*
Y104527D01*
X191147Y104134D02*
Y104527D01*
X466850Y299296D02*
X467244D01*
X466850Y296540D02*
X467244D01*
X466732Y80199D02*
X467126D01*
X466732Y82955D02*
X467126D01*
X171656Y104134D02*
Y104527D01*
X174411Y104134D02*
Y104527D01*
X466850Y277049D02*
X467244D01*
X466850Y279805D02*
X467244D01*
X466732Y108943D02*
X467126D01*
X466732Y106187D02*
X467126D01*
X200400Y104134D02*
Y104527D01*
X197644Y104134D02*
Y104527D01*
X466850Y305793D02*
X467244D01*
X466850Y303038D02*
X467244D01*
X466732Y73702D02*
X467126D01*
X466732Y76458D02*
X467126D01*
X165158Y104134D02*
Y104527D01*
X167914Y104134D02*
Y104527D01*
X466850Y270552D02*
X467244D01*
X466850Y273308D02*
X467244D01*
X466732Y115440D02*
X467126D01*
X466732Y112684D02*
X467126D01*
X206897Y104134D02*
Y104527D01*
X204141Y104134D02*
Y104527D01*
X466850Y312291D02*
X467244D01*
X466850Y309535D02*
X467244D01*
X466732Y67205D02*
X467126D01*
X466732Y69961D02*
X467126D01*
X158661Y104134D02*
Y104528D01*
X161417Y104134D02*
Y104528D01*
X466850Y264055D02*
X467244D01*
X466850Y266811D02*
X467244D01*
X466732Y121937D02*
X467126D01*
X466732Y119181D02*
X467126D01*
X213394Y104134D02*
Y104527D01*
X210638Y104134D02*
Y104527D01*
X466850Y318788D02*
X467244D01*
X466850Y316032D02*
X467244D01*
X466732Y60708D02*
X467126D01*
X466732Y63464D02*
X467126D01*
X152164Y104134D02*
Y104528D01*
X154920Y104134D02*
Y104528D01*
X466850Y257558D02*
X467244D01*
X466850Y260314D02*
X467244D01*
X466732Y128434D02*
X467126D01*
X466732Y125678D02*
X467126D01*
X219891Y104134D02*
Y104527D01*
X217135Y104134D02*
Y104527D01*
X466850Y325285D02*
X467244D01*
X466850Y322529D02*
X467244D01*
X466732Y54211D02*
X467126D01*
X466732Y56967D02*
X467126D01*
X145667Y104134D02*
Y104528D01*
X148423Y104134D02*
Y104528D01*
X466850Y251061D02*
X467244D01*
X466850Y253817D02*
X467244D01*
X466831Y134931D02*
X467224D01*
X466831Y132175D02*
X467224D01*
X226388Y104035D02*
Y104429D01*
X223632Y104035D02*
Y104429D01*
X466949Y331782D02*
X467343D01*
X466949Y329026D02*
X467343D01*
X466732Y47714D02*
X467126D01*
X466732Y50469D02*
X467126D01*
X139170Y104134D02*
Y104528D01*
X141926Y104134D02*
Y104528D01*
X466850Y244564D02*
X467244D01*
X466850Y247320D02*
X467244D01*
X466732Y141428D02*
X467126D01*
X466732Y138672D02*
X467126D01*
X232885Y104134D02*
Y104527D01*
X230129Y104134D02*
Y104527D01*
X466850Y338279D02*
X467244D01*
X466850Y335523D02*
X467244D01*
X466732Y41216D02*
X467126D01*
X466732Y43972D02*
X467126D01*
X132673Y104134D02*
Y104528D01*
X135429Y104134D02*
Y104528D01*
X466850Y238067D02*
X467244D01*
X466850Y240823D02*
X467244D01*
X466732Y147925D02*
X467126D01*
X466732Y145170D02*
X467126D01*
X239382Y104134D02*
Y104527D01*
X236626Y104134D02*
Y104527D01*
X466850Y344776D02*
X467244D01*
X466850Y342020D02*
X467244D01*
X466732Y34719D02*
X467126D01*
X466732Y37475D02*
X467126D01*
X126176Y104134D02*
Y104528D01*
X128932Y104134D02*
Y104528D01*
X466850Y231570D02*
X467244D01*
X466850Y234326D02*
X467244D01*
X466732Y154423D02*
X467126D01*
X466732Y151667D02*
X467126D01*
X245879Y104134D02*
Y104527D01*
X243123Y104134D02*
Y104527D01*
X466850Y351273D02*
X467244D01*
X466850Y348517D02*
X467244D01*
X466732Y28222D02*
X467126D01*
X466732Y30978D02*
X467126D01*
X119679Y104134D02*
Y104528D01*
X122435Y104134D02*
Y104528D01*
X466850Y225073D02*
X467244D01*
X466850Y227829D02*
X467244D01*
X346457Y129016D02*
X346850D01*
X346457Y126260D02*
X346850D01*
X220472Y224409D02*
Y224803D01*
X217717Y224409D02*
Y224803D01*
X346575Y325866D02*
X346969D01*
X346575Y323110D02*
X346969D01*
X403543Y62087D02*
X403937D01*
X403543Y59331D02*
X403937D01*
X153543Y167323D02*
Y167717D01*
X150787Y167323D02*
Y167717D01*
X403661Y258937D02*
X404055D01*
X403661Y256181D02*
X404055D01*
X365071Y98883D02*
Y99276D01*
X367827Y98883D02*
Y99276D01*
X190339Y206189D02*
X190733D01*
X190339Y203433D02*
X190733D01*
X365189Y295733D02*
Y296127D01*
X367945Y295733D02*
Y296127D01*
X431102Y63267D02*
X431496D01*
X431102Y66023D02*
X431496D01*
X154723Y139764D02*
Y140157D01*
X157479Y139764D02*
Y140157D01*
X431220Y260117D02*
X431614D01*
X431220Y262873D02*
X431614D01*
X388779Y68189D02*
X389173D01*
X388779Y70945D02*
X389173D01*
X159646Y182087D02*
Y182480D01*
X162402Y182087D02*
Y182480D01*
X388898Y265039D02*
X389291D01*
X388898Y267795D02*
X389291D01*
X381890Y82756D02*
X382283D01*
X381890Y80000D02*
X382283D01*
X174213Y188976D02*
Y189370D01*
X171457Y188976D02*
Y189370D01*
X382008Y279606D02*
X382402D01*
X382008Y276850D02*
X382402D01*
X431102Y68189D02*
X431496D01*
X431102Y70945D02*
X431496D01*
X159646Y139764D02*
Y140157D01*
X162402Y139764D02*
Y140157D01*
X431220Y265039D02*
X431614D01*
X431220Y267795D02*
X431614D01*
X326772Y129016D02*
X327165D01*
X326772Y126260D02*
X327165D01*
X220472Y244094D02*
Y244488D01*
X217717Y244094D02*
Y244488D01*
X326890Y325866D02*
X327284D01*
X326890Y323110D02*
X327284D01*
X419291Y60315D02*
X419685D01*
X419291Y63071D02*
X419685D01*
X151772Y151575D02*
Y151969D01*
X154527Y151575D02*
Y151969D01*
X419410Y257165D02*
X419803D01*
X419410Y259921D02*
X419803D01*
X381890Y77835D02*
X382283D01*
X381890Y75079D02*
X382283D01*
X169291Y188976D02*
Y189370D01*
X166535Y188976D02*
Y189370D01*
X382008Y274685D02*
X382402D01*
X382008Y271929D02*
X382402D01*
X326772Y123110D02*
X327165D01*
X326772Y120354D02*
X327165D01*
X214567Y244094D02*
Y244488D01*
X211811Y244094D02*
Y244488D01*
X326890Y319961D02*
X327284D01*
X326890Y317205D02*
X327284D01*
X419291Y55394D02*
X419685D01*
X419291Y58150D02*
X419685D01*
X146850Y151575D02*
Y151969D01*
X149606Y151575D02*
Y151969D01*
X419410Y252244D02*
X419803D01*
X419410Y255000D02*
X419803D01*
X307874Y98898D02*
Y99291D01*
X310630Y98898D02*
Y99291D01*
X190354Y263386D02*
X190748D01*
X190354Y260630D02*
X190748D01*
X307992Y295748D02*
Y296142D01*
X310748Y295748D02*
Y296142D01*
X80000Y344331D02*
Y347087D01*
Y338819D02*
Y344331D01*
Y338819D02*
X126063D01*
Y362441D01*
X80000D02*
X126063D01*
X80000Y347087D02*
Y362441D01*
X314567Y334331D02*
Y337087D01*
Y328819D02*
Y334331D01*
Y328819D02*
X360630D01*
Y352441D01*
X314567D02*
X360630D01*
X314567Y337087D02*
Y352441D01*
X141260Y218406D02*
X154823D01*
X141260D02*
Y248287D01*
X150847D01*
X200847Y235404D02*
Y248287D01*
Y218406D02*
Y232904D01*
X154823Y218406D02*
X200847D01*
X150847Y248287D02*
X200847D01*
X166083Y168839D02*
X168760Y171516D01*
X189429D01*
Y148169D02*
Y171516D01*
X166083Y148169D02*
X189429D01*
X166083D02*
Y168839D01*
X228937Y256811D02*
X231693D01*
X223425D02*
X228937D01*
X223425Y210748D02*
Y256811D01*
Y210748D02*
X247047D01*
Y256811D01*
X231693D02*
X247047D01*
X322972Y59390D02*
Y109390D01*
X352854Y63366D02*
Y109390D01*
X338356D02*
X352854D01*
X322972D02*
X335856D01*
X322972Y49803D02*
Y59390D01*
Y49803D02*
X352854D01*
Y63366D01*
X399744Y77303D02*
X402421Y74626D01*
X399744Y77303D02*
Y97973D01*
X423091D01*
Y74626D02*
Y97973D01*
X402421Y74626D02*
X423091D01*
X314449Y140236D02*
Y155591D01*
X360512D01*
Y131968D02*
Y155591D01*
X314449Y131968D02*
X360512D01*
X314449D02*
Y137480D01*
Y140236D01*
X323091Y256240D02*
Y306240D01*
X352972Y260217D02*
Y306240D01*
X338474D02*
X352972D01*
X323091D02*
X335974D01*
X323091Y246654D02*
Y256240D01*
Y246654D02*
X352972D01*
Y260217D01*
X399862Y274154D02*
X402539Y271476D01*
X399862Y274154D02*
Y294823D01*
X423209D01*
Y271476D02*
Y294823D01*
X402539Y271476D02*
X423209D01*
X499016Y80973D02*
X499672Y80317D01*
X500984D01*
X501640Y80973D01*
Y83597D01*
X500984Y84253D01*
X499672D01*
X499016Y83597D01*
Y82941D01*
X499672Y82285D01*
X501640D01*
X191068Y72047D02*
Y70735D01*
Y71391D01*
X195004D01*
X194348Y72047D01*
X191068Y66143D02*
Y68767D01*
X193692Y66143D01*
X194348D01*
X195004Y66799D01*
Y68111D01*
X194348Y68767D01*
X498347Y225073D02*
X499658D01*
X499002D01*
Y229008D01*
X498347Y228352D01*
X500314Y244564D02*
Y248500D01*
X498347Y246532D01*
X500970D01*
X498347Y290043D02*
X499658D01*
X499002D01*
Y293979D01*
X498347Y293323D01*
X501626Y290043D02*
X502938D01*
X502282D01*
Y293979D01*
X501626Y293323D01*
X210559Y72047D02*
Y70735D01*
Y71391D01*
X214495D01*
X213839Y72047D01*
X214495Y66144D02*
Y68767D01*
X212527D01*
X213183Y67456D01*
Y66799D01*
X212527Y66144D01*
X211215D01*
X210559Y66799D01*
Y68111D01*
X211215Y68767D01*
X498347Y322529D02*
X499658D01*
X499002D01*
Y326465D01*
X498347Y325809D01*
X504250Y326465D02*
X502938Y325809D01*
X501626Y324497D01*
Y323185D01*
X502282Y322529D01*
X503594D01*
X504250Y323185D01*
Y323841D01*
X503594Y324497D01*
X501626D01*
X499016Y93311D02*
X500328D01*
X499672D01*
Y97247D01*
X499016Y96591D01*
X502295Y93311D02*
X503607D01*
X502951D01*
Y97247D01*
X502295Y96591D01*
X499016Y44614D02*
X499672Y45270D01*
X500984D01*
X501640Y44614D01*
Y43958D01*
X500984Y43302D01*
X500328D01*
X500984D01*
X501640Y42647D01*
Y41991D01*
X500984Y41335D01*
X499672D01*
X499016Y41991D01*
X149524Y69423D02*
Y72047D01*
X147556D01*
X148212Y70735D01*
Y70079D01*
X147556Y69423D01*
X146245D01*
X145589Y70079D01*
Y71391D01*
X146245Y72047D01*
X498347Y303038D02*
X499658D01*
X499002D01*
Y306973D01*
X498347Y306317D01*
X501626D02*
X502282Y306973D01*
X503594D01*
X504250Y306317D01*
Y305661D01*
X503594Y305005D01*
X502938D01*
X503594D01*
X504250Y304349D01*
Y303694D01*
X503594Y303038D01*
X502282D01*
X501626Y303694D01*
X500970Y348517D02*
X498347D01*
X500970Y351141D01*
Y351797D01*
X500314Y352453D01*
X499002D01*
X498347Y351797D01*
X502282D02*
X502938Y352453D01*
X504250D01*
X504906Y351797D01*
Y349173D01*
X504250Y348517D01*
X502938D01*
X502282Y349173D01*
Y351797D01*
X498347Y241347D02*
X499002Y242003D01*
X500314D01*
X500970Y241347D01*
Y240691D01*
X500314Y240035D01*
X499658D01*
X500314D01*
X500970Y239379D01*
Y238723D01*
X500314Y238067D01*
X499002D01*
X498347Y238723D01*
Y267991D02*
X500970D01*
Y267335D01*
X498347Y264711D01*
Y264055D01*
X501640Y58264D02*
X499016D01*
Y56297D01*
X500328Y56953D01*
X500984D01*
X501640Y56297D01*
Y54985D01*
X500984Y54329D01*
X499672D01*
X499016Y54985D01*
X498302Y329026D02*
X499614D01*
X498958D01*
Y332962D01*
X498302Y332306D01*
X501581Y332962D02*
X504205D01*
Y332306D01*
X501581Y329682D01*
Y329026D01*
X499016Y119299D02*
X500328D01*
X499672D01*
Y123235D01*
X499016Y122579D01*
X504919Y123235D02*
X502295D01*
Y121267D01*
X503607Y121923D01*
X504263D01*
X504919Y121267D01*
Y119955D01*
X504263Y119299D01*
X502951D01*
X502295Y119955D01*
X236547Y72047D02*
Y70735D01*
Y71391D01*
X240483D01*
X239827Y72047D01*
X237204Y68767D02*
X236547Y68111D01*
Y66799D01*
X237204Y66144D01*
X239827D01*
X240483Y66799D01*
Y68111D01*
X239827Y68767D01*
X239171D01*
X238515Y68111D01*
Y66144D01*
X499016Y145288D02*
X500328D01*
X499672D01*
Y149223D01*
X499016Y148567D01*
X502295Y145944D02*
X502951Y145288D01*
X504263D01*
X504919Y145944D01*
Y148567D01*
X504263Y149223D01*
X502951D01*
X502295Y148567D01*
Y147912D01*
X502951Y147256D01*
X504919D01*
X499016Y125796D02*
X500328D01*
X499672D01*
Y129732D01*
X499016Y129076D01*
X504919Y129732D02*
X503607Y129076D01*
X502295Y127764D01*
Y126452D01*
X502951Y125796D01*
X504263D01*
X504919Y126452D01*
Y127108D01*
X504263Y127764D01*
X502295D01*
X197565Y72047D02*
Y70735D01*
Y71391D01*
X201501D01*
X200845Y72047D01*
Y68767D02*
X201501Y68111D01*
Y66799D01*
X200845Y66144D01*
X200189D01*
X199533Y66799D01*
Y67456D01*
Y66799D01*
X198877Y66144D01*
X198221D01*
X197565Y66799D01*
Y68111D01*
X198221Y68767D01*
X204062Y72047D02*
Y70735D01*
Y71391D01*
X207998D01*
X207342Y72047D01*
X204062Y66799D02*
X207998D01*
X206030Y68767D01*
Y66143D01*
X498347Y342020D02*
X499658D01*
X499002D01*
Y345956D01*
X498347Y345300D01*
X501626Y342676D02*
X502282Y342020D01*
X503594D01*
X504250Y342676D01*
Y345300D01*
X503594Y345956D01*
X502282D01*
X501626Y345300D01*
Y344644D01*
X502282Y343988D01*
X504250D01*
X500970Y261494D02*
X499658Y260838D01*
X498347Y259526D01*
Y258214D01*
X499002Y257558D01*
X500314D01*
X500970Y258214D01*
Y258870D01*
X500314Y259526D01*
X498347D01*
X223553Y72092D02*
Y70780D01*
Y71436D01*
X227489D01*
X226833Y72092D01*
X227489Y68812D02*
Y66188D01*
X226833D01*
X224209Y68812D01*
X223553D01*
X498971Y132293D02*
X500283D01*
X499627D01*
Y136229D01*
X498971Y135573D01*
X502251Y136229D02*
X504875D01*
Y135573D01*
X502251Y132949D01*
Y132293D01*
X500970Y254997D02*
X498347D01*
Y253029D01*
X499658Y253685D01*
X500314D01*
X500970Y253029D01*
Y251717D01*
X500314Y251061D01*
X499002D01*
X498347Y251717D01*
X178074Y72047D02*
Y70735D01*
Y71391D01*
X182009D01*
X181353Y72047D01*
Y68767D02*
X182009Y68111D01*
Y66799D01*
X181353Y66143D01*
X178730D01*
X178074Y66799D01*
Y68111D01*
X178730Y68767D01*
X181353D01*
X499016Y99808D02*
X500328D01*
X499672D01*
Y103744D01*
X499016Y103088D01*
X504919Y99808D02*
X502295D01*
X504919Y102432D01*
Y103088D01*
X504263Y103744D01*
X502951D01*
X502295Y103088D01*
X498347Y316032D02*
X499658D01*
X499002D01*
Y319967D01*
X498347Y319311D01*
X504250Y319967D02*
X501626D01*
Y318000D01*
X502938Y318655D01*
X503594D01*
X504250Y318000D01*
Y316688D01*
X503594Y316032D01*
X502282D01*
X501626Y316688D01*
X230050Y72047D02*
Y70735D01*
Y71391D01*
X233986D01*
X233330Y72047D01*
Y68767D02*
X233986Y68111D01*
Y66799D01*
X233330Y66143D01*
X232674D01*
X232018Y66799D01*
X231362Y66143D01*
X230706D01*
X230050Y66799D01*
Y68111D01*
X230706Y68767D01*
X231362D01*
X232018Y68111D01*
X232674Y68767D01*
X233330D01*
X232018Y68111D02*
Y66799D01*
X499016Y138791D02*
X500328D01*
X499672D01*
Y142726D01*
X499016Y142070D01*
X502295D02*
X502951Y142726D01*
X504263D01*
X504919Y142070D01*
Y141414D01*
X504263Y140759D01*
X504919Y140103D01*
Y139447D01*
X504263Y138791D01*
X502951D01*
X502295Y139447D01*
Y140103D01*
X502951Y140759D01*
X502295Y141414D01*
Y142070D01*
X502951Y140759D02*
X504263D01*
X217056Y72047D02*
Y70735D01*
Y71391D01*
X220992D01*
X220336Y72047D01*
X220992Y66143D02*
X220336Y67455D01*
X219024Y68767D01*
X217712D01*
X217056Y68111D01*
Y66799D01*
X217712Y66143D01*
X218368D01*
X219024Y66799D01*
Y68767D01*
X501640Y34837D02*
X499016D01*
X501640Y37461D01*
Y38117D01*
X500984Y38773D01*
X499672D01*
X499016Y38117D01*
X162518Y72047D02*
Y69423D01*
X161862D01*
X159239Y72047D01*
X158583D01*
X500984Y47832D02*
Y51767D01*
X499016Y49799D01*
X501640D01*
X243044Y69423D02*
Y72047D01*
X245668Y69423D01*
X246324D01*
X246980Y70079D01*
Y71391D01*
X246324Y72047D01*
Y68111D02*
X246980Y67455D01*
Y66143D01*
X246324Y65487D01*
X243700D01*
X243044Y66143D01*
Y67455D01*
X243700Y68111D01*
X246324D01*
X498347Y309535D02*
X499658D01*
X499002D01*
Y313470D01*
X498347Y312814D01*
X503594Y309535D02*
Y313470D01*
X501626Y311503D01*
X504250D01*
X498347Y277705D02*
X499002Y277049D01*
X500314D01*
X500970Y277705D01*
Y280329D01*
X500314Y280985D01*
X499002D01*
X498347Y280329D01*
Y279673D01*
X499002Y279017D01*
X500970D01*
X501640Y64762D02*
X500328Y64106D01*
X499016Y62794D01*
Y61482D01*
X499672Y60826D01*
X500984D01*
X501640Y61482D01*
Y62138D01*
X500984Y62794D01*
X499016D01*
X498347Y273832D02*
X499002Y274488D01*
X500314D01*
X500970Y273832D01*
Y273176D01*
X500314Y272520D01*
X500970Y271864D01*
Y271208D01*
X500314Y270552D01*
X499002D01*
X498347Y271208D01*
Y271864D01*
X499002Y272520D01*
X498347Y273176D01*
Y273832D01*
X499002Y272520D02*
X500314D01*
X501640Y151785D02*
X499016D01*
X501640Y154409D01*
Y155064D01*
X500984Y155720D01*
X499672D01*
X499016Y155064D01*
X502951D02*
X503607Y155720D01*
X504919D01*
X505575Y155064D01*
Y152441D01*
X504919Y151785D01*
X503607D01*
X502951Y152441D01*
Y155064D01*
X499016Y77100D02*
X499672Y77756D01*
X500984D01*
X501640Y77100D01*
Y76444D01*
X500984Y75788D01*
X501640Y75132D01*
Y74476D01*
X500984Y73820D01*
X499672D01*
X499016Y74476D01*
Y75132D01*
X499672Y75788D01*
X499016Y76444D01*
Y77100D01*
X499672Y75788D02*
X500984D01*
X499016Y106305D02*
X500328D01*
X499672D01*
Y110241D01*
X499016Y109585D01*
X502295D02*
X502951Y110241D01*
X504263D01*
X504919Y109585D01*
Y108929D01*
X504263Y108273D01*
X503607D01*
X504263D01*
X504919Y107617D01*
Y106961D01*
X504263Y106305D01*
X502951D01*
X502295Y106961D01*
X498347Y296540D02*
X499658D01*
X499002D01*
Y300476D01*
X498347Y299820D01*
X504250Y296540D02*
X501626D01*
X504250Y299164D01*
Y299820D01*
X503594Y300476D01*
X502282D01*
X501626Y299820D01*
X184571Y72047D02*
Y70735D01*
Y71391D01*
X188507D01*
X187851Y72047D01*
X184571Y68767D02*
Y67455D01*
Y68111D01*
X188507D01*
X187851Y68767D01*
X126097Y69423D02*
Y72047D01*
X128721Y69423D01*
X129377D01*
X130033Y70079D01*
Y71391D01*
X129377Y72047D01*
X498347Y335523D02*
X499658D01*
X499002D01*
Y339459D01*
X498347Y338803D01*
X501626D02*
X502282Y339459D01*
X503594D01*
X504250Y338803D01*
Y338147D01*
X503594Y337491D01*
X504250Y336835D01*
Y336179D01*
X503594Y335523D01*
X502282D01*
X501626Y336179D01*
Y336835D01*
X502282Y337491D01*
X501626Y338147D01*
Y338803D01*
X502282Y337491D02*
X503594D01*
X499016Y112802D02*
X500328D01*
X499672D01*
Y116738D01*
X499016Y116082D01*
X504263Y112802D02*
Y116738D01*
X502295Y114770D01*
X504919D01*
X168359Y72047D02*
X169015Y71391D01*
Y70079D01*
X168359Y69423D01*
X167703D01*
X167048Y70079D01*
X166392Y69423D01*
X165736D01*
X165080Y70079D01*
Y71391D01*
X165736Y72047D01*
X166392D01*
X167048Y71391D01*
X167703Y72047D01*
X168359D01*
X167048Y71391D02*
Y70079D01*
X156021Y69423D02*
X155365Y70735D01*
X154053Y72047D01*
X152741D01*
X152085Y71391D01*
Y70079D01*
X152741Y69423D01*
X153397D01*
X154053Y70079D01*
Y72047D01*
X499016Y28340D02*
X500328D01*
X499672D01*
Y32276D01*
X499016Y31620D01*
Y71259D02*
X501640D01*
Y70603D01*
X499016Y67979D01*
Y67323D01*
X135874Y72047D02*
X136530Y71391D01*
Y70079D01*
X135874Y69423D01*
X135218D01*
X134562Y70079D01*
Y70735D01*
Y70079D01*
X133906Y69423D01*
X133250D01*
X132594Y70079D01*
Y71391D01*
X133250Y72047D01*
X500970Y231570D02*
X498347D01*
X500970Y234194D01*
Y234850D01*
X500314Y235506D01*
X499002D01*
X498347Y234850D01*
Y283546D02*
X499658D01*
X499002D01*
Y287482D01*
X498347Y286826D01*
X501626D02*
X502282Y287482D01*
X503594D01*
X504250Y286826D01*
Y284202D01*
X503594Y283546D01*
X502282D01*
X501626Y284202D01*
Y286826D01*
X172233Y72047D02*
X171577Y71391D01*
Y70079D01*
X172233Y69423D01*
X174857D01*
X175513Y70079D01*
Y71391D01*
X174857Y72047D01*
X174201D01*
X173545Y71391D01*
Y69423D01*
X119600Y72047D02*
Y70735D01*
Y71391D01*
X123536D01*
X122880Y72047D01*
X499016Y86814D02*
X500328D01*
X499672D01*
Y90750D01*
X499016Y90094D01*
X502295D02*
X502951Y90750D01*
X504263D01*
X504919Y90094D01*
Y87470D01*
X504263Y86814D01*
X502951D01*
X502295Y87470D01*
Y90094D01*
X139091Y70079D02*
X143027D01*
X141059Y72047D01*
Y69423D01*
D13*
X-19685Y126378D02*
Y131890D01*
X-14685Y126378D02*
Y127134D01*
X-24685Y126378D02*
X-14685D01*
X-24685D02*
Y127134D01*
Y131134D02*
Y131890D01*
X-14685D01*
Y131134D02*
Y131890D01*
X-19685Y132283D02*
Y137795D01*
X-24685Y137039D02*
Y137795D01*
X-14685D01*
Y137039D02*
Y137795D01*
Y132283D02*
Y133039D01*
X-24685Y132283D02*
X-14685D01*
X-24685D02*
Y133039D01*
X72777Y34038D02*
X78289D01*
X77533Y39038D02*
X78289D01*
Y29038D02*
Y39038D01*
X77533Y29038D02*
X78289D01*
X72777D02*
X73533D01*
X72777D02*
Y39038D01*
X73533D01*
X66478Y34038D02*
X71989D01*
X71233Y39038D02*
X71989D01*
Y29038D02*
Y39038D01*
X71233Y29038D02*
X71989D01*
X66478D02*
X67234D01*
X66478D02*
Y39038D01*
X67234D01*
X31045Y45456D02*
X36556D01*
X31045Y40456D02*
X31800D01*
X31045D02*
Y50456D01*
X31800D01*
X35800D02*
X36556D01*
Y40456D02*
Y50456D01*
X35800Y40456D02*
X36556D01*
X24745Y45456D02*
X30257D01*
X24745Y40456D02*
X25501D01*
X24745D02*
Y50456D01*
X25501D01*
X29501D02*
X30257D01*
Y40456D02*
Y50456D01*
X29501Y40456D02*
X30257D01*
X66478Y45456D02*
X71989D01*
X71233Y50456D02*
X71989D01*
Y40456D02*
Y50456D01*
X71233Y40456D02*
X71989D01*
X66478D02*
X67234D01*
X66478D02*
Y50456D01*
X67234D01*
X72777Y45456D02*
X78289D01*
X77533Y50456D02*
X78289D01*
Y40456D02*
Y50456D01*
X77533Y40456D02*
X78289D01*
X72777D02*
X73533D01*
X72777D02*
Y50456D01*
X73533D01*
X151444Y346871D02*
X152199D01*
Y356871D01*
X151444D02*
X152199D01*
X146688D02*
X147444D01*
X146688Y346871D02*
Y356871D01*
Y346871D02*
X147444D01*
X146688Y351871D02*
X152199D01*
X42244Y150787D02*
Y151543D01*
Y150787D02*
X52244D01*
Y151543D01*
Y155543D02*
Y156299D01*
X42244D02*
X52244D01*
X42244Y155543D02*
Y156299D01*
X47244Y150787D02*
Y156299D01*
X42244Y158661D02*
Y159417D01*
Y158661D02*
X52244D01*
Y159417D01*
Y163417D02*
Y164173D01*
X42244D02*
X52244D01*
X42244Y163417D02*
Y164173D01*
X47244Y158661D02*
Y164173D01*
X42244Y166535D02*
Y167291D01*
Y166535D02*
X52244D01*
Y167291D01*
Y171291D02*
Y172047D01*
X42244D02*
X52244D01*
X42244Y171291D02*
Y172047D01*
X47244Y166535D02*
Y172047D01*
X42244Y174409D02*
Y175165D01*
Y174409D02*
X52244D01*
Y175165D01*
Y179165D02*
Y179921D01*
X42244D02*
X52244D01*
X42244Y179165D02*
Y179921D01*
X47244Y174409D02*
Y179921D01*
X42244Y182283D02*
Y183039D01*
Y182283D02*
X52244D01*
Y183039D01*
Y187039D02*
Y187795D01*
X42244D02*
X52244D01*
X42244Y187039D02*
Y187795D01*
X47244Y182283D02*
Y187795D01*
X42244Y190157D02*
Y190913D01*
Y190157D02*
X52244D01*
Y190913D01*
Y194913D02*
Y195669D01*
X42244D02*
X52244D01*
X42244Y194913D02*
Y195669D01*
X47244Y190157D02*
Y195669D01*
X42244Y198031D02*
Y198787D01*
Y198031D02*
X52244D01*
Y198787D01*
Y202787D02*
Y203543D01*
X42244D02*
X52244D01*
X42244Y202787D02*
Y203543D01*
X47244Y198031D02*
Y203543D01*
X42244Y205906D02*
Y206661D01*
Y205906D02*
X52244D01*
Y206661D01*
Y210661D02*
Y211417D01*
X42244D02*
X52244D01*
X42244Y210661D02*
Y211417D01*
X47244Y205906D02*
Y211417D01*
X42342Y213779D02*
Y214535D01*
Y213779D02*
X52342D01*
Y214535D01*
Y218535D02*
Y219291D01*
X42342D02*
X52342D01*
X42342Y218535D02*
Y219291D01*
X47343Y213779D02*
Y219291D01*
X42244Y221654D02*
Y222410D01*
Y221654D02*
X52244D01*
Y222410D01*
Y226410D02*
Y227165D01*
X42244D02*
X52244D01*
X42244Y226410D02*
Y227165D01*
X47244Y221654D02*
Y227165D01*
X42342Y229528D02*
Y230283D01*
Y229528D02*
X52342D01*
Y230283D01*
Y234283D02*
Y235039D01*
X42342D02*
X52342D01*
X42342Y234283D02*
Y235039D01*
X47343Y229528D02*
Y235039D01*
X42244Y237402D02*
Y238158D01*
Y237402D02*
X52244D01*
Y238158D01*
Y242158D02*
Y242913D01*
X42244D02*
X52244D01*
X42244Y242158D02*
Y242913D01*
X47244Y237402D02*
Y242913D01*
X42342Y245276D02*
Y246031D01*
Y245276D02*
X52342D01*
Y246031D01*
Y250031D02*
Y250787D01*
X42342D02*
X52342D01*
X42342Y250031D02*
Y250787D01*
X47343Y245276D02*
Y250787D01*
X42342Y253150D02*
Y253906D01*
Y253150D02*
X52342D01*
Y253906D01*
Y257906D02*
Y258661D01*
X42342D02*
X52342D01*
X42342Y257906D02*
Y258661D01*
X47343Y253150D02*
Y258661D01*
X42342Y261024D02*
Y261779D01*
Y261024D02*
X52342D01*
Y261779D01*
Y265779D02*
Y266535D01*
X42342D02*
X52342D01*
X42342Y265779D02*
Y266535D01*
X47343Y261024D02*
Y266535D01*
X42342Y268898D02*
Y269654D01*
Y268898D02*
X52342D01*
Y269654D01*
Y273654D02*
Y274410D01*
X42342D02*
X52342D01*
X42342Y273654D02*
Y274410D01*
X47343Y268898D02*
Y274410D01*
X42342Y276772D02*
Y277528D01*
Y276772D02*
X52342D01*
Y277528D01*
Y281528D02*
Y282283D01*
X42342D02*
X52342D01*
X42342Y281528D02*
Y282283D01*
X47343Y276772D02*
Y282283D01*
X42244Y284646D02*
Y285402D01*
Y284646D02*
X52244D01*
Y285402D01*
Y289402D02*
Y290158D01*
X42244D02*
X52244D01*
X42244Y289402D02*
Y290158D01*
X47244Y284646D02*
Y290158D01*
X42244Y292520D02*
Y293276D01*
Y292520D02*
X52244D01*
Y293276D01*
Y297276D02*
Y298031D01*
X42244D02*
X52244D01*
X42244Y297276D02*
Y298031D01*
X47244Y292520D02*
Y298031D01*
X387913Y31378D02*
Y32134D01*
Y31378D02*
X397913D01*
Y32134D01*
Y36134D02*
Y36890D01*
X387913D02*
X397913D01*
X387913Y36134D02*
Y36890D01*
X392913Y31378D02*
Y36890D01*
X122835Y183346D02*
X123591D01*
X122835Y173346D02*
Y183346D01*
Y173346D02*
X123591D01*
X127591D02*
X128347D01*
Y183346D01*
X127591D02*
X128347D01*
X122835Y178347D02*
X128347D01*
X388032Y228228D02*
Y228984D01*
Y228228D02*
X398031D01*
Y228984D01*
Y232984D02*
Y233740D01*
X388032D02*
X398031D01*
X388032Y232984D02*
Y233740D01*
X393032Y228228D02*
Y233740D01*
X400709Y31378D02*
Y32134D01*
Y31378D02*
X410709D01*
Y32134D01*
Y36134D02*
Y36890D01*
X400709D02*
X410709D01*
X400709Y36134D02*
Y36890D01*
X405709Y31378D02*
Y36890D01*
X122835Y170551D02*
X123591D01*
X122835Y160551D02*
Y170551D01*
Y160551D02*
X123591D01*
X127591D02*
X128347D01*
Y170551D01*
X127591D02*
X128347D01*
X122835Y165551D02*
X128347D01*
X400827Y228228D02*
Y228984D01*
Y228228D02*
X410827D01*
Y228984D01*
Y232984D02*
Y233740D01*
X400827D02*
X410827D01*
X400827Y232984D02*
Y233740D01*
X405827Y228228D02*
Y233740D01*
X413504Y31378D02*
Y32134D01*
Y31378D02*
X423504D01*
Y32134D01*
Y36134D02*
Y36890D01*
X413504D02*
X423504D01*
X413504Y36134D02*
Y36890D01*
X418504Y31378D02*
Y36890D01*
X122835Y157756D02*
X123591D01*
X122835Y147756D02*
Y157756D01*
Y147756D02*
X123591D01*
X127591D02*
X128347D01*
Y157756D01*
X127591D02*
X128347D01*
X122835Y152756D02*
X128347D01*
X413622Y228228D02*
Y228984D01*
Y228228D02*
X423622D01*
Y228984D01*
Y232984D02*
Y233740D01*
X413622D02*
X423622D01*
X413622Y232984D02*
Y233740D01*
X418622Y228228D02*
Y233740D01*
X426299Y31378D02*
Y32134D01*
Y31378D02*
X436299D01*
Y32134D01*
Y36134D02*
Y36890D01*
X426299D02*
X436299D01*
X426299Y36134D02*
Y36890D01*
X431299Y31378D02*
Y36890D01*
X122835Y144961D02*
X123591D01*
X122835Y134961D02*
Y144961D01*
Y134961D02*
X123591D01*
X127591D02*
X128347D01*
Y144961D01*
X127591D02*
X128347D01*
X122835Y139961D02*
X128347D01*
X426417Y228228D02*
Y228984D01*
Y228228D02*
X436417D01*
Y228984D01*
Y232984D02*
Y233740D01*
X426417D02*
X436417D01*
X426417Y232984D02*
Y233740D01*
X431417Y228228D02*
Y233740D01*
X485945Y150289D02*
Y151045D01*
Y150289D02*
X495945D01*
Y151045D01*
Y155045D02*
Y155800D01*
X485945D02*
X495945D01*
X485945Y155045D02*
Y155800D01*
X490945Y150289D02*
Y155800D01*
X241745Y85315D02*
X242501D01*
X241745Y75315D02*
Y85315D01*
Y75315D02*
X242501D01*
X246501D02*
X247257D01*
Y85315D01*
X246501D02*
X247257D01*
X241745Y80315D02*
X247257D01*
X486063Y347139D02*
Y347895D01*
Y347139D02*
X496063D01*
Y347895D01*
Y351895D02*
Y352651D01*
X486063D02*
X496063D01*
X486063Y351895D02*
Y352651D01*
X491063Y347139D02*
Y352651D01*
X485945Y143792D02*
Y144547D01*
Y143792D02*
X495945D01*
Y144547D01*
Y148547D02*
Y149303D01*
X485945D02*
X495945D01*
X485945Y148547D02*
Y149303D01*
X490945Y143792D02*
Y149303D01*
X235248Y85315D02*
X236004D01*
X235248Y75315D02*
Y85315D01*
Y75315D02*
X236004D01*
X240004D02*
X240760D01*
Y85315D01*
X240004D02*
X240760D01*
X235248Y80315D02*
X240760D01*
X486063Y340642D02*
Y341398D01*
Y340642D02*
X496063D01*
Y341398D01*
Y345398D02*
Y346154D01*
X486063D02*
X496063D01*
X486063Y345398D02*
Y346154D01*
X491063Y340642D02*
Y346154D01*
X485945Y137294D02*
Y138050D01*
Y137294D02*
X495945D01*
Y138050D01*
Y142051D02*
Y142806D01*
X485945D02*
X495945D01*
X485945Y142051D02*
Y142806D01*
X490945Y137294D02*
Y142806D01*
X228751Y85315D02*
X229507D01*
X228751Y75315D02*
Y85315D01*
Y75315D02*
X229507D01*
X233507D02*
X234263D01*
Y85315D01*
X233507D02*
X234263D01*
X228751Y80315D02*
X234263D01*
X486063Y334145D02*
Y334901D01*
Y334145D02*
X496063D01*
Y334901D01*
Y338901D02*
Y339657D01*
X486063D02*
X496063D01*
X486063Y338901D02*
Y339657D01*
X491063Y334145D02*
Y339657D01*
X485945Y130798D02*
Y131553D01*
Y130798D02*
X495945D01*
Y131553D01*
Y135553D02*
Y136309D01*
X485945D02*
X495945D01*
X485945Y135553D02*
Y136309D01*
X490945Y130798D02*
Y136309D01*
X222254Y85315D02*
X223010D01*
X222254Y75315D02*
Y85315D01*
Y75315D02*
X223010D01*
X227010D02*
X227766D01*
Y85315D01*
X227010D02*
X227766D01*
X222254Y80315D02*
X227766D01*
X486063Y327648D02*
Y328404D01*
Y327648D02*
X496063D01*
Y328404D01*
Y332404D02*
Y333160D01*
X486063D02*
X496063D01*
X486063Y332404D02*
Y333160D01*
X491063Y327648D02*
Y333160D01*
X485945Y124300D02*
Y125056D01*
Y124300D02*
X495945D01*
Y125056D01*
Y129056D02*
Y129812D01*
X485945D02*
X495945D01*
X485945Y129056D02*
Y129812D01*
X490945Y124300D02*
Y129812D01*
X215757Y85315D02*
X216513D01*
X215757Y75315D02*
Y85315D01*
Y75315D02*
X216513D01*
X220513D02*
X221269D01*
Y85315D01*
X220513D02*
X221269D01*
X215757Y80315D02*
X221269D01*
X486063Y321151D02*
Y321907D01*
Y321151D02*
X496063D01*
Y321907D01*
Y325907D02*
Y326663D01*
X486063D02*
X496063D01*
X486063Y325907D02*
Y326663D01*
X491063Y321151D02*
Y326663D01*
X485945Y117803D02*
Y118559D01*
Y117803D02*
X495945D01*
Y118559D01*
Y122559D02*
Y123315D01*
X485945D02*
X495945D01*
X485945Y122559D02*
Y123315D01*
X490945Y117803D02*
Y123315D01*
X209260Y85315D02*
X210016D01*
X209260Y75315D02*
Y85315D01*
Y75315D02*
X210016D01*
X214016D02*
X214772D01*
Y85315D01*
X214016D02*
X214772D01*
X209260Y80315D02*
X214772D01*
X486063Y314654D02*
Y315410D01*
Y314654D02*
X496063D01*
Y315410D01*
Y319410D02*
Y320165D01*
X486063D02*
X496063D01*
X486063Y319410D02*
Y320165D01*
X491063Y314654D02*
Y320165D01*
X485945Y111306D02*
Y112062D01*
Y111306D02*
X495945D01*
Y112062D01*
Y116062D02*
Y116818D01*
X485945D02*
X495945D01*
X485945Y116062D02*
Y116818D01*
X490945Y111306D02*
Y116818D01*
X202763Y85315D02*
X203519D01*
X202763Y75315D02*
Y85315D01*
Y75315D02*
X203519D01*
X207519D02*
X208275D01*
Y85315D01*
X207519D02*
X208275D01*
X202763Y80315D02*
X208275D01*
X486063Y308157D02*
Y308913D01*
Y308157D02*
X496063D01*
Y308913D01*
Y312913D02*
Y313668D01*
X486063D02*
X496063D01*
X486063Y312913D02*
Y313668D01*
X491063Y308157D02*
Y313668D01*
X485945Y104809D02*
Y105565D01*
Y104809D02*
X495945D01*
Y105565D01*
Y109565D02*
Y110321D01*
X485945D02*
X495945D01*
X485945Y109565D02*
Y110321D01*
X490945Y104809D02*
Y110321D01*
X196266Y85315D02*
X197022D01*
X196266Y75315D02*
Y85315D01*
Y75315D02*
X197022D01*
X201022D02*
X201778D01*
Y85315D01*
X201022D02*
X201778D01*
X196266Y80315D02*
X201778D01*
X486063Y301660D02*
Y302415D01*
Y301660D02*
X496063D01*
Y302415D01*
Y306416D02*
Y307171D01*
X486063D02*
X496063D01*
X486063Y306416D02*
Y307171D01*
X491063Y301660D02*
Y307171D01*
X485945Y98312D02*
Y99068D01*
Y98312D02*
X495945D01*
Y99068D01*
Y103068D02*
Y103824D01*
X485945D02*
X495945D01*
X485945Y103068D02*
Y103824D01*
X490945Y98312D02*
Y103824D01*
X189769Y85315D02*
X190525D01*
X189769Y75315D02*
Y85315D01*
Y75315D02*
X190525D01*
X194525D02*
X195281D01*
Y85315D01*
X194525D02*
X195281D01*
X189769Y80315D02*
X195281D01*
X486063Y295163D02*
Y295918D01*
Y295163D02*
X496063D01*
Y295918D01*
Y299918D02*
Y300674D01*
X486063D02*
X496063D01*
X486063Y299918D02*
Y300674D01*
X491063Y295163D02*
Y300674D01*
X485945Y91815D02*
Y92571D01*
Y91815D02*
X495945D01*
Y92571D01*
Y96571D02*
Y97327D01*
X485945D02*
X495945D01*
X485945Y96571D02*
Y97327D01*
X490945Y91815D02*
Y97327D01*
X183272Y85315D02*
X184028D01*
X183272Y75315D02*
Y85315D01*
Y75315D02*
X184028D01*
X188028D02*
X188784D01*
Y85315D01*
X188028D02*
X188784D01*
X183272Y80315D02*
X188784D01*
X486063Y288665D02*
Y289421D01*
Y288665D02*
X496063D01*
Y289421D01*
Y293421D02*
Y294177D01*
X486063D02*
X496063D01*
X486063Y293421D02*
Y294177D01*
X491063Y288665D02*
Y294177D01*
X485945Y85318D02*
Y86074D01*
Y85318D02*
X495945D01*
Y86074D01*
Y90074D02*
Y90830D01*
X485945D02*
X495945D01*
X485945Y90074D02*
Y90830D01*
X490945Y85318D02*
Y90830D01*
X176775Y85315D02*
X177531D01*
X176775Y75315D02*
Y85315D01*
Y75315D02*
X177531D01*
X181531D02*
X182287D01*
Y85315D01*
X181531D02*
X182287D01*
X176775Y80315D02*
X182287D01*
X486063Y282168D02*
Y282924D01*
Y282168D02*
X496063D01*
Y282924D01*
Y286924D02*
Y287680D01*
X486063D02*
X496063D01*
X486063Y286924D02*
Y287680D01*
X491063Y282168D02*
Y287680D01*
X485945Y78821D02*
Y79577D01*
Y78821D02*
X495945D01*
Y79577D01*
Y83577D02*
Y84333D01*
X485945D02*
X495945D01*
X485945Y83577D02*
Y84333D01*
X490945Y78821D02*
Y84333D01*
X170278Y85315D02*
X171034D01*
X170278Y75315D02*
Y85315D01*
Y75315D02*
X171034D01*
X175033D02*
X175789D01*
Y85315D01*
X175033D02*
X175789D01*
X170278Y80315D02*
X175789D01*
X486063Y275671D02*
Y276427D01*
Y275671D02*
X496063D01*
Y276427D01*
Y280427D02*
Y281183D01*
X486063D02*
X496063D01*
X486063Y280427D02*
Y281183D01*
X491063Y275671D02*
Y281183D01*
X485945Y72324D02*
Y73080D01*
Y72324D02*
X495945D01*
Y73080D01*
Y77080D02*
Y77836D01*
X485945D02*
X495945D01*
X485945Y77080D02*
Y77836D01*
X490945Y72324D02*
Y77836D01*
X163780Y85315D02*
X164536D01*
X163780Y75315D02*
Y85315D01*
Y75315D02*
X164536D01*
X168536D02*
X169292D01*
Y85315D01*
X168536D02*
X169292D01*
X163780Y80315D02*
X169292D01*
X486063Y269174D02*
Y269930D01*
Y269174D02*
X496063D01*
Y269930D01*
Y273930D02*
Y274686D01*
X486063D02*
X496063D01*
X486063Y273930D02*
Y274686D01*
X491063Y269174D02*
Y274686D01*
X485945Y65827D02*
Y66583D01*
Y65827D02*
X495945D01*
Y66583D01*
Y70583D02*
Y71339D01*
X485945D02*
X495945D01*
X485945Y70583D02*
Y71339D01*
X490945Y65827D02*
Y71339D01*
X157283Y85315D02*
X158039D01*
X157283Y75315D02*
Y85315D01*
Y75315D02*
X158039D01*
X162039D02*
X162795D01*
Y85315D01*
X162039D02*
X162795D01*
X157283Y80315D02*
X162795D01*
X486063Y262677D02*
Y263433D01*
Y262677D02*
X496063D01*
Y263433D01*
Y267433D02*
Y268189D01*
X486063D02*
X496063D01*
X486063Y267433D02*
Y268189D01*
X491063Y262677D02*
Y268189D01*
X485945Y59330D02*
Y60086D01*
Y59330D02*
X495945D01*
Y60086D01*
Y64086D02*
Y64842D01*
X485945D02*
X495945D01*
X485945Y64086D02*
Y64842D01*
X490945Y59330D02*
Y64842D01*
X150786Y85315D02*
X151542D01*
X150786Y75315D02*
Y85315D01*
Y75315D02*
X151542D01*
X155542D02*
X156298D01*
Y85315D01*
X155542D02*
X156298D01*
X150786Y80315D02*
X156298D01*
X486063Y256180D02*
Y256936D01*
Y256180D02*
X496063D01*
Y256936D01*
Y260936D02*
Y261692D01*
X486063D02*
X496063D01*
X486063Y260936D02*
Y261692D01*
X491063Y256180D02*
Y261692D01*
X485945Y52833D02*
Y53588D01*
Y52833D02*
X495945D01*
Y53588D01*
Y57588D02*
Y58344D01*
X485945D02*
X495945D01*
X485945Y57588D02*
Y58344D01*
X490945Y52833D02*
Y58344D01*
X144289Y85315D02*
X145045D01*
X144289Y75315D02*
Y85315D01*
Y75315D02*
X145045D01*
X149045D02*
X149801D01*
Y85315D01*
X149045D02*
X149801D01*
X144289Y80315D02*
X149801D01*
X486063Y249683D02*
Y250439D01*
Y249683D02*
X496063D01*
Y250439D01*
Y254439D02*
Y255195D01*
X486063D02*
X496063D01*
X486063Y254439D02*
Y255195D01*
X491063Y249683D02*
Y255195D01*
X485945Y46336D02*
Y47091D01*
Y46336D02*
X495945D01*
Y47091D01*
Y51091D02*
Y51847D01*
X485945D02*
X495945D01*
X485945Y51091D02*
Y51847D01*
X490945Y46336D02*
Y51847D01*
X137792Y85315D02*
X138548D01*
X137792Y75315D02*
Y85315D01*
Y75315D02*
X138548D01*
X142548D02*
X143304D01*
Y85315D01*
X142548D02*
X143304D01*
X137792Y80315D02*
X143304D01*
X486063Y243186D02*
Y243942D01*
Y243186D02*
X496063D01*
Y243942D01*
Y247942D02*
Y248698D01*
X486063D02*
X496063D01*
X486063Y247942D02*
Y248698D01*
X491063Y243186D02*
Y248698D01*
X485945Y39838D02*
Y40594D01*
Y39838D02*
X495945D01*
Y40594D01*
Y44594D02*
Y45350D01*
X485945D02*
X495945D01*
X485945Y44594D02*
Y45350D01*
X490945Y39838D02*
Y45350D01*
X131295Y85315D02*
X132051D01*
X131295Y75315D02*
Y85315D01*
Y75315D02*
X132051D01*
X136051D02*
X136807D01*
Y85315D01*
X136051D02*
X136807D01*
X131295Y80315D02*
X136807D01*
X486063Y236689D02*
Y237445D01*
Y236689D02*
X496063D01*
Y237445D01*
Y241445D02*
Y242201D01*
X486063D02*
X496063D01*
X486063Y241445D02*
Y242201D01*
X491063Y236689D02*
Y242201D01*
X485945Y33341D02*
Y34097D01*
Y33341D02*
X495945D01*
Y34097D01*
Y38097D02*
Y38853D01*
X485945D02*
X495945D01*
X485945Y38097D02*
Y38853D01*
X490945Y33341D02*
Y38853D01*
X124798Y85315D02*
X125554D01*
X124798Y75315D02*
Y85315D01*
Y75315D02*
X125554D01*
X129554D02*
X130310D01*
Y85315D01*
X129554D02*
X130310D01*
X124798Y80315D02*
X130310D01*
X486063Y230192D02*
Y230948D01*
Y230192D02*
X496063D01*
Y230948D01*
Y234948D02*
Y235704D01*
X486063D02*
X496063D01*
X486063Y234948D02*
Y235704D01*
X491063Y230192D02*
Y235704D01*
X485945Y26844D02*
Y27600D01*
Y26844D02*
X495945D01*
Y27600D01*
Y31600D02*
Y32356D01*
X485945D02*
X495945D01*
X485945Y31600D02*
Y32356D01*
X490945Y26844D02*
Y32356D01*
X118301Y85315D02*
X119057D01*
X118301Y75315D02*
Y85315D01*
Y75315D02*
X119057D01*
X123057D02*
X123813D01*
Y85315D01*
X123057D02*
X123813D01*
X118301Y80315D02*
X123813D01*
X486063Y223695D02*
Y224451D01*
Y223695D02*
X496063D01*
Y224451D01*
Y228451D02*
Y229207D01*
X486063D02*
X496063D01*
X486063Y228451D02*
Y229207D01*
X491063Y223695D02*
Y229207D01*
X473543Y150289D02*
Y151045D01*
Y150289D02*
X483543D01*
Y151045D01*
Y155045D02*
Y155800D01*
X473543D02*
X483543D01*
X473543Y155045D02*
Y155800D01*
X478543Y150289D02*
Y155800D01*
X241745Y97716D02*
X242501D01*
X241745Y87717D02*
Y97716D01*
Y87717D02*
X242501D01*
X246501D02*
X247257D01*
Y97716D01*
X246501D02*
X247257D01*
X241745Y92716D02*
X247257D01*
X473661Y347139D02*
Y347895D01*
Y347139D02*
X483661D01*
Y347895D01*
Y351895D02*
Y352651D01*
X473661D02*
X483661D01*
X473661Y351895D02*
Y352651D01*
X478661Y347139D02*
Y352651D01*
X473543Y143792D02*
Y144547D01*
Y143792D02*
X483543D01*
Y144547D01*
Y148547D02*
Y149303D01*
X473543D02*
X483543D01*
X473543Y148547D02*
Y149303D01*
X478543Y143792D02*
Y149303D01*
X235248Y97716D02*
X236004D01*
X235248Y87717D02*
Y97716D01*
Y87717D02*
X236004D01*
X240004D02*
X240760D01*
Y97716D01*
X240004D02*
X240760D01*
X235248Y92716D02*
X240760D01*
X473661Y340642D02*
Y341398D01*
Y340642D02*
X483661D01*
Y341398D01*
Y345398D02*
Y346154D01*
X473661D02*
X483661D01*
X473661Y345398D02*
Y346154D01*
X478661Y340642D02*
Y346154D01*
X473543Y137294D02*
Y138050D01*
Y137294D02*
X483543D01*
Y138050D01*
Y142051D02*
Y142806D01*
X473543D02*
X483543D01*
X473543Y142051D02*
Y142806D01*
X478543Y137294D02*
Y142806D01*
X228751Y97717D02*
X229507D01*
X228751Y87717D02*
Y97717D01*
Y87717D02*
X229507D01*
X233507D02*
X234263D01*
Y97717D01*
X233507D02*
X234263D01*
X228751Y92717D02*
X234263D01*
X473661Y334145D02*
Y334901D01*
Y334145D02*
X483661D01*
Y334901D01*
Y338901D02*
Y339657D01*
X473661D02*
X483661D01*
X473661Y338901D02*
Y339657D01*
X478661Y334145D02*
Y339657D01*
X473543Y130798D02*
Y131553D01*
Y130798D02*
X483543D01*
Y131553D01*
Y135553D02*
Y136309D01*
X473543D02*
X483543D01*
X473543Y135553D02*
Y136309D01*
X478543Y130798D02*
Y136309D01*
X222254Y97716D02*
X223010D01*
X222254Y87717D02*
Y97716D01*
Y87717D02*
X223010D01*
X227010D02*
X227766D01*
Y97716D01*
X227010D02*
X227766D01*
X222254Y92716D02*
X227766D01*
X473661Y327648D02*
Y328404D01*
Y327648D02*
X483661D01*
Y328404D01*
Y332404D02*
Y333160D01*
X473661D02*
X483661D01*
X473661Y332404D02*
Y333160D01*
X478661Y327648D02*
Y333160D01*
X473543Y124300D02*
Y125056D01*
Y124300D02*
X483543D01*
Y125056D01*
Y129056D02*
Y129812D01*
X473543D02*
X483543D01*
X473543Y129056D02*
Y129812D01*
X478543Y124300D02*
Y129812D01*
X215757Y97716D02*
X216513D01*
X215757Y87717D02*
Y97716D01*
Y87717D02*
X216513D01*
X220513D02*
X221269D01*
Y97716D01*
X220513D02*
X221269D01*
X215757Y92716D02*
X221269D01*
X473661Y321151D02*
Y321907D01*
Y321151D02*
X483661D01*
Y321907D01*
Y325907D02*
Y326663D01*
X473661D02*
X483661D01*
X473661Y325907D02*
Y326663D01*
X478661Y321151D02*
Y326663D01*
X473543Y117803D02*
Y118559D01*
Y117803D02*
X483543D01*
Y118559D01*
Y122559D02*
Y123315D01*
X473543D02*
X483543D01*
X473543Y122559D02*
Y123315D01*
X478543Y117803D02*
Y123315D01*
X209260Y97716D02*
X210016D01*
X209260Y87717D02*
Y97716D01*
Y87717D02*
X210016D01*
X214016D02*
X214772D01*
Y97716D01*
X214016D02*
X214772D01*
X209260Y92716D02*
X214772D01*
X473661Y314654D02*
Y315410D01*
Y314654D02*
X483661D01*
Y315410D01*
Y319410D02*
Y320165D01*
X473661D02*
X483661D01*
X473661Y319410D02*
Y320165D01*
X478661Y314654D02*
Y320165D01*
X473543Y111306D02*
Y112062D01*
Y111306D02*
X483543D01*
Y112062D01*
Y116062D02*
Y116818D01*
X473543D02*
X483543D01*
X473543Y116062D02*
Y116818D01*
X478543Y111306D02*
Y116818D01*
X202763Y97716D02*
X203519D01*
X202763Y87717D02*
Y97716D01*
Y87717D02*
X203519D01*
X207519D02*
X208275D01*
Y97716D01*
X207519D02*
X208275D01*
X202763Y92716D02*
X208275D01*
X473661Y308157D02*
Y308913D01*
Y308157D02*
X483661D01*
Y308913D01*
Y312913D02*
Y313668D01*
X473661D02*
X483661D01*
X473661Y312913D02*
Y313668D01*
X478661Y308157D02*
Y313668D01*
X473543Y104809D02*
Y105565D01*
Y104809D02*
X483543D01*
Y105565D01*
Y109565D02*
Y110321D01*
X473543D02*
X483543D01*
X473543Y109565D02*
Y110321D01*
X478543Y104809D02*
Y110321D01*
X196266Y97716D02*
X197022D01*
X196266Y87717D02*
Y97716D01*
Y87717D02*
X197022D01*
X201022D02*
X201778D01*
Y97716D01*
X201022D02*
X201778D01*
X196266Y92716D02*
X201778D01*
X473661Y301660D02*
Y302415D01*
Y301660D02*
X483661D01*
Y302415D01*
Y306416D02*
Y307171D01*
X473661D02*
X483661D01*
X473661Y306416D02*
Y307171D01*
X478661Y301660D02*
Y307171D01*
X473543Y98312D02*
Y99068D01*
Y98312D02*
X483543D01*
Y99068D01*
Y103068D02*
Y103824D01*
X473543D02*
X483543D01*
X473543Y103068D02*
Y103824D01*
X478543Y98312D02*
Y103824D01*
X189769Y97716D02*
X190525D01*
X189769Y87717D02*
Y97716D01*
Y87717D02*
X190525D01*
X194525D02*
X195281D01*
Y97716D01*
X194525D02*
X195281D01*
X189769Y92716D02*
X195281D01*
X473661Y295163D02*
Y295918D01*
Y295163D02*
X483661D01*
Y295918D01*
Y299918D02*
Y300674D01*
X473661D02*
X483661D01*
X473661Y299918D02*
Y300674D01*
X478661Y295163D02*
Y300674D01*
X473543Y91815D02*
Y92571D01*
Y91815D02*
X483543D01*
Y92571D01*
Y96571D02*
Y97327D01*
X473543D02*
X483543D01*
X473543Y96571D02*
Y97327D01*
X478543Y91815D02*
Y97327D01*
X183272Y97716D02*
X184028D01*
X183272Y87717D02*
Y97716D01*
Y87717D02*
X184028D01*
X188028D02*
X188784D01*
Y97716D01*
X188028D02*
X188784D01*
X183272Y92716D02*
X188784D01*
X473661Y288665D02*
Y289421D01*
Y288665D02*
X483661D01*
Y289421D01*
Y293421D02*
Y294177D01*
X473661D02*
X483661D01*
X473661Y293421D02*
Y294177D01*
X478661Y288665D02*
Y294177D01*
X473543Y85318D02*
Y86074D01*
Y85318D02*
X483543D01*
Y86074D01*
Y90074D02*
Y90830D01*
X473543D02*
X483543D01*
X473543Y90074D02*
Y90830D01*
X478543Y85318D02*
Y90830D01*
X176775Y97716D02*
X177531D01*
X176775Y87717D02*
Y97716D01*
Y87717D02*
X177531D01*
X181531D02*
X182287D01*
Y97716D01*
X181531D02*
X182287D01*
X176775Y92716D02*
X182287D01*
X473661Y282168D02*
Y282924D01*
Y282168D02*
X483661D01*
Y282924D01*
Y286924D02*
Y287680D01*
X473661D02*
X483661D01*
X473661Y286924D02*
Y287680D01*
X478661Y282168D02*
Y287680D01*
X473543Y78821D02*
Y79577D01*
Y78821D02*
X483543D01*
Y79577D01*
Y83577D02*
Y84333D01*
X473543D02*
X483543D01*
X473543Y83577D02*
Y84333D01*
X478543Y78821D02*
Y84333D01*
X170278Y97716D02*
X171034D01*
X170278Y87717D02*
Y97716D01*
Y87717D02*
X171034D01*
X175033D02*
X175789D01*
Y97716D01*
X175033D02*
X175789D01*
X170278Y92716D02*
X175789D01*
X473661Y275671D02*
Y276427D01*
Y275671D02*
X483661D01*
Y276427D01*
Y280427D02*
Y281183D01*
X473661D02*
X483661D01*
X473661Y280427D02*
Y281183D01*
X478661Y275671D02*
Y281183D01*
X473543Y72324D02*
Y73080D01*
Y72324D02*
X483543D01*
Y73080D01*
Y77080D02*
Y77836D01*
X473543D02*
X483543D01*
X473543Y77080D02*
Y77836D01*
X478543Y72324D02*
Y77836D01*
X163780Y97716D02*
X164536D01*
X163780Y87717D02*
Y97716D01*
Y87717D02*
X164536D01*
X168536D02*
X169292D01*
Y97716D01*
X168536D02*
X169292D01*
X163780Y92716D02*
X169292D01*
X473661Y269174D02*
Y269930D01*
Y269174D02*
X483661D01*
Y269930D01*
Y273930D02*
Y274686D01*
X473661D02*
X483661D01*
X473661Y273930D02*
Y274686D01*
X478661Y269174D02*
Y274686D01*
X473543Y65827D02*
Y66583D01*
Y65827D02*
X483543D01*
Y66583D01*
Y70583D02*
Y71339D01*
X473543D02*
X483543D01*
X473543Y70583D02*
Y71339D01*
X478543Y65827D02*
Y71339D01*
X157283Y97716D02*
X158039D01*
X157283Y87717D02*
Y97716D01*
Y87717D02*
X158039D01*
X162039D02*
X162795D01*
Y97716D01*
X162039D02*
X162795D01*
X157283Y92716D02*
X162795D01*
X473661Y262677D02*
Y263433D01*
Y262677D02*
X483661D01*
Y263433D01*
Y267433D02*
Y268189D01*
X473661D02*
X483661D01*
X473661Y267433D02*
Y268189D01*
X478661Y262677D02*
Y268189D01*
X473543Y59330D02*
Y60086D01*
Y59330D02*
X483543D01*
Y60086D01*
Y64086D02*
Y64842D01*
X473543D02*
X483543D01*
X473543Y64086D02*
Y64842D01*
X478543Y59330D02*
Y64842D01*
X150786Y97716D02*
X151542D01*
X150786Y87717D02*
Y97716D01*
Y87717D02*
X151542D01*
X155542D02*
X156298D01*
Y97716D01*
X155542D02*
X156298D01*
X150786Y92716D02*
X156298D01*
X473661Y256180D02*
Y256936D01*
Y256180D02*
X483661D01*
Y256936D01*
Y260936D02*
Y261692D01*
X473661D02*
X483661D01*
X473661Y260936D02*
Y261692D01*
X478661Y256180D02*
Y261692D01*
X473543Y52833D02*
Y53588D01*
Y52833D02*
X483543D01*
Y53588D01*
Y57588D02*
Y58344D01*
X473543D02*
X483543D01*
X473543Y57588D02*
Y58344D01*
X478543Y52833D02*
Y58344D01*
X144289Y97716D02*
X145045D01*
X144289Y87717D02*
Y97716D01*
Y87717D02*
X145045D01*
X149045D02*
X149801D01*
Y97716D01*
X149045D02*
X149801D01*
X144289Y92716D02*
X149801D01*
X473661Y249683D02*
Y250439D01*
Y249683D02*
X483661D01*
Y250439D01*
Y254439D02*
Y255195D01*
X473661D02*
X483661D01*
X473661Y254439D02*
Y255195D01*
X478661Y249683D02*
Y255195D01*
X473543Y46336D02*
Y47091D01*
Y46336D02*
X483543D01*
Y47091D01*
Y51091D02*
Y51847D01*
X473543D02*
X483543D01*
X473543Y51091D02*
Y51847D01*
X478543Y46336D02*
Y51847D01*
X137792Y97716D02*
X138548D01*
X137792Y87717D02*
Y97716D01*
Y87717D02*
X138548D01*
X142548D02*
X143304D01*
Y97716D01*
X142548D02*
X143304D01*
X137792Y92716D02*
X143304D01*
X473661Y243186D02*
Y243942D01*
Y243186D02*
X483661D01*
Y243942D01*
Y247942D02*
Y248698D01*
X473661D02*
X483661D01*
X473661Y247942D02*
Y248698D01*
X478661Y243186D02*
Y248698D01*
X473543Y39838D02*
Y40594D01*
Y39838D02*
X483543D01*
Y40594D01*
Y44594D02*
Y45350D01*
X473543D02*
X483543D01*
X473543Y44594D02*
Y45350D01*
X478543Y39838D02*
Y45350D01*
X131295Y97716D02*
X132051D01*
X131295Y87717D02*
Y97716D01*
Y87717D02*
X132051D01*
X136051D02*
X136807D01*
Y97716D01*
X136051D02*
X136807D01*
X131295Y92716D02*
X136807D01*
X473661Y236689D02*
Y237445D01*
Y236689D02*
X483661D01*
Y237445D01*
Y241445D02*
Y242201D01*
X473661D02*
X483661D01*
X473661Y241445D02*
Y242201D01*
X478661Y236689D02*
Y242201D01*
X473543Y33341D02*
Y34097D01*
Y33341D02*
X483543D01*
Y34097D01*
Y38097D02*
Y38853D01*
X473543D02*
X483543D01*
X473543Y38097D02*
Y38853D01*
X478543Y33341D02*
Y38853D01*
X124798Y97716D02*
X125554D01*
X124798Y87717D02*
Y97716D01*
Y87717D02*
X125554D01*
X129554D02*
X130310D01*
Y97716D01*
X129554D02*
X130310D01*
X124798Y92716D02*
X130310D01*
X473661Y230192D02*
Y230948D01*
Y230192D02*
X483661D01*
Y230948D01*
Y234948D02*
Y235704D01*
X473661D02*
X483661D01*
X473661Y234948D02*
Y235704D01*
X478661Y230192D02*
Y235704D01*
X473543Y26844D02*
Y27600D01*
Y26844D02*
X483543D01*
Y27600D01*
Y31600D02*
Y32356D01*
X473543D02*
X483543D01*
X473543Y31600D02*
Y32356D01*
X478543Y26844D02*
Y32356D01*
X118301Y97716D02*
X119057D01*
X118301Y87717D02*
Y97716D01*
Y87717D02*
X119057D01*
X123057D02*
X123813D01*
Y97716D01*
X123057D02*
X123813D01*
X118301Y92716D02*
X123813D01*
X473661Y223695D02*
Y224451D01*
Y223695D02*
X483661D01*
Y224451D01*
Y228451D02*
Y229207D01*
X473661D02*
X483661D01*
X473661Y228451D02*
Y229207D01*
X478661Y223695D02*
Y229207D01*
X402835Y123732D02*
Y124488D01*
X392835D02*
X402835D01*
X392835Y123732D02*
Y124488D01*
Y118976D02*
Y119732D01*
Y118976D02*
X402835D01*
Y119732D01*
X397835Y118976D02*
Y124488D01*
X215189Y168425D02*
X215945D01*
Y178425D01*
X215189D02*
X215945D01*
X210433D02*
X211189D01*
X210433Y168425D02*
Y178425D01*
Y168425D02*
X211189D01*
X210433Y173425D02*
X215945D01*
X402953Y320583D02*
Y321339D01*
X392953D02*
X402953D01*
X392953Y320583D02*
Y321339D01*
Y315827D02*
Y316583D01*
Y315827D02*
X402953D01*
Y316583D01*
X397953Y315827D02*
Y321339D01*
X365276Y137677D02*
Y138433D01*
Y137677D02*
X375276D01*
Y138433D01*
Y142433D02*
Y143189D01*
X365276D02*
X375276D01*
X365276Y142433D02*
Y143189D01*
X370276Y137677D02*
Y143189D01*
X229134Y205984D02*
X229890D01*
X229134Y195984D02*
Y205984D01*
Y195984D02*
X229890D01*
X233890D02*
X234646D01*
Y205984D01*
X233890D02*
X234646D01*
X229134Y200984D02*
X234646D01*
X365394Y334528D02*
Y335283D01*
Y334528D02*
X375394D01*
Y335283D01*
Y339283D02*
Y340039D01*
X365394D02*
X375394D01*
X365394Y339283D02*
Y340039D01*
X370394Y334528D02*
Y340039D01*
X379331Y94450D02*
X380087D01*
X379331Y84450D02*
Y94450D01*
Y84450D02*
X380087D01*
X384087D02*
X384842D01*
Y94450D01*
X384087D02*
X384842D01*
X379331Y89450D02*
X384842D01*
X185907Y191173D02*
Y191929D01*
X175907D02*
X185907D01*
X175907Y191173D02*
Y191929D01*
Y186417D02*
Y187173D01*
Y186417D02*
X185907D01*
Y187173D01*
X180906Y186417D02*
Y191929D01*
X379449Y291300D02*
X380205D01*
X379449Y281300D02*
Y291300D01*
Y281300D02*
X380205D01*
X384205D02*
X384961D01*
Y291300D01*
X384205D02*
X384961D01*
X379449Y286300D02*
X384961D01*
X134071Y351756D02*
X137008D01*
X132858Y352969D02*
X134071Y351756D01*
X132858Y352969D02*
Y355890D01*
X133874Y356906D02*
X137008D01*
X132858Y355890D02*
X133874Y356906D01*
X140157Y351756D02*
X144307D01*
Y356906D01*
X140157D02*
X144307D01*
X365173Y144748D02*
X368110D01*
X363961Y145961D02*
X365173Y144748D01*
X363961Y145961D02*
Y148882D01*
X364976Y149898D02*
X368110D01*
X363961Y148882D02*
X364976Y149898D01*
X371260Y144748D02*
X375409D01*
Y149898D01*
X371260D02*
X375409D01*
X236205Y203150D02*
Y206087D01*
X237417Y207299D01*
X240339D01*
X241354Y203150D02*
Y206283D01*
X240339Y207299D02*
X241354Y206283D01*
X236205Y195850D02*
Y200000D01*
Y195850D02*
X241354D01*
Y200000D01*
X365291Y341598D02*
X368228D01*
X364079Y342811D02*
X365291Y341598D01*
X364079Y342811D02*
Y345732D01*
X365094Y346748D02*
X368228D01*
X364079Y345732D02*
X365094Y346748D01*
X371378Y341598D02*
X375528D01*
Y346748D01*
X371378D02*
X375528D01*
D14*
X534866Y178228D02*
X566866D01*
X534866Y172228D02*
Y178228D01*
X516866Y172228D02*
X534866D01*
X516866Y24228D02*
Y172228D01*
Y24228D02*
X534866D01*
Y18228D02*
Y24228D01*
Y18228D02*
X566866D01*
X269685Y12268D02*
Y44268D01*
X263685D02*
X269685D01*
X263685D02*
Y62268D01*
X115685D02*
X263685D01*
X115685Y44268D02*
Y62268D01*
X109685Y44268D02*
X115685D01*
X109685Y12268D02*
Y44268D01*
X534984Y375079D02*
X566984D01*
X534984Y369079D02*
Y375079D01*
X516984Y369079D02*
X534984D01*
X516984Y221079D02*
Y369079D01*
Y221079D02*
X534984D01*
Y215079D02*
Y221079D01*
Y215079D02*
X566984D01*
X279528Y268701D02*
X304134D01*
Y393701D01*
X279528Y197835D02*
X555118D01*
X279528Y0D02*
Y268701D01*
X104331D02*
X279528D01*
X104331Y0D02*
Y268701D01*
X458858Y22441D02*
X507972D01*
X458858Y174803D02*
X458858Y22441D01*
X507972Y173819D02*
X507972Y22441D01*
X6299Y117108D02*
X45299D01*
X57299D02*
X96299D01*
X45299Y119108D02*
X57299D01*
Y117108D02*
Y119108D01*
X45299Y117108D02*
Y119108D01*
X96299Y75108D02*
Y117108D01*
X6299Y75108D02*
Y117108D01*
X41299Y73108D02*
X61299D01*
Y75108D01*
X41299Y73108D02*
Y75108D01*
X61299D02*
X96299D01*
X6299D02*
X41299D01*
X198661Y314803D02*
X204724Y320866D01*
X31654Y314803D02*
X198661D01*
X204724Y320866D02*
Y380906D01*
X27559Y318898D02*
Y381496D01*
X70866Y303150D02*
X74961Y299055D01*
X27559Y303150D02*
X70866D01*
X23622Y299213D02*
X27559Y303150D01*
X199803Y385827D02*
X204724Y380906D01*
X27559Y318898D02*
X31654Y314803D01*
X27559Y381496D02*
X31890Y385827D01*
X199803Y385827D01*
X74961Y147480D02*
Y299055D01*
X23622Y147638D02*
Y299213D01*
Y147638D02*
X25591Y145669D01*
X73150D01*
X74961Y147480D01*
X266063Y112205D02*
X267047Y111220D01*
Y65059D02*
Y111220D01*
X112598Y63090D02*
X265079Y63090D01*
Y63090D02*
X267047Y65059D01*
X112598Y112205D02*
X266063Y112205D01*
X129565Y133448D02*
Y204117D01*
X121691D02*
X129565D01*
X121691Y133448D02*
Y204117D01*
X112598Y63090D02*
Y112205D01*
X121691Y133448D02*
X129565D01*
X367806Y30220D02*
X438475D01*
X367806D02*
Y38094D01*
X438475D01*
Y30220D02*
Y38094D01*
X459842Y175787D02*
X506004D01*
X458858Y174803D02*
X459842Y175787D01*
X506004D02*
X507972Y173819D01*
X458189Y220945D02*
X507303D01*
X458189Y371535D02*
X459173Y372520D01*
X458189Y371535D02*
X458189Y220945D01*
X507303Y370551D02*
X507303Y220945D01*
X505335Y372520D02*
X507303Y370551D01*
X459173Y372520D02*
X505335D01*
X367441Y234921D02*
X438110D01*
X367441Y227047D02*
Y234921D01*
X438110Y227047D02*
Y234921D01*
X367441Y227047D02*
X438110D01*
X463453Y370666D02*
X460173D01*
Y368207D01*
X461813D01*
X460173D01*
Y365747D01*
X465093D02*
X466733D01*
X465913D01*
Y369026D01*
X465093D01*
X469193Y365747D02*
X470832D01*
X470013D01*
Y370666D01*
X469193D01*
X474112Y369846D02*
Y369026D01*
X473292D01*
X474932D01*
X474112D01*
Y366567D01*
X474932Y365747D01*
X479852D02*
X478212D01*
X477392Y366567D01*
Y368207D01*
X478212Y369026D01*
X479852D01*
X480672Y368207D01*
Y367387D01*
X477392D01*
X482312Y369026D02*
Y365747D01*
Y367387D01*
X483132Y368207D01*
X483952Y369026D01*
X484772D01*
X492971D02*
X494611D01*
X495431Y368207D01*
Y365747D01*
X492971D01*
X492151Y366567D01*
X492971Y367387D01*
X495431D01*
X497071Y365747D02*
Y369026D01*
X499531D01*
X500351Y368207D01*
Y365747D01*
X505270Y370666D02*
Y365747D01*
X502810D01*
X501990Y366567D01*
Y368207D01*
X502810Y369026D01*
X505270D01*
X460173Y362363D02*
Y357443D01*
X461813Y359083D01*
X463453Y357443D01*
Y362363D01*
X465093Y357443D02*
X466733D01*
X465913D01*
Y360723D01*
X465093D01*
X469193D02*
Y357443D01*
Y359083D01*
X470013Y359903D01*
X470832Y360723D01*
X471653D01*
X474112Y357443D02*
X475752D01*
X474932D01*
Y360723D01*
X474112D01*
X478212Y357443D02*
Y360723D01*
X480672D01*
X481492Y359903D01*
Y357443D01*
X484772Y355803D02*
X485592D01*
X486412Y356623D01*
Y360723D01*
X483952D01*
X483132Y359903D01*
Y358263D01*
X483952Y357443D01*
X486412D01*
X49162Y127606D02*
X48342Y128426D01*
X46702D01*
X45882Y127606D01*
Y126786D01*
X46702Y125966D01*
X48342D01*
X49162Y125146D01*
Y124326D01*
X48342Y123506D01*
X46702D01*
X45882Y124326D01*
X50802Y121866D02*
Y126786D01*
X53261D01*
X54081Y125966D01*
Y124326D01*
X53261Y123506D01*
X50802D01*
X56541Y126786D02*
X58181D01*
X59001Y125966D01*
Y123506D01*
X56541D01*
X55721Y124326D01*
X56541Y125146D01*
X59001D01*
X60641Y126786D02*
Y123506D01*
Y125146D01*
X61461Y125966D01*
X62281Y126786D01*
X63101D01*
X68020Y123506D02*
X66381D01*
X65561Y124326D01*
Y125966D01*
X66381Y126786D01*
X68020D01*
X68840Y125966D01*
Y125146D01*
X65561D01*
X75400Y128426D02*
X77040D01*
X76220D01*
Y123506D01*
X75400D01*
X77040D01*
X79500D02*
X82779Y126786D01*
X86879Y128426D02*
X85239D01*
X84419Y127606D01*
Y124326D01*
X85239Y123506D01*
X86879D01*
X87699Y124326D01*
Y127606D01*
X86879Y128426D01*
X28701Y190134D02*
X34699D01*
Y193133D01*
X33699Y194133D01*
X32699D01*
X31700Y193133D01*
Y190134D01*
Y193133D01*
X30700Y194133D01*
X29700D01*
X28701Y193133D01*
Y190134D01*
X30700Y196132D02*
X33699D01*
X34699Y197132D01*
Y200131D01*
X30700D01*
X34699Y202130D02*
Y205129D01*
X33699Y206129D01*
X32699Y205129D01*
Y203130D01*
X31700Y202130D01*
X30700Y203130D01*
Y206129D01*
X34699Y214126D02*
X28701D01*
Y217125D01*
X29700Y218125D01*
X31700D01*
X32699Y217125D01*
Y214126D01*
X30700Y220124D02*
X34699D01*
X32699D01*
X31700Y221124D01*
X30700Y222124D01*
Y223123D01*
X34699Y227122D02*
Y229121D01*
X33699Y230121D01*
X31700D01*
X30700Y229121D01*
Y227122D01*
X31700Y226122D01*
X33699D01*
X34699Y227122D01*
X28701Y232120D02*
X34699D01*
Y235120D01*
X33699Y236119D01*
X32699D01*
X31700D01*
X30700Y235120D01*
Y232120D01*
X34699Y241118D02*
Y239118D01*
X33699Y238119D01*
X31700D01*
X30700Y239118D01*
Y241118D01*
X31700Y242117D01*
X32699D01*
Y238119D01*
X34699Y244117D02*
Y247116D01*
X33699Y248115D01*
X32699Y247116D01*
Y245116D01*
X31700Y244117D01*
X30700Y245116D01*
Y248115D01*
X373424Y233046D02*
X372424Y234045D01*
X370425D01*
X369425Y233046D01*
Y229047D01*
X370425Y228047D01*
X372424D01*
X373424Y229047D01*
X379422Y234045D02*
X377423D01*
X378422D01*
Y229047D01*
X377423Y228047D01*
X376423D01*
X375423Y229047D01*
X385420Y233046D02*
X384420Y234045D01*
X382421D01*
X381421Y233046D01*
Y229047D01*
X382421Y228047D01*
X384420D01*
X385420Y229047D01*
X464122Y173934D02*
X460843D01*
Y171474D01*
X462482D01*
X460843D01*
Y169014D01*
X465762D02*
X467402D01*
X466582D01*
Y172294D01*
X465762D01*
X469862Y169014D02*
X471502D01*
X470682D01*
Y173934D01*
X469862D01*
X474782Y173114D02*
Y172294D01*
X473962D01*
X475601D01*
X474782D01*
Y169834D01*
X475601Y169014D01*
X480521D02*
X478881D01*
X478061Y169834D01*
Y171474D01*
X478881Y172294D01*
X480521D01*
X481341Y171474D01*
Y170654D01*
X478061D01*
X482981Y172294D02*
Y169014D01*
Y170654D01*
X483801Y171474D01*
X484621Y172294D01*
X485441D01*
X493640D02*
X495280D01*
X496100Y171474D01*
Y169014D01*
X493640D01*
X492820Y169834D01*
X493640Y170654D01*
X496100D01*
X497740Y169014D02*
Y172294D01*
X500200D01*
X501020Y171474D01*
Y169014D01*
X505939Y173934D02*
Y169014D01*
X503480D01*
X502660Y169834D01*
Y171474D01*
X503480Y172294D01*
X505939D01*
X460843Y165630D02*
Y160711D01*
X462482Y162351D01*
X464122Y160711D01*
Y165630D01*
X465762Y160711D02*
X467402D01*
X466582D01*
Y163990D01*
X465762D01*
X469862D02*
Y160711D01*
Y162351D01*
X470682Y163171D01*
X471502Y163990D01*
X472322D01*
X474782Y160711D02*
X476421D01*
X475601D01*
Y163990D01*
X474782D01*
X478881Y160711D02*
Y163990D01*
X481341D01*
X482161Y163171D01*
Y160711D01*
X485441Y159071D02*
X486261D01*
X487081Y159891D01*
Y163990D01*
X484621D01*
X483801Y163171D01*
Y161531D01*
X484621Y160711D01*
X487081D01*
X272278Y225907D02*
X264406D01*
Y220659D01*
X272278Y218035D02*
Y212788D01*
Y215411D01*
X264406D01*
X270966Y204916D02*
X272278Y206228D01*
Y208852D01*
X270966Y210164D01*
X265718D01*
X264406Y208852D01*
Y206228D01*
X265718Y204916D01*
X264406Y189173D02*
Y194421D01*
X269654Y189173D01*
X270966D01*
X272278Y190485D01*
Y193109D01*
X270966Y194421D01*
X265718Y186549D02*
X264406Y185237D01*
Y182614D01*
X265718Y181302D01*
X270966D01*
X272278Y182614D01*
Y185237D01*
X270966Y186549D01*
X269654D01*
X268342Y185237D01*
Y181302D01*
X270966Y178678D02*
X272278Y177366D01*
Y174742D01*
X270966Y173430D01*
X269654D01*
X268342Y174742D01*
X267030Y173430D01*
X265718D01*
X264406Y174742D01*
Y177366D01*
X265718Y178678D01*
X267030D01*
X268342Y177366D01*
X269654Y178678D01*
X270966D01*
X268342Y177366D02*
Y174742D01*
X270966Y170806D02*
X272278Y169494D01*
Y166871D01*
X270966Y165559D01*
X269654D01*
X268342Y166871D01*
Y168183D01*
Y166871D01*
X267030Y165559D01*
X265718D01*
X264406Y166871D01*
Y169494D01*
X265718Y170806D01*
X259120Y220659D02*
X260432Y221971D01*
Y224595D01*
X259120Y225907D01*
X253873D01*
X252561Y224595D01*
Y221971D01*
X253873Y220659D01*
X260432Y218035D02*
X252561D01*
X256497D01*
X257808Y216723D01*
Y214099D01*
X256497Y212788D01*
X252561D01*
X257808Y208852D02*
Y206228D01*
X256497Y204916D01*
X252561D01*
Y208852D01*
X253873Y210164D01*
X255185Y208852D01*
Y204916D01*
X252561Y202292D02*
X257808D01*
Y198356D01*
X256497Y197045D01*
X252561D01*
Y194421D02*
X257808D01*
Y190485D01*
X256497Y189173D01*
X252561D01*
Y182614D02*
Y185237D01*
X253873Y186549D01*
X256497D01*
X257808Y185237D01*
Y182614D01*
X256497Y181302D01*
X255185D01*
Y186549D01*
X252561Y178678D02*
Y176054D01*
Y177366D01*
X260432D01*
Y178678D01*
X259120Y166871D02*
X260432Y168183D01*
Y170806D01*
X259120Y172118D01*
X253873D01*
X252561Y170806D01*
Y168183D01*
X253873Y166871D01*
X256497D01*
Y169494D01*
X257808Y164247D02*
X252561D01*
X255185D01*
X256497Y162935D01*
X257808Y161623D01*
Y160311D01*
X252561Y155063D02*
Y152439D01*
X253873Y151128D01*
X256497D01*
X257808Y152439D01*
Y155063D01*
X256497Y156375D01*
X253873D01*
X252561Y155063D01*
X257808Y148504D02*
X253873D01*
X252561Y147192D01*
Y143256D01*
X257808D01*
X249937Y140632D02*
X257808D01*
Y136697D01*
X256497Y135385D01*
X253873D01*
X252561Y136697D01*
Y140632D01*
X260432Y124889D02*
X252561D01*
Y120954D01*
X253873Y119642D01*
X255185D01*
X256497Y120954D01*
Y124889D01*
Y120954D01*
X257808Y119642D01*
X259120D01*
X260432Y120954D01*
Y124889D01*
X509080Y337361D02*
X508081Y336362D01*
Y334362D01*
X509080Y333362D01*
X513079D01*
X514079Y334362D01*
Y336362D01*
X513079Y337361D01*
X508081Y342359D02*
Y340360D01*
X509080Y339360D01*
X513079D01*
X514079Y340360D01*
Y342359D01*
X513079Y343359D01*
X509080D01*
X508081Y342359D01*
X514079Y345359D02*
X508081D01*
X510080Y347358D01*
X508081Y349357D01*
X514079D01*
X511080Y351357D02*
Y355355D01*
Y357355D02*
Y361353D01*
Y363353D02*
Y367351D01*
X343028Y387317D02*
Y379446D01*
X348275D01*
X350899Y387317D02*
X356147D01*
X353523D01*
Y379446D01*
X364018Y386005D02*
X362706Y387317D01*
X360082D01*
X358770Y386005D01*
Y380758D01*
X360082Y379446D01*
X362706D01*
X364018Y380758D01*
X379761Y379446D02*
X374514D01*
X379761Y384694D01*
Y386005D01*
X378449Y387317D01*
X375825D01*
X374514Y386005D01*
X382385Y380758D02*
X383697Y379446D01*
X386321D01*
X387633Y380758D01*
Y386005D01*
X386321Y387317D01*
X383697D01*
X382385Y386005D01*
Y384694D01*
X383697Y383382D01*
X387633D01*
X390256Y386005D02*
X391568Y387317D01*
X394192D01*
X395504Y386005D01*
Y384694D01*
X394192Y383382D01*
X395504Y382070D01*
Y380758D01*
X394192Y379446D01*
X391568D01*
X390256Y380758D01*
Y382070D01*
X391568Y383382D01*
X390256Y384694D01*
Y386005D01*
X391568Y383382D02*
X394192D01*
X398128Y386005D02*
X399440Y387317D01*
X402064D01*
X403376Y386005D01*
Y384694D01*
X402064Y383382D01*
X400752D01*
X402064D01*
X403376Y382070D01*
Y380758D01*
X402064Y379446D01*
X399440D01*
X398128Y380758D01*
X348275Y374160D02*
X346963Y375472D01*
X344339D01*
X343028Y374160D01*
Y368912D01*
X344339Y367600D01*
X346963D01*
X348275Y368912D01*
X350899Y375472D02*
Y367600D01*
Y371536D01*
X352211Y372848D01*
X354835D01*
X356147Y371536D01*
Y367600D01*
X360082Y372848D02*
X362706D01*
X364018Y371536D01*
Y367600D01*
X360082D01*
X358770Y368912D01*
X360082Y370224D01*
X364018D01*
X366642Y367600D02*
Y372848D01*
X370578D01*
X371890Y371536D01*
Y367600D01*
X374514D02*
Y372848D01*
X378449D01*
X379761Y371536D01*
Y367600D01*
X386321D02*
X383697D01*
X382385Y368912D01*
Y371536D01*
X383697Y372848D01*
X386321D01*
X387633Y371536D01*
Y370224D01*
X382385D01*
X390256Y367600D02*
X392880D01*
X391568D01*
Y375472D01*
X390256D01*
X402064Y374160D02*
X400752Y375472D01*
X398128D01*
X396816Y374160D01*
Y368912D01*
X398128Y367600D01*
X400752D01*
X402064Y368912D01*
Y371536D01*
X399440D01*
X404688Y372848D02*
Y367600D01*
Y370224D01*
X405999Y371536D01*
X407311Y372848D01*
X408623D01*
X413871Y367600D02*
X416495D01*
X417807Y368912D01*
Y371536D01*
X416495Y372848D01*
X413871D01*
X412559Y371536D01*
Y368912D01*
X413871Y367600D01*
X420430Y372848D02*
Y368912D01*
X421742Y367600D01*
X425678D01*
Y372848D01*
X428302Y364976D02*
Y372848D01*
X432238D01*
X433550Y371536D01*
Y368912D01*
X432238Y367600D01*
X428302D01*
X444045D02*
Y372848D01*
X446669Y375472D01*
X449293Y372848D01*
Y367600D01*
Y371536D01*
X444045D01*
X64780Y375047D02*
Y381045D01*
X67779D01*
X68778Y380045D01*
Y378046D01*
X67779Y377046D01*
X64780D01*
X71777Y375047D02*
X73777D01*
X74776Y376046D01*
Y378046D01*
X73777Y379045D01*
X71777D01*
X70778Y378046D01*
Y376046D01*
X71777Y375047D01*
X76776Y379045D02*
Y376046D01*
X77775Y375047D01*
X78775Y376046D01*
X79775Y375047D01*
X80774Y376046D01*
Y379045D01*
X85773Y375047D02*
X83773D01*
X82774Y376046D01*
Y378046D01*
X83773Y379045D01*
X85773D01*
X86772Y378046D01*
Y377046D01*
X82774D01*
X88772Y379045D02*
Y375047D01*
Y377046D01*
X89771Y378046D01*
X90771Y379045D01*
X91771D01*
X104767Y380045D02*
X103767Y381045D01*
X101768D01*
X100768Y380045D01*
Y379045D01*
X101768Y378046D01*
X103767D01*
X104767Y377046D01*
Y376046D01*
X103767Y375047D01*
X101768D01*
X100768Y376046D01*
X106766Y379045D02*
Y376046D01*
X107766Y375047D01*
X110765D01*
Y379045D01*
X112764Y373047D02*
Y379045D01*
X115763D01*
X116763Y378046D01*
Y376046D01*
X115763Y375047D01*
X112764D01*
X118762Y373047D02*
Y379045D01*
X121761D01*
X122761Y378046D01*
Y376046D01*
X121761Y375047D01*
X118762D01*
X124760D02*
X126760D01*
X125760D01*
Y381045D01*
X124760D01*
X129759Y379045D02*
Y376046D01*
X130758Y375047D01*
X133757D01*
Y374047D01*
X132757Y373047D01*
X131758D01*
X133757Y375047D02*
Y379045D01*
X265194Y106940D02*
Y110220D01*
X262734D01*
Y108580D01*
Y110220D01*
X260274D01*
Y105301D02*
Y103661D01*
Y104481D01*
X263554D01*
Y105301D01*
X260274Y101201D02*
Y99561D01*
Y100381D01*
X265194D01*
Y101201D01*
X264374Y96281D02*
X263554D01*
Y97101D01*
Y95461D01*
Y96281D01*
X261094D01*
X260274Y95461D01*
Y90542D02*
Y92181D01*
X261094Y93002D01*
X262734D01*
X263554Y92181D01*
Y90542D01*
X262734Y89722D01*
X261914D01*
Y93002D01*
X263554Y88082D02*
X260274D01*
X261914D01*
X262734Y87262D01*
X263554Y86442D01*
Y85622D01*
Y77422D02*
Y75783D01*
X262734Y74963D01*
X260274D01*
Y77422D01*
X261094Y78242D01*
X261914Y77422D01*
Y74963D01*
X260274Y73323D02*
X263554D01*
Y70863D01*
X262734Y70043D01*
X260274D01*
X265194Y65123D02*
X260274D01*
Y67583D01*
X261094Y68403D01*
X262734D01*
X263554Y67583D01*
Y65123D01*
X256890Y110220D02*
X251970D01*
X253610Y108580D01*
X251970Y106940D01*
X256890D01*
X251970Y105301D02*
Y103661D01*
Y104481D01*
X255250D01*
Y105301D01*
Y101201D02*
X251970D01*
X253610D01*
X254430Y100381D01*
X255250Y99561D01*
Y98741D01*
X251970Y96281D02*
Y94641D01*
Y95461D01*
X255250D01*
Y96281D01*
X251970Y92181D02*
X255250D01*
Y89722D01*
X254430Y88902D01*
X251970D01*
X250331Y85622D02*
Y84802D01*
X251150Y83982D01*
X255250D01*
Y86442D01*
X254430Y87262D01*
X252790D01*
X251970Y86442D01*
Y83982D01*
X373789Y36218D02*
X372789Y37218D01*
X370790D01*
X369790Y36218D01*
Y32220D01*
X370790Y31220D01*
X372789D01*
X373789Y32220D01*
X379787Y37218D02*
X377787D01*
X378787D01*
Y32220D01*
X377787Y31220D01*
X376788D01*
X375788Y32220D01*
X385785Y36218D02*
X384785Y37218D01*
X382786D01*
X381786Y36218D01*
Y32220D01*
X382786Y31220D01*
X384785D01*
X385785Y32220D01*
X342535Y184168D02*
Y176296D01*
X347783D01*
X350407Y184168D02*
X355655D01*
X353031D01*
Y176296D01*
X363526Y182856D02*
X362214Y184168D01*
X359590D01*
X358278Y182856D01*
Y177608D01*
X359590Y176296D01*
X362214D01*
X363526Y177608D01*
X379269Y176296D02*
X374021D01*
X379269Y181544D01*
Y182856D01*
X377957Y184168D01*
X375333D01*
X374021Y182856D01*
X381893Y177608D02*
X383205Y176296D01*
X385829D01*
X387140Y177608D01*
Y182856D01*
X385829Y184168D01*
X383205D01*
X381893Y182856D01*
Y181544D01*
X383205Y180232D01*
X387140D01*
X389764Y182856D02*
X391076Y184168D01*
X393700D01*
X395012Y182856D01*
Y181544D01*
X393700Y180232D01*
X395012Y178920D01*
Y177608D01*
X393700Y176296D01*
X391076D01*
X389764Y177608D01*
Y178920D01*
X391076Y180232D01*
X389764Y181544D01*
Y182856D01*
X391076Y180232D02*
X393700D01*
X397636Y182856D02*
X398948Y184168D01*
X401572D01*
X402883Y182856D01*
Y181544D01*
X401572Y180232D01*
X400260D01*
X401572D01*
X402883Y178920D01*
Y177608D01*
X401572Y176296D01*
X398948D01*
X397636Y177608D01*
X347783Y171010D02*
X346471Y172322D01*
X343847D01*
X342535Y171010D01*
Y165762D01*
X343847Y164451D01*
X346471D01*
X347783Y165762D01*
X350407Y172322D02*
Y164451D01*
Y168386D01*
X351719Y169698D01*
X354343D01*
X355655Y168386D01*
Y164451D01*
X359590Y169698D02*
X362214D01*
X363526Y168386D01*
Y164451D01*
X359590D01*
X358278Y165762D01*
X359590Y167074D01*
X363526D01*
X366150Y164451D02*
Y169698D01*
X370086D01*
X371397Y168386D01*
Y164451D01*
X374021D02*
Y169698D01*
X377957D01*
X379269Y168386D01*
Y164451D01*
X385829D02*
X383205D01*
X381893Y165762D01*
Y168386D01*
X383205Y169698D01*
X385829D01*
X387140Y168386D01*
Y167074D01*
X381893D01*
X389764Y164451D02*
X392388D01*
X391076D01*
Y172322D01*
X389764D01*
X401572Y171010D02*
X400260Y172322D01*
X397636D01*
X396324Y171010D01*
Y165762D01*
X397636Y164451D01*
X400260D01*
X401572Y165762D01*
Y168386D01*
X398948D01*
X404195Y169698D02*
Y164451D01*
Y167074D01*
X405507Y168386D01*
X406819Y169698D01*
X408131D01*
X413379Y164451D02*
X416003D01*
X417314Y165762D01*
Y168386D01*
X416003Y169698D01*
X413379D01*
X412067Y168386D01*
Y165762D01*
X413379Y164451D01*
X419938Y169698D02*
Y165762D01*
X421250Y164451D01*
X425186D01*
Y169698D01*
X427810Y161827D02*
Y169698D01*
X431745D01*
X433057Y168386D01*
Y165762D01*
X431745Y164451D01*
X427810D01*
X448800Y171010D02*
X447488Y172322D01*
X444865D01*
X443553Y171010D01*
Y165762D01*
X444865Y164451D01*
X447488D01*
X448800Y165762D01*
X509080Y226141D02*
X508081Y225141D01*
Y223142D01*
X509080Y222142D01*
X513079D01*
X514079Y223142D01*
Y225141D01*
X513079Y226141D01*
X508081Y228140D02*
X514079D01*
X511080D01*
X510080Y229140D01*
Y231139D01*
X511080Y232139D01*
X514079D01*
X510080Y235138D02*
Y237137D01*
X511080Y238137D01*
X514079D01*
Y235138D01*
X513079Y234138D01*
X512079Y235138D01*
Y238137D01*
X514079Y240136D02*
X510080D01*
Y243135D01*
X511080Y244135D01*
X514079D01*
Y246134D02*
X510080D01*
Y249133D01*
X511080Y250133D01*
X514079D01*
Y255131D02*
Y253132D01*
X513079Y252132D01*
X511080D01*
X510080Y253132D01*
Y255131D01*
X511080Y256131D01*
X512079D01*
Y252132D01*
X514079Y258130D02*
Y260130D01*
Y259130D01*
X508081D01*
Y258130D01*
X514079Y263129D02*
Y266128D01*
X513079Y267127D01*
X512079Y266128D01*
Y264128D01*
X511080Y263129D01*
X510080Y264128D01*
Y267127D01*
X511080Y269127D02*
Y273126D01*
Y275125D02*
Y279123D01*
Y281123D02*
Y285122D01*
Y287121D02*
Y291120D01*
Y293119D02*
Y297118D01*
Y299117D02*
Y303116D01*
Y305115D02*
Y309114D01*
Y311113D02*
Y315112D01*
Y317111D02*
Y321110D01*
Y323109D02*
Y327108D01*
X40106Y24817D02*
X36827D01*
Y19898D01*
X40106D01*
X36827Y22357D02*
X38467D01*
X45026Y24817D02*
X41746D01*
Y19898D01*
X45026D01*
X41746Y22357D02*
X43386D01*
X46666Y19898D02*
Y24817D01*
X49126D01*
X49946Y23997D01*
Y22357D01*
X49126Y21538D01*
X46666D01*
X51586Y19898D02*
Y24817D01*
X54046D01*
X54866Y23997D01*
Y22357D01*
X54046Y21538D01*
X51586D01*
X53226D02*
X54866Y19898D01*
X58965Y24817D02*
X57325D01*
X56505Y23997D01*
Y20718D01*
X57325Y19898D01*
X58965D01*
X59785Y20718D01*
Y23997D01*
X58965Y24817D01*
X61425Y19898D02*
Y24817D01*
X63065Y23177D01*
X64705Y24817D01*
Y19898D01*
X127690Y198134D02*
X128689Y199134D01*
Y201133D01*
X127690Y202133D01*
X123691D01*
X122691Y201133D01*
Y199134D01*
X123691Y198134D01*
X128689Y192136D02*
Y194135D01*
Y193135D01*
X123691D01*
X122691Y194135D01*
Y195135D01*
X123691Y196135D01*
X127690Y186138D02*
X128689Y187137D01*
Y189137D01*
X127690Y190137D01*
X123691D01*
X122691Y189137D01*
Y187137D01*
X123691Y186138D01*
X43639Y57330D02*
Y52331D01*
X44639Y51332D01*
X46638D01*
X47638Y52331D01*
Y57330D01*
X49637Y51332D02*
X51636D01*
X50637D01*
Y57330D01*
X49637Y56330D01*
X-13370Y132905D02*
Y137825D01*
X-10910D01*
X-10090Y137005D01*
Y135365D01*
X-10910Y134545D01*
X-13370D01*
X-11730D02*
X-10090Y132905D01*
X-8450Y137825D02*
X-5171D01*
Y137005D01*
X-8450Y133725D01*
Y132905D01*
X-3531Y137005D02*
X-2711Y137825D01*
X-1071D01*
X-251Y137005D01*
Y133725D01*
X-1071Y132905D01*
X-2711D01*
X-3531Y133725D01*
Y137005D01*
X-13370Y126674D02*
Y131594D01*
X-10910D01*
X-10090Y130774D01*
Y129134D01*
X-10910Y128314D01*
X-13370D01*
X-11730D02*
X-10090Y126674D01*
X-5991D02*
Y131594D01*
X-8450Y129134D01*
X-5171D01*
X-3531Y130774D02*
X-2711Y131594D01*
X-1071D01*
X-251Y130774D01*
Y129954D01*
X-1071Y129134D01*
X-251Y128314D01*
Y127494D01*
X-1071Y126674D01*
X-2711D01*
X-3531Y127494D01*
Y128314D01*
X-2711Y129134D01*
X-3531Y129954D01*
Y130774D01*
X-2711Y129134D02*
X-1071D01*
X10356Y128983D02*
X14355Y122985D01*
Y128983D02*
X10356Y122985D01*
X16354Y127984D02*
X17354Y128983D01*
X19353D01*
X20353Y127984D01*
Y126984D01*
X19353Y125984D01*
X18353D01*
X19353D01*
X20353Y124985D01*
Y123985D01*
X19353Y122985D01*
X17354D01*
X16354Y123985D01*
X516006Y183117D02*
X520005Y177119D01*
Y183117D02*
X516006Y177119D01*
X522004D02*
X524004D01*
X523004D01*
Y183117D01*
X522004Y182117D01*
X531002D02*
X530002Y183117D01*
X528003D01*
X527003Y182117D01*
Y178119D01*
X528003Y177119D01*
X530002D01*
X531002Y178119D01*
X274574Y63127D02*
X268576Y59129D01*
X274574D02*
X268576Y63127D01*
Y57129D02*
Y55130D01*
Y56130D01*
X274574D01*
X273574Y57129D01*
X274574Y52131D02*
X268576D01*
Y49132D01*
X269576Y48132D01*
X270575D01*
X271575Y49132D01*
Y52131D01*
Y49132D01*
X272574Y48132D01*
X273574D01*
X274574Y49132D01*
Y52131D01*
X516124Y379967D02*
X520123Y373970D01*
Y379967D02*
X516124Y373970D01*
X522122D02*
X524122D01*
X523122D01*
Y379967D01*
X522122Y378968D01*
X527121Y373970D02*
Y377968D01*
X529120Y379967D01*
X531120Y377968D01*
Y373970D01*
Y376969D01*
X527121D01*
X146984Y358761D02*
Y363680D01*
X149444D01*
X150264Y362860D01*
Y361221D01*
X149444Y360401D01*
X146984D01*
X148624D02*
X150264Y358761D01*
X155183Y363680D02*
X153543Y362860D01*
X151903Y361221D01*
Y359581D01*
X152723Y358761D01*
X154363D01*
X155183Y359581D01*
Y360401D01*
X154363Y361221D01*
X151903D01*
X156823Y359581D02*
X157643Y358761D01*
X159283D01*
X160103Y359581D01*
Y362860D01*
X159283Y363680D01*
X157643D01*
X156823Y362860D01*
Y362040D01*
X157643Y361221D01*
X160103D01*
X387831Y40532D02*
Y45452D01*
X390291D01*
X391111Y44632D01*
Y42992D01*
X390291Y42172D01*
X387831D01*
X389471D02*
X391111Y40532D01*
X395211D02*
Y45452D01*
X392751Y42992D01*
X396030D01*
X397670Y45452D02*
X400950D01*
Y44632D01*
X397670Y41352D01*
Y40532D01*
X405870Y44632D02*
X405050Y45452D01*
X403410D01*
X402590Y44632D01*
Y41352D01*
X403410Y40532D01*
X405050D01*
X405870Y41352D01*
X131989Y183429D02*
X136909D01*
Y180969D01*
X136089Y180149D01*
X134449D01*
X133629Y180969D01*
Y183429D01*
Y181789D02*
X131989Y180149D01*
Y176049D02*
X136909D01*
X134449Y178509D01*
Y175229D01*
X136909Y173590D02*
Y170310D01*
X136089D01*
X132809Y173590D01*
X131989D01*
X136909Y168670D02*
X131989D01*
Y166210D01*
X132809Y165390D01*
X133629D01*
X134449Y166210D01*
Y168670D01*
Y166210D01*
X135269Y165390D01*
X136089D01*
X136909Y166210D01*
Y168670D01*
X387949Y237383D02*
Y242302D01*
X390409D01*
X391229Y241482D01*
Y239843D01*
X390409Y239023D01*
X387949D01*
X389589D02*
X391229Y237383D01*
X395329D02*
Y242302D01*
X392869Y239843D01*
X396149D01*
X397789Y242302D02*
X401068D01*
Y241482D01*
X397789Y238203D01*
Y237383D01*
X402708D02*
Y240663D01*
X404348Y242302D01*
X405988Y240663D01*
Y237383D01*
Y239843D01*
X402708D01*
X56758Y151084D02*
Y156003D01*
X59218D01*
X60037Y155183D01*
Y153543D01*
X59218Y152723D01*
X56758D01*
X58398D02*
X60037Y151084D01*
X64957Y156003D02*
X63317Y155183D01*
X61677Y153543D01*
Y151903D01*
X62497Y151084D01*
X64137D01*
X64957Y151903D01*
Y152723D01*
X64137Y153543D01*
X61677D01*
X66597Y155183D02*
X67417Y156003D01*
X69057D01*
X69877Y155183D01*
Y154363D01*
X69057Y153543D01*
X69877Y152723D01*
Y151903D01*
X69057Y151084D01*
X67417D01*
X66597Y151903D01*
Y152723D01*
X67417Y153543D01*
X66597Y154363D01*
Y155183D01*
X67417Y153543D02*
X69057D01*
X56856Y158958D02*
Y163877D01*
X59316D01*
X60136Y163057D01*
Y161417D01*
X59316Y160597D01*
X56856D01*
X58496D02*
X60136Y158958D01*
X65056Y163877D02*
X63416Y163057D01*
X61776Y161417D01*
Y159777D01*
X62596Y158958D01*
X64236D01*
X65056Y159777D01*
Y160597D01*
X64236Y161417D01*
X61776D01*
X66695Y163877D02*
X69975D01*
Y163057D01*
X66695Y159777D01*
Y158958D01*
X56943Y166939D02*
Y171858D01*
X59403D01*
X60223Y171038D01*
Y169398D01*
X59403Y168579D01*
X56943D01*
X58583D02*
X60223Y166939D01*
X65143Y171858D02*
X63503Y171038D01*
X61863Y169398D01*
Y167759D01*
X62683Y166939D01*
X64323D01*
X65143Y167759D01*
Y168579D01*
X64323Y169398D01*
X61863D01*
X70062Y171858D02*
X68422Y171038D01*
X66783Y169398D01*
Y167759D01*
X67602Y166939D01*
X69242D01*
X70062Y167759D01*
Y168579D01*
X69242Y169398D01*
X66783D01*
X56943Y174739D02*
Y179658D01*
X59403D01*
X60223Y178838D01*
Y177199D01*
X59403Y176379D01*
X56943D01*
X58583D02*
X60223Y174739D01*
X65143Y179658D02*
X63503Y178838D01*
X61863Y177199D01*
Y175559D01*
X62683Y174739D01*
X64323D01*
X65143Y175559D01*
Y176379D01*
X64323Y177199D01*
X61863D01*
X70062Y179658D02*
X66783D01*
Y177199D01*
X68422Y178018D01*
X69242D01*
X70062Y177199D01*
Y175559D01*
X69242Y174739D01*
X67602D01*
X66783Y175559D01*
X56943Y182639D02*
Y187558D01*
X59403D01*
X60223Y186738D01*
Y185099D01*
X59403Y184279D01*
X56943D01*
X58583D02*
X60223Y182639D01*
X65143Y187558D02*
X63503Y186738D01*
X61863Y185099D01*
Y183459D01*
X62683Y182639D01*
X64323D01*
X65143Y183459D01*
Y184279D01*
X64323Y185099D01*
X61863D01*
X69242Y182639D02*
Y187558D01*
X66783Y185099D01*
X70062D01*
X56943Y190539D02*
Y195458D01*
X59403D01*
X60223Y194638D01*
Y192999D01*
X59403Y192179D01*
X56943D01*
X58583D02*
X60223Y190539D01*
X65143Y195458D02*
X63503Y194638D01*
X61863Y192999D01*
Y191359D01*
X62683Y190539D01*
X64323D01*
X65143Y191359D01*
Y192179D01*
X64323Y192999D01*
X61863D01*
X66783Y194638D02*
X67602Y195458D01*
X69242D01*
X70062Y194638D01*
Y193818D01*
X69242Y192999D01*
X68422D01*
X69242D01*
X70062Y192179D01*
Y191359D01*
X69242Y190539D01*
X67602D01*
X66783Y191359D01*
X56943Y198439D02*
Y203358D01*
X59403D01*
X60223Y202538D01*
Y200899D01*
X59403Y200079D01*
X56943D01*
X58583D02*
X60223Y198439D01*
X65143Y203358D02*
X63503Y202538D01*
X61863Y200899D01*
Y199259D01*
X62683Y198439D01*
X64323D01*
X65143Y199259D01*
Y200079D01*
X64323Y200899D01*
X61863D01*
X70062Y198439D02*
X66783D01*
X70062Y201718D01*
Y202538D01*
X69242Y203358D01*
X67602D01*
X66783Y202538D01*
X56943Y206239D02*
Y211158D01*
X59403D01*
X60223Y210338D01*
Y208699D01*
X59403Y207879D01*
X56943D01*
X58583D02*
X60223Y206239D01*
X65143Y211158D02*
X63503Y210338D01*
X61863Y208699D01*
Y207059D01*
X62683Y206239D01*
X64323D01*
X65143Y207059D01*
Y207879D01*
X64323Y208699D01*
X61863D01*
X66783Y206239D02*
X68422D01*
X67602D01*
Y211158D01*
X66783Y210338D01*
X57043Y214139D02*
Y219058D01*
X59503D01*
X60323Y218238D01*
Y216599D01*
X59503Y215779D01*
X57043D01*
X58683D02*
X60323Y214139D01*
X65243Y219058D02*
X63603Y218238D01*
X61963Y216599D01*
Y214959D01*
X62783Y214139D01*
X64423D01*
X65243Y214959D01*
Y215779D01*
X64423Y216599D01*
X61963D01*
X66883Y218238D02*
X67703Y219058D01*
X69342D01*
X70162Y218238D01*
Y214959D01*
X69342Y214139D01*
X67703D01*
X66883Y214959D01*
Y218238D01*
X56943Y222039D02*
Y226958D01*
X59403D01*
X60223Y226138D01*
Y224499D01*
X59403Y223679D01*
X56943D01*
X58583D02*
X60223Y222039D01*
X65143Y226958D02*
X61863D01*
Y224499D01*
X63503Y225319D01*
X64323D01*
X65143Y224499D01*
Y222859D01*
X64323Y222039D01*
X62683D01*
X61863Y222859D01*
X66783D02*
X67602Y222039D01*
X69242D01*
X70062Y222859D01*
Y226138D01*
X69242Y226958D01*
X67602D01*
X66783Y226138D01*
Y225319D01*
X67602Y224499D01*
X70062D01*
X57043Y229939D02*
Y234858D01*
X59503D01*
X60323Y234038D01*
Y232399D01*
X59503Y231579D01*
X57043D01*
X58683D02*
X60323Y229939D01*
X65243Y234858D02*
X61963D01*
Y232399D01*
X63603Y233219D01*
X64423D01*
X65243Y232399D01*
Y230759D01*
X64423Y229939D01*
X62783D01*
X61963Y230759D01*
X66883Y234038D02*
X67703Y234858D01*
X69342D01*
X70162Y234038D01*
Y233219D01*
X69342Y232399D01*
X70162Y231579D01*
Y230759D01*
X69342Y229939D01*
X67703D01*
X66883Y230759D01*
Y231579D01*
X67703Y232399D01*
X66883Y233219D01*
Y234038D01*
X67703Y232399D02*
X69342D01*
X56943Y237739D02*
Y242658D01*
X59403D01*
X60223Y241838D01*
Y240198D01*
X59403Y239379D01*
X56943D01*
X58583D02*
X60223Y237739D01*
X65143Y242658D02*
X61863D01*
Y240198D01*
X63503Y241019D01*
X64323D01*
X65143Y240198D01*
Y238559D01*
X64323Y237739D01*
X62683D01*
X61863Y238559D01*
X66783Y242658D02*
X70062D01*
Y241838D01*
X66783Y238559D01*
Y237739D01*
X57043Y245639D02*
Y250558D01*
X59503D01*
X60323Y249738D01*
Y248098D01*
X59503Y247279D01*
X57043D01*
X58683D02*
X60323Y245639D01*
X65243Y250558D02*
X61963D01*
Y248098D01*
X63603Y248919D01*
X64423D01*
X65243Y248098D01*
Y246459D01*
X64423Y245639D01*
X62783D01*
X61963Y246459D01*
X70162Y250558D02*
X68522Y249738D01*
X66883Y248098D01*
Y246459D01*
X67703Y245639D01*
X69342D01*
X70162Y246459D01*
Y247279D01*
X69342Y248098D01*
X66883D01*
X57043Y253539D02*
Y258458D01*
X59503D01*
X60323Y257638D01*
Y255998D01*
X59503Y255179D01*
X57043D01*
X58683D02*
X60323Y253539D01*
X65243Y258458D02*
X61963D01*
Y255998D01*
X63603Y256819D01*
X64423D01*
X65243Y255998D01*
Y254359D01*
X64423Y253539D01*
X62783D01*
X61963Y254359D01*
X70162Y258458D02*
X66883D01*
Y255998D01*
X68522Y256819D01*
X69342D01*
X70162Y255998D01*
Y254359D01*
X69342Y253539D01*
X67703D01*
X66883Y254359D01*
X57043Y261439D02*
Y266358D01*
X59503D01*
X60323Y265538D01*
Y263898D01*
X59503Y263079D01*
X57043D01*
X58683D02*
X60323Y261439D01*
X65243Y266358D02*
X61963D01*
Y263898D01*
X63603Y264719D01*
X64423D01*
X65243Y263898D01*
Y262259D01*
X64423Y261439D01*
X62783D01*
X61963Y262259D01*
X69342Y261439D02*
Y266358D01*
X66883Y263898D01*
X70162D01*
X57043Y269239D02*
Y274158D01*
X59503D01*
X60323Y273338D01*
Y271698D01*
X59503Y270879D01*
X57043D01*
X58683D02*
X60323Y269239D01*
X65243Y274158D02*
X61963D01*
Y271698D01*
X63603Y272518D01*
X64423D01*
X65243Y271698D01*
Y270059D01*
X64423Y269239D01*
X62783D01*
X61963Y270059D01*
X66883Y273338D02*
X67703Y274158D01*
X69342D01*
X70162Y273338D01*
Y272518D01*
X69342Y271698D01*
X68522D01*
X69342D01*
X70162Y270879D01*
Y270059D01*
X69342Y269239D01*
X67703D01*
X66883Y270059D01*
X57043Y277139D02*
Y282058D01*
X59503D01*
X60323Y281238D01*
Y279598D01*
X59503Y278779D01*
X57043D01*
X58683D02*
X60323Y277139D01*
X65243Y282058D02*
X61963D01*
Y279598D01*
X63603Y280418D01*
X64423D01*
X65243Y279598D01*
Y277959D01*
X64423Y277139D01*
X62783D01*
X61963Y277959D01*
X70162Y277139D02*
X66883D01*
X70162Y280418D01*
Y281238D01*
X69342Y282058D01*
X67703D01*
X66883Y281238D01*
X57253Y284942D02*
Y289861D01*
X59712D01*
X60532Y289041D01*
Y287402D01*
X59712Y286582D01*
X57253D01*
X58892D02*
X60532Y284942D01*
X65452Y289861D02*
X62172D01*
Y287402D01*
X63812Y288222D01*
X64632D01*
X65452Y287402D01*
Y285762D01*
X64632Y284942D01*
X62992D01*
X62172Y285762D01*
X67092Y284942D02*
X68732D01*
X67912D01*
Y289861D01*
X67092Y289041D01*
X57162Y292828D02*
Y297748D01*
X59622D01*
X60442Y296928D01*
Y295288D01*
X59622Y294468D01*
X57162D01*
X58802D02*
X60442Y292828D01*
X65362Y297748D02*
X62082D01*
Y295288D01*
X63722Y296108D01*
X64542D01*
X65362Y295288D01*
Y293648D01*
X64542Y292828D01*
X62902D01*
X62082Y293648D01*
X67001Y296928D02*
X67822Y297748D01*
X69461D01*
X70281Y296928D01*
Y293648D01*
X69461Y292828D01*
X67822D01*
X67001Y293648D01*
Y296928D01*
X67554Y367027D02*
Y362927D01*
X68374Y362107D01*
X70014D01*
X70834Y362927D01*
Y367027D01*
X75753D02*
X72474D01*
Y364567D01*
X74113Y365387D01*
X74933D01*
X75753Y364567D01*
Y362927D01*
X74933Y362107D01*
X73293D01*
X72474Y362927D01*
X36908Y364268D02*
X33628D01*
Y361809D01*
X35268D01*
X33628D01*
Y359349D01*
X38548D02*
X40188D01*
X39368D01*
Y364268D01*
X38548Y363449D01*
X134680Y363680D02*
Y358761D01*
X137140D01*
X137960Y359581D01*
Y362860D01*
X137140Y363680D01*
X134680D01*
X142879Y358761D02*
X139600D01*
X142879Y362040D01*
Y362860D01*
X142059Y363680D01*
X140419D01*
X139600Y362860D01*
X110893Y326837D02*
X110073Y327657D01*
X108434D01*
X107614Y326837D01*
Y323557D01*
X108434Y322737D01*
X110073D01*
X110893Y323557D01*
X112533Y326837D02*
X113353Y327657D01*
X114993D01*
X115813Y326837D01*
Y326017D01*
X114993Y325197D01*
X114173D01*
X114993D01*
X115813Y324377D01*
Y323557D01*
X114993Y322737D01*
X113353D01*
X112533Y323557D01*
X120733Y327657D02*
X119093Y326837D01*
X117453Y325197D01*
Y323557D01*
X118273Y322737D01*
X119913D01*
X120733Y323557D01*
Y324377D01*
X119913Y325197D01*
X117453D01*
X74476Y325459D02*
X73656Y326279D01*
X72016D01*
X71196Y325459D01*
Y322179D01*
X72016Y321359D01*
X73656D01*
X74476Y322179D01*
X76116Y325459D02*
X76936Y326279D01*
X78576D01*
X79396Y325459D01*
Y324639D01*
X78576Y323819D01*
X77756D01*
X78576D01*
X79396Y322999D01*
Y322179D01*
X78576Y321359D01*
X76936D01*
X76116Y322179D01*
X84316Y326279D02*
X81036D01*
Y323819D01*
X82676Y324639D01*
X83495D01*
X84316Y323819D01*
Y322179D01*
X83495Y321359D01*
X81856D01*
X81036Y322179D01*
X74476Y333333D02*
X73656Y334153D01*
X72016D01*
X71196Y333333D01*
Y330053D01*
X72016Y329233D01*
X73656D01*
X74476Y330053D01*
X76116Y333333D02*
X76936Y334153D01*
X78576D01*
X79396Y333333D01*
Y332513D01*
X78576Y331693D01*
X77756D01*
X78576D01*
X79396Y330873D01*
Y330053D01*
X78576Y329233D01*
X76936D01*
X76116Y330053D01*
X83495Y329233D02*
Y334153D01*
X81036Y331693D01*
X84316D01*
X330153Y115334D02*
Y111234D01*
X330973Y110414D01*
X332613D01*
X333433Y111234D01*
Y115334D01*
X338352Y110414D02*
X335073D01*
X338352Y113694D01*
Y114514D01*
X337532Y115334D01*
X335893D01*
X335073Y114514D01*
X343272D02*
X342452Y115334D01*
X340812D01*
X339992Y114514D01*
Y111234D01*
X340812Y110414D01*
X342452D01*
X343272Y111234D01*
X206790Y241107D02*
X202691D01*
X201871Y240287D01*
Y238647D01*
X202691Y237827D01*
X206790D01*
X201871Y232907D02*
Y236187D01*
X205151Y232907D01*
X205971D01*
X206790Y233727D01*
Y235367D01*
X205971Y236187D01*
X206790Y231267D02*
X201871D01*
Y228808D01*
X202691Y227988D01*
X203511D01*
X204331Y228808D01*
Y231267D01*
Y228808D01*
X205151Y227988D01*
X205971D01*
X206790Y228808D01*
Y231267D01*
X330271Y312184D02*
Y308085D01*
X331091Y307265D01*
X332731D01*
X333551Y308085D01*
Y312184D01*
X338471Y307265D02*
X335191D01*
X338471Y310544D01*
Y311364D01*
X337651Y312184D01*
X336011D01*
X335191Y311364D01*
X340110Y307265D02*
Y310544D01*
X341750Y312184D01*
X343390Y310544D01*
Y307265D01*
Y309724D01*
X340110D01*
X400626Y23800D02*
Y28720D01*
X403086D01*
X403906Y27900D01*
Y26260D01*
X403086Y25440D01*
X400626D01*
X402266D02*
X403906Y23800D01*
X408006D02*
Y28720D01*
X405546Y26260D01*
X408826D01*
X413745Y28720D02*
X412106Y27900D01*
X410466Y26260D01*
Y24620D01*
X411286Y23800D01*
X412925D01*
X413745Y24620D01*
Y25440D01*
X412925Y26260D01*
X410466D01*
X418665Y27900D02*
X417845Y28720D01*
X416205D01*
X415385Y27900D01*
Y24620D01*
X416205Y23800D01*
X417845D01*
X418665Y24620D01*
X414406Y40532D02*
Y45452D01*
X416866D01*
X417686Y44632D01*
Y42992D01*
X416866Y42172D01*
X414406D01*
X416046D02*
X417686Y40532D01*
X421785D02*
Y45452D01*
X419325Y42992D01*
X422605D01*
X427525Y45452D02*
X424245D01*
Y42992D01*
X425885Y43812D01*
X426705D01*
X427525Y42992D01*
Y41352D01*
X426705Y40532D01*
X425065D01*
X424245Y41352D01*
X432445Y44632D02*
X431625Y45452D01*
X429985D01*
X429165Y44632D01*
Y41352D01*
X429985Y40532D01*
X431625D01*
X432445Y41352D01*
X427201Y23800D02*
Y28720D01*
X429661D01*
X430481Y27900D01*
Y26260D01*
X429661Y25440D01*
X427201D01*
X428841D02*
X430481Y23800D01*
X434581D02*
Y28720D01*
X432121Y26260D01*
X435400D01*
X439500Y23800D02*
Y28720D01*
X437040Y26260D01*
X440320D01*
X445240Y27900D02*
X444420Y28720D01*
X442780D01*
X441960Y27900D01*
Y24620D01*
X442780Y23800D01*
X444420D01*
X445240Y24620D01*
X393410Y127798D02*
Y132718D01*
X395870D01*
X396690Y131898D01*
Y130258D01*
X395870Y129438D01*
X393410D01*
X395050D02*
X396690Y127798D01*
X398330Y131898D02*
X399150Y132718D01*
X400789D01*
X401610Y131898D01*
Y131078D01*
X400789Y130258D01*
X399970D01*
X400789D01*
X401610Y129438D01*
Y128618D01*
X400789Y127798D01*
X399150D01*
X398330Y128618D01*
X406529Y131898D02*
X405709Y132718D01*
X404069D01*
X403249Y131898D01*
Y128618D01*
X404069Y127798D01*
X405709D01*
X406529Y128618D01*
X377496Y137973D02*
Y142893D01*
X379955D01*
X380775Y142073D01*
Y140433D01*
X379955Y139613D01*
X377496D01*
X379135D02*
X380775Y137973D01*
X385695D02*
X382415D01*
X385695Y141253D01*
Y142073D01*
X384875Y142893D01*
X383235D01*
X382415Y142073D01*
X390615D02*
X389795Y142893D01*
X388155D01*
X387335Y142073D01*
Y138793D01*
X388155Y137973D01*
X389795D01*
X390615Y138793D01*
X373969Y96635D02*
Y101554D01*
X376428D01*
X377248Y100734D01*
Y99094D01*
X376428Y98274D01*
X373969D01*
X375608D02*
X377248Y96635D01*
X378888D02*
X380528D01*
X379708D01*
Y101554D01*
X378888Y100734D01*
X386268D02*
X385448Y101554D01*
X383808D01*
X382988Y100734D01*
Y97455D01*
X383808Y96635D01*
X385448D01*
X386268Y97455D01*
X405940Y115334D02*
Y111234D01*
X406760Y110414D01*
X408400D01*
X409220Y111234D01*
Y115334D01*
X413320Y110414D02*
Y115334D01*
X410860Y112874D01*
X414140D01*
X419060Y114514D02*
X418240Y115334D01*
X416600D01*
X415780Y114514D01*
Y111234D01*
X416600Y110414D01*
X418240D01*
X419060Y111234D01*
X315028Y163868D02*
Y159769D01*
X315848Y158949D01*
X317488D01*
X318308Y159769D01*
Y163868D01*
X319948Y163049D02*
X320768Y163868D01*
X322408D01*
X323228Y163049D01*
Y162229D01*
X322408Y161409D01*
X321588D01*
X322408D01*
X323228Y160589D01*
Y159769D01*
X322408Y158949D01*
X320768D01*
X319948Y159769D01*
X328147Y163049D02*
X327327Y163868D01*
X325687D01*
X324868Y163049D01*
Y159769D01*
X325687Y158949D01*
X327327D01*
X328147Y159769D01*
X377315Y149783D02*
Y144863D01*
X379775D01*
X380595Y145683D01*
Y148963D01*
X379775Y149783D01*
X377315D01*
X382235Y144863D02*
X383875D01*
X383055D01*
Y149783D01*
X382235Y148963D01*
X389614D02*
X388794Y149783D01*
X387154D01*
X386334Y148963D01*
Y145683D01*
X387154Y144863D01*
X388794D01*
X389614Y145683D01*
X358056Y129278D02*
X357236Y130098D01*
X355596D01*
X354776Y129278D01*
Y125998D01*
X355596Y125178D01*
X357236D01*
X358056Y125998D01*
X359696Y125178D02*
X361336D01*
X360516D01*
Y130098D01*
X359696Y129278D01*
X363796D02*
X364616Y130098D01*
X366256D01*
X367076Y129278D01*
Y128458D01*
X366256Y127638D01*
X365436D01*
X366256D01*
X367076Y126818D01*
Y125998D01*
X366256Y125178D01*
X364616D01*
X363796Y125998D01*
X371995Y129278D02*
X371175Y130098D01*
X369535D01*
X368716Y129278D01*
Y125998D01*
X369535Y125178D01*
X371175D01*
X371995Y125998D01*
X396442Y55459D02*
X395622Y56279D01*
X393982D01*
X393162Y55459D01*
Y52179D01*
X393982Y51359D01*
X395622D01*
X396442Y52179D01*
X398082Y51359D02*
X399722D01*
X398902D01*
Y56279D01*
X398082Y55459D01*
X405461Y51359D02*
X402182D01*
X405461Y54639D01*
Y55459D01*
X404641Y56279D01*
X403002D01*
X402182Y55459D01*
X410381D02*
X409561Y56279D01*
X407921D01*
X407101Y55459D01*
Y52179D01*
X407921Y51359D01*
X409561D01*
X410381Y52179D01*
X368490Y110798D02*
X367670Y111618D01*
X366030D01*
X365210Y110798D01*
Y107518D01*
X366030Y106698D01*
X367670D01*
X368490Y107518D01*
X370130Y106698D02*
X371770D01*
X370950D01*
Y111618D01*
X370130Y110798D01*
X374229Y106698D02*
X375869D01*
X375049D01*
Y111618D01*
X374229Y110798D01*
X381609D02*
X380789Y111618D01*
X379149D01*
X378329Y110798D01*
Y107518D01*
X379149Y106698D01*
X380789D01*
X381609Y107518D01*
X442455Y51442D02*
X441635Y50622D01*
Y48982D01*
X442455Y48162D01*
X445734D01*
X446554Y48982D01*
Y50622D01*
X445734Y51442D01*
X446554Y53082D02*
Y54722D01*
Y53902D01*
X441635D01*
X442455Y53082D01*
Y57182D02*
X441635Y58002D01*
Y59641D01*
X442455Y60461D01*
X445734D01*
X446554Y59641D01*
Y58002D01*
X445734Y57182D01*
X442455D01*
Y65381D02*
X441635Y64561D01*
Y62921D01*
X442455Y62101D01*
X445734D01*
X446554Y62921D01*
Y64561D01*
X445734Y65381D01*
X385697Y64317D02*
X384877Y65137D01*
X383237D01*
X382417Y64317D01*
Y61037D01*
X383237Y60217D01*
X384877D01*
X385697Y61037D01*
X387336D02*
X388156Y60217D01*
X389796D01*
X390616Y61037D01*
Y64317D01*
X389796Y65137D01*
X388156D01*
X387336Y64317D01*
Y63497D01*
X388156Y62677D01*
X390616D01*
X395536Y64317D02*
X394716Y65137D01*
X393076D01*
X392256Y64317D01*
Y61037D01*
X393076Y60217D01*
X394716D01*
X395536Y61037D01*
X366012Y84002D02*
X365192Y84822D01*
X363552D01*
X362732Y84002D01*
Y80722D01*
X363552Y79902D01*
X365192D01*
X366012Y80722D01*
X367652Y84002D02*
X368471Y84822D01*
X370111D01*
X370931Y84002D01*
Y83182D01*
X370111Y82362D01*
X370931Y81542D01*
Y80722D01*
X370111Y79902D01*
X368471D01*
X367652Y80722D01*
Y81542D01*
X368471Y82362D01*
X367652Y83182D01*
Y84002D01*
X368471Y82362D02*
X370111D01*
X375851Y84002D02*
X375031Y84822D01*
X373391D01*
X372571Y84002D01*
Y80722D01*
X373391Y79902D01*
X375031D01*
X375851Y80722D01*
X443439Y71208D02*
X442619Y70389D01*
Y68749D01*
X443439Y67929D01*
X446719D01*
X447539Y68749D01*
Y70389D01*
X446719Y71208D01*
X442619Y72848D02*
Y76128D01*
X443439D01*
X446719Y72848D01*
X447539D01*
X443439Y81048D02*
X442619Y80228D01*
Y78588D01*
X443439Y77768D01*
X446719D01*
X447539Y78588D01*
Y80228D01*
X446719Y81048D01*
X309909Y128293D02*
X309089Y129113D01*
X307449D01*
X306629Y128293D01*
Y125014D01*
X307449Y124194D01*
X309089D01*
X309909Y125014D01*
X314829Y129113D02*
X313189Y128293D01*
X311549Y126654D01*
Y125014D01*
X312369Y124194D01*
X314009D01*
X314829Y125014D01*
Y125834D01*
X314009Y126654D01*
X311549D01*
X319748Y128293D02*
X318929Y129113D01*
X317289D01*
X316469Y128293D01*
Y125014D01*
X317289Y124194D01*
X318929D01*
X319748Y125014D01*
X428019Y59396D02*
X427200Y60216D01*
X425560D01*
X424740Y59396D01*
Y56116D01*
X425560Y55296D01*
X427200D01*
X428019Y56116D01*
X432939Y60216D02*
X429659D01*
Y57756D01*
X431299Y58576D01*
X432119D01*
X432939Y57756D01*
Y56116D01*
X432119Y55296D01*
X430479D01*
X429659Y56116D01*
X437859Y59396D02*
X437039Y60216D01*
X435399D01*
X434579Y59396D01*
Y56116D01*
X435399Y55296D01*
X437039D01*
X437859Y56116D01*
X366012Y77112D02*
X365192Y77932D01*
X363552D01*
X362732Y77112D01*
Y73832D01*
X363552Y73013D01*
X365192D01*
X366012Y73832D01*
X370111Y73013D02*
Y77932D01*
X367652Y75472D01*
X370931D01*
X375851Y77112D02*
X375031Y77932D01*
X373391D01*
X372571Y77112D01*
Y73832D01*
X373391Y73013D01*
X375031D01*
X375851Y73832D01*
X309909Y120419D02*
X309089Y121239D01*
X307449D01*
X306629Y120419D01*
Y117140D01*
X307449Y116320D01*
X309089D01*
X309909Y117140D01*
X311549Y120419D02*
X312369Y121239D01*
X314009D01*
X314829Y120419D01*
Y119599D01*
X314009Y118780D01*
X313189D01*
X314009D01*
X314829Y117960D01*
Y117140D01*
X314009Y116320D01*
X312369D01*
X311549Y117140D01*
X319748Y120419D02*
X318929Y121239D01*
X317289D01*
X316469Y120419D01*
Y117140D01*
X317289Y116320D01*
X318929D01*
X319748Y117140D01*
X428019Y52506D02*
X427200Y53326D01*
X425560D01*
X424740Y52506D01*
Y49226D01*
X425560Y48406D01*
X427200D01*
X428019Y49226D01*
X432939Y48406D02*
X429659D01*
X432939Y51686D01*
Y52506D01*
X432119Y53326D01*
X430479D01*
X429659Y52506D01*
X437859D02*
X437039Y53326D01*
X435399D01*
X434579Y52506D01*
Y49226D01*
X435399Y48406D01*
X437039D01*
X437859Y49226D01*
X301461Y108608D02*
X300641Y109428D01*
X299001D01*
X298181Y108608D01*
Y105329D01*
X299001Y104509D01*
X300641D01*
X301461Y105329D01*
X303101Y104509D02*
X304741D01*
X303921D01*
Y109428D01*
X303101Y108608D01*
X310480D02*
X309660Y109428D01*
X308020D01*
X307201Y108608D01*
Y105329D01*
X308020Y104509D01*
X309660D01*
X310480Y105329D01*
X206790Y165319D02*
X202691D01*
X201871Y164499D01*
Y162860D01*
X202691Y162040D01*
X206790D01*
X201871Y157940D02*
X206790D01*
X204331Y160400D01*
Y157120D01*
X206790Y155480D02*
X201871D01*
Y153020D01*
X202691Y152200D01*
X203511D01*
X204331Y153020D01*
Y155480D01*
Y153020D01*
X205151Y152200D01*
X205971D01*
X206790Y153020D01*
Y155480D01*
X406059Y312184D02*
Y308085D01*
X406879Y307265D01*
X408518D01*
X409338Y308085D01*
Y312184D01*
X413438Y307265D02*
Y312184D01*
X410978Y309724D01*
X414258D01*
X415898Y307265D02*
Y310544D01*
X417538Y312184D01*
X419178Y310544D01*
Y307265D01*
Y309724D01*
X415898D01*
X115257Y170634D02*
X120176D01*
Y168174D01*
X119356Y167354D01*
X117717D01*
X116897Y168174D01*
Y170634D01*
Y168994D02*
X115257Y167354D01*
Y163254D02*
X120176D01*
X117717Y165714D01*
Y162434D01*
X120176Y157514D02*
X119356Y159154D01*
X117717Y160794D01*
X116077D01*
X115257Y159974D01*
Y158334D01*
X116077Y157514D01*
X116897D01*
X117717Y158334D01*
Y160794D01*
X120176Y155875D02*
X115257D01*
Y153415D01*
X116077Y152595D01*
X116897D01*
X117717Y153415D01*
Y155875D01*
Y153415D01*
X118536Y152595D01*
X119356D01*
X120176Y153415D01*
Y155875D01*
X400744Y220650D02*
Y225570D01*
X403204D01*
X404024Y224750D01*
Y223110D01*
X403204Y222290D01*
X400744D01*
X402384D02*
X404024Y220650D01*
X408124D02*
Y225570D01*
X405664Y223110D01*
X408944D01*
X413864Y225570D02*
X412224Y224750D01*
X410584Y223110D01*
Y221470D01*
X411404Y220650D01*
X413044D01*
X413864Y221470D01*
Y222290D01*
X413044Y223110D01*
X410584D01*
X415503Y220650D02*
Y223930D01*
X417143Y225570D01*
X418783Y223930D01*
Y220650D01*
Y223110D01*
X415503D01*
X131989Y156854D02*
X136909D01*
Y154394D01*
X136089Y153574D01*
X134449D01*
X133629Y154394D01*
Y156854D01*
Y155214D02*
X131989Y153574D01*
Y149475D02*
X136909D01*
X134449Y151934D01*
Y148655D01*
X136909Y143735D02*
Y147015D01*
X134449D01*
X135269Y145375D01*
Y144555D01*
X134449Y143735D01*
X132809D01*
X131989Y144555D01*
Y146195D01*
X132809Y147015D01*
X136909Y142095D02*
X131989D01*
Y139635D01*
X132809Y138815D01*
X133629D01*
X134449Y139635D01*
Y142095D01*
Y139635D01*
X135269Y138815D01*
X136089D01*
X136909Y139635D01*
Y142095D01*
X414524Y237383D02*
Y242302D01*
X416984D01*
X417804Y241482D01*
Y239843D01*
X416984Y239023D01*
X414524D01*
X416164D02*
X417804Y237383D01*
X421903D02*
Y242302D01*
X419444Y239843D01*
X422723D01*
X427643Y242302D02*
X424363D01*
Y239843D01*
X426003Y240663D01*
X426823D01*
X427643Y239843D01*
Y238203D01*
X426823Y237383D01*
X425183D01*
X424363Y238203D01*
X429283Y237383D02*
Y240663D01*
X430923Y242302D01*
X432563Y240663D01*
Y237383D01*
Y239843D01*
X429283D01*
X115257Y144059D02*
X120176D01*
Y141599D01*
X119356Y140779D01*
X117717D01*
X116897Y141599D01*
Y144059D01*
Y142419D02*
X115257Y140779D01*
Y136679D02*
X120176D01*
X117717Y139139D01*
Y135859D01*
X115257Y131760D02*
X120176D01*
X117717Y134219D01*
Y130940D01*
X120176Y129300D02*
X115257D01*
Y126840D01*
X116077Y126020D01*
X116897D01*
X117717Y126840D01*
Y129300D01*
Y126840D01*
X118536Y126020D01*
X119356D01*
X120176Y126840D01*
Y129300D01*
X427319Y220650D02*
Y225570D01*
X429779D01*
X430599Y224750D01*
Y223110D01*
X429779Y222290D01*
X427319D01*
X428959D02*
X430599Y220650D01*
X434699D02*
Y225570D01*
X432239Y223110D01*
X435519D01*
X439618Y220650D02*
Y225570D01*
X437158Y223110D01*
X440438D01*
X442078Y220650D02*
Y223930D01*
X443718Y225570D01*
X445358Y223930D01*
Y220650D01*
Y223110D01*
X442078D01*
X211128Y181849D02*
Y186768D01*
X213588D01*
X214408Y185949D01*
Y184309D01*
X213588Y183489D01*
X211128D01*
X212768D02*
X214408Y181849D01*
X216048Y185949D02*
X216868Y186768D01*
X218508D01*
X219328Y185949D01*
Y185129D01*
X218508Y184309D01*
X217688D01*
X218508D01*
X219328Y183489D01*
Y182669D01*
X218508Y181849D01*
X216868D01*
X216048Y182669D01*
X220968Y186768D02*
Y181849D01*
X223427D01*
X224247Y182669D01*
Y183489D01*
X223427Y184309D01*
X220968D01*
X223427D01*
X224247Y185129D01*
Y185949D01*
X223427Y186768D01*
X220968D01*
X393528Y324649D02*
Y329569D01*
X395988D01*
X396808Y328748D01*
Y327109D01*
X395988Y326289D01*
X393528D01*
X395168D02*
X396808Y324649D01*
X398448Y328748D02*
X399268Y329569D01*
X400908D01*
X401728Y328748D01*
Y327929D01*
X400908Y327109D01*
X400088D01*
X400908D01*
X401728Y326289D01*
Y325469D01*
X400908Y324649D01*
X399268D01*
X398448Y325469D01*
X403368Y324649D02*
Y327929D01*
X405007Y329569D01*
X406647Y327929D01*
Y324649D01*
Y327109D01*
X403368D01*
X229430Y193764D02*
X234350D01*
Y191304D01*
X233530Y190484D01*
X231890D01*
X231070Y191304D01*
Y193764D01*
Y192124D02*
X229430Y190484D01*
Y185565D02*
Y188845D01*
X232710Y185565D01*
X233530D01*
X234350Y186385D01*
Y188025D01*
X233530Y188845D01*
X234350Y183925D02*
X229430D01*
Y181465D01*
X230250Y180645D01*
X231070D01*
X231890Y181465D01*
Y183925D01*
Y181465D01*
X232710Y180645D01*
X233530D01*
X234350Y181465D01*
Y183925D01*
X377614Y334824D02*
Y339743D01*
X380073D01*
X380893Y338923D01*
Y337283D01*
X380073Y336463D01*
X377614D01*
X379254D02*
X380893Y334824D01*
X385813D02*
X382533D01*
X385813Y338103D01*
Y338923D01*
X384993Y339743D01*
X383353D01*
X382533Y338923D01*
X387453Y334824D02*
Y338103D01*
X389093Y339743D01*
X390733Y338103D01*
Y334824D01*
Y337283D01*
X387453D01*
X188091Y197291D02*
X193011D01*
Y194832D01*
X192191Y194011D01*
X190551D01*
X189731Y194832D01*
Y197291D01*
Y195651D02*
X188091Y194011D01*
Y192372D02*
Y190732D01*
Y191552D01*
X193011D01*
X192191Y192372D01*
X193011Y188272D02*
X188091D01*
Y185812D01*
X188911Y184992D01*
X189731D01*
X190551Y185812D01*
Y188272D01*
Y185812D01*
X191371Y184992D01*
X192191D01*
X193011Y185812D01*
Y188272D01*
X374087Y293485D02*
Y298405D01*
X376547D01*
X377366Y297585D01*
Y295945D01*
X376547Y295125D01*
X374087D01*
X375727D02*
X377366Y293485D01*
X379006D02*
X380646D01*
X379826D01*
Y298405D01*
X379006Y297585D01*
X383106Y293485D02*
Y296765D01*
X384746Y298405D01*
X386386Y296765D01*
Y293485D01*
Y295945D01*
X383106D01*
X224028Y265168D02*
Y261069D01*
X224848Y260249D01*
X226488D01*
X227308Y261069D01*
Y265168D01*
X228948Y264349D02*
X229768Y265168D01*
X231408D01*
X232228Y264349D01*
Y263529D01*
X231408Y262709D01*
X230588D01*
X231408D01*
X232228Y261889D01*
Y261069D01*
X231408Y260249D01*
X229768D01*
X228948Y261069D01*
X233868Y265168D02*
Y260249D01*
X236327D01*
X237147Y261069D01*
Y261889D01*
X236327Y262709D01*
X233868D01*
X236327D01*
X237147Y263529D01*
Y264349D01*
X236327Y265168D01*
X233868D01*
X344621Y359940D02*
Y355840D01*
X345442Y355020D01*
X347081D01*
X347901Y355840D01*
Y359940D01*
X349541Y359120D02*
X350361Y359940D01*
X352001D01*
X352821Y359120D01*
Y358300D01*
X352001Y357480D01*
X351181D01*
X352001D01*
X352821Y356660D01*
Y355840D01*
X352001Y355020D01*
X350361D01*
X349541Y355840D01*
X354461Y355020D02*
Y358300D01*
X356101Y359940D01*
X357741Y358300D01*
Y355020D01*
Y357480D01*
X354461D01*
X241239Y193945D02*
X236320D01*
Y191485D01*
X237140Y190665D01*
X240419D01*
X241239Y191485D01*
Y193945D01*
X236320Y189025D02*
Y187385D01*
Y188205D01*
X241239D01*
X240419Y189025D01*
X241239Y184925D02*
X236320D01*
Y182466D01*
X237140Y181646D01*
X237960D01*
X238779Y182466D01*
Y184925D01*
Y182466D01*
X239599Y181646D01*
X240419D01*
X241239Y182466D01*
Y184925D01*
X377433Y346633D02*
Y341713D01*
X379893D01*
X380713Y342533D01*
Y345813D01*
X379893Y346633D01*
X377433D01*
X382353Y341713D02*
X383993D01*
X383173D01*
Y346633D01*
X382353Y345813D01*
X386453Y341713D02*
Y344993D01*
X388092Y346633D01*
X389732Y344993D01*
Y341713D01*
Y344173D01*
X386453D01*
X220734Y213204D02*
X221554Y214024D01*
Y215664D01*
X220734Y216483D01*
X217455D01*
X216635Y215664D01*
Y214024D01*
X217455Y213204D01*
X216635Y211564D02*
Y209924D01*
Y210744D01*
X221554D01*
X220734Y211564D01*
Y207464D02*
X221554Y206644D01*
Y205004D01*
X220734Y204184D01*
X219914D01*
X219094Y205004D01*
Y205824D01*
Y205004D01*
X218274Y204184D01*
X217455D01*
X216635Y205004D01*
Y206644D01*
X217455Y207464D01*
X221554Y202544D02*
X216635D01*
Y200084D01*
X217455Y199265D01*
X218274D01*
X219094Y200084D01*
Y202544D01*
Y200084D01*
X219914Y199265D01*
X220734D01*
X221554Y200084D01*
Y202544D01*
X358174Y326128D02*
X357354Y326948D01*
X355715D01*
X354894Y326128D01*
Y322848D01*
X355715Y322028D01*
X357354D01*
X358174Y322848D01*
X359814Y322028D02*
X361454D01*
X360634D01*
Y326948D01*
X359814Y326128D01*
X363914D02*
X364734Y326948D01*
X366374D01*
X367194Y326128D01*
Y325308D01*
X366374Y324488D01*
X365554D01*
X366374D01*
X367194Y323668D01*
Y322848D01*
X366374Y322028D01*
X364734D01*
X363914Y322848D01*
X368834Y322028D02*
Y325308D01*
X370474Y326948D01*
X372113Y325308D01*
Y322028D01*
Y324488D01*
X368834D01*
X146915Y174818D02*
X147735Y175638D01*
Y177278D01*
X146915Y178098D01*
X143636D01*
X142816Y177278D01*
Y175638D01*
X143636Y174818D01*
X142816Y173178D02*
Y171538D01*
Y172358D01*
X147735D01*
X146915Y173178D01*
X142816Y165798D02*
Y169078D01*
X146096Y165798D01*
X146915D01*
X147735Y166618D01*
Y168258D01*
X146915Y169078D01*
X147735Y164158D02*
X142816D01*
Y161699D01*
X143636Y160879D01*
X144456D01*
X145276Y161699D01*
Y164158D01*
Y161699D01*
X146096Y160879D01*
X146915D01*
X147735Y161699D01*
Y164158D01*
X396560Y252309D02*
X395740Y253129D01*
X394100D01*
X393280Y252309D01*
Y249029D01*
X394100Y248210D01*
X395740D01*
X396560Y249029D01*
X398200Y248210D02*
X399840D01*
X399020D01*
Y253129D01*
X398200Y252309D01*
X405580Y248210D02*
X402300D01*
X405580Y251489D01*
Y252309D01*
X404760Y253129D01*
X403120D01*
X402300Y252309D01*
X407219Y248210D02*
Y251489D01*
X408859Y253129D01*
X410499Y251489D01*
Y248210D01*
Y250669D01*
X407219D01*
X190208Y214148D02*
X189388Y214968D01*
X187748D01*
X186928Y214148D01*
Y210869D01*
X187748Y210049D01*
X189388D01*
X190208Y210869D01*
X191848Y210049D02*
X193488D01*
X192668D01*
Y214968D01*
X191848Y214148D01*
X195948Y210049D02*
X197587D01*
X196767D01*
Y214968D01*
X195948Y214148D01*
X200047Y214968D02*
Y210049D01*
X202507D01*
X203327Y210869D01*
Y211689D01*
X202507Y212509D01*
X200047D01*
X202507D01*
X203327Y213329D01*
Y214148D01*
X202507Y214968D01*
X200047D01*
X368608Y307648D02*
X367788Y308469D01*
X366148D01*
X365328Y307648D01*
Y304369D01*
X366148Y303549D01*
X367788D01*
X368608Y304369D01*
X370248Y303549D02*
X371888D01*
X371068D01*
Y308469D01*
X370248Y307648D01*
X374347Y303549D02*
X375987D01*
X375167D01*
Y308469D01*
X374347Y307648D01*
X378447Y303549D02*
Y306829D01*
X380087Y308469D01*
X381727Y306829D01*
Y303549D01*
Y306009D01*
X378447D01*
X142899Y128805D02*
X142079Y129625D01*
X140439D01*
X139619Y128805D01*
Y125525D01*
X140439Y124706D01*
X142079D01*
X142899Y125525D01*
X144539Y124706D02*
X146178D01*
X145359D01*
Y129625D01*
X144539Y128805D01*
X148638D02*
X149458Y129625D01*
X151098D01*
X151918Y128805D01*
Y125525D01*
X151098Y124706D01*
X149458D01*
X148638Y125525D01*
Y128805D01*
X153558Y129625D02*
Y124706D01*
X156018D01*
X156838Y125525D01*
Y126345D01*
X156018Y127165D01*
X153558D01*
X156018D01*
X156838Y127985D01*
Y128805D01*
X156018Y129625D01*
X153558D01*
X442573Y248292D02*
X441753Y247472D01*
Y245833D01*
X442573Y245013D01*
X445853D01*
X446672Y245833D01*
Y247472D01*
X445853Y248292D01*
X446672Y249932D02*
Y251572D01*
Y250752D01*
X441753D01*
X442573Y249932D01*
Y254032D02*
X441753Y254852D01*
Y256492D01*
X442573Y257312D01*
X445853D01*
X446672Y256492D01*
Y254852D01*
X445853Y254032D01*
X442573D01*
X446672Y258952D02*
X443393D01*
X441753Y260592D01*
X443393Y262231D01*
X446672D01*
X444213D01*
Y258952D01*
X155774Y185563D02*
X156594Y186383D01*
Y188023D01*
X155774Y188843D01*
X152494D01*
X151674Y188023D01*
Y186383D01*
X152494Y185563D01*
Y183923D02*
X151674Y183103D01*
Y181464D01*
X152494Y180644D01*
X155774D01*
X156594Y181464D01*
Y183103D01*
X155774Y183923D01*
X154954D01*
X154134Y183103D01*
Y180644D01*
X156594Y179004D02*
X151674D01*
Y176544D01*
X152494Y175724D01*
X153314D01*
X154134Y176544D01*
Y179004D01*
Y176544D01*
X154954Y175724D01*
X155774D01*
X156594Y176544D01*
Y179004D01*
X385815Y261167D02*
X384995Y261987D01*
X383355D01*
X382535Y261167D01*
Y257888D01*
X383355Y257068D01*
X384995D01*
X385815Y257888D01*
X387455D02*
X388275Y257068D01*
X389914D01*
X390734Y257888D01*
Y261167D01*
X389914Y261987D01*
X388275D01*
X387455Y261167D01*
Y260348D01*
X388275Y259528D01*
X390734D01*
X392374Y257068D02*
Y260348D01*
X394014Y261987D01*
X395654Y260348D01*
Y257068D01*
Y259528D01*
X392374D01*
X175459Y205248D02*
X176279Y206068D01*
Y207708D01*
X175459Y208528D01*
X172179D01*
X171359Y207708D01*
Y206068D01*
X172179Y205248D01*
X175459Y203608D02*
X176279Y202788D01*
Y201149D01*
X175459Y200329D01*
X174639D01*
X173819Y201149D01*
X172999Y200329D01*
X172179D01*
X171359Y201149D01*
Y202788D01*
X172179Y203608D01*
X172999D01*
X173819Y202788D01*
X174639Y203608D01*
X175459D01*
X173819Y202788D02*
Y201149D01*
X176279Y198689D02*
X171359D01*
Y196229D01*
X172179Y195409D01*
X172999D01*
X173819Y196229D01*
Y198689D01*
Y196229D01*
X174639Y195409D01*
X175459D01*
X176279Y196229D01*
Y198689D01*
X366130Y280853D02*
X365310Y281672D01*
X363670D01*
X362850Y280853D01*
Y277573D01*
X363670Y276753D01*
X365310D01*
X366130Y277573D01*
X367770Y280853D02*
X368589Y281672D01*
X370229D01*
X371049Y280853D01*
Y280032D01*
X370229Y279213D01*
X371049Y278393D01*
Y277573D01*
X370229Y276753D01*
X368589D01*
X367770Y277573D01*
Y278393D01*
X368589Y279213D01*
X367770Y280032D01*
Y280853D01*
X368589Y279213D02*
X370229D01*
X372689Y276753D02*
Y280032D01*
X374329Y281672D01*
X375969Y280032D01*
Y276753D01*
Y279213D01*
X372689D01*
X162665Y127821D02*
X161845Y128641D01*
X160205D01*
X159385Y127821D01*
Y124541D01*
X160205Y123721D01*
X161845D01*
X162665Y124541D01*
X164305Y128641D02*
X167585D01*
Y127821D01*
X164305Y124541D01*
Y123721D01*
X169225Y128641D02*
Y123721D01*
X171685D01*
X172504Y124541D01*
Y125361D01*
X171685Y126181D01*
X169225D01*
X171685D01*
X172504Y127001D01*
Y127821D01*
X171685Y128641D01*
X169225D01*
X443557Y268059D02*
X442737Y267239D01*
Y265599D01*
X443557Y264779D01*
X446837D01*
X447657Y265599D01*
Y267239D01*
X446837Y268059D01*
X442737Y269699D02*
Y272978D01*
X443557D01*
X446837Y269699D01*
X447657D01*
Y274618D02*
X444377D01*
X442737Y276258D01*
X444377Y277898D01*
X447657D01*
X445197D01*
Y274618D01*
X219750Y261351D02*
X220570Y262171D01*
Y263810D01*
X219750Y264630D01*
X216470D01*
X215650Y263810D01*
Y262171D01*
X216470Y261351D01*
X220570Y256431D02*
X219750Y258071D01*
X218110Y259711D01*
X216470D01*
X215650Y258891D01*
Y257251D01*
X216470Y256431D01*
X217290D01*
X218110Y257251D01*
Y259711D01*
X220570Y254791D02*
X215650D01*
Y252331D01*
X216470Y251511D01*
X217290D01*
X218110Y252331D01*
Y254791D01*
Y252331D01*
X218930Y251511D01*
X219750D01*
X220570Y252331D01*
Y254791D01*
X310027Y325144D02*
X309207Y325964D01*
X307568D01*
X306748Y325144D01*
Y321864D01*
X307568Y321044D01*
X309207D01*
X310027Y321864D01*
X314947Y325964D02*
X313307Y325144D01*
X311667Y323504D01*
Y321864D01*
X312487Y321044D01*
X314127D01*
X314947Y321864D01*
Y322684D01*
X314127Y323504D01*
X311667D01*
X316587Y321044D02*
Y324324D01*
X318227Y325964D01*
X319867Y324324D01*
Y321044D01*
Y323504D01*
X316587D01*
X150853Y143240D02*
X151672Y144060D01*
Y145700D01*
X150853Y146520D01*
X147573D01*
X146753Y145700D01*
Y144060D01*
X147573Y143240D01*
X151672Y138321D02*
Y141601D01*
X149213D01*
X150032Y139961D01*
Y139141D01*
X149213Y138321D01*
X147573D01*
X146753Y139141D01*
Y140781D01*
X147573Y141601D01*
X151672Y136681D02*
X146753D01*
Y134221D01*
X147573Y133401D01*
X148393D01*
X149213Y134221D01*
Y136681D01*
Y134221D01*
X150032Y133401D01*
X150853D01*
X151672Y134221D01*
Y136681D01*
X428138Y256246D02*
X427318Y257066D01*
X425678D01*
X424858Y256246D01*
Y252966D01*
X425678Y252147D01*
X427318D01*
X428138Y252966D01*
X433057Y257066D02*
X429777D01*
Y254606D01*
X431417Y255426D01*
X432237D01*
X433057Y254606D01*
Y252966D01*
X432237Y252147D01*
X430597D01*
X429777Y252966D01*
X434697Y252147D02*
Y255426D01*
X436337Y257066D01*
X437977Y255426D01*
Y252147D01*
Y254606D01*
X434697D01*
X168569Y205248D02*
X169389Y206068D01*
Y207708D01*
X168569Y208528D01*
X165289D01*
X164469Y207708D01*
Y206068D01*
X165289Y205248D01*
X164469Y201149D02*
X169389D01*
X166929Y203608D01*
Y200329D01*
X169389Y198689D02*
X164469D01*
Y196229D01*
X165289Y195409D01*
X166109D01*
X166929Y196229D01*
Y198689D01*
Y196229D01*
X167749Y195409D01*
X168569D01*
X169389Y196229D01*
Y198689D01*
X366130Y273963D02*
X365310Y274783D01*
X363670D01*
X362850Y273963D01*
Y270683D01*
X363670Y269863D01*
X365310D01*
X366130Y270683D01*
X370229Y269863D02*
Y274783D01*
X367770Y272323D01*
X371049D01*
X372689Y269863D02*
Y273143D01*
X374329Y274783D01*
X375969Y273143D01*
Y269863D01*
Y272323D01*
X372689D01*
X211876Y261351D02*
X212696Y262171D01*
Y263810D01*
X211876Y264630D01*
X208596D01*
X207776Y263810D01*
Y262171D01*
X208596Y261351D01*
X211876Y259711D02*
X212696Y258891D01*
Y257251D01*
X211876Y256431D01*
X211056D01*
X210236Y257251D01*
Y258071D01*
Y257251D01*
X209416Y256431D01*
X208596D01*
X207776Y257251D01*
Y258891D01*
X208596Y259711D01*
X212696Y254791D02*
X207776D01*
Y252331D01*
X208596Y251511D01*
X209416D01*
X210236Y252331D01*
Y254791D01*
Y252331D01*
X211056Y251511D01*
X211876D01*
X212696Y252331D01*
Y254791D01*
X310027Y317270D02*
X309207Y318090D01*
X307568D01*
X306748Y317270D01*
Y313990D01*
X307568Y313170D01*
X309207D01*
X310027Y313990D01*
X311667Y317270D02*
X312487Y318090D01*
X314127D01*
X314947Y317270D01*
Y316450D01*
X314127Y315630D01*
X313307D01*
X314127D01*
X314947Y314810D01*
Y313990D01*
X314127Y313170D01*
X312487D01*
X311667Y313990D01*
X316587Y313170D02*
Y316450D01*
X318227Y318090D01*
X319867Y316450D01*
Y313170D01*
Y315630D01*
X316587D01*
X143963Y143240D02*
X144783Y144060D01*
Y145700D01*
X143963Y146520D01*
X140683D01*
X139863Y145700D01*
Y144060D01*
X140683Y143240D01*
X139863Y138321D02*
Y141601D01*
X143143Y138321D01*
X143963D01*
X144783Y139141D01*
Y140781D01*
X143963Y141601D01*
X144783Y136681D02*
X139863D01*
Y134221D01*
X140683Y133401D01*
X141503D01*
X142323Y134221D01*
Y136681D01*
Y134221D01*
X143143Y133401D01*
X143963D01*
X144783Y134221D01*
Y136681D01*
X428138Y249356D02*
X427318Y250176D01*
X425678D01*
X424858Y249356D01*
Y246077D01*
X425678Y245257D01*
X427318D01*
X428138Y246077D01*
X433057Y245257D02*
X429777D01*
X433057Y248536D01*
Y249356D01*
X432237Y250176D01*
X430597D01*
X429777Y249356D01*
X434697Y245257D02*
Y248536D01*
X436337Y250176D01*
X437977Y248536D01*
Y245257D01*
Y247716D01*
X434697D01*
X200065Y263106D02*
X200885Y263926D01*
Y265566D01*
X200065Y266386D01*
X196785D01*
X195965Y265566D01*
Y263926D01*
X196785Y263106D01*
X195965Y261466D02*
Y259826D01*
Y260646D01*
X200885D01*
X200065Y261466D01*
X200885Y257366D02*
X195965D01*
Y254907D01*
X196785Y254087D01*
X197605D01*
X198425Y254907D01*
Y257366D01*
Y254907D01*
X199245Y254087D01*
X200065D01*
X200885Y254907D01*
Y257366D01*
X310122Y305774D02*
X309302Y306594D01*
X307663D01*
X306842Y305774D01*
Y302494D01*
X307663Y301674D01*
X309302D01*
X310122Y302494D01*
X311762Y301674D02*
X313402D01*
X312582D01*
Y306594D01*
X311762Y305774D01*
X315862Y301674D02*
Y304954D01*
X317502Y306594D01*
X319142Y304954D01*
Y301674D01*
Y304134D01*
X315862D01*
X-27559Y118110D02*
Y123030D01*
X-25099D01*
X-24279Y122210D01*
Y120570D01*
X-25099Y119750D01*
X-27559D01*
X-25919D02*
X-24279Y118110D01*
X-20180D02*
Y123030D01*
X-22639Y120570D01*
X-19360D01*
X-17720Y118930D02*
X-16900Y118110D01*
X-15260D01*
X-14440Y118930D01*
Y122210D01*
X-15260Y123030D01*
X-16900D01*
X-17720Y122210D01*
Y121390D01*
X-16900Y120570D01*
X-14440D01*
D15*
X53839Y338957D02*
Y353957D01*
M02*
