M48
;Layer_Color=9474304
;FILE_FORMAT=2:4
INCH,TZ
;TYPE=PLATED
T1F00S00C0.0118
T2F00S00C0.0177
T3F00S00C0.0295
T4F00S00C0.0400
%
T01
X3583Y3228
X6929Y2756
X7559Y5197
X39925Y3413
X41211Y3413
X42490
X43799
X44213Y4299
X46013Y4251
Y3601
Y2951
X47245Y2960
Y3609
Y4259
Y4909
X48474Y4909
Y4259
Y3610
Y2960
X46013Y4901
Y5550
X46013Y6200
X46013Y6850
X46013Y7499
Y8149
Y8799
Y9449
Y10098
X46013Y10748
X46013Y11398
Y12047
Y12697
X46022Y13347
X46013Y13996
X46013Y14646
X46013Y15296
X47245Y15304
X47245Y14654
X47245Y14005
X47255Y13355
X47245Y12705
Y12055
Y11406
X47245Y10756
X47245Y10106
Y9457
Y8807
Y8157
Y7507
X47245Y6858
X47245Y6208
X47245Y5558
X48474Y5559
Y6209
Y6858
Y7508
Y8158
Y8807
Y9457
Y10107
Y10757
Y11406
Y12056
Y12706
Y13355
Y14005
Y14655
Y15304
X40461Y12590
X40079Y9319
Y8827
X38742Y9057
X38898Y8236
X37823Y8583
X37042Y8153
X36555Y8187
X37421Y7547
X36642Y10551
X40650Y6440
X24444Y8646
X23795
X23145
X22495
X21846
X21196
X20546
X19897
X19247
X18597
X17947
X17298
X16648
X15998
X15349
X14699
X14049
X13399
X13410Y9882
X14060
X14710
X15359Y9882
X16009Y9882
X16659Y9882
X17309
X17958
X18608
X19258
X19907Y9882
X20557Y9882
X21207
X21856
X22506Y9873
X23156Y9882
X23806Y9882
X24455Y9882
X24442Y11113
X23792Y11113
X23142Y11113
X22492Y11104
X21843Y11113
X21193
X20543
X19894Y11113
X19244Y11113
X18594
X17944
X17295
X16645
X15995Y11113
X15346Y11113
X14696Y11113
X14046
X13397
X13445Y12913
X15585Y16476
X17972Y17047
X18465
X18203Y18384
X17382Y18228
X17728Y19303
X17298Y20084
X17333Y20571
X16693Y19705
X19697Y20484
X21735Y16665
X12558Y17201
X12559Y15915
Y14636
Y13327
X12747Y11113
X12097
X12111Y9882
X12761
X12750Y8646
X12100
X8630Y9520
X7630
X6630
X5630
X4630
X3630
X2648Y6644
X1614Y7205
X787Y11929
X472Y12205
X-276Y11929
X3937Y16142
Y17717
Y19291
Y20866
X5516Y17326
X5512Y15354
X5315Y5315
X6614Y5276
X-2677Y11417
X-3976Y11654
Y13228
Y14173
Y15079
X-2638Y13504
X-3780Y26142
X-3783Y26768
X-4055Y27953
X3937Y28740
X3947Y27165
Y25591
X3937Y24016
Y22441
X5520Y22054
X5539Y26831
X19331Y26201
X30937Y24181
X33228Y22323
X39936Y23098
X41222Y23098
X42502
X43811
X44224Y23984
X40661Y26125
X40091Y28512
Y29004
X38753Y28742
X38909Y27921
X37835Y28268
X37054Y27838
X36567Y27872
X37433Y27232
X36654Y30236
X40472Y32275
X30937Y29870
X46024Y29783
Y29134
Y28484
Y27834
Y27184
X46024Y26535
X46024Y25885
X46024Y25235
Y24586
Y23936
Y23286
Y22636
X47267Y22649
Y23299
Y23949
Y24598
Y25248
X47267Y25898
X47267Y26548
X47267Y27197
Y27847
Y28497
Y29146
Y29796
X47267Y30446
X47267Y31096
Y31745
Y32395
X47277Y33045
X47267Y33694
X47267Y34344
X47267Y34994
X48499Y34993
Y34343
Y33693
Y33043
Y32394
Y31744
Y31094
Y30445
Y29795
Y29145
Y28496
Y27846
Y27196
Y26546
Y25897
Y25247
Y24597
Y23948
Y23298
Y22648
X46024Y30433
X46024Y31083
Y31732
Y32382
X46034Y33032
X46024Y33681
X46024Y34331
X46024Y34981
T02
X-2756Y28051
T03
X32272Y13748
X33272
X34272
X35272
X11827Y34433
X10827
X9827
X8827
X22894Y24854
Y23854
Y22854
Y21854
X32283Y33433
X33283
X34283
X35283
T04
X11968Y4827
X12968
X13968
X14969
X15969
X16968
X17968
X18968
X19969
X20968
X21969
X22968
X23969
X24969
X25968
X52087Y4823
X53087
Y3823
Y2823
X52087
Y3823
Y5823
X53087
Y6823
Y7823
Y8823
Y9823
Y10823
Y11823
Y12823
Y13823
Y14823
Y15823
Y16823
X52087
Y15823
Y14823
Y13823
Y12823
Y11823
Y10823
Y9823
Y8823
Y7823
Y6823
X25968Y5827
X24969
X23969
X22968
X21969
X20968
X19969
X18968
X17968
X16968
X15969
X14969
X13968
X12968
X11968
X52098Y22508
X53098
Y23508
Y24508
Y25508
Y26508
Y27508
Y28508
Y29508
Y30508
Y31508
Y32508
Y33508
Y34508
Y35508
X52098
Y34508
Y33508
Y32508
Y31508
Y30508
Y29508
Y28508
Y27508
Y26508
Y25508
Y24508
Y23508
Y36508
X53098
M30
