G04*
G04 #@! TF.GenerationSoftware,Altium Limited,Altium Designer,24.0.1 (36)*
G04*
G04 Layer_Color=16711935*
%FSLAX25Y25*%
%MOIN*%
G70*
G04*
G04 #@! TF.SameCoordinates,A833F8D6-3B20-46F2-84F7-DFC67FD316FD*
G04*
G04*
G04 #@! TF.FilePolarity,Positive*
G04*
G01*
G75*
%ADD14C,0.01000*%
%ADD72C,0.00394*%
D14*
X11541Y393701D02*
X10546Y393657D01*
X9558Y393527D01*
X8586Y393312D01*
X7636Y393012D01*
X6716Y392631D01*
X5832Y392171D01*
X4992Y391636D01*
X4202Y391030D01*
X3468Y390357D01*
X2795Y389622D01*
X2188Y388832D01*
X1653Y387992D01*
X1193Y387109D01*
X812Y386188D01*
X513Y385239D01*
X297Y384266D01*
X167Y383278D01*
X123Y382283D01*
X555673D02*
X555630Y383278D01*
X555500Y384266D01*
X555284Y385239D01*
X554985Y386188D01*
X554603Y387109D01*
X554144Y387992D01*
X553608Y388832D01*
X553002Y389622D01*
X552329Y390357D01*
X551595Y391030D01*
X550805Y391636D01*
X549965Y392171D01*
X549081Y392631D01*
X548161Y393012D01*
X547211Y393312D01*
X546239Y393527D01*
X545251Y393657D01*
X544256Y393701D01*
X544256Y-0D02*
X545251Y43D01*
X546239Y173D01*
X547211Y389D01*
X548161Y689D01*
X549081Y1070D01*
X549965Y1530D01*
X550805Y2065D01*
X551595Y2671D01*
X552329Y3344D01*
X553002Y4078D01*
X553608Y4869D01*
X554144Y5709D01*
X554603Y6592D01*
X554985Y7512D01*
X555284Y8462D01*
X555500Y9435D01*
X555630Y10422D01*
X555673Y11417D01*
X-0D02*
X43Y10422D01*
X173Y9435D01*
X389Y8462D01*
X689Y7512D01*
X1070Y6592D01*
X1530Y5709D01*
X2065Y4869D01*
X2671Y4078D01*
X3344Y3344D01*
X4078Y2671D01*
X4869Y2065D01*
X5709Y1530D01*
X6592Y1070D01*
X7512Y689D01*
X8462Y389D01*
X9435Y174D01*
X10422Y43D01*
X11417Y0D01*
X-37953Y185791D02*
X-36970Y185895D01*
X-36031Y186200D01*
X-35176Y186694D01*
X-34442Y187355D01*
X-33861Y188154D01*
X-33459Y189056D01*
X-33254Y190022D01*
Y191010D01*
X-33459Y191976D01*
X-33861Y192878D01*
X-34442Y193677D01*
X-35176Y194338D01*
X-36031Y194832D01*
X-36970Y195137D01*
X-37953Y195240D01*
X-27847Y300492D02*
X-28308Y301606D01*
X-29421Y302067D01*
X-38791Y284350D02*
X-37772Y284485D01*
X-36822Y284878D01*
X-36007Y285504D01*
X-35381Y286319D01*
X-34988Y287268D01*
X-34854Y288287D01*
Y105413D02*
X-34988Y106432D01*
X-35381Y107382D01*
X-36007Y108197D01*
X-36822Y108823D01*
X-37772Y109216D01*
X-38791Y109350D01*
X-29421Y91634D02*
X-28308Y92095D01*
X-27847Y93209D01*
Y298130D02*
X-27712Y297111D01*
X-27319Y296161D01*
X-26693Y295346D01*
X-25878Y294720D01*
X-24928Y294327D01*
X-23910Y294193D01*
Y99508D02*
X-24928Y99374D01*
X-25878Y98980D01*
X-26693Y98355D01*
X-27319Y97539D01*
X-27712Y96590D01*
X-27847Y95571D01*
X555673Y11417D02*
X555673Y382283D01*
X11417Y0D02*
X544256D01*
X11541Y393701D02*
X544256Y393701D01*
X-23858Y99472D02*
X-0D01*
Y11417D02*
Y99472D01*
X11417Y0D02*
Y0D01*
X123Y294193D02*
Y382283D01*
X-23910Y294193D02*
X123D01*
X-27847Y298130D02*
Y300492D01*
X-34803Y302067D02*
X-29421D01*
X-34803Y288252D02*
Y302067D01*
X-58425Y284315D02*
X-38740D01*
X-58425Y195240D02*
Y284315D01*
Y195240D02*
X-37953D01*
X-58425Y185791D02*
X-37953D01*
X-58425Y109350D02*
Y185791D01*
Y109350D02*
X-38791D01*
X-34803Y91598D02*
Y105378D01*
X-27795Y93209D02*
Y95571D01*
X-27847D02*
X-27795D01*
X-27847Y93209D02*
X-27795D01*
X-34803Y91598D02*
X-29421D01*
D72*
X46075Y41103D02*
Y39135D01*
X46468Y38742D01*
X47256D01*
X47649Y39135D01*
Y41103D01*
X48436Y38742D02*
X49223D01*
X48830D01*
Y41103D01*
X48436Y40710D01*
M02*
