G04*
G04 #@! TF.GenerationSoftware,Altium Limited,Altium Designer,23.6.0 (18)*
G04*
G04 Layer_Color=16711935*
%FSLAX25Y25*%
%MOIN*%
G70*
G04*
G04 #@! TF.SameCoordinates,B2CDCA7D-E20D-49F2-B57F-152AFB45F96A*
G04*
G04*
G04 #@! TF.FilePolarity,Negative*
G04*
G01*
G75*
%ADD34R,0.11417X0.02559*%
%ADD53C,0.06600*%
%ADD54C,0.06706*%
%ADD55C,0.03162*%
%ADD56C,0.02769*%
%ADD57C,0.04737*%
D34*
X-48976Y280280D02*
D03*
Y277130D02*
D03*
Y273980D02*
D03*
Y270831D02*
D03*
Y267681D02*
D03*
Y264531D02*
D03*
Y261382D02*
D03*
Y258232D02*
D03*
Y255083D02*
D03*
Y251933D02*
D03*
Y248783D02*
D03*
Y245634D02*
D03*
Y242484D02*
D03*
Y239335D02*
D03*
Y236185D02*
D03*
Y233035D02*
D03*
Y229886D02*
D03*
Y226736D02*
D03*
Y223587D02*
D03*
Y220437D02*
D03*
Y217287D02*
D03*
Y214138D02*
D03*
Y210988D02*
D03*
Y207839D02*
D03*
Y204689D02*
D03*
Y201539D02*
D03*
Y198390D02*
D03*
Y182642D02*
D03*
Y179492D02*
D03*
Y176343D02*
D03*
Y173193D02*
D03*
Y170043D02*
D03*
Y166894D02*
D03*
Y163744D02*
D03*
Y160594D02*
D03*
Y157445D02*
D03*
Y154295D02*
D03*
Y151146D02*
D03*
Y147996D02*
D03*
Y144846D02*
D03*
Y141697D02*
D03*
Y138547D02*
D03*
Y135398D02*
D03*
Y132248D02*
D03*
Y129098D02*
D03*
Y125949D02*
D03*
Y122799D02*
D03*
Y119650D02*
D03*
Y116500D02*
D03*
Y113350D02*
D03*
D53*
X530866Y168228D02*
D03*
Y158228D02*
D03*
Y148228D02*
D03*
Y138228D02*
D03*
Y128228D02*
D03*
Y118228D02*
D03*
Y108228D02*
D03*
Y98228D02*
D03*
Y88228D02*
D03*
Y78228D02*
D03*
Y68228D02*
D03*
Y58228D02*
D03*
Y48228D02*
D03*
Y38228D02*
D03*
Y28228D02*
D03*
X520866Y168228D02*
D03*
Y158228D02*
D03*
Y148228D02*
D03*
Y138228D02*
D03*
Y128228D02*
D03*
Y118228D02*
D03*
Y108228D02*
D03*
Y98228D02*
D03*
Y88228D02*
D03*
Y78228D02*
D03*
Y68228D02*
D03*
Y58228D02*
D03*
Y48228D02*
D03*
Y38228D02*
D03*
Y28228D02*
D03*
X259685Y48268D02*
D03*
X249685D02*
D03*
X239685D02*
D03*
X229685D02*
D03*
X219685D02*
D03*
X209685D02*
D03*
X199685D02*
D03*
X189685D02*
D03*
X179685D02*
D03*
X169685D02*
D03*
X159685D02*
D03*
X149685D02*
D03*
X139685D02*
D03*
X129685D02*
D03*
X119685D02*
D03*
X259685Y58268D02*
D03*
X249685D02*
D03*
X239685D02*
D03*
X229685D02*
D03*
X219685D02*
D03*
X209685D02*
D03*
X199685D02*
D03*
X189685D02*
D03*
X179685D02*
D03*
X169685D02*
D03*
X159685D02*
D03*
X149685D02*
D03*
X139685D02*
D03*
X129685D02*
D03*
X119685D02*
D03*
X530984Y365079D02*
D03*
Y355079D02*
D03*
Y345079D02*
D03*
Y335079D02*
D03*
Y325079D02*
D03*
Y315079D02*
D03*
Y305079D02*
D03*
Y295079D02*
D03*
Y285079D02*
D03*
Y275079D02*
D03*
Y265079D02*
D03*
Y255079D02*
D03*
Y245079D02*
D03*
Y235079D02*
D03*
Y225079D02*
D03*
X520984Y365079D02*
D03*
Y355079D02*
D03*
Y345079D02*
D03*
Y335079D02*
D03*
Y325079D02*
D03*
Y315079D02*
D03*
Y305079D02*
D03*
Y295079D02*
D03*
Y285079D02*
D03*
Y275079D02*
D03*
Y265079D02*
D03*
Y255079D02*
D03*
Y245079D02*
D03*
Y235079D02*
D03*
Y225079D02*
D03*
D54*
X88268Y344331D02*
D03*
X98268D02*
D03*
X108268D02*
D03*
X118268D02*
D03*
X322835Y334331D02*
D03*
X332835D02*
D03*
X342835D02*
D03*
X352835D02*
D03*
X228937Y248543D02*
D03*
Y238543D02*
D03*
Y228543D02*
D03*
Y218543D02*
D03*
X352717Y137480D02*
D03*
X342717D02*
D03*
X332717D02*
D03*
X322717D02*
D03*
D55*
X-40551Y279528D02*
D03*
X-39764Y150787D02*
D03*
Y141732D02*
D03*
Y132283D02*
D03*
Y116535D02*
D03*
X35827Y32283D02*
D03*
X75590Y51968D02*
D03*
X53150Y53150D02*
D03*
D56*
X-2756Y119291D02*
D03*
X4724Y122047D02*
D03*
X7874Y119291D02*
D03*
X66142Y52756D02*
D03*
X69291Y27559D02*
D03*
X-26772Y114173D02*
D03*
X-26378Y135039D02*
D03*
X-37831Y267681D02*
D03*
X55392Y268307D02*
D03*
X55198Y220537D02*
D03*
X56299Y95197D02*
D03*
X86299D02*
D03*
X76299D02*
D03*
X66299D02*
D03*
X46299D02*
D03*
X36299D02*
D03*
X16142Y72047D02*
D03*
X26476Y66437D02*
D03*
X39370Y287402D02*
D03*
X-37795Y261417D02*
D03*
X55163Y173265D02*
D03*
X55118Y153543D02*
D03*
X472672Y349938D02*
D03*
Y310955D02*
D03*
Y323949D02*
D03*
Y226493D02*
D03*
Y239487D02*
D03*
X472770Y330446D02*
D03*
X472672Y258979D02*
D03*
X472672Y304458D02*
D03*
X472672Y265476D02*
D03*
X472672Y291464D02*
D03*
Y271973D02*
D03*
X472672Y343441D02*
D03*
X472672Y232990D02*
D03*
Y252482D02*
D03*
Y278470D02*
D03*
Y317452D02*
D03*
Y245985D02*
D03*
Y336944D02*
D03*
Y297961D02*
D03*
Y284967D02*
D03*
X484988Y297949D02*
D03*
Y310943D02*
D03*
Y317441D02*
D03*
Y232979D02*
D03*
Y323938D02*
D03*
Y245973D02*
D03*
Y336932D02*
D03*
Y252470D02*
D03*
Y291452D02*
D03*
Y349926D02*
D03*
Y258967D02*
D03*
Y304446D02*
D03*
Y343429D02*
D03*
Y226482D02*
D03*
Y271961D02*
D03*
Y278458D02*
D03*
Y265464D02*
D03*
Y239476D02*
D03*
Y284955D02*
D03*
Y330435D02*
D03*
X484744Y114062D02*
D03*
Y127056D02*
D03*
Y36097D02*
D03*
Y75080D02*
D03*
Y133553D02*
D03*
Y68583D02*
D03*
Y81577D02*
D03*
Y62086D02*
D03*
Y120559D02*
D03*
Y55589D02*
D03*
Y42594D02*
D03*
Y140050D02*
D03*
Y146547D02*
D03*
Y107565D02*
D03*
Y49092D02*
D03*
Y29600D02*
D03*
Y153045D02*
D03*
Y88074D02*
D03*
Y94571D02*
D03*
Y101068D02*
D03*
X472451Y101063D02*
D03*
Y94566D02*
D03*
Y36092D02*
D03*
Y127051D02*
D03*
X472550Y133548D02*
D03*
X472452Y146542D02*
D03*
X472452Y68577D02*
D03*
X472451Y81572D02*
D03*
X472452Y62081D02*
D03*
X472451Y42589D02*
D03*
Y49086D02*
D03*
Y140045D02*
D03*
Y29595D02*
D03*
Y55583D02*
D03*
Y120554D02*
D03*
Y75075D02*
D03*
Y114057D02*
D03*
Y153039D02*
D03*
Y88069D02*
D03*
X472452Y107560D02*
D03*
X173085Y98824D02*
D03*
X147097D02*
D03*
X160091Y98824D02*
D03*
X212068Y98824D02*
D03*
X225062Y98726D02*
D03*
X127606Y98824D02*
D03*
X218565D02*
D03*
X166588D02*
D03*
X153594Y98824D02*
D03*
X192576Y98824D02*
D03*
X205571D02*
D03*
X179582D02*
D03*
X231559D02*
D03*
X199074Y98824D02*
D03*
X121109Y98824D02*
D03*
X140600D02*
D03*
X134103D02*
D03*
X238056Y98824D02*
D03*
X186079Y98824D02*
D03*
X244553D02*
D03*
X192468Y86459D02*
D03*
X153486D02*
D03*
X237948D02*
D03*
X231451D02*
D03*
X127497D02*
D03*
X133995D02*
D03*
X224954D02*
D03*
X159983D02*
D03*
X205462D02*
D03*
X166480D02*
D03*
X172977D02*
D03*
X198965D02*
D03*
X140492D02*
D03*
X244445D02*
D03*
X218457D02*
D03*
X185971D02*
D03*
X146989D02*
D03*
X121001D02*
D03*
X211959D02*
D03*
X179474D02*
D03*
X332283Y223228D02*
D03*
X193307Y262008D02*
D03*
X120971Y111135D02*
D03*
X125591Y133268D02*
D03*
X127468Y111135D02*
D03*
X125591Y146358D02*
D03*
X133965Y111135D02*
D03*
X125591Y159154D02*
D03*
X146959Y111135D02*
D03*
X153456Y111135D02*
D03*
X159953Y111135D02*
D03*
X166451Y111135D02*
D03*
X172948D02*
D03*
X179445D02*
D03*
X185942D02*
D03*
X192439D02*
D03*
X198936Y111135D02*
D03*
X205433Y111135D02*
D03*
X211930D02*
D03*
X218427D02*
D03*
X224924Y111036D02*
D03*
X231421Y111135D02*
D03*
X237918Y111135D02*
D03*
X244415Y111135D02*
D03*
X155855Y164764D02*
D03*
X196968Y204842D02*
D03*
X177284Y193032D02*
D03*
X173819Y182283D02*
D03*
X184646Y170472D02*
D03*
X173327Y205708D02*
D03*
X182027Y183845D02*
D03*
X172982Y200837D02*
D03*
X179724Y170472D02*
D03*
X166929Y197047D02*
D03*
X140462Y111135D02*
D03*
X125582Y172014D02*
D03*
X217355Y166654D02*
D03*
X134449Y129134D02*
D03*
X460125Y29514D02*
D03*
X437992Y34134D02*
D03*
X460125Y36011D02*
D03*
X424902Y34134D02*
D03*
X460125Y42508D02*
D03*
X412106Y34134D02*
D03*
X460125Y55503D02*
D03*
X460125Y62000D02*
D03*
X460125Y68497D02*
D03*
X460125Y74994D02*
D03*
Y81491D02*
D03*
Y87988D02*
D03*
Y94485D02*
D03*
Y100982D02*
D03*
X460125Y107479D02*
D03*
X460125Y113976D02*
D03*
Y120473D02*
D03*
Y126970D02*
D03*
X460223Y133467D02*
D03*
X460125Y139964D02*
D03*
X460125Y146462D02*
D03*
X460125Y152959D02*
D03*
X406496Y64398D02*
D03*
X366417Y105512D02*
D03*
X378228Y85827D02*
D03*
X388976Y82362D02*
D03*
X400787Y93189D02*
D03*
X365552Y81870D02*
D03*
X387415Y90571D02*
D03*
X370423Y81526D02*
D03*
X400787Y88268D02*
D03*
X374213Y75472D02*
D03*
X460125Y49005D02*
D03*
X399246Y34125D02*
D03*
X404606Y125898D02*
D03*
X442126Y42992D02*
D03*
X39370Y240158D02*
D03*
X39469Y255906D02*
D03*
X39370Y161417D02*
D03*
X39469Y271654D02*
D03*
X39370Y224410D02*
D03*
Y177165D02*
D03*
Y208661D02*
D03*
Y192913D02*
D03*
X438110Y230984D02*
D03*
X425020D02*
D03*
X412224D02*
D03*
X399364Y230976D02*
D03*
X404724Y322748D02*
D03*
X378346Y282677D02*
D03*
X366535Y302362D02*
D03*
X309370Y298701D02*
D03*
X309370Y241811D02*
D03*
X387533Y287421D02*
D03*
X374331Y272323D02*
D03*
X370541Y278376D02*
D03*
X365670Y278720D02*
D03*
X406614Y261248D02*
D03*
X442244Y239843D02*
D03*
X460243Y297832D02*
D03*
Y310826D02*
D03*
Y278341D02*
D03*
Y284838D02*
D03*
Y291335D02*
D03*
X460243Y304330D02*
D03*
X460342Y330318D02*
D03*
X460243Y343312D02*
D03*
X460243Y317324D02*
D03*
Y323821D02*
D03*
Y349809D02*
D03*
Y336815D02*
D03*
Y271844D02*
D03*
Y226365D02*
D03*
Y232862D02*
D03*
Y239359D02*
D03*
Y245856D02*
D03*
Y252353D02*
D03*
X460243Y265347D02*
D03*
X460243Y258850D02*
D03*
X400906Y285118D02*
D03*
Y290039D02*
D03*
X389094Y279213D02*
D03*
D57*
X-27559Y280512D02*
D03*
M02*
